<?xml version="1.0" encoding="utf-8"?>
<!-- Generator: Adobe Illustrator 27.0.0, SVG Export Plug-In . SVG Version: 6.00 Build 0)  -->
<svg version="1.1" id="Layer_1" xmlns="http://www.w3.org/2000/svg" xmlns:xlink="http://www.w3.org/1999/xlink" x="0px" y="0px"
	 viewBox="0 0 610.2 398.1" style="enable-background:new 0 0 610.2 398.1;" xml:space="preserve">
<style type="text/css">
	.st0{fill:#FFFFFF;}
	.st1{fill:#36A9E1;}
	.st2{fill:#FCEA10;}
</style>
<path class="st0" d="M429,344c0,2.6-0.1,4.4-1,6c-1.5,2.8-4,4.2-7.1,4.4c-5.6,0.4-10.3-1.3-13.5-6.1c-0.8-1.2-1.5-2.5-2.1-3.9
	c-1.8-4,0.1-6.7,3-8.6c2.1-1.3,4.5-2.5,6.9-3c3.8-0.9,7.5,0.1,10.2,3C427.7,338.4,429.3,341.3,429,344z"/>
<path class="st1" d="M430.6,345.7c0-4.9-0.4-6.2-3.1-10.1c-2.8-4-6.9-5.2-11.4-4.7c-3.5,0.4-6.7,2.1-9.5,4.2c-2.5,1.9-3.9,4.6-3.3,8
	c0.5,2.5,1.5,4.7,3.1,6.8c3.4,4.6,8,6.9,13.6,6.7c3.9-0.2,7.4-1.7,9.5-5.4C430.5,349.3,430.4,347.2,430.6,345.7z"/>
<path d="M430.6,345.7c-0.2,1.5-0.1,3.6-1.1,5.5c-2.1,3.7-5.6,5.3-9.5,5.4c-5.6,0.2-10.2-2.1-13.6-6.7c-1.5-2.1-2.6-4.3-3.1-6.8
	c-0.6-3.4,0.8-6.1,3.3-8c2.8-2.1,6-3.8,9.5-4.2c4.5-0.5,8.6,0.7,11.4,4.7C430.2,339.5,430.6,340.8,430.6,345.7z M429,344
	c0.3-2.8-1.3-5.7-3.6-8.1c-2.7-3-6.4-3.9-10.2-3c-2.4,0.6-4.8,1.7-6.9,3c-3,1.9-4.8,4.5-3,8.6c0.6,1.3,1.3,2.7,2.1,3.9
	c3.2,4.8,7.9,6.5,13.5,6.1c3.1-0.2,5.5-1.6,7.1-4.4C428.9,348.4,429,346.7,429,344z"/>
<path class="st0" d="M74.1,233.7c1.2,0,2.1-0.5,2.8-1.5c0.5-0.8,1.1-1.5,1.6-2.3c2.7-4.4,2.7-8.9,0.2-13.2
	c-2.5-4.4-8.7-6.6-14.1-5.5c-0.5,0.1-1.1,0.4-1.6,0.4c-2.4,0.3-4.1,1.6-5.5,3.5c-0.6,0.7-1.2,1.4-1.9,2.2c-4.6-3.4-9.3-4.9-14.8-2.8
	c-5.4,2.1-8.5,5.9-9,11.4c-3.1-0.8-5.9-1.6-8.7-2.4c-5.6-1.5-10.2,0.5-14.3,4.1c-2.3,2-3.1,4.8-4,7.5c-1.8,5.4-0.7,10,3.2,14.1
	c0.3,0.4,0.5,0.9,0.8,1.3c-1.3,1.1-2.7,1.8-3.5,3c-3.3,4.8-4.4,10-2.5,15.6c0.8,2.5,2,4.9,3,7.5c-0.9,1-1.7,2.1-2.6,3.2
	c-2.1,2.4-3.3,5.4-3,8.5c0.6,5.8,1.3,11.6,6.7,15.6c3.4,2.5,6.6,3.9,10.8,2.9c0.6-0.2,1.2-0.2,2-0.4c0.3,1,0.4,2,0.8,2.8
	c1,2.1,1.7,4.4,3.1,6.1c1.6,1.8,3.7,3.2,6.1,4.3c6.4,3,13.7,0,15.9-6.5c0.6-1.8,1.4-3.6,2.1-5.5c0.5,0.3,0.9,0.6,1.3,0.8
	c5.5,3.1,12.8,1.8,16.4-1.8c2.5-2.5,4.8-5.2,5.8-8.7c0.2-0.9,0.8-1.8,1.3-2.9c0.7,0.9,1.1,1.5,1.5,2c1.6,1.9,3.8,2.4,6.1,1.8
	c2.2-0.6,4.1-1.8,5.3-3.8c2.4-4.1,4.1-8.3,3.6-13.2c-0.3-2.5-0.5-4.9-0.8-7.5c1-0.6,2.2-1.3,3.4-2c3-2,5.6-4.5,6.4-8.1
	c1.5-6.7,0.6-13-5-17.8c-3.7-3.2-8.8-4.3-13.1-1.6c-0.5,0.3-1,0.7-1.7,1.2C77.4,241.2,76.6,237.1,74.1,233.7L74.1,233.7z"/>
<path class="st0" d="M81,338c-0.7-1.8-1.2-3.4-1.9-4.9c-2.7-5.9-5.4-11.8-8.1-17.7c-0.5-1.1-1.4-2-2.1-3.1c-1.4,1.2-1.1,2.1-0.5,3.2
	c4,7.7,7.5,15.7,10.7,23.8c0.6,1.4,1.1,1.7,2.5,1.3c0.8-0.3,1.5-0.7,2.3-0.9c2.7-0.4,5.5-0.8,8.3-1.1c1.5-0.2,2.1-0.9,1.9-2.7
	C89.7,336.1,85.4,336.5,81,338z"/>
<path class="st0" d="M35.3,323.5c-0.2-0.1-0.4-0.1-0.6-0.2c-1.1,1.1-1.3,2.7-1.4,4.2c-0.1,1.5-0.1,3-0.2,4.5
	c-0.5,4.7-1,9.4-1.5,14.1c-0.1,1.1-0.4,1.9-1.7,2.1c-3.4,0.6-6.7,1.3-10.2,1.1c-1-0.1-2,0.2-3,0.4c-1,0.3-1.5,1-1.2,2.2
	c0.5,0,1.1,0.1,1.6,0.1c3.9,0.1,7.7-0.6,11.6-1.1c4.1-0.5,4.3-1.5,4.6-4.6c0.5-4.7,1.1-9.4,1.5-14.1
	C35.1,329.4,35.2,326.4,35.3,323.5z"/>
<path d="M74.1,233.6c2.5,3.5,3.3,7.6,3.9,12.1c0.7-0.5,1.2-0.9,1.7-1.2c4.3-2.7,9.4-1.6,13.1,1.6c5.6,4.8,6.4,11.1,5,17.8
	c-0.8,3.6-3.4,6.1-6.4,8.1c-1.2,0.8-2.4,1.4-3.4,2c0.3,2.6,0.5,5,0.8,7.5c0.5,4.9-1.2,9.1-3.6,13.2c-1.2,2-3.1,3.2-5.3,3.8
	c-2.3,0.6-4.5,0.1-6.1-1.8c-0.5-0.6-0.9-1.2-1.5-2c-0.5,1.1-1,2-1.3,2.9c-0.9,3.6-3.3,6.3-5.8,8.7c-3.6,3.6-10.9,4.9-16.4,1.8
	c-0.4-0.2-0.8-0.5-1.3-0.8c-0.7,1.9-1.5,3.7-2.1,5.5c-2.2,6.5-9.5,9.5-15.9,6.5c-2.3-1.1-4.5-2.5-6.1-4.3c-1.5-1.7-2.2-4-3.1-6.1
	c-0.4-0.8-0.5-1.7-0.8-2.8c-0.8,0.2-1.4,0.2-2,0.4c-4.1,1.1-7.4-0.3-10.8-2.9c-5.4-4-6-9.8-6.7-15.6c-0.3-3.1,0.9-6,3-8.5
	c0.9-1.1,1.8-2.1,2.6-3.2c-1-2.5-2.2-4.9-3-7.5c-1.9-5.6-0.7-10.8,2.5-15.6c0.8-1.2,2.2-1.9,3.5-3c-0.2-0.4-0.4-0.9-0.8-1.3
	c-3.9-4.1-5-8.7-3.2-14.1c0.9-2.8,1.7-5.5,4-7.5c4.1-3.6,8.7-5.6,14.3-4.1c2.8,0.8,5.7,1.5,8.7,2.4c0.6-5.4,3.7-9.3,9-11.4
	c5.5-2.1,10.2-0.6,14.8,2.8c0.7-0.8,1.3-1.4,1.9-2.2c1.4-1.8,3.1-3.2,5.5-3.5c0.5-0.1,1.1-0.3,1.6-0.4c5.4-1.1,11.6,1.1,14.1,5.5
	c2.5,4.3,2.5,8.8-0.2,13.2c-0.5,0.8-1,1.5-1.6,2.3C76.2,233.2,75.3,233.7,74.1,233.6c0.5-0.9,1-1.9,1.7-2.7
	c3.4-3.6,3.5-12.2-1.4-15.2c-3.1-1.9-6.3-2.9-10.1-2.3c-2.4,0.4-4.5,1.2-6,3.1c-1.3,1.6-1.4,1.7-0.2,3.3c1.8,2.4,2.5,5.1,2.8,8.1
	c0.1,1.2,0.3,2.3,0.4,3.5C66.1,230.3,70.8,228.5,74.1,233.6z M9.5,248.5c1-1.4,1.9-1.2,3-0.5c2.2,1.4,4.4,2.8,6.8,3.9
	c3.8,1.7,7.6,1.3,11.2-0.4c3.3-1.6,5.4-4.4,5.4-8.2c0.1-4.2-0.6-8.4-2.7-12.1c-1.5-2.7-4.1-4.4-7.3-4.9c-0.9-0.1-1.8-0.4-2.7-0.7
	c-5.9-2.2-12.5,1.4-14.7,5.1c-1.4,2.4-2.3,5.3-2.9,8.1C4.9,242.4,6.5,245.5,9.5,248.5z M28.1,257.4c0.3,6.2,4.1,11.1,10.2,12.8
	c0.9,0.2,1.9,0.2,2.8,0c4.9-0.7,12-5.1,12.7-11.9c0.2-1.5,0.6-2.9,0.9-4.4c0.4-2,0-3.8-0.9-5.6c-1.1-2.1-2.5-3.7-4.4-4.9
	c-2.5-1.7-5-3.2-8.1-3.5c-2.2-0.3-3.1,0.5-3.1,2.6c0.1,4.7-3.1,9.5-7.7,11.2C28.1,254.6,28.2,254.8,28.1,257.4z M25.9,255.3
	c-0.1-0.1-0.2-0.2-0.3-0.2c-0.4,0-0.7,0-1.1,0c-3.3,0.2-6.4-0.5-9-2.5c-2.3-1.7-4.2-1.2-6.4-0.2c-2.6,1.2-3.3,3.7-4.1,6
	c-1.3,3.6-0.9,7.2,0.3,10.9c1.3,4.2,3.9,6.6,7.8,8c5,1.8,9.7,0.6,14.2-1.6c2.2-1.1,3.2-3.1,3.4-5.4c0.1-0.5-0.1-1.1-0.4-1.5
	c-0.9-1.4-1.9-2.8-2.7-4.2c-1.2-2.1-2-4.4-1.8-6.9C26,256.9,25.9,256,25.9,255.3z M33.3,270.5c-0.8,1.8-1.1,3.4-2,4.5
	c-0.9,1.1-2.2,1.9-3.4,2.8c-0.4,0.3-1.1,0.5-1.4,0.8c-0.5,0.6-1.1,1.2-1.3,1.9c-0.3,0.8-0.3,1.6-0.3,2.5c-0.3,6.4,3.1,11.6,9.9,12.5
	c3.6,0.5,6.6-0.7,9.7-2.5c2.1-1.3,3.7-2.9,4.4-5.2c0.7-2.2,1.3-4.5,0.6-6.8c-1-3.4-1.5-7.1-4.5-9.5C41,272.1,37.1,273.6,33.3,270.5z
	 M38.1,237.9c3.2-0.8,6.3-0.4,9.1,1.2c1.6,1,3.1,0.8,4.7,0.3c1.8-0.7,3.8-1,4.9-2.9c1.6-2.7,2.3-5.6,1.8-8.8
	c-0.6-4.6-3.2-7.6-6.9-10c-4.9-3.2-11.3-2.6-15.4,1.5c-1.5,1.5-2.5,3.2-2.5,5.4c0,1-0.2,2-0.3,3.2C36.4,230.5,36.5,234.5,38.1,237.9
	z M75.4,269.6c4.2-2.1,7.3,0.2,10.8,2.5c1.4-0.6,3-1.1,4.4-1.9c4-2.4,5.9-5.8,6.1-10.5c0.2-6.8-5-13-10.7-14.2c-4.7-1-7.6,2-8.4,5.3
	c-0.8,3.3-1.9,6.4-4.4,8.9c-1,1-1,2.1-0.5,3.3C73.5,265.1,74.3,267.2,75.4,269.6z M52.1,241.7c0.2,0.5,0.3,0.7,0.4,0.8
	c3.9,3.4,4.9,7.7,4.3,12.6c-0.2,1.7,0.4,2.6,2.1,3.4c1.1,0.5,2.3,0.8,3.4,1.3c5.6,2.5,9.6-0.4,11.5-4.6c2.5-5.7,2.5-11.6-0.1-17.3
	c-2.2-4.9-4.7-6-10-4.9c-2.1,0.4-3.6,1.3-4.3,3.4c-0.7,2.2-2.5,3.4-4.5,4.2C54,241,53.1,241.3,52.1,241.7z M7.3,277.4
	c-3.6,2.8-6.1,5.9-5.8,10.5c0.4,5.7,2,11,7.1,14.4c2.7,1.8,5.6,2.8,9,1.8c1.1-0.3,1.7-0.7,1.9-2c0.5-2.7,1.7-5.1,3.9-6.9
	c0.6-0.5,1-1.1,1.4-1.5c-0.8-2.3-1.8-4.3-2.1-6.4c-0.4-2.2-0.1-4.5-0.1-6.8c-2.9,0-5.4,0.1-8,0C12,280.3,9.6,279.3,7.3,277.4z
	 M52.4,282.6c-0.2,0.3-0.3,0.4-0.4,0.6c-1,4.3-1.7,8.8-6.1,11.4c-1.5,0.9-1.9,4.8-1,6.2c2.3,3.1,4.8,5.9,9,6.4
	c3.7,0.4,7.3,0,10.3-2.5c2.6-2.2,4.6-4.9,5.8-8.1c1.1-2.9,1.4-5.8-0.4-8.6c-1.2-1.9-2.3-2.7-4.6-1.7c-1.9,0.9-4,1.3-6.2,0.8
	C56.1,286.5,54.6,284.4,52.4,282.6z M48.1,269.6c0.8,2.2,1.5,4.1,2.2,6c0.2,0.5,0.5,1.3,0.8,1.4c2.1,0.4,2.6,2.2,3.5,3.6
	c0.7,1,1.7,2,2.7,2.8c1.6,1.4,3.5,1.8,5.7,1.3c4.8-1.1,7.8-4.1,9.5-8.5c0.5-1.3,1-2.8,0.7-4c-0.9-3.3-2.3-6.4-3.6-9.8
	c-5.2,1.9-9.4-1-14.1-2.2C54.2,264.1,51.9,267.5,48.1,269.6z M26.5,295.2c-1.1,1-2,1.8-2.8,2.5c-1.3,1.2-2,2.8-2,4.5
	c0,7.8,3,12.9,10.6,15.4c5.6,1.8,10.3-1.1,11.7-5.3c0.6-1.9,1.2-3.7,1.7-5.6c0.1-0.6-0.1-1.5-0.5-2c-1.7-1.9-2.3-4-1.6-6.4
	c0.1-0.5,0-1.1,0-2.2C37.4,300,31.9,298.5,26.5,295.2z M69.9,283.9c0.8,1.7,1.7,3.1,2.1,4.6c0.6,1.9,1.1,3.6,2.5,5.2
	c2.2,2.5,5.1,3.2,7.8,1.2c1.9-1.4,3.3-3.2,4.1-5.5c1-2.7,0.8-5.5,0.7-8.3c-0.1-4.2-3.5-8.6-7.6-9.6c-1.9-0.5-3.6-0.4-4.1,2.3
	c-0.7,3.4-2.6,6.3-4.8,9C70.3,283.3,70,283.7,69.9,283.9z"/>
<path d="M310.1,130.7c2.1,0.2,2.8-0.6,3.1-2.3c0.7-3.9,1.5-7.8,2.4-12.2c-3.6,1.8-6.6,3.2-9.7,4.8c-5.5,2.8-10.9,5.6-16.3,8.5
	c-7.9,4.2-15.8,8.4-23.6,12.7c-6.8,3.8-13.6,7.6-20.3,11.6c-9.9,5.9-19.7,12-29.6,17.9c-7,4.1-14,8.1-21.1,12
	c-7.9,4.2-15.8,8.2-23.8,12.2c-3.4,1.7-7,3.1-10.3,4.8c-7.7,4-15.3,8.1-22.9,12.1c-1.6,0.9-3.3,1.7-4.9,2.7
	c-0.9,0.6-1.6,1.5-2.2,2.1c-1.5,0.1-2.9,0.2-4.9,0.4c0.6-0.7,0.8-1.2,1.2-1.4c6.2-3.5,12.4-7.2,18.8-10.3
	c7.4-3.6,14.4-8.1,22.2-10.9c1.9-0.7,3.6-1.9,5.4-2.8c4.4-2.2,8.9-4.3,13.2-6.6c4.6-2.4,9.1-5,13.6-7.6c3.9-2.2,7.7-4.5,11.5-6.7
	c5.5-3.3,11-6.6,16.5-9.9c6.7-4,13.4-8.1,20.1-12c7.9-4.6,15.9-9.2,23.9-13.7c7.3-4.1,14.7-8,22.3-11.4c3.5-1.6,6.9-3.7,10.3-5.5
	c1.5-0.8,3.1-1.5,4.6-2.3c-0.1-0.2-0.1-0.4-0.2-0.7c-0.8,0.1-1.5,0.1-2.3,0.3c-6.2,1.4-12.4,2.4-18.7,2.7c-0.9,0-1.8,0.4-2.8,0.3
	c-0.6,0-1.2-0.5-1.8-0.8c0-0.2,0-0.5,0-0.7c0.6-0.2,1.2-0.5,1.9-0.6c5.6-0.7,11.3-1.4,16.9-2.1c4-0.6,8.1-1.4,12.1-2
	c2.5-0.4,3.2,0.1,3,2.6c-0.2,3-0.7,5.9-1.3,8.8c-0.4,2-1,4-1.4,6c-0.3,1.3-1,1.9-2.3,2.1C311.8,132.7,310.9,132.3,310.1,130.7z"/>
<path d="M327.3,304.9c1.4,1.6,2.5,1.4,3.8,0.4c3.1-2.5,6.4-4.8,10-7.5c-3.8-1.1-7.1-2.1-10.4-2.9c-5.9-1.6-11.9-3.2-17.8-4.6
	c-8.7-2.2-17.3-4.3-26-6.4c-7.6-1.8-15.2-3.5-22.9-5c-11.3-2.3-22.7-4.3-34-6.6c-7.9-1.6-15.8-3.3-23.7-5.2
	c-8.7-2.1-17.3-4.5-25.9-6.8c-3.7-1-7.2-2.4-10.9-3.4c-8.3-2.2-16.7-4.2-25.1-6.3c-1.8-0.5-3.6-1-5.4-1.3c-1.1-0.2-2.2,0.1-3.1,0.1
	c-1.2-0.9-2.3-1.8-3.8-3c0.9-0.2,1.4-0.4,1.8-0.3c7,1.6,14,2.9,20.8,5c7.9,2.3,16.1,3.7,23.8,6.8c1.9,0.8,4,1,5.9,1.5
	c4.7,1.3,9.5,2.7,14.2,4c5,1.3,10.1,2.4,15.2,3.5c4.4,1,8.7,1.8,13.1,2.7c6.3,1.3,12.6,2.5,18.9,3.7c7.7,1.5,15.3,2.9,23,4.5
	c9,1.9,18,3.9,27,5.8c8.2,1.8,16.2,3.9,24.2,6.5c3.7,1.2,7.6,1.9,11.4,2.8c1.7,0.4,3.3,0.9,4.9,1.4c0.1-0.2,0.2-0.4,0.3-0.6
	c-0.6-0.4-1.2-1-1.9-1.3c-5.5-3.1-10.8-6.5-15.7-10.5c-0.7-0.6-1.6-1-2.2-1.6c-0.4-0.4-0.5-1.2-0.8-1.8c0.2-0.2,0.3-0.3,0.5-0.5
	c0.6,0.3,1.3,0.4,1.8,0.8c4.7,3.2,9.3,6.5,14,9.7c3.4,2.3,6.9,4.4,10.3,6.6c2.1,1.4,2.3,2.2,0.5,3.9c-2.1,2.1-4.5,3.9-6.8,5.7
	c-1.6,1.3-3.4,2.3-5,3.5c-1.1,0.8-2,0.7-3.1,0.1C327.2,307.6,326.8,306.7,327.3,304.9z"/>
<path d="M81,338c4.4-1.5,8.7-1.9,13.1-2c0.2,1.8-0.4,2.5-1.9,2.7c-2.8,0.3-5.5,0.7-8.3,1.1c-0.8,0.1-1.5,0.6-2.3,0.9
	c-1.4,0.5-2,0.2-2.5-1.3c-3.2-8.1-6.7-16.1-10.7-23.8c-0.6-1.1-0.8-2,0.5-3.2c0.7,1.1,1.6,2,2.1,3.1c2.8,5.9,5.4,11.8,8.1,17.7
	C79.7,334.6,80.3,336.2,81,338z"/>
<path d="M35.3,323.5c-0.2,2.9-0.3,5.9-0.5,8.8c-0.4,4.7-1,9.4-1.5,14.1c-0.3,3.1-0.5,4.1-4.6,4.6c-3.9,0.4-7.7,1.2-11.6,1.1
	c-0.5,0-1.1,0-1.6-0.1c-0.4-1.2,0.2-1.9,1.2-2.2c1-0.3,2-0.5,3-0.4c3.5,0.2,6.8-0.5,10.2-1.1c1.3-0.2,1.6-1,1.7-2.1
	c0.5-4.7,1.1-9.4,1.5-14.1c0.2-1.5,0.1-3,0.2-4.5c0.1-1.6,0.3-3.1,1.4-4.2C34.9,323.4,35.1,323.4,35.3,323.5z"/>
<path d="M443.5,384.1c4.4-1.5,8.7-1.9,13.1-2c0.2,1.8-0.4,2.5-1.9,2.7c-2.8,0.3-5.5,0.7-8.3,1.1c-0.8,0.1-1.5,0.6-2.3,0.9
	c-1.4,0.5-2,0.2-2.5-1.3c-3.2-8.1-6.7-16.1-10.7-23.8c-0.6-1.1-0.8-2,0.5-3.2c0.7,1.1,1.6,2,2.1,3.1c2.8,5.9,5.4,11.8,8.1,17.7
	C442.3,380.7,442.8,382.3,443.5,384.1z"/>
<path d="M397.9,369.6c-0.2,2.9-0.3,5.9-0.5,8.8c-0.4,4.7-1,9.4-1.5,14.1c-0.3,3.1-0.5,4.1-4.6,4.6c-3.9,0.4-7.7,1.2-11.6,1.1
	c-0.5,0-1.1,0-1.6-0.1c-0.4-1.2,0.2-1.9,1.2-2.2c1-0.3,2-0.5,3-0.4c3.5,0.2,6.8-0.5,10.2-1.1c1.3-0.2,1.6-1,1.7-2.1
	c0.5-4.7,1.1-9.4,1.5-14.1c0.2-1.5,0.1-3,0.2-4.5c0.1-1.6,0.3-3.1,1.4-4.2C397.5,369.4,397.7,369.5,397.9,369.6z"/>
<path class="st0" d="M391.5,128.8c-0.5-1-1-1.9-1.5-2.7c-2-3.3-4-6.5-6-9.8c-0.4-0.6-0.9-1.1-1.5-1.6c-0.7,0.8-0.5,1.3-0.1,1.9
	c2.9,4.2,5.5,8.6,8,13.1c0.4,0.8,0.8,0.9,1.6,0.5c0.4-0.2,0.8-0.5,1.3-0.7c1.6-0.5,3.2-0.9,4.7-1.2c0.9-0.2,1.2-0.7,0.9-1.7
	C396.5,127.1,394,127.7,391.5,128.8z"/>
<path class="st0" d="M360.1,121.2c-0.1,0-0.2-0.1-0.3-0.1c-0.7,0.7-0.8,1.6-0.8,2.5c0,0.9,0,1.8-0.1,2.6c-0.3,2.8-0.6,5.5-0.9,8.3
	c-0.1,0.7-0.3,1.1-1,1.3c-2,0.3-4,0.8-6,0.6c-0.6,0-1.2,0.1-1.8,0.3c-0.6,0.2-0.9,0.6-0.7,1.3c0.3,0,0.6,0,1,0
	c2.3,0.1,4.6-0.4,6.8-0.6c2.4-0.3,2.5-0.9,2.7-2.7c0.3-2.8,0.6-5.5,0.9-8.3C360,124.7,360,123,360.1,121.2z"/>
<path d="M393.5,133c2.5-1.2,4.9-1.7,7.5-2.1c0.2,1-0.1,1.5-0.9,1.7c-1.6,0.4-3.2,0.8-4.7,1.2c-0.5,0.1-0.9,0.5-1.3,0.7
	c-0.8,0.4-1.1,0.2-1.6-0.5c-2.4-4.5-5.1-8.9-8-13.1c-0.4-0.6-0.6-1.1,0.1-1.9c0.5,0.6,1.1,1,1.5,1.6c2,3.2,4,6.5,6,9.8
	C392.6,131.2,393,132,393.5,133z"/>
<path d="M367.2,119.4c-0.1,1.7-0.1,3.5-0.3,5.2c-0.3,2.8-0.6,5.5-0.9,8.3c-0.2,1.8-0.3,2.4-2.7,2.7c-2.3,0.3-4.5,0.7-6.8,0.6
	c-0.3,0-0.6,0-1,0c-0.2-0.7,0.1-1.1,0.7-1.3c0.6-0.2,1.2-0.3,1.8-0.3c2,0.1,4-0.3,6-0.6c0.8-0.1,0.9-0.6,1-1.3
	c0.3-2.8,0.6-5.5,0.9-8.3c0.1-0.9,0.1-1.7,0.1-2.6c0-0.9,0.2-1.8,0.8-2.5C366.9,119.3,367,119.4,367.2,119.4z"/>
<path class="st1" d="M9.5,248.5c-3-3-4.6-6.1-3.8-9.8c0.6-2.8,1.4-5.6,2.9-8.1c2.1-3.7,8.8-7.3,14.7-5.1c0.9,0.3,1.8,0.6,2.7,0.7
	c3.2,0.5,5.8,2.2,7.3,4.9c2.1,3.7,2.7,7.9,2.7,12.1c-0.1,3.8-2.1,6.6-5.4,8.2c-3.6,1.7-7.5,2.2-11.2,0.4c-2.4-1.1-4.6-2.5-6.8-3.9
	C11.4,247.3,10.5,247.1,9.5,248.5z"/>
<path class="st2" d="M28.1,257.4c0.1-2.6,0.1-2.8,2.4-3.7c4.6-1.7,7.7-6.5,7.7-11.2c0-2.2,0.8-2.9,3.1-2.6c3,0.4,5.6,1.8,8.1,3.5
	c1.9,1.3,3.3,2.9,4.4,4.9c0.9,1.8,1.3,3.7,0.9,5.6c-0.3,1.5-0.8,2.9-0.9,4.4c-0.7,6.9-7.8,11.2-12.7,11.9c-0.9,0.1-1.9,0.2-2.8,0
	C32.2,268.5,28.4,263.6,28.1,257.4z"/>
<path class="st2" d="M25.9,255.3c0,0.8,0.1,1.6,0,2.4c-0.2,2.5,0.5,4.8,1.8,6.9c0.8,1.4,1.8,2.8,2.7,4.2c0.3,0.4,0.4,1,0.4,1.5
	c-0.2,2.3-1.2,4.4-3.4,5.4c-4.5,2.2-9.2,3.5-14.2,1.6c-3.8-1.4-6.5-3.9-7.8-8c-1.2-3.7-1.5-7.2-0.3-10.9c0.8-2.3,1.5-4.8,4.1-6
	c2.2-1,4.1-1.5,6.4,0.2c2.6,1.9,5.7,2.7,9,2.5c0.4,0,0.7,0,1.1,0C25.7,255.1,25.8,255.2,25.9,255.3z"/>
<path class="st1" d="M33.3,270.5c3.8,3.1,7.7,1.6,11.6,1c3,2.4,3.5,6.1,4.5,9.5c0.7,2.4,0.1,4.6-0.6,6.8c-0.7,2.3-2.2,3.9-4.4,5.2
	c-3.1,1.8-6.1,3-9.7,2.5c-6.8-0.9-10.2-6.1-9.9-12.5c0-0.8,0-1.7,0.3-2.5c0.3-0.7,0.8-1.4,1.3-1.9c0.4-0.4,1-0.5,1.4-0.8
	c1.2-0.9,2.5-1.6,3.4-2.8C32.1,273.9,32.5,272.4,33.3,270.5z"/>
<path class="st2" d="M38.1,237.9c-1.6-3.5-1.7-7.4-4.4-10c0.1-1.2,0.3-2.2,0.3-3.2c0-2.2,1-4,2.5-5.4c4.1-4.1,10.5-4.7,15.4-1.5
	c3.6,2.4,6.2,5.4,6.9,10c0.4,3.2-0.2,6.1-1.8,8.8c-1.1,1.9-3.1,2.2-4.9,2.9c-1.6,0.6-3.1,0.7-4.7-0.3
	C44.5,237.5,41.4,237.1,38.1,237.9z"/>
<path class="st1" d="M75.4,269.6c-1-2.4-1.9-4.5-2.8-6.6c-0.6-1.2-0.5-2.3,0.5-3.3c2.5-2.4,3.5-5.6,4.4-8.9c0.8-3.3,3.7-6.3,8.4-5.3
	c5.7,1.2,10.9,7.4,10.7,14.2c-0.1,4.8-2.1,8.2-6.1,10.5c-1.4,0.8-3,1.3-4.4,1.9C82.7,269.8,79.6,267.4,75.4,269.6z"/>
<path class="st2" d="M52.1,241.7c1-0.4,1.9-0.7,2.7-1c2-0.8,3.8-2,4.5-4.2c0.7-2.1,2.2-2.9,4.3-3.4c5.4-1.1,7.8,0,10,4.9
	c2.6,5.7,2.6,11.6,0.1,17.3c-1.8,4.2-5.9,7.1-11.5,4.6c-1.1-0.5-2.3-0.8-3.4-1.3c-1.8-0.8-2.4-1.6-2.1-3.4c0.6-4.9-0.4-9.2-4.3-12.6
	C52.4,242.4,52.4,242.2,52.1,241.7z"/>
<path class="st1" d="M7.3,277.4c2.3,1.9,4.7,2.9,7.3,3c2.6,0.1,5.1,0,8,0c0,2.3-0.3,4.6,0.1,6.8c0.4,2.1,1.4,4.2,2.1,6.4
	c-0.4,0.4-0.9,1-1.4,1.5c-2.2,1.8-3.4,4.2-3.9,6.9c-0.2,1.2-0.8,1.7-1.9,2c-3.3,1-6.3,0-9-1.8c-5.1-3.4-6.8-8.6-7.1-14.4
	C1.2,283.4,3.7,280.2,7.3,277.4z"/>
<path class="st1" d="M52.4,282.6c2.1,1.8,3.7,3.9,6.4,4.5c2.2,0.5,4.3,0.1,6.2-0.8c2.3-1.1,3.4-0.2,4.6,1.7c1.7,2.8,1.5,5.7,0.4,8.6
	c-1.2,3.2-3.2,5.9-5.8,8.1c-3,2.4-6.6,2.9-10.3,2.5c-4.2-0.5-6.7-3.3-9-6.4c-1-1.3-0.5-5.3,1-6.2c4.4-2.6,5.1-7.1,6.1-11.4
	C52.1,283.1,52.2,282.9,52.4,282.6z"/>
<path class="st2" d="M48.1,269.6c3.8-2.1,6.1-5.5,7.5-9.6c4.7,1.2,8.8,4.1,14.1,2.2c1.3,3.4,2.6,6.6,3.6,9.8c0.3,1.2-0.2,2.7-0.7,4
	c-1.7,4.4-4.7,7.5-9.5,8.5c-2.2,0.5-4.1,0.1-5.7-1.3c-1-0.8-1.9-1.8-2.7-2.8c-1-1.4-1.4-3.2-3.5-3.6c-0.4-0.1-0.7-0.9-0.8-1.4
	C49.6,273.7,48.9,271.8,48.1,269.6z"/>
<path class="st2" d="M26.5,295.2c5.4,3.3,11,4.9,17.1,0.9c0,1.1,0.1,1.7,0,2.2c-0.7,2.5,0,4.5,1.6,6.4c0.4,0.5,0.6,1.4,0.5,2
	c-0.4,1.9-1.1,3.8-1.7,5.6c-1.3,4.2-6.1,7.1-11.7,5.3c-7.7-2.5-10.7-7.7-10.6-15.4c0-1.7,0.7-3.3,2-4.5
	C24.5,296.9,25.3,296.2,26.5,295.2z"/>
<path class="st2" d="M69.9,283.9c0.1-0.2,0.4-0.6,0.7-0.9c2.3-2.6,4.1-5.5,4.8-9c0.6-2.7,2.3-2.8,4.1-2.3c4.1,1,7.5,5.4,7.6,9.6
	c0.1,2.8,0.3,5.6-0.7,8.3c-0.8,2.3-2.2,4.1-4.1,5.5c-2.7,1.9-5.6,1.2-7.8-1.2c-1.4-1.6-1.9-3.3-2.5-5.2
	C71.6,287,70.7,285.5,69.9,283.9z"/>
<path class="st1" d="M74.1,233.6c-3.4-5.1-8-3.3-12.8-2.2c-0.2-1.2-0.4-2.4-0.4-3.5c-0.2-2.9-1-5.7-2.8-8.1
	c-1.2-1.6-1.2-1.8,0.2-3.3c1.6-1.9,3.7-2.7,6-3.1c3.7-0.6,6.9,0.4,10.1,2.3c4.9,3,4.8,11.5,1.4,15.2
	C75.1,231.7,74.7,232.8,74.1,233.6C74.1,233.7,74.1,233.6,74.1,233.6z"/>
<path class="st0" d="M373.2,97.4c2-0.8,3.8-1.8,4.5-4c1.7-5.6,0.2-10.8-4.9-13.9c-4.4-2.7-9-3.1-13.9-0.6c-3.6,1.9-4.7,5.1-4.8,8.5
	c-0.1,3.4,1.5,6.5,4.1,8.9c0.9,0.8,1.7,1.9,2.7,2.2c2.4,0.7,5,1.1,7.5,0.5C370,98.7,371.6,98,373.2,97.4z"/>
<path d="M373.2,97.4c-1.6,0.6-3.2,1.3-4.8,1.6c-2.5,0.6-5.1,0.2-7.5-0.5c-1-0.3-1.8-1.4-2.7-2.2c-2.7-2.4-4.2-5.5-4.1-8.9
	c0.1-3.4,1.2-6.6,4.8-8.5c4.9-2.6,9.5-2.2,13.9,0.6c5.1,3.2,6.6,8.3,4.9,13.9C377,95.7,375.2,96.6,373.2,97.4z M372.9,95.6
	c1.9-0.5,3.3-1.8,3.7-3.7c1.3-5.6-1-10-6.3-12c-1-0.4-2-0.5-3-0.7c-3.3-0.7-6.2,0-8.8,2.1c-2.1,1.8-3.1,4.1-3.1,6.8
	c-0.1,2.8,1.4,4.9,3.2,6.9c1.9,2.2,4.2,2.9,7,2.6C368,97.3,370.4,96.7,372.9,95.6z"/>
<path class="st1" d="M372.9,95.6c-2.4,1.1-4.9,1.8-7.4,2c-2.8,0.3-5.1-0.5-7-2.6c-1.8-2-3.2-4.1-3.2-6.9c0.1-2.7,1-5.1,3.1-6.8
	c2.5-2.1,5.5-2.8,8.8-2.1c1,0.2,2.1,0.4,3,0.7c5.3,2,7.6,6.5,6.3,12C376.1,93.8,374.8,95.1,372.9,95.6z"/>
<path class="st0" d="M391,99.7c2-0.8,3.8-1.8,4.5-4c1.7-5.6,0.2-10.8-4.9-13.9c-4.4-2.7-9-3.1-13.9-0.6c-3.6,1.9-4.7,5.1-4.8,8.5
	c-0.1,3.4,1.5,6.5,4.1,8.9c0.9,0.8,1.7,1.9,2.7,2.2c2.4,0.7,5,1.1,7.5,0.5C387.8,101,389.4,100.3,391,99.7z"/>
<path d="M391,99.7c-1.6,0.6-3.2,1.3-4.8,1.6c-2.5,0.6-5.1,0.2-7.5-0.5c-1-0.3-1.8-1.4-2.7-2.2c-2.7-2.4-4.2-5.5-4.1-8.9
	c0.1-3.4,1.2-6.6,4.8-8.5c4.9-2.6,9.5-2.2,13.9,0.6c5.1,3.2,6.6,8.3,4.9,13.9C394.8,98,392.9,98.9,391,99.7z M390.6,97.9
	c1.9-0.5,3.3-1.8,3.7-3.7c1.3-5.6-1-10-6.3-12c-1-0.4-2-0.5-3-0.7c-3.3-0.7-6.2,0-8.8,2.1c-2.1,1.8-3.1,4.1-3.1,6.8
	c-0.1,2.8,1.4,4.9,3.2,6.9c1.9,2.2,4.2,2.9,7,2.6C385.8,99.6,388.2,99,390.6,97.9z"/>
<path class="st2" d="M390.6,97.9c-2.4,1.1-4.9,1.8-7.4,2c-2.8,0.3-5.1-0.5-7-2.6c-1.8-2-3.2-4.1-3.2-6.9c0.1-2.7,1-5.1,3.1-6.8
	c2.5-2.1,5.5-2.8,8.8-2.1c1,0.2,2.1,0.4,3,0.7c5.3,2,7.6,6.5,6.3,12C393.9,96.1,392.5,97.4,390.6,97.9z"/>
<path class="st0" d="M367.9,110.7c2-0.8,3.8-1.8,4.5-4c1.7-5.6,0.2-10.8-4.9-13.9c-4.4-2.7-9-3.1-13.9-0.6c-3.6,1.9-4.7,5.1-4.8,8.5
	c-0.1,3.4,1.5,6.5,4.1,8.9c0.9,0.8,1.7,1.9,2.7,2.2c2.4,0.7,5,1.1,7.5,0.5C364.7,112,366.3,111.3,367.9,110.7z"/>
<path d="M367.9,110.7c-1.6,0.6-3.2,1.3-4.8,1.6c-2.5,0.6-5.1,0.2-7.5-0.5c-1-0.3-1.8-1.4-2.7-2.2c-2.7-2.4-4.2-5.5-4.1-8.9
	c0.1-3.4,1.2-6.6,4.8-8.5c4.9-2.6,9.5-2.2,13.9,0.6c5.1,3.2,6.6,8.3,4.9,13.9C371.7,108.9,369.8,109.9,367.9,110.7z M367.5,108.8
	c1.9-0.5,3.3-1.8,3.7-3.7c1.3-5.6-1-10-6.3-12c-1-0.4-2-0.5-3-0.7c-3.3-0.7-6.2,0-8.8,2.1c-2.1,1.8-3.1,4.1-3.1,6.8
	c-0.1,2.8,1.4,4.9,3.2,6.9c1.9,2.2,4.2,2.9,7,2.6C362.7,110.6,365.1,110,367.5,108.8z"/>
<path class="st2" d="M367.5,108.8c-2.4,1.1-4.9,1.8-7.4,2c-2.8,0.3-5.1-0.5-7-2.6c-1.8-2-3.2-4.1-3.2-6.9c0.1-2.7,1-5.1,3.1-6.8
	c2.5-2.1,5.5-2.8,8.8-2.1c1,0.2,2.1,0.4,3,0.7c5.3,2,7.6,6.5,6.3,12C370.8,107,369.4,108.4,367.5,108.8z"/>
<path class="st0" d="M382.6,114.5c2-0.8,3.8-1.8,4.5-4c1.7-5.6,0.2-10.8-4.9-13.9c-4.4-2.7-9-3.1-13.9-0.6c-3.6,1.9-4.7,5.1-4.8,8.5
	c-0.1,3.4,1.5,6.5,4.1,8.9c0.9,0.8,1.7,1.9,2.7,2.2c2.4,0.7,5,1.1,7.5,0.5C379.5,115.7,381,115,382.6,114.5z"/>
<path d="M382.6,114.5c-1.6,0.6-3.2,1.3-4.8,1.6c-2.5,0.6-5.1,0.2-7.5-0.5c-1-0.3-1.8-1.4-2.7-2.2c-2.7-2.4-4.2-5.5-4.1-8.9
	c0.1-3.4,1.2-6.6,4.8-8.5c4.9-2.6,9.5-2.2,13.9,0.6c5.1,3.2,6.6,8.3,4.9,13.9C386.4,112.7,384.6,113.6,382.6,114.5z M382.3,112.6
	c1.9-0.5,3.3-1.8,3.7-3.7c1.3-5.6-1-10-6.3-12c-1-0.4-2-0.5-3-0.7c-3.3-0.7-6.2,0-8.8,2.1c-2.1,1.8-3.1,4.1-3.1,6.8
	c-0.1,2.8,1.4,4.9,3.2,6.9c1.9,2.2,4.2,2.9,7,2.6C377.4,114.4,379.8,113.7,382.3,112.6z"/>
<path class="st1" d="M382.3,112.6c-2.4,1.1-4.9,1.8-7.4,2c-2.8,0.3-5.1-0.5-7-2.6c-1.8-2-3.2-4.1-3.2-6.9c0.1-2.7,1-5.1,3.1-6.8
	c2.5-2.1,5.5-2.8,8.8-2.1c1,0.2,2.1,0.4,3,0.7c5.3,2,7.6,6.5,6.3,12C385.5,110.8,384.2,112.1,382.3,112.6z"/>
<g>
	<path class="st0" d="M391.5,95c0-1.4-0.6-2.5-1.5-3.4c-1.2-1.2-2.4-1.4-3.7-0.8c-1.4,0.6-2.1,1.9-1.9,3.5c0.1,0.8,0.5,1.5,0.4,2.3
		c-0.2,1.4,0.6,1.7,1.6,2c0.4,0.1,0.9,0.3,1.3,0.4c1.3,0.3,2.4-0.2,2.9-1.4C391.1,96.7,391.3,95.8,391.5,95z"/>
	<path class="st0" d="M389,86.2c0.5-0.6,1.1-1,1.4-1.6c0.2-0.3,0-1-0.3-1.4c-0.4-0.5-1-0.9-1.6-1.1c-0.5-0.2-1.3-0.2-1.6,0.1
		c-0.3,0.3-0.3,1.1-0.2,1.6c0.1,0.5,0.5,1.1,0.8,1.5C387.9,85.6,388.5,85.8,389,86.2z"/>
	<path class="st0" d="M379.1,83.7c-1-0.1-1.4,0.2-1.5,1.1c-0.1,1.4,0.6,2.8,1.4,2.8c1.1,0.1,2.2-0.9,2.2-2
		C381.3,84.6,380.4,83.9,379.1,83.7z"/>
	<path d="M391.5,95c-0.3,0.8-0.5,1.7-0.9,2.5c-0.6,1.2-1.7,1.6-2.9,1.4c-0.4-0.1-0.9-0.3-1.3-0.4c-1-0.3-1.8-0.6-1.6-2
		c0.1-0.7-0.3-1.5-0.4-2.3c-0.2-1.6,0.6-2.8,1.9-3.5c1.3-0.6,2.5-0.3,3.7,0.8C391,92.5,391.5,93.6,391.5,95z M390.1,94.7
		c0-1.1-0.6-1.9-1.4-2.5c-1-0.7-2.5-0.3-3,0.8c-0.5,1.1,0.1,3.3,1,4.1c0.8,0.7,2.4,0.4,2.8-0.6C389.9,95.9,390,95.3,390.1,94.7z"/>
	<path d="M389,86.2c-0.6-0.4-1.1-0.6-1.4-0.9c-0.4-0.4-0.7-1-0.8-1.5c-0.1-0.5-0.1-1.3,0.2-1.6c0.3-0.3,1.1-0.2,1.6-0.1
		c0.6,0.2,1.2,0.6,1.6,1.1c0.3,0.3,0.5,1,0.3,1.4C390.1,85.2,389.6,85.6,389,86.2z"/>
	<path d="M379.1,83.7c1.3,0.1,2.2,0.9,2.1,1.9c-0.1,1.1-1.2,2.1-2.2,2c-0.9-0.1-1.6-1.4-1.4-2.8C377.7,83.9,378.2,83.6,379.1,83.7z"
		/>
	<path class="st0" d="M390.1,94.7c-0.2,0.6-0.3,1.3-0.5,1.8c-0.4,0.9-2.1,1.2-2.8,0.6c-0.9-0.8-1.5-3-1-4.1c0.4-1.1,2-1.5,3-0.8
		C389.5,92.8,390.1,93.5,390.1,94.7z"/>
</g>
<path class="st0" d="M402.7,87.9c0.5-0.2,1.1-0.4,1.6-0.7c2.3-1.5,4.5-3.1,6.7-4.7c1.2-0.9,2.4-1.8,3.3-3c4.5-5.5,7.9-11.5,9.4-18.6
	c1.3-5.8,1.5-11.7,2-17.6c0-0.4,0-0.8-0.2-1.1c-0.2-0.3-0.6-0.4-1.1-0.8c-0.1,0.6-0.2,1-0.2,1.4c-0.2,3.6-0.3,7.2-0.8,10.7
	c-0.4,3.4-1.1,6.8-2,10.1c-0.8,3.2-2.3,6.2-4.1,9c-2,3-4,6-6.8,8.2c-2.4,1.8-4.8,3.5-7.3,5.2C402.6,86.5,402.1,86.9,402.7,87.9z"/>
<path d="M402.7,87.9c-0.6-1-0.1-1.4,0.6-1.8c2.5-1.7,4.9-3.4,7.3-5.2c2.9-2.2,4.8-5.2,6.8-8.2c1.9-2.8,3.3-5.7,4.1-9
	c0.8-3.3,1.5-6.7,2-10.1c0.5-3.5,0.5-7.1,0.8-10.7c0-0.4,0.1-0.7,0.2-1.4c0.5,0.3,0.9,0.5,1.1,0.8c0.2,0.3,0.2,0.8,0.2,1.1
	c-0.5,5.9-0.8,11.8-2,17.6c-1.5,7.1-4.9,13.1-9.4,18.6c-0.9,1.1-2.2,2.1-3.3,3c-2.2,1.6-4.4,3.2-6.7,4.7
	C403.8,87.5,403.2,87.6,402.7,87.9z"/>
<path class="st0" d="M410.9,332.8c0-4.9-0.4-6.2-3.1-10.1c-2.8-4-6.9-5.2-11.4-4.7c-3.5,0.4-6.7,2.1-9.5,4.2c-2.5,1.9-3.9,4.6-3.3,8
	c0.5,2.5,1.5,4.7,3.1,6.8c3.4,4.6,8,6.9,13.6,6.7c3.9-0.2,7.4-1.7,9.5-5.4C410.8,336.4,410.7,334.3,410.9,332.8z"/>
<path d="M410.9,332.8c-0.2,1.5-0.1,3.6-1.1,5.5c-2.1,3.7-5.6,5.3-9.5,5.4c-5.6,0.2-10.2-2.1-13.6-6.7c-1.5-2.1-2.6-4.3-3.1-6.8
	c-0.6-3.4,0.8-6.1,3.3-8c2.8-2.1,6-3.8,9.5-4.2c4.5-0.5,8.6,0.7,11.4,4.7C410.5,326.6,410.9,327.9,410.9,332.8z M409.3,331.1
	c0.3-2.8-1.3-5.7-3.6-8.1c-2.7-3-6.4-3.9-10.2-3c-2.4,0.6-4.8,1.7-6.9,3c-3,1.9-4.8,4.5-3,8.6c0.6,1.3,1.3,2.7,2.1,3.9
	c3.2,4.8,7.9,6.5,13.5,6.1c3.1-0.2,5.5-1.6,7.1-4.4C409.2,335.5,409.3,333.7,409.3,331.1z"/>
<path class="st1" d="M409.3,331.1c0,2.6-0.1,4.4-1,6c-1.5,2.8-4,4.2-7.1,4.4c-5.6,0.4-10.3-1.3-13.5-6.1c-0.8-1.2-1.5-2.5-2.1-3.9
	c-1.8-4,0.1-6.7,3-8.6c2.1-1.3,4.5-2.5,6.9-3c3.8-0.9,7.5,0.1,10.2,3C408,325.5,409.6,328.4,409.3,331.1z"/>
<path class="st0" d="M392.4,340.8c0-4.9-0.4-6.2-3.1-10.1c-2.8-4-6.9-5.2-11.4-4.7c-3.5,0.4-6.7,2.1-9.5,4.2c-2.5,1.9-3.9,4.6-3.3,8
	c0.5,2.5,1.5,4.7,3.1,6.8c3.4,4.6,8,6.9,13.6,6.7c3.9-0.2,7.4-1.7,9.5-5.4C392.3,344.4,392.2,342.3,392.4,340.8z"/>
<path d="M392.4,340.8c-0.2,1.5-0.1,3.6-1.1,5.5c-2.1,3.7-5.6,5.3-9.5,5.4c-5.6,0.2-10.2-2.1-13.6-6.7c-1.5-2.1-2.6-4.3-3.1-6.8
	c-0.6-3.4,0.8-6.1,3.3-8c2.8-2.1,6-3.8,9.5-4.2c4.5-0.5,8.6,0.7,11.4,4.7C392,334.6,392.4,335.9,392.4,340.8z M390.8,339.1
	c0.3-2.8-1.3-5.7-3.6-8.1c-2.7-3-6.4-3.9-10.2-3c-2.4,0.6-4.8,1.7-6.9,3c-3,1.9-4.8,4.5-3,8.6c0.6,1.3,1.3,2.7,2.1,3.9
	c3.2,4.8,7.9,6.5,13.5,6.1c3.1-0.2,5.5-1.6,7.1-4.4C390.7,343.5,390.8,341.7,390.8,339.1z"/>
<path class="st1" d="M390.8,339.1c0,2.6-0.1,4.4-1,6c-1.5,2.8-4,4.2-7.1,4.4c-5.6,0.4-10.3-1.3-13.5-6.1c-0.8-1.2-1.5-2.5-2.1-3.9
	c-1.8-4,0.1-6.7,3-8.6c2.1-1.3,4.5-2.5,6.9-3c3.8-0.9,7.5,0.1,10.2,3C389.5,333.5,391.1,336.4,390.8,339.1z"/>
<path class="st0" d="M408.1,353.7c0-4.9-0.4-6.2-3.1-10.1c-2.8-4-6.9-5.2-11.4-4.7c-3.5,0.4-6.7,2.1-9.5,4.2c-2.5,1.9-3.9,4.6-3.3,8
	c0.5,2.5,1.5,4.7,3.1,6.8c3.4,4.6,8,6.9,13.6,6.7c3.9-0.2,7.4-1.7,9.5-5.4C408.1,357.3,408,355.2,408.1,353.7z"/>
<path d="M408.1,353.7c-0.2,1.5-0.1,3.6-1.1,5.5c-2.1,3.7-5.6,5.3-9.5,5.4c-5.6,0.2-10.2-2.1-13.6-6.7c-1.5-2.1-2.6-4.3-3.1-6.8
	c-0.6-3.4,0.8-6.1,3.3-8c2.8-2.1,6-3.8,9.5-4.2c4.5-0.5,8.6,0.7,11.4,4.7C407.7,347.5,408.2,348.8,408.1,353.7z M406.6,352
	c0.3-2.8-1.3-5.7-3.6-8.1c-2.7-3-6.4-3.9-10.2-3c-2.4,0.6-4.8,1.7-6.9,3c-3,1.9-4.8,4.5-3,8.6c0.6,1.3,1.3,2.7,2.1,3.9
	c3.2,4.8,7.9,6.5,13.5,6.1c3.1-0.2,5.5-1.6,7.1-4.4C406.4,356.4,406.6,354.7,406.6,352z"/>
<path class="st2" d="M406.6,352c0,2.6-0.1,4.4-1,6c-1.5,2.8-4,4.2-7.1,4.4c-5.6,0.4-10.3-1.3-13.5-6.1c-0.8-1.2-1.5-2.5-2.1-3.9
	c-1.8-4,0.1-6.7,3-8.6c2.1-1.3,4.5-2.5,6.9-3c3.8-0.9,7.5,0.1,10.2,3C405.3,346.4,406.9,349.3,406.6,352z"/>
<path class="st0" d="M430.6,325.1c0-4.9-0.4-6.2-3.1-10.1c-2.8-4-6.9-5.2-11.4-4.7c-3.5,0.4-6.7,2.1-9.5,4.2c-2.5,1.9-3.9,4.6-3.3,8
	c0.5,2.5,1.5,4.7,3.1,6.8c3.4,4.6,8,6.9,13.6,6.7c3.9-0.2,7.4-1.7,9.5-5.4C430.5,328.7,430.4,326.6,430.6,325.1z"/>
<path d="M430.6,325.1c-0.2,1.5-0.1,3.6-1.1,5.5c-2.1,3.7-5.6,5.3-9.5,5.4c-5.6,0.2-10.2-2.1-13.6-6.7c-1.5-2.1-2.6-4.3-3.1-6.8
	c-0.6-3.4,0.8-6.1,3.3-8c2.8-2.1,6-3.8,9.5-4.2c4.5-0.5,8.6,0.7,11.4,4.7C430.2,318.9,430.6,320.1,430.6,325.1z M429,323.4
	c0.3-2.8-1.3-5.7-3.6-8.1c-2.7-3-6.4-3.9-10.2-3c-2.4,0.6-4.8,1.7-6.9,3c-3,1.9-4.8,4.5-3,8.6c0.6,1.3,1.3,2.7,2.1,3.9
	c3.2,4.8,7.9,6.5,13.5,6.1c3.1-0.2,5.5-1.6,7.1-4.4C428.9,327.7,429,326,429,323.4z"/>
<path class="st2" d="M429,323.4c0,2.6-0.1,4.4-1,6c-1.5,2.8-4,4.2-7.1,4.4c-5.6,0.4-10.3-1.3-13.5-6.1c-0.8-1.2-1.5-2.5-2.1-3.9
	c-1.8-4,0.1-6.7,3-8.6c2.1-1.3,4.5-2.5,6.9-3c3.8-0.9,7.5,0.1,10.2,3C427.7,317.7,429.3,320.6,429,323.4z"/>
<path class="st0" d="M397.4,295.8c-4.8-0.2-8.6,1.3-12,4.2c-1.9,1.6-3.4,6.7-2.6,9c0.1,0.2,0.2,0.4,0.3,0.6c1,2.3,2,4.6,3.1,6.9
	c0.3,0.6,0.8,1.3,1.4,1.7c3.9,2.2,8,3.6,12.5,3.8c2.8,0.1,5-1.2,7.3-2.4c2.8-1.5,4.6-4.5,4.5-7.6c-0.1-2.7-1.3-5-2.2-7.5
	C407.5,299.1,403.2,295.5,397.4,295.8z"/>
<path d="M397.4,295.8c5.9-0.3,10.1,3.3,12.2,8.6c1,2.4,2.1,4.8,2.2,7.5c0.2,3.1-1.6,6.2-4.5,7.6c-2.3,1.2-4.6,2.5-7.3,2.4
	c-4.5-0.1-8.6-1.6-12.5-3.8c-0.6-0.3-1.1-1-1.4-1.7c-1.1-2.3-2.1-4.6-3.1-6.9c-0.1-0.2-0.2-0.4-0.3-0.6c-0.8-2.3,0.7-7.4,2.6-9
	C388.8,297.1,392.6,295.6,397.4,295.8z M398.5,320.2c4.1,0.4,6.9-1.4,9.5-3.7c2-1.8,2.4-4.2,1.7-6.6c-0.7-2.3-1.6-4.5-2.6-6.7
	c-2.2-4.7-6.3-6.5-11.2-6c-2.2,0.2-4.4,0.8-6.4,1.8c-1.9,0.9-3.8,2.1-4.7,4.3c-1.5,3.7-0.6,7.7,2.4,10.6c0.5,0.5,0.8,1.4,1.2,2.1
	c0.3,0.5,0.6,1.3,1.1,1.4C392.6,318.5,395.5,320.4,398.5,320.2z"/>
<path class="st2" d="M398.5,320.2c-3,0.2-6-1.7-9.1-2.9c-0.5-0.2-0.8-0.9-1.1-1.4c-0.4-0.7-0.6-1.5-1.2-2.1c-3-2.9-3.9-6.9-2.4-10.6
	c0.9-2.1,2.8-3.4,4.7-4.3c2-0.9,4.2-1.6,6.4-1.8c5-0.4,9,1.3,11.2,6c1,2.2,1.9,4.4,2.6,6.7c0.7,2.4,0.3,4.8-1.7,6.6
	C405.5,318.8,402.7,320.6,398.5,320.2z"/>
<path class="st0" d="M435.2,326.9c-3.9-0.1-9.7,3.5-11.2,7.1c-0.1,0.3-0.2,0.7-0.3,1.1c-1.1,4.4,0.2,8.2,3.1,11.6
	c1.7,1.9,4,2.8,6.3,3.5c1.6,0.5,3.2-0.5,4.6-1.3c0.3-0.1,0.6-0.2,0.8-0.3c2.3-0.7,4.3-2,6-3.8c1.6-1.7,3.1-3.6,2.5-6.2
	c-0.6-2.8-1.3-5.7-3.7-7.7C440.9,328.9,438.6,326.8,435.2,326.9z"/>
<path d="M435.2,326.9c3.4-0.1,5.8,2,8.2,4c2.4,2,3.1,4.8,3.7,7.7c0.5,2.5-0.9,4.5-2.5,6.2c-1.7,1.8-3.7,3-6,3.8
	c-0.3,0.1-0.6,0.2-0.8,0.3c-1.4,0.8-3,1.8-4.6,1.3c-2.3-0.7-4.7-1.6-6.3-3.5c-2.9-3.4-4.2-7.2-3.1-11.6c0.1-0.4,0.2-0.7,0.3-1.1
	C425.5,330.5,431.2,326.8,435.2,326.9z M433,347.7c0.3,0,0.6,0,0.9-0.1c2.9-0.3,5.5-1.4,7.7-3.1c4.3-3.3,4.3-5.6,2.6-9.5
	c-0.6-1.2-1.6-2.4-2.6-3.3c-2.2-2.1-4.9-3.2-7.9-2.8c-4.3,0.6-9.6,5.3-8.6,11.2C425.7,343.4,429,347.9,433,347.7z"/>
<path class="st2" d="M433,347.7c-4,0.2-7.3-4.3-7.9-7.6c-1-5.9,4.3-10.7,8.6-11.2c3-0.4,5.7,0.8,7.9,2.8c1,1,2,2.1,2.6,3.3
	c1.7,3.8,1.7,6.1-2.6,9.5c-2.2,1.7-4.9,2.8-7.7,3.1C433.6,347.7,433.3,347.7,433,347.7z"/>
<g>
	<path class="st0" d="M69.8,246.5c-1.4-1-2.5-1.9-3.6-2.8c-4.1-3.3-8.6-4-13.4-2.1c-2.8,1.1-5.5,2.6-7.8,4.5
		c-1.5,1.2-2.8,3.3-3.4,5.2c-1.6,5.7,2.7,16.1,7.5,19.4c7.5,5.1,15.9,3.9,21.8-3.1c0.5-0.6,0.7-1.4,0.8-1.7c3.1,1.3,5.2,2.5,7.5,3.1
		c3.2,0.9,6.2,0.7,9.3-1.4c8-5.6,7.7-20.6-2-26.4c-5.6-3.4-10.4-2.6-14.6,2.4C71.3,244.4,70.7,245.2,69.8,246.5z"/>
	<path d="M69.8,246.5c0.9-1.2,1.5-2.1,2.2-2.9c4.3-5,9-5.8,14.6-2.4c9.6,5.8,10,20.8,2,26.4c-3.1,2.2-6.1,2.3-9.3,1.4
		c-2.3-0.6-4.4-1.8-7.5-3.1c-0.1,0.3-0.3,1.1-0.8,1.7c-5.9,7-14.3,8.2-21.8,3.1c-4.8-3.3-9.1-13.7-7.5-19.4c0.5-1.9,1.8-4,3.4-5.2
		c2.3-1.9,5-3.4,7.8-4.5c4.8-1.9,9.3-1.2,13.4,2.1C67.2,244.6,68.4,245.4,69.8,246.5z M43.4,253.9c-0.1,7.1,2.3,11.1,8.2,14.8
		c5.6,3.5,14.2,1.6,17.8-3.9c5.5-8.3-0.9-18.6-8.6-20.9c-5.4-1.7-9.8,0.2-14,3.4C44.6,249.1,43.2,251.4,43.4,253.9z M71.8,249.1
		c0.8,2.1,1.8,4,2.2,6c0.4,2,0.1,4.2,0.2,6.3c0,0.7,0.4,1.5,0.9,2c3,3.3,9.2,3.6,12.6,0.7c3.6-3.1,4.2-7.2,3.5-11.5
		c-0.7-4.7-3.8-7.8-8.1-9.4c-4.8-1.8-7.3-0.7-9.4,2.9C73.1,247.1,72.4,248.1,71.8,249.1z"/>
	<path class="st0" d="M43.4,253.9c-0.2-2.5,1.1-4.8,3.5-6.6c4.1-3.2,8.6-5.1,14-3.4c7.7,2.4,14.1,12.6,8.6,20.9
		c-3.6,5.5-12.2,7.4-17.8,3.9C45.7,265,43.4,261,43.4,253.9z"/>
	<path class="st0" d="M71.8,249.1c0.7-1,1.4-2,2-3c2.2-3.6,4.6-4.8,9.4-2.9c4.3,1.6,7.3,4.7,8.1,9.4c0.7,4.3,0.1,8.4-3.5,11.5
		c-3.4,2.9-9.6,2.6-12.6-0.7c-0.5-0.5-0.9-1.3-0.9-2c-0.1-2.1,0.2-4.2-0.2-6.3C73.6,253.1,72.6,251.2,71.8,249.1z"/>
	<path class="st0" d="M88.2,262.4c1.1-1.2,2.2-2.1,2.8-3.3c0.3-0.7,0-2.1-0.6-2.8c-0.8-1-2-1.8-3.2-2.2c-1-0.3-2.6-0.4-3.2,0.2
		c-0.6,0.6-0.6,2.1-0.4,3.2c0.2,1.1,0.9,2.2,1.7,3.1C85.9,261.3,86.9,261.7,88.2,262.4z"/>
	<path class="st0" d="M68,257.4c-2-0.2-2.9,0.4-3.1,2.1c-0.3,2.8,1.1,5.6,2.9,5.7c2.2,0.1,4.4-1.9,4.5-4.1
		C72.5,259.3,70.6,257.7,68,257.4z"/>
	<path d="M86.7,259.9c-1.2-0.8-2.2-1.1-2.9-1.9c-0.8-0.9-1.4-2-1.7-3.1c-0.2-1-0.2-2.6,0.4-3.2c0.6-0.6,2.2-0.5,3.2-0.2
		c1.2,0.4,2.4,1.2,3.2,2.2c0.6,0.7,0.9,2.1,0.6,2.8C88.9,257.8,87.7,258.7,86.7,259.9z"/>
	<path d="M64.3,253.4c2.6,0.3,4.4,1.9,4.3,3.8c-0.1,2.2-2.3,4.2-4.5,4.1c-1.8-0.1-3.2-2.9-2.9-5.7C61.5,253.8,62.4,253.2,64.3,253.4
		z"/>
</g>
<path class="st0" d="M393.5,321c0-0.7,0.1-1.5,0-2.3c-0.1-0.8-0.5-1.6-0.7-2.4c-1.2-4.8-6.7-9.7-12.3-9.3c-4.9,0.3-9.5,1.2-12.5,5.7
	c-0.5,0.8-1,1.6-1.6,2.5c-4,6.4-0.4,16.2,9,17.1c2,0.2,4,0.2,6,0.4c4,0.3,7.2-1.6,9.9-4.3C393.6,326.5,393.7,323.8,393.5,321z"/>
<path d="M393.5,321c0.2,2.8,0,5.5-2,7.5c-2.7,2.7-5.9,4.6-9.9,4.3c-2-0.1-4-0.2-6-0.4c-9.4-1-13-10.7-9-17.1c0.5-0.8,1-1.7,1.6-2.5
	c3-4.5,7.6-5.4,12.5-5.7c5.5-0.4,11.1,4.5,12.3,9.3c0.2,0.8,0.6,1.6,0.7,2.4C393.6,319.5,393.5,320.3,393.5,321z M392.1,321.7
	c-0.4-1.8-0.7-3.7-1.3-5.4c-1.8-5.2-7.3-8.7-13.4-7.4c-4.7,1-7.8,3.7-9.7,7.8c-1.6,3.4-1.4,6.9,0.7,10c1.4,2,3.4,3.5,5.9,3.8
	c2.7,0.4,5.5,0.3,8.3,0.3C388.1,330.8,391.9,327,392.1,321.7z"/>
<path class="st2" d="M392.1,321.7c-0.1,5.3-4,9.1-9.5,9.1c-2.8,0-5.6,0.1-8.3-0.3c-2.4-0.3-4.5-1.8-5.9-3.8c-2.2-3.1-2.3-6.6-0.7-10
	c1.9-4.1,5-6.8,9.7-7.8c6.1-1.4,11.6,2.2,13.4,7.4C391.4,318,391.7,319.9,392.1,321.7z"/>
<path class="st0" d="M383.7,316c2.4,0.1,4.8,0,6.6-2c4.5-5,5.5-11.1,1.8-16.9c-3.2-5-7.8-7.7-14.1-7.4c-4.7,0.2-7.4,3-9.2,6.5
	c-1.8,3.5-1.7,7.5-0.1,11.3c0.5,1.2,0.8,2.8,1.7,3.6c2.1,1.9,4.6,3.6,7.5,4.2C379.9,315.7,381.8,315.8,383.7,316z"/>
<path d="M383.7,316c-1.9-0.2-3.9-0.3-5.8-0.7c-2.9-0.6-5.4-2.3-7.5-4.2c-0.9-0.8-1.2-2.4-1.7-3.6c-1.6-3.8-1.7-7.8,0.1-11.3
	c1.8-3.5,4.5-6.3,9.2-6.5c6.3-0.3,10.9,2.4,14.1,7.4c3.7,5.8,2.7,11.9-1.8,16.9C388.6,316,386.2,316.1,383.7,316z M384.3,313.9
	c2.2,0.4,4.3-0.3,5.7-2c4.1-5.1,3.9-10.9-0.6-15.6c-0.8-0.9-1.8-1.5-2.8-2.2c-3-2.3-6.5-3.1-10.2-2.1c-3,0.8-5.2,2.8-6.6,5.5
	c-1.5,2.9-1,5.7-0.1,8.7c0.9,3.2,2.9,5.1,5.9,6.2C378.4,313.3,381.3,313.8,384.3,313.9z"/>
<path class="st1" d="M384.3,313.9c-3.1,0-5.9-0.6-8.7-1.6c-3-1.1-5-3-5.9-6.2c-0.8-3-1.3-5.8,0.1-8.7c1.4-2.8,3.6-4.8,6.6-5.5
	c3.7-0.9,7.1-0.2,10.2,2.1c0.9,0.7,2,1.4,2.8,2.2c4.5,4.7,4.7,10.4,0.6,15.6C388.6,313.6,386.5,314.3,384.3,313.9z"/>
<g>
	<path class="st0" d="M421.1,305.4c-1.1-0.8-2-1.5-2.9-2.3c-3.3-2.7-7-3.2-10.8-1.7c-2.2,0.9-4.4,2.1-6.3,3.6
		c-1.2,1-2.3,2.6-2.7,4.2c-1.3,4.6,2.2,13,6.1,15.7c6,4.1,12.9,3.2,17.6-2.5c0.4-0.5,0.6-1.2,0.7-1.4c2.5,1.1,4.2,2,6,2.5
		c2.6,0.7,5,0.6,7.5-1.2c6.5-4.5,6.2-16.6-1.6-21.3c-4.5-2.8-8.4-2.1-11.8,1.9C422.4,303.7,421.9,304.4,421.1,305.4z"/>
	<path d="M421.1,305.4c0.8-1,1.2-1.7,1.8-2.3c3.4-4.1,7.3-4.7,11.8-1.9c7.8,4.7,8.1,16.8,1.6,21.3c-2.5,1.8-4.9,1.9-7.5,1.2
		c-1.8-0.5-3.5-1.4-6-2.5c-0.1,0.2-0.3,0.9-0.7,1.4c-4.8,5.7-11.6,6.6-17.6,2.5c-3.9-2.6-7.3-11.1-6.1-15.7c0.4-1.6,1.5-3.2,2.7-4.2
		c1.9-1.5,4.1-2.7,6.3-3.6c3.8-1.6,7.5-1,10.8,1.7C419.1,303.9,420,304.6,421.1,305.4z M399.9,311.4c-0.1,5.7,1.8,8.9,6.6,11.9
		c4.5,2.8,11.5,1.3,14.4-3.1c4.4-6.7-0.7-15-6.9-16.9c-4.3-1.3-7.9,0.2-11.3,2.8C400.8,307.5,399.7,309.4,399.9,311.4z M422.8,307.5
		c0.6,1.7,1.5,3.2,1.8,4.8c0.3,1.6,0,3.4,0.2,5.1c0,0.6,0.3,1.2,0.7,1.7c2.5,2.6,7.4,2.9,10.2,0.5c2.9-2.5,3.4-5.8,2.9-9.3
		c-0.6-3.8-3-6.3-6.5-7.6c-3.9-1.5-5.9-0.5-7.6,2.4C423.9,305.9,423.3,306.7,422.8,307.5z"/>
	<path class="st0" d="M399.9,311.4c-0.2-2,0.9-3.9,2.8-5.3c3.3-2.6,6.9-4.1,11.3-2.8c6.2,1.9,11.4,10.2,6.9,16.9
		c-2.9,4.4-9.8,5.9-14.4,3.1C401.7,320.4,399.8,317.1,399.9,311.4z"/>
	<path class="st0" d="M422.8,307.5c0.5-0.8,1.1-1.6,1.6-2.4c1.8-2.9,3.7-3.8,7.6-2.4c3.5,1.3,5.9,3.8,6.5,7.6c0.6,3.5,0,6.8-2.9,9.3
		c-2.8,2.3-7.8,2.1-10.2-0.5c-0.4-0.4-0.7-1.1-0.7-1.7c-0.1-1.7,0.2-3.4-0.2-5.1C424.2,310.7,423.4,309.2,422.8,307.5z"/>
	<path class="st0" d="M436,318.3c0.9-1,1.8-1.7,2.3-2.7c0.3-0.6,0-1.7-0.5-2.2c-0.7-0.8-1.6-1.4-2.6-1.8c-0.8-0.3-2.1-0.3-2.6,0.1
		c-0.5,0.5-0.5,1.7-0.3,2.6c0.2,0.9,0.7,1.8,1.4,2.5C434.2,317.4,435,317.7,436,318.3z"/>
	<path class="st0" d="M419.7,314.2c-1.6-0.2-2.3,0.3-2.5,1.7c-0.2,2.3,0.9,4.5,2.3,4.6c1.7,0.1,3.6-1.5,3.6-3.3
		C423.3,315.7,421.8,314.4,419.7,314.2z"/>
	<path d="M434.8,316.2c-1-0.6-1.8-0.9-2.3-1.5c-0.6-0.7-1.2-1.6-1.4-2.5c-0.2-0.8-0.2-2.1,0.3-2.6c0.5-0.5,1.8-0.4,2.6-0.1
		c1,0.3,1.9,1,2.6,1.8c0.5,0.5,0.8,1.7,0.5,2.2C436.6,314.5,435.6,315.3,434.8,316.2z"/>
	<path d="M416.7,311c2.1,0.2,3.6,1.5,3.5,3.1c-0.1,1.8-1.9,3.4-3.6,3.3c-1.4-0.1-2.6-2.4-2.3-4.6C414.4,311.3,415.2,310.8,416.7,311
		z"/>
</g>
<path class="st0" d="M469.8,253.1c-1.2,0.6-0.9,1.4-0.8,2.2c0.3,2.8,0.9,5.5,0.9,8.3c-0.2,6.8-1.9,13.3-3.9,19.7
	c-0.1,0.4-0.4,0.8-0.6,1.2c-2.4,4-5.4,7.5-8.6,10.8c-1.1,1.1-2,2.2-3.2,3.1c-1.4,1-3,1.8-4.5,2.6c-0.6,0.3-1.2,0.6-0.6,1.5
	c3.2-1.1,6.1-2.7,8.3-5.2c2.7-3.1,6-5.8,8.1-9.5c1.3-2.1,2.7-4.1,3.2-6.6c0.8-4,1.9-8,2.7-12c0.5-2.5,0.8-5.2,0.7-7.7
	c0-2.5-0.6-4.9-1-7.3C470.3,253.8,470,253.5,469.8,253.1z"/>
<path d="M469.8,253.1c0.2,0.4,0.5,0.7,0.6,1.1c0.4,2.4,1,4.9,1,7.3c0.1,2.6-0.2,5.2-0.7,7.7c-0.7,4-1.9,8-2.7,12
	c-0.5,2.5-2,4.5-3.2,6.6c-2.2,3.6-5.4,6.3-8.1,9.5c-2.2,2.6-5.1,4.1-8.3,5.2c-0.6-1,0-1.2,0.6-1.5c1.5-0.8,3.1-1.6,4.5-2.6
	c1.2-0.9,2.2-2,3.2-3.1c3.3-3.3,6.2-6.8,8.6-10.8c0.2-0.4,0.5-0.8,0.6-1.2c2.1-6.4,3.8-12.9,3.9-19.7c0.1-2.8-0.5-5.5-0.9-8.3
	C468.9,254.5,468.6,253.7,469.8,253.1z"/>
<g>
	<path d="M37.9,43.7c0-0.8,0.2-1.4,0.7-1.9c0.4-0.5,1-0.9,1.7-1.2c0.7-0.3,1.4-0.5,2.1-0.6c0.8-0.1,1.5-0.2,2.1-0.2
		c1.2,0,2.2,0.2,3,0.7c0.8,0.5,1.5,1.1,2,1.8c0.5,0.8,0.9,1.6,1.1,2.7c0.2,1,0.3,2,0.3,3.1c0,0.7-0.1,1.5-0.2,2.4
		c-0.1,0.9-0.4,1.9-0.7,2.9c-0.3,1-0.7,2-1.1,3c-0.4,1-0.9,1.9-1.5,2.6c-0.6,0.8-1.2,1.4-1.9,1.9c-0.7,0.5-1.5,0.7-2.3,0.7
		c-0.2,0-0.4-0.2-0.6-0.7c-0.2-0.4-0.5-1-0.8-1.8c-0.3-0.7-0.6-1.6-0.9-2.6c-0.3-1-0.6-2-0.9-3c-0.3-1-0.6-2.1-0.8-3.2
		c-0.3-1.1-0.5-2-0.7-2.9c-0.2-0.9-0.4-1.7-0.5-2.4C37.9,44.5,37.9,44,37.9,43.7z M40.1,45.3c0,0.6,0,1.2,0.1,2
		c0.1,0.7,0.2,1.5,0.4,2.3c0.2,0.8,0.4,1.6,0.7,2.4c0.3,0.8,0.6,1.6,0.9,2.3c0.3,0.7,0.7,1.4,1.2,1.9s0.9,1,1.5,1.4
		c0.6-0.9,1.2-1.7,1.6-2.4c0.5-0.7,0.8-1.4,1.1-2.1c0.3-0.7,0.5-1.4,0.6-2.2c0.1-0.8,0.2-1.7,0.2-2.7c0-0.7,0-1.5-0.1-2.2
		c-0.1-0.7-0.3-1.3-0.6-1.9c-0.3-0.6-0.7-1-1.3-1.3c-0.5-0.3-1.3-0.5-2.2-0.5c-0.7,0-1.4,0.1-2.1,0.3c-0.7,0.2-1.3,0.5-2,0.9
		c0,0.1,0,0.2,0,0.3c0,0.2,0,0.3,0,0.5s0,0.4,0,0.5C40.1,45.1,40.1,45.2,40.1,45.3z"/>
	<path d="M51.9,54.6c0-1,0.1-2,0.4-3c0.2-1,0.6-1.9,1.1-2.7c0.5-0.8,1.2-1.4,2-1.9c0.8-0.5,1.8-0.7,3-0.7c0.7,0,1.3,0.1,1.8,0.4
		c0.5,0.2,0.9,0.6,1.3,1c0.3,0.4,0.6,0.9,0.8,1.4c0.2,0.5,0.3,1.1,0.3,1.7c0,0.9-0.2,1.8-0.6,2.7c-0.4,0.9-1,1.6-1.7,2.3
		c-0.7,0.7-1.5,1.2-2.5,1.5c-0.9,0.3-1.9,0.4-2.8,0.2c0,0.5,0.2,1,0.5,1.3c0.3,0.3,0.7,0.6,1.2,0.7c0.5,0.2,1,0.3,1.5,0.3
		c0.5,0,1,0.1,1.4,0.1c0.4,0,0.8,0,1.2-0.1c0.4-0.1,0.7-0.2,1.1-0.2c0.4-0.1,0.7-0.2,1.1-0.2c0.4-0.1,0.8-0.1,1.2-0.1
		c0.2,0,0.3,0,0.5,0c0.2,0,0.3,0.1,0.5,0.1c0.1,0.1,0.3,0.2,0.4,0.3c0.1,0.1,0.1,0.3,0.1,0.5c0,0.3-0.1,0.6-0.4,0.9
		c-0.3,0.2-0.6,0.4-1,0.6c-0.4,0.2-0.8,0.3-1.3,0.4c-0.5,0.1-0.9,0.1-1.4,0.2c-0.4,0-0.9,0.1-1.2,0.1c-0.4,0-0.7,0-0.8,0
		c-1.2,0-2.2-0.2-3.1-0.6c-0.9-0.4-1.7-0.9-2.4-1.6c-0.6-0.7-1.1-1.5-1.5-2.4C52,56.8,51.9,55.8,51.9,54.6z M54.8,52.9
		c0,0.6,0.1,1.1,0.3,1.4c0.2,0.3,0.6,0.4,1.3,0.4c0.5,0,0.9-0.1,1.4-0.3c0.5-0.2,0.9-0.4,1.2-0.7c0.4-0.3,0.7-0.7,0.9-1.1
		c0.2-0.4,0.3-0.9,0.3-1.4c0-0.3,0-0.6-0.1-0.8c0-0.3-0.1-0.6-0.3-0.8c-0.1-0.2-0.3-0.4-0.6-0.6c-0.2-0.2-0.5-0.2-0.9-0.2
		c-0.5,0-1,0.1-1.5,0.4c-0.4,0.2-0.8,0.6-1.1,1c-0.3,0.4-0.5,0.8-0.7,1.3C54.8,51.9,54.8,52.4,54.8,52.9z"/>
	<path d="M66.6,54c0-0.8,0.2-1.6,0.5-2.4c0.3-0.8,0.8-1.6,1.4-2.3c0.6-0.7,1.2-1.3,2-1.7c0.7-0.5,1.5-0.7,2.3-0.7
		c0.4,0,0.8,0.1,1.3,0.2c0.4,0.1,0.8,0.4,1.1,0.6c0.3,0.3,0.6,0.6,0.8,1c0.2,0.4,0.3,0.8,0.3,1.3c-0.3,0-0.6,0-0.9-0.1
		c-0.3-0.1-0.5-0.2-0.8-0.3c-0.3-0.1-0.5-0.2-0.8-0.3c-0.2-0.1-0.5-0.1-0.8-0.1c-0.7,0-1.4,0.2-1.8,0.6c-0.5,0.4-0.8,0.8-1.1,1.4
		c-0.3,0.6-0.5,1.2-0.6,1.8c-0.1,0.6-0.2,1.3-0.2,1.8c0,0.1,0,0.3,0,0.5c0,0.3,0,0.5,0,0.8c0,0.3,0,0.6,0,0.8c0,0.3,0,0.4,0,0.5
		c0.2,0.4,0.4,0.8,0.6,1c0.2,0.2,0.4,0.4,0.6,0.5c0.2,0.1,0.5,0.2,0.7,0.2c0.3,0,0.6,0,0.9,0c0.5,0,0.9-0.1,1.2-0.2
		c0.4-0.1,0.7-0.3,1-0.5c0.3-0.2,0.6-0.4,0.9-0.7s0.6-0.5,0.9-0.7c0.3-0.2,0.6-0.4,1-0.5s0.8-0.2,1.2-0.2c0,0.9-0.2,1.7-0.5,2.4
		c-0.3,0.7-0.8,1.3-1.3,1.8s-1.2,0.9-2,1.1c-0.8,0.3-1.6,0.4-2.5,0.4c-0.9,0-1.6-0.3-2.3-0.9c-0.7-0.6-1.3-1.3-1.8-2.1
		c-0.5-0.8-0.9-1.7-1.1-2.7C66.7,55.6,66.6,54.7,66.6,54z"/>
	<path d="M91.8,58.7c-0.7,0.5-1.3,0.9-1.8,1.3c-0.5,0.4-1,0.7-1.5,0.9c-0.5,0.3-1,0.4-1.5,0.6c-0.5,0.1-1.2,0.2-2,0.2
		c-1.7,0-3-0.5-3.8-1.4s-1.2-2.2-1.2-4c0-0.7,0.1-1.4,0.3-2.2c0.2-0.7,0.5-1.5,0.8-2.2s0.8-1.4,1.3-2.1c0.5-0.7,1-1.3,1.7-1.8
		c0.6-0.5,1.3-0.9,2-1.2c0.7-0.3,1.4-0.5,2.2-0.5c1.3,0.1,2.3,0.5,3.1,1c0.7,0.5,1.3,1.2,1.7,2c0.4,0.8,0.6,1.7,0.8,2.7
		c0.1,1,0.3,2,0.3,3.1c0.1,1.1,0.2,2.1,0.3,3.2c0.1,1.1,0.4,2,0.8,2.9c-0.2,0.6-0.5,1-0.7,1.3c-0.2,0.2-0.4,0.3-0.7,0.1
		c-0.3-0.2-0.6-0.6-0.9-1.2C92.7,60.8,92.3,59.9,91.8,58.7z M82.4,56.4c0,1,0.2,1.8,0.6,2.3c0.4,0.5,1.1,0.7,2.1,0.7
		c0.7,0,1.5-0.1,2.1-0.4c0.7-0.3,1.3-0.6,1.8-1.1c0.5-0.5,0.9-1,1.2-1.7c0.3-0.7,0.5-1.4,0.5-2.2c0-0.3,0-0.8,0-1.4
		c0-0.6,0-1.2-0.1-1.8c-0.1-0.6-0.3-1.1-0.5-1.5c-0.3-0.4-0.6-0.6-1.1-0.6c-0.9,0-1.8,0.2-2.6,0.7c-0.8,0.5-1.5,1.1-2.1,1.8
		c-0.6,0.7-1,1.6-1.4,2.5S82.4,55.5,82.4,56.4z"/>
	<path d="M98.5,41.7c0.3,0.1,0.6,0.4,0.9,0.7c0.2,0.3,0.3,0.6,0.3,0.9c0,0.3-0.2,0.4-0.6,0.5c-0.4,0.1-1,0-1.9-0.3
		c0-0.5,0.1-0.9,0.3-1.3C97.7,41.9,98,41.7,98.5,41.7z M98.2,52c0-0.1,0-0.3,0-0.5c0-0.2,0-0.5,0-0.8c0-0.3,0-0.5,0-0.8
		c0-0.3,0-0.4,0-0.5c0.2-0.3,0.5-0.5,0.8-0.7c0.3-0.2,0.6-0.3,1-0.4c0.1,1,0.2,2,0.5,3.1c0.3,1.1,0.5,2.2,0.8,3.3
		c0.3,1.1,0.6,2.2,0.8,3.3c0.2,1.1,0.3,2.1,0.3,3.1c0,0.8-0.4,1.2-1.3,1.2c-0.5,0-0.9-0.2-1.3-0.6c-0.3-0.4-0.6-1-0.8-1.6
		c-0.2-0.6-0.4-1.4-0.5-2.2c-0.1-0.8-0.2-1.6-0.3-2.3c0-0.8-0.1-1.5-0.1-2.1C98.2,52.8,98.2,52.3,98.2,52z"/>
	<path d="M102.9,50.8c0-0.5,0.1-0.8,0.2-1.1c0.2-0.3,0.5-0.4,1-0.4c0.1,0,0.2,0,0.3,0c0.2,0,0.3,0,0.3,0c0.1,0.6,0.3,1.2,0.4,1.8
		c0.1,0.7,0.3,1.3,0.5,2c0.2,0.7,0.4,1.3,0.6,2c0.2,0.7,0.5,1.2,0.8,1.8c0.3-0.3,0.6-0.8,0.7-1.2c0.1-0.5,0.3-1,0.3-1.4
		c0.1-0.5,0.1-0.9,0.2-1.4c0.1-0.4,0.2-0.8,0.4-1.1c0.2-0.3,0.5-0.6,0.9-0.7c0.4-0.1,0.9-0.1,1.6,0c0.8,0,1.4,0.1,1.8,0.4
		c0.5,0.3,0.9,0.6,1.2,1.1c0.3,0.4,0.7,0.9,1,1.4c0.3,0.5,0.7,0.9,1.2,1.3c0.1-0.2,0.2-0.5,0.4-0.9s0.4-0.7,0.6-1.1
		c0.2-0.4,0.5-0.8,0.8-1.2c0.3-0.4,0.6-0.7,0.9-1.1c0.3-0.3,0.6-0.6,1-0.8c0.3-0.2,0.6-0.3,1-0.3c0.7,0,1.4,0.2,1.9,0.7s1,1,1.4,1.8
		c0.4,0.7,0.7,1.5,1,2.4c0.3,0.9,0.5,1.7,0.6,2.5c0.1,0.8,0.3,1.5,0.3,2.2c0.1,0.7,0.1,1.1,0.1,1.4c0,0.2-0.1,0.4-0.2,0.5
		c-0.1,0.1-0.2,0.2-0.4,0.3c-0.2,0.1-0.3,0.1-0.5,0.1c-0.2,0-0.4,0-0.5,0c0,0-0.1,0-0.2,0c-0.1,0-0.2,0-0.2,0c-0.1,0-0.2,0-0.3-0.1
		l-1.8-8.2c0-0.1-0.1-0.2-0.2-0.3c-0.1-0.2-0.3-0.3-0.3-0.3c-0.1,0-0.1,0-0.1,0c0,0-0.1,0-0.1,0c0,0,0,0-0.1,0
		c-0.4,0-0.7,0.2-1.1,0.5c-0.3,0.3-0.7,0.7-0.9,1.2c-0.3,0.5-0.6,1-0.8,1.6c-0.3,0.6-0.5,1.2-0.7,1.7c-0.2,0.6-0.4,1.1-0.5,1.6
		c-0.2,0.5-0.3,0.9-0.4,1.1c-0.1,0-0.2,0.1-0.4,0.1s-0.4,0-0.4,0c-0.5,0-0.9-0.2-1.2-0.5s-0.5-0.8-0.7-1.3c-0.2-0.5-0.3-1.1-0.4-1.7
		c-0.1-0.6-0.3-1.2-0.4-1.7c-0.2-0.5-0.4-1-0.7-1.3s-0.7-0.5-1.3-0.5c-0.2,0-0.4,0.2-0.6,0.6c-0.2,0.4-0.3,0.9-0.5,1.5
		c-0.1,0.6-0.3,1.3-0.4,2c-0.1,0.7-0.2,1.4-0.3,2c-0.1,0.6-0.2,1.3-0.2,2.2c0,0.1-0.1,0.1-0.2,0.2c-0.1,0.1-0.2,0.1-0.3,0.2
		c-0.1,0.1-0.2,0.1-0.4,0.2c-0.1,0-0.2,0.1-0.3,0.1c-0.5,0-1-0.2-1.5-0.7c-0.5-0.5-0.9-1.1-1.3-1.8c-0.4-0.7-0.7-1.6-1.1-2.4
		c-0.3-0.9-0.6-1.8-0.8-2.6c-0.2-0.9-0.4-1.6-0.5-2.3C102.9,51.6,102.9,51.1,102.9,50.8z"/>
	<path d="M127.5,54.6c0-1,0.1-2,0.4-3c0.2-1,0.6-1.9,1.1-2.7c0.5-0.8,1.2-1.4,2-1.9c0.8-0.5,1.8-0.7,3-0.7c0.7,0,1.3,0.1,1.8,0.4
		c0.5,0.2,0.9,0.6,1.3,1c0.3,0.4,0.6,0.9,0.8,1.4c0.2,0.5,0.3,1.1,0.3,1.7c0,0.9-0.2,1.8-0.6,2.7c-0.4,0.9-1,1.6-1.7,2.3
		c-0.7,0.7-1.5,1.2-2.5,1.5c-0.9,0.3-1.9,0.4-2.8,0.2c0,0.5,0.2,1,0.5,1.3c0.3,0.3,0.7,0.6,1.2,0.7c0.5,0.2,1,0.3,1.5,0.3
		c0.5,0,1,0.1,1.4,0.1c0.4,0,0.8,0,1.2-0.1c0.4-0.1,0.7-0.2,1.1-0.2c0.4-0.1,0.7-0.2,1.1-0.2c0.4-0.1,0.8-0.1,1.2-0.1
		c0.2,0,0.3,0,0.5,0c0.2,0,0.3,0.1,0.5,0.1c0.1,0.1,0.3,0.2,0.4,0.3c0.1,0.1,0.1,0.3,0.1,0.5c0,0.3-0.1,0.6-0.4,0.9
		c-0.3,0.2-0.6,0.4-1,0.6c-0.4,0.2-0.8,0.3-1.3,0.4c-0.5,0.1-0.9,0.1-1.4,0.2c-0.4,0-0.9,0.1-1.2,0.1c-0.4,0-0.7,0-0.8,0
		c-1.2,0-2.2-0.2-3.1-0.6c-0.9-0.4-1.7-0.9-2.4-1.6c-0.6-0.7-1.1-1.5-1.5-2.4C127.6,56.8,127.5,55.8,127.5,54.6z M130.4,52.9
		c0,0.6,0.1,1.1,0.3,1.4c0.2,0.3,0.6,0.4,1.3,0.4c0.5,0,0.9-0.1,1.4-0.3c0.5-0.2,0.9-0.4,1.2-0.7c0.4-0.3,0.7-0.7,0.9-1.1
		c0.2-0.4,0.3-0.9,0.3-1.4c0-0.3,0-0.6-0.1-0.8c0-0.3-0.1-0.6-0.3-0.8c-0.1-0.2-0.3-0.4-0.6-0.6c-0.2-0.2-0.5-0.2-0.9-0.2
		c-0.5,0-1,0.1-1.5,0.4c-0.4,0.2-0.8,0.6-1.1,1c-0.3,0.4-0.5,0.8-0.7,1.3C130.5,51.9,130.4,52.4,130.4,52.9z"/>
	<path d="M142.7,53c0-0.5,0.1-0.8,0.4-1c0.2-0.2,0.6-0.3,1.1-0.3h0.3c0.1,0.3,0.1,0.6,0.2,1c0.1,0.4,0.2,0.8,0.3,1.2
		c0.1,0.4,0.3,0.8,0.5,1.1c0.2,0.3,0.4,0.6,0.7,0.8c0-0.6,0.2-1.3,0.5-1.8c0.3-0.6,0.7-1.1,1.1-1.6c0.4-0.5,0.9-0.9,1.5-1.2
		c0.5-0.3,1.1-0.5,1.6-0.6h0.6c0.9,0,1.6,0.2,2.2,0.6c0.6,0.4,1.1,0.9,1.5,1.5s0.7,1.3,0.9,2.1c0.2,0.8,0.4,1.6,0.5,2.4
		c0.1,0.8,0.2,1.6,0.2,2.4c0,0.8,0,1.4,0,2h-2c-0.1-1.1-0.2-2.1-0.4-3.1c-0.1-0.4-0.1-0.8-0.2-1.3c-0.1-0.4-0.2-0.9-0.3-1.3
		c-0.1-0.4-0.2-0.8-0.4-1.1c-0.1-0.3-0.3-0.6-0.4-0.9c-0.1-0.1-0.2-0.2-0.3-0.3c-0.1-0.1-0.2-0.3-0.4-0.4c-0.1-0.1-0.2-0.2-0.4-0.3
		c-0.1-0.1-0.2-0.1-0.2-0.1c-0.5-0.1-1,0-1.4,0.3c-0.4,0.4-0.8,0.8-1.1,1.4c-0.3,0.6-0.6,1.3-0.8,2.1s-0.4,1.5-0.5,2.2
		c-0.1,0.7-0.2,1.3-0.3,1.8s-0.1,0.8-0.1,0.9c-0.5,0.3-0.9,0.4-1.3,0.3c-0.4-0.1-0.8-0.4-1.1-0.9s-0.7-1-1-1.6
		c-0.3-0.7-0.5-1.4-0.8-2.1c-0.2-0.7-0.5-1.5-0.6-2.2C143,54.4,142.9,53.7,142.7,53z"/>
	<path d="M158,48.5c0-0.1,0-0.1,0-0.1c0,0,0-0.1,0-0.1c0.1-0.1,0.2-0.2,0.3-0.4c0.1-0.1,0.2-0.2,0.3-0.2h5.5c0-0.2,0-0.5-0.1-1
		s-0.1-0.9-0.2-1.4c0-0.5-0.1-1.1,0-1.7c0-0.6,0.1-1.1,0.2-1.6s0.4-0.8,0.7-1.1s0.7-0.5,1.3-0.5c0,1.8,0.1,3.3,0.4,4.4
		c0.3,1.1,0.6,2,1,2.6c0.4,0.6,0.9,1,1.5,1.2c0.5,0.2,1.1,0.3,1.7,0.2s1.1-0.1,1.7-0.3c0.5-0.1,1-0.2,1.5-0.3c0.4-0.1,0.8,0,1,0.1
		c0.3,0.1,0.4,0.5,0.4,1c0,0.4-0.1,0.7-0.3,0.8c-0.2,0.2-0.5,0.3-1,0.4c-0.1,0-0.4,0.1-0.7,0.1c-0.3,0-0.7,0.1-1.1,0.1
		c-0.4,0-0.9,0.1-1.3,0.1c-0.5,0-0.9,0.1-1.3,0.1c-0.4,0-0.8,0.1-1.1,0.1c-0.3,0-0.6,0-0.8,0c0,0.1,0,0.2,0,0.5c0,0.2,0,0.4,0,0.4
		c0,0.8,0.1,1.6,0.4,2.3c0.3,0.8,0.5,1.5,0.8,2.3c0.3,0.7,0.6,1.5,0.8,2.2c0.3,0.7,0.4,1.5,0.4,2.3c0,0.1,0,0.3,0,0.5
		c0,0.2-0.1,0.3-0.2,0.4c-0.1,0.1-0.2,0.2-0.4,0.3c-0.2,0.1-0.4,0-0.6,0c-0.7-0.2-1.2-0.6-1.5-1.2c-0.3-0.6-0.6-1.3-0.8-2.1
		c-0.2-0.8-0.3-1.7-0.3-2.6s-0.1-1.8-0.3-2.6c-0.1-0.8-0.3-1.5-0.6-2.1c-0.3-0.6-0.7-0.9-1.2-1.1l-5.3-1.2c-0.1,0-0.2-0.1-0.3-0.2
		c-0.1-0.2-0.2-0.3-0.3-0.3c0,0,0-0.1,0-0.1C158,48.6,158,48.5,158,48.5z"/>
	<path d="M176.1,56.7c0-1.1,0.3-2.2,0.8-3.2c0.5-1,1.2-1.8,2.1-2.5c0.9-0.7,1.8-1.3,2.9-1.7c1.1-0.4,2.2-0.6,3.3-0.6
		c0.6,0,1.2,0.2,1.7,0.6c0.5,0.4,0.9,0.9,1.2,1.5s0.6,1.2,0.8,1.8c0.2,0.6,0.3,1.2,0.3,1.7c0,1-0.2,2-0.7,3s-1.1,1.8-1.9,2.5
		c-0.8,0.7-1.7,1.3-2.7,1.8c-1,0.5-2,0.7-3,0.7c-0.9,0-1.6-0.2-2.2-0.5s-1.1-0.7-1.4-1.2c-0.4-0.5-0.6-1.1-0.8-1.8
		C176.2,58.2,176.1,57.5,176.1,56.7z M178.5,57c0,0.5,0,0.9,0.1,1.2s0.2,0.7,0.4,0.9c0.2,0.3,0.5,0.5,0.8,0.6
		c0.3,0.1,0.8,0.2,1.3,0.2c0.7,0,1.3-0.2,2-0.6c0.7-0.4,1.3-0.8,1.8-1.4c0.5-0.6,1-1.2,1.3-1.9c0.3-0.7,0.5-1.4,0.5-2
		c0-0.3,0-0.6-0.1-1c-0.1-0.3-0.1-0.7-0.3-1c-0.1-0.3-0.3-0.5-0.5-0.7c-0.2-0.2-0.5-0.3-0.9-0.3c-0.3,0-0.7,0.1-1.2,0.3
		c-0.4,0.2-0.9,0.5-1.4,0.8c-0.5,0.3-1,0.7-1.4,1.2s-0.9,0.9-1.3,1.3s-0.7,0.9-0.9,1.3C178.6,56.4,178.5,56.7,178.5,57z"/>
	<path d="M214.6,58.7c-0.7,0.5-1.3,0.9-1.8,1.3c-0.5,0.4-1,0.7-1.5,0.9c-0.5,0.3-1,0.4-1.5,0.6c-0.5,0.1-1.2,0.2-2,0.2
		c-1.7,0-3-0.5-3.8-1.4s-1.2-2.2-1.2-4c0-0.7,0.1-1.4,0.3-2.2c0.2-0.7,0.5-1.5,0.8-2.2s0.8-1.4,1.3-2.1c0.5-0.7,1-1.3,1.7-1.8
		c0.6-0.5,1.3-0.9,2-1.2c0.7-0.3,1.4-0.5,2.2-0.5c1.3,0.1,2.3,0.5,3.1,1c0.7,0.5,1.3,1.2,1.7,2c0.4,0.8,0.6,1.7,0.8,2.7
		c0.1,1,0.3,2,0.3,3.1c0.1,1.1,0.2,2.1,0.3,3.2c0.1,1.1,0.4,2,0.8,2.9c-0.2,0.6-0.5,1-0.7,1.3c-0.2,0.2-0.4,0.3-0.7,0.1
		s-0.6-0.6-0.9-1.2C215.5,60.8,215.1,59.9,214.6,58.7z M205.1,56.4c0,1,0.2,1.8,0.6,2.3c0.4,0.5,1.1,0.7,2.1,0.7
		c0.7,0,1.5-0.1,2.1-0.4c0.7-0.3,1.3-0.6,1.8-1.1c0.5-0.5,0.9-1,1.2-1.7c0.3-0.7,0.5-1.4,0.5-2.2c0-0.3,0-0.8,0-1.4
		c0-0.6,0-1.2-0.1-1.8c-0.1-0.6-0.3-1.1-0.5-1.5c-0.3-0.4-0.6-0.6-1.1-0.6c-0.9,0-1.8,0.2-2.6,0.7c-0.8,0.5-1.5,1.1-2.1,1.8
		c-0.6,0.7-1,1.6-1.4,2.5S205.1,55.5,205.1,56.4z"/>
	<path d="M220.4,46.8c0-0.5,0-1-0.1-1.5c-0.1-0.5-0.1-0.9-0.1-1.3c0-0.4,0.2-0.7,0.4-0.9c0.2-0.2,0.7-0.4,1.4-0.4
		c0.2,0.4,0.4,1.1,0.6,1.9c0.2,0.9,0.4,1.8,0.6,3c0.2,1.1,0.4,2.3,0.5,3.6c0.2,1.3,0.3,2.6,0.5,3.9s0.3,2.6,0.4,3.9
		c0.1,1.3,0.2,2.4,0.2,3.5c-0.6,0.4-1.1,0.4-1.4,0.1c-0.4-0.3-0.7-0.9-0.9-1.8c-0.2-0.8-0.4-1.8-0.5-3c-0.1-1.2-0.3-2.4-0.4-3.7
		c-0.1-1.3-0.3-2.6-0.4-3.8C220.9,48.8,220.7,47.7,220.4,46.8z"/>
	<path d="M237.3,64.8c-0.4-0.7-0.8-1.6-1.3-2.7s-0.9-2.2-1.4-3.3c-0.5-1.2-1-2.3-1.5-3.4c-0.5-1.1-1.1-2.1-1.6-2.9
		c-0.2-0.2-0.5-0.3-0.9-0.3c-0.4,0-0.8,0-1.2,0c-0.4,0-0.8,0-1.2,0s-0.8-0.1-1.1-0.3s-0.5-0.4-0.7-0.8c-0.1-0.3-0.2-0.8-0.1-1.5h4.6
		c0.1-1,0.2-2,0.5-3c0.2-1,0.5-2,0.9-2.9c0.4-0.9,0.8-1.8,1.4-2.5c0.5-0.8,1.2-1.5,1.9-2c0.7-0.6,1.6-1,2.6-1.3
		c1-0.3,2.1-0.5,3.3-0.5c0.4,0,0.9,0.1,1.3,0.3c0.4,0.2,0.8,0.5,1.2,0.8c0.3,0.3,0.6,0.7,0.8,1.2c0.2,0.4,0.3,0.9,0.3,1.3
		c-0.3,0-0.7-0.1-0.9-0.2s-0.5-0.3-0.8-0.5c-0.3-0.2-0.5-0.3-0.8-0.5c-0.3-0.2-0.6-0.2-1-0.2c-1.1,0-2.1,0.2-3,0.7
		c-0.9,0.4-1.8,1-2.5,1.8c-0.7,0.7-1.3,1.6-1.7,2.5c-0.4,1-0.6,2-0.6,3.1c0,0.1,0,0.2,0,0.4c0,0.2,0,0.4,0,0.6s0,0.4,0,0.6
		c0,0.2,0,0.3,0,0.4c0.7,0.2,1.4,0.4,2.3,0.5c0.8,0.1,1.7,0.2,2.5,0.2s1.7,0,2.5,0c0.8,0,1.5-0.1,2.1-0.1c0.1,0.1,0.2,0.2,0.3,0.3
		c0.1,0.1,0.2,0.3,0.2,0.3c0,0.1,0,0.1,0,0.1l0.1,0.2c0,0.4-0.2,0.7-0.6,0.9c-0.4,0.2-0.9,0.4-1.5,0.5c-0.6,0.1-1.3,0.2-2.1,0.2
		c-0.8,0-1.5,0.1-2.2,0.1c-0.7,0-1.3,0.1-1.9,0.1c-0.6,0-0.9,0.1-1.2,0.3c0.2,1.1,0.7,2.2,1.3,3.2c0.6,1,1.2,2,1.9,3.1
		c0.6,1,1.2,2.1,1.7,3.1s0.7,2.1,0.7,3.2c-0.1,0-0.2,0-0.5,0c-0.3,0-0.5,0-0.8,0c-0.3,0-0.6-0.1-0.8-0.2
		C237.5,65.2,237.4,65,237.3,64.8z"/>
	<path d="M257.2,58.7c-0.7,0.5-1.3,0.9-1.8,1.3c-0.5,0.4-1,0.7-1.5,0.9c-0.5,0.3-1,0.4-1.5,0.6c-0.5,0.1-1.2,0.2-2,0.2
		c-1.7,0-3-0.5-3.8-1.4s-1.2-2.2-1.2-4c0-0.7,0.1-1.4,0.3-2.2c0.2-0.7,0.5-1.5,0.8-2.2s0.8-1.4,1.3-2.1c0.5-0.7,1-1.3,1.7-1.8
		c0.6-0.5,1.3-0.9,2-1.2c0.7-0.3,1.4-0.5,2.2-0.5c1.3,0.1,2.3,0.5,3.1,1c0.7,0.5,1.3,1.2,1.7,2c0.4,0.8,0.6,1.7,0.8,2.7
		c0.1,1,0.3,2,0.3,3.1c0.1,1.1,0.2,2.1,0.3,3.2c0.1,1.1,0.4,2,0.8,2.9c-0.2,0.6-0.5,1-0.7,1.3c-0.2,0.2-0.4,0.3-0.7,0.1
		c-0.3-0.2-0.6-0.6-0.9-1.2C258.2,60.8,257.7,59.9,257.2,58.7z M247.8,56.4c0,1,0.2,1.8,0.6,2.3c0.4,0.5,1.1,0.7,2.1,0.7
		c0.7,0,1.5-0.1,2.1-0.4c0.7-0.3,1.3-0.6,1.8-1.1c0.5-0.5,0.9-1,1.2-1.7c0.3-0.7,0.5-1.4,0.5-2.2c0-0.3,0-0.8,0-1.4
		c0-0.6,0-1.2-0.1-1.8c-0.1-0.6-0.3-1.1-0.5-1.5c-0.3-0.4-0.6-0.6-1.1-0.6c-0.9,0-1.8,0.2-2.6,0.7c-0.8,0.5-1.5,1.1-2.1,1.8
		c-0.6,0.7-1,1.6-1.4,2.5S247.8,55.5,247.8,56.4z"/>
</g>
<g>
	<path d="M409.7,21.9c-0.1,0-0.1,0-0.2,0c-0.1,0-0.2,0-0.3,0s-0.2,0-0.3,0c-0.1,0-0.2,0-0.2,0c0,0,0,0,0-0.1c0,0,0,0,0-0.1
		c0-0.1,0-0.3,0.1-0.4c0.1-0.1,0.2-0.2,0.3-0.3c0.1-0.1,0.3-0.2,0.4-0.2c0.1-0.1,0.2-0.1,0.3-0.1l0.2,0l0.2,0c0.2,0,0.6-0.1,1-0.1
		c0.4,0,0.8-0.1,1.2-0.1c0.4,0,0.9-0.1,1.3-0.1c0.4,0,0.8-0.1,1.2-0.1c0.4,0,0.7,0,0.9-0.1c0.2,0,0.4,0,0.4,0c0.1,0,0.2,0,0.3,0
		s0.3,0,0.4,0c0.1,0,0.3,0.1,0.4,0.1c0.1,0.1,0.2,0.1,0.3,0.2c0,0.2-0.1,0.3-0.1,0.4c0,0.1-0.1,0.2-0.2,0.2
		c-0.1,0.1-0.1,0.1-0.2,0.1c-0.1,0-0.2,0-0.3,0.1c-0.4,0.1-0.9,0.2-1.3,0.2c-0.4,0.1-0.9,0.1-1.3,0.2c-0.4,0.1-0.9,0.1-1.3,0.2
		c-0.4,0.1-0.9,0.1-1.3,0.2c0,0.2,0.1,0.5,0.1,0.8s0.1,0.8,0.1,1.2c0.1,0.4,0.1,0.8,0.3,1.2c0.1,0.4,0.3,0.7,0.5,1
		c0.3-0.3,0.7-0.5,1.1-0.6c0.4-0.1,0.8-0.2,1.2-0.3c0.2,0,0.4-0.1,0.7-0.1c0.3-0.1,0.5-0.1,0.8-0.1c0.3,0,0.5,0.1,0.7,0.2
		s0.3,0.3,0.4,0.6c0,0.2,0,0.4,0,0.5c-0.1,0.1-0.2,0.2-0.5,0.3c0,0-0.1,0-0.2,0c-0.1,0-0.2,0-0.3,0c-0.1,0-0.2,0-0.3,0
		c-0.1,0-0.2,0-0.2,0c0,0,0,0-0.1,0c-0.1,0-0.1,0-0.2,0s-0.2,0-0.3,0s-0.2,0-0.2,0c-0.2,0-0.5,0.1-0.7,0.2c-0.2,0.1-0.4,0.2-0.5,0.3
		c-0.1,0.1-0.2,0.3-0.3,0.5c-0.1,0.2-0.1,0.4,0,0.7c0,0.1,0.1,0.2,0.1,0.5c0.1,0.2,0.1,0.5,0.2,0.7s0.2,0.5,0.3,0.8
		c0.1,0.3,0.3,0.5,0.4,0.7c0.1,0.2,0.3,0.4,0.5,0.5c0.2,0.1,0.3,0.2,0.5,0.1c0,0,0.1,0,0.2,0c0.1,0,0.1,0,0.2,0
		c0.3-0.3,0.6-0.6,0.9-1c0.3-0.3,0.6-0.7,0.9-1c0.3-0.3,0.7-0.6,1.1-0.8c0.4-0.2,0.8-0.4,1.2-0.5L420,29c0,0-0.1,0.2-0.2,0.4
		c-0.2,0.2-0.4,0.5-0.7,0.8c-0.3,0.3-0.6,0.6-0.9,1s-0.7,0.7-1,1c-0.4,0.3-0.7,0.6-1,0.8c-0.3,0.2-0.6,0.4-0.9,0.4
		c-0.3,0.1-0.7,0-1-0.3c-0.3-0.3-0.7-0.6-1-1.1c-0.3-0.5-0.6-1-0.9-1.7c-0.3-0.6-0.5-1.3-0.8-2c-0.2-0.7-0.5-1.4-0.7-2.1
		c-0.2-0.7-0.4-1.3-0.6-1.9c-0.2-0.6-0.3-1.1-0.4-1.6S409.8,22,409.7,21.9z"/>
	<path d="M424.5,30.8c0.1-0.1,0.3-0.3,0.5-0.6s0.4-0.5,0.6-0.7c0.2-0.3,0.4-0.5,0.5-0.8c0.2-0.3,0.3-0.5,0.4-0.7
		c0.1-0.2,0.1-0.4,0.1-0.6c0-0.2-0.2-0.3-0.4-0.4c-0.3,0.1-0.7,0.1-1.1,0.3s-0.8,0.2-1.2,0.3c-0.4,0.1-0.8,0.1-1.1,0.1
		c-0.4,0-0.7,0-1-0.1c-0.3-0.1-0.6-0.3-0.8-0.6c-0.2-0.3-0.4-0.6-0.5-1.1c-0.1-0.6-0.1-1.1,0-1.6c0.1-0.5,0.3-0.9,0.6-1.3
		s0.6-0.8,1-1.1c0.4-0.3,0.8-0.7,1.2-0.9c0.3,0,0.5,0.1,0.8,0.2c0.3,0.1,0.5,0.3,0.7,0.5c0,0.2-0.1,0.4-0.3,0.6
		c-0.2,0.2-0.4,0.3-0.7,0.5c-0.3,0.1-0.5,0.3-0.8,0.5c-0.3,0.2-0.5,0.4-0.7,0.6s-0.4,0.5-0.5,0.8c-0.1,0.3-0.1,0.7,0,1.1
		c0.1,0.3,0.2,0.6,0.4,0.7c0.2,0.1,0.4,0.2,0.7,0.2c0.3,0,0.6,0,0.9-0.1c0.3-0.1,0.7-0.2,1-0.3c0.3-0.1,0.7-0.2,1-0.3
		c0.3-0.1,0.6-0.1,0.9-0.1c0.3,0,0.5,0.1,0.7,0.3c0.2,0.2,0.3,0.4,0.4,0.8c0,0.2,0,0.4,0,0.7s-0.1,0.6-0.3,0.9
		c-0.1,0.3-0.3,0.7-0.5,1c-0.2,0.3-0.4,0.6-0.6,0.9c-0.2,0.3-0.4,0.5-0.7,0.7c-0.2,0.2-0.5,0.3-0.7,0.4c-0.2,0-0.4,0-0.5-0.1
		C424.6,31.1,424.5,31,424.5,30.8z"/>
	<path d="M427.3,23C427.3,22.9,427.3,22.9,427.3,23c0-0.1,0-0.1,0-0.2c0-0.1,0.1-0.1,0.1-0.2c0.1-0.1,0.1-0.1,0.1-0.2l3.1-0.6
		c0-0.1-0.1-0.3-0.2-0.5c-0.1-0.2-0.2-0.5-0.2-0.8c-0.1-0.3-0.2-0.6-0.2-0.9c-0.1-0.3-0.1-0.6,0-0.9s0.1-0.5,0.2-0.7
		s0.4-0.3,0.7-0.4c0.2,1,0.4,1.8,0.7,2.4c0.3,0.6,0.6,1,0.9,1.3c0.3,0.3,0.6,0.5,1,0.5s0.6,0,1-0.1c0.3-0.1,0.6-0.2,0.9-0.3
		c0.3-0.1,0.6-0.3,0.8-0.3c0.2-0.1,0.4-0.1,0.6,0c0.2,0,0.3,0.2,0.3,0.5c0,0.2,0,0.4-0.1,0.5c-0.1,0.1-0.3,0.2-0.5,0.3
		c-0.1,0-0.2,0.1-0.4,0.1c-0.2,0.1-0.4,0.1-0.6,0.2c-0.2,0.1-0.5,0.1-0.7,0.2c-0.3,0.1-0.5,0.2-0.7,0.2c-0.2,0.1-0.4,0.1-0.6,0.2
		c-0.2,0-0.3,0.1-0.4,0.1c0,0.1,0,0.1,0,0.3c0,0.1,0,0.2,0,0.2c0.1,0.4,0.2,0.9,0.5,1.3c0.2,0.4,0.5,0.8,0.7,1.2
		c0.3,0.4,0.5,0.8,0.7,1.2s0.4,0.8,0.5,1.3c0,0.1,0,0.2,0,0.3c0,0.1,0,0.2,0,0.2c0,0.1-0.1,0.1-0.2,0.2s-0.2,0.1-0.4,0
		c-0.4,0-0.7-0.2-1-0.5c-0.3-0.3-0.5-0.7-0.7-1.1c-0.2-0.4-0.3-0.9-0.5-1.4s-0.3-1-0.4-1.4c-0.2-0.4-0.3-0.8-0.5-1.1
		s-0.5-0.4-0.8-0.5l-3.1-0.1c0,0-0.1,0-0.2-0.1c-0.1-0.1-0.2-0.1-0.2-0.2C427.4,23.1,427.4,23.1,427.3,23
		C427.4,23,427.3,23,427.3,23z"/>
	<path d="M438.4,25.5c-0.1-0.6-0.1-1.3,0.1-1.9c0.2-0.6,0.5-1.2,0.9-1.6c0.4-0.5,0.9-0.9,1.5-1.3c0.6-0.3,1.2-0.6,1.8-0.7
		c0.3-0.1,0.7,0,1,0.2c0.3,0.2,0.6,0.4,0.8,0.7s0.5,0.6,0.6,0.9c0.2,0.3,0.3,0.6,0.3,0.9c0.1,0.6,0.1,1.2-0.1,1.7s-0.4,1.1-0.8,1.6
		c-0.4,0.5-0.8,0.9-1.3,1.3c-0.5,0.4-1,0.6-1.6,0.7c-0.5,0.1-0.9,0.1-1.3,0c-0.4-0.1-0.7-0.3-0.9-0.5c-0.3-0.2-0.5-0.5-0.7-0.9
		C438.7,26.4,438.5,26,438.4,25.5z M439.8,25.4c0.1,0.3,0.1,0.5,0.2,0.7c0.1,0.2,0.2,0.3,0.3,0.5c0.1,0.1,0.3,0.2,0.5,0.2
		c0.2,0,0.5,0,0.7,0c0.4-0.1,0.7-0.3,1.1-0.5c0.3-0.3,0.6-0.6,0.9-1s0.4-0.8,0.5-1.2c0.1-0.4,0.1-0.8,0-1.2c0-0.2-0.1-0.3-0.2-0.5
		c-0.1-0.2-0.2-0.4-0.3-0.5c-0.1-0.1-0.2-0.3-0.4-0.4c-0.2-0.1-0.3-0.1-0.5-0.1c-0.2,0-0.4,0.1-0.6,0.3c-0.2,0.2-0.5,0.4-0.7,0.6
		c-0.2,0.2-0.5,0.5-0.7,0.8s-0.4,0.6-0.6,0.9c-0.2,0.3-0.3,0.6-0.4,0.8C439.8,25.1,439.7,25.3,439.8,25.4z"/>
	<path d="M445.7,20.8c0-0.1,0-0.2-0.1-0.3c0-0.2-0.1-0.3-0.1-0.5c0-0.2-0.1-0.3-0.1-0.5c0-0.1,0-0.3-0.1-0.3c0-0.1,0.1-0.3,0.2-0.4
		c0.1-0.1,0.2-0.2,0.3-0.3s0.2-0.1,0.3-0.1c0.1,0,0.3,0.1,0.5,0.2l0,0.1l0,0.2c0,0.1,0,0.2,0,0.4c0,0.2,0,0.4,0,0.6
		c0,0.2,0,0.4,0,0.6c0,0.2,0,0.3,0,0.4c0,0.2,0.1,0.4,0.2,0.7c0.1,0.3,0.2,0.6,0.4,0.9c0.1,0.3,0.3,0.6,0.5,0.9s0.4,0.5,0.6,0.8
		c0.2,0.2,0.4,0.4,0.7,0.5c0.2,0.1,0.5,0.2,0.7,0.1c0.3-0.1,0.6-0.2,0.8-0.4s0.4-0.5,0.5-0.8c0.1-0.3,0.2-0.7,0.3-1
		c0-0.4,0.1-0.7,0.1-1.1c0-0.4,0-0.7,0-1c0-0.3-0.1-0.6-0.1-0.9s-0.1-0.5-0.2-0.7c-0.1-0.2-0.2-0.4-0.3-0.6
		c-0.1-0.2-0.2-0.4-0.3-0.6c-0.1-0.2-0.1-0.4-0.2-0.6c0-0.2,0-0.3,0.1-0.5c0.1-0.1,0.3-0.2,0.4-0.2c0.2,0,0.4,0,0.6,0.1
		c0.2,0.1,0.3,0.2,0.4,0.4c0.1,0.2,0.2,0.4,0.3,0.6c0.1,0.2,0.1,0.5,0.2,0.7s0.1,0.5,0.1,0.7c0,0.2,0.1,0.4,0.1,0.5
		c0.1,0.3,0.1,0.7,0.2,1.2c0,0.5,0,0.9,0,1.4c0,0.5-0.1,1-0.2,1.5c-0.1,0.5-0.2,0.9-0.5,1.3c-0.2,0.4-0.5,0.8-0.8,1
		c-0.3,0.3-0.7,0.5-1.1,0.6c-0.5,0.1-0.9,0.1-1.3-0.1s-0.7-0.4-1.1-0.7s-0.6-0.7-0.9-1.1c-0.3-0.4-0.5-0.9-0.7-1.3
		c-0.2-0.4-0.3-0.9-0.5-1.3C445.9,21.5,445.8,21.1,445.7,20.8z"/>
	<path d="M460.5,15.3c-0.1-0.3-0.1-0.6-0.2-0.9c-0.1-0.3-0.2-0.5-0.2-0.7c0-0.2,0-0.4,0.1-0.6c0.1-0.2,0.4-0.3,0.7-0.4
		c0.2,0.2,0.3,0.5,0.5,1c0.2,0.5,0.4,1,0.6,1.6c0.2,0.6,0.5,1.3,0.7,2c0.2,0.7,0.5,1.4,0.7,2.1c0.2,0.7,0.4,1.4,0.6,2.1
		s0.4,1.3,0.5,1.9c-0.3,0.3-0.6,0.4-0.8,0.2c-0.2-0.2-0.5-0.4-0.7-0.9c-0.2-0.4-0.4-1-0.6-1.6c-0.2-0.7-0.4-1.3-0.6-2
		c-0.2-0.7-0.4-1.4-0.7-2.1C461,16.5,460.8,15.9,460.5,15.3z"/>
	<path d="M464,11.7c0.2,0,0.4,0.1,0.6,0.3c0.2,0.2,0.3,0.3,0.3,0.5c0,0.2-0.1,0.3-0.3,0.4c-0.2,0.1-0.6,0.1-1.1,0
		c-0.1-0.3,0-0.5,0-0.8C463.6,11.9,463.7,11.8,464,11.7z M465,17.5c0-0.1,0-0.2-0.1-0.3c0-0.1,0-0.3-0.1-0.4s0-0.3-0.1-0.4
		s0-0.2-0.1-0.3c0.1-0.2,0.2-0.3,0.4-0.5c0.2-0.1,0.3-0.3,0.5-0.4c0.1,0.5,0.3,1.1,0.6,1.7c0.3,0.6,0.5,1.2,0.8,1.8
		c0.3,0.6,0.6,1.2,0.8,1.8c0.2,0.6,0.4,1.1,0.5,1.7c0.1,0.5-0.1,0.7-0.6,0.8c-0.3,0.1-0.5,0-0.8-0.2s-0.5-0.5-0.6-0.8
		c-0.2-0.3-0.4-0.7-0.5-1.2c-0.2-0.4-0.3-0.9-0.4-1.3s-0.2-0.8-0.3-1.2S465,17.7,465,17.5z"/>
	<path d="M467.4,14.7c0-0.3,0.1-0.4,0.2-0.4c0.1,0,0.2,0.1,0.4,0.3s0.4,0.4,0.7,0.8c0.2,0.3,0.5,0.7,0.8,1s0.6,0.8,0.9,1.1
		c0.3,0.4,0.7,0.7,1,1c0.3,0.3,0.7,0.5,1,0.7c0.3,0.2,0.7,0.3,1,0.2l0-6.6c0-0.2,0-0.3,0.2-0.3c0.1-0.1,0.3-0.1,0.4-0.1
		c0.5-0.1,0.7,0.1,0.8,0.5c0,0.2,0.1,0.6,0.2,1.1c0.1,0.5,0.1,1.1,0.1,1.7c0,0.6,0,1.2,0,1.9c0,0.6-0.1,1.2-0.1,1.8
		c-0.1,0.5-0.2,1-0.4,1.4c-0.2,0.4-0.4,0.6-0.7,0.6c-0.4,0.1-0.9,0-1.3-0.2c-0.5-0.2-0.9-0.5-1.4-0.9c-0.5-0.4-0.9-0.8-1.3-1.3
		s-0.8-1-1.1-1.5c-0.3-0.5-0.6-1-0.8-1.5S467.5,15,467.4,14.7z"/>
	<path d="M476,14.6c0-0.1,0-0.2,0-0.3c0-0.1,0-0.2,0-0.3c0-0.1,0.1-0.2,0.1-0.2c0.1-0.1,0.1-0.1,0.3-0.1c0.1,0,0.2,0,0.4,0.2
		c0.2,0.1,0.3,0.3,0.5,0.5s0.4,0.5,0.5,0.7c0.2,0.3,0.3,0.5,0.5,0.7c0.1,0.2,0.3,0.4,0.4,0.6s0.2,0.2,0.2,0.3
		c0.1-0.4,0.1-0.8,0.2-1.3c0.1-0.5,0.2-0.9,0.4-1.3c0.2-0.4,0.4-0.8,0.7-1.1c0.3-0.3,0.7-0.5,1.1-0.6c0.2,0,0.5-0.1,0.7,0
		c0.2,0,0.5,0.1,0.7,0.2c0.2,0.1,0.4,0.3,0.5,0.4c0.1,0.2,0.2,0.4,0.3,0.7c0,0.2,0,0.4-0.2,0.5c-0.2,0.1-0.4,0.2-0.6,0.3l-0.2,0
		l-0.8-0.5c0,0,0,0,0,0c0,0,0,0-0.1,0c0,0,0,0-0.1,0c-0.4,0.1-0.6,0.2-0.8,0.5c-0.2,0.2-0.3,0.5-0.3,0.8c0,0.3,0,0.6,0,1
		c0,0.3,0.1,0.6,0.1,0.9c0,0.2,0.1,0.4,0.2,0.6c0.1,0.2,0.2,0.4,0.3,0.6c0.1,0.2,0.2,0.4,0.3,0.6c0.1,0.2,0.1,0.4,0.2,0.6
		c0.1,0.4-0.1,0.7-0.6,0.8c-0.3,0.1-0.5,0-0.9-0.2c-0.3-0.2-0.7-0.5-1-0.9c-0.4-0.4-0.7-0.8-1-1.2c-0.3-0.5-0.7-0.9-0.9-1.4
		s-0.5-0.8-0.7-1.2C476.1,15,476,14.8,476,14.6z"/>
	<path d="M484.3,15.2c-0.1-0.6-0.2-1.1-0.1-1.7c0-0.6,0.1-1.1,0.3-1.6c0.2-0.5,0.5-0.9,0.9-1.3c0.4-0.4,0.9-0.6,1.6-0.8
		c0.4-0.1,0.7-0.1,1,0s0.6,0.2,0.8,0.4c0.2,0.2,0.4,0.4,0.6,0.7c0.2,0.3,0.3,0.6,0.3,0.9c0.1,0.5,0.1,1.1-0.1,1.6
		c-0.1,0.5-0.4,1-0.7,1.5c-0.3,0.5-0.7,0.8-1.2,1.1c-0.5,0.3-1,0.4-1.6,0.4c0.1,0.3,0.2,0.5,0.4,0.7c0.2,0.1,0.5,0.2,0.8,0.3
		c0.3,0,0.6,0,0.9,0c0.3,0,0.5-0.1,0.8-0.1c0.2,0,0.5-0.1,0.6-0.2c0.2-0.1,0.4-0.2,0.6-0.3c0.2-0.1,0.4-0.2,0.6-0.3
		c0.2-0.1,0.4-0.1,0.7-0.2c0.1,0,0.2,0,0.3,0c0.1,0,0.2,0,0.3,0c0.1,0,0.2,0.1,0.2,0.1s0.1,0.2,0.1,0.3c0,0.2,0,0.4-0.1,0.5
		c-0.1,0.2-0.3,0.3-0.5,0.4s-0.4,0.3-0.7,0.4c-0.3,0.1-0.5,0.2-0.8,0.3c-0.2,0.1-0.5,0.1-0.7,0.2c-0.2,0-0.4,0.1-0.5,0.1
		c-0.7,0.1-1.3,0.1-1.8,0c-0.6-0.1-1.1-0.3-1.5-0.6c-0.4-0.3-0.8-0.7-1.1-1.2S484.4,15.8,484.3,15.2z M485.7,13.9
		c0.1,0.4,0.2,0.6,0.3,0.8c0.1,0.1,0.4,0.2,0.8,0.1c0.3-0.1,0.5-0.2,0.8-0.3c0.2-0.1,0.4-0.3,0.6-0.5c0.2-0.2,0.3-0.5,0.4-0.7
		c0.1-0.3,0.1-0.5,0-0.8c0-0.2-0.1-0.3-0.1-0.5c-0.1-0.2-0.1-0.3-0.3-0.4c-0.1-0.1-0.2-0.2-0.4-0.3c-0.1-0.1-0.3-0.1-0.5,0
		c-0.3,0.1-0.6,0.2-0.8,0.4c-0.2,0.2-0.4,0.4-0.5,0.7c-0.1,0.3-0.2,0.5-0.3,0.8C485.6,13.3,485.6,13.6,485.7,13.9z"/>
	<path d="M491.4,6.2c0.2-0.3,0.4-0.4,0.6-0.3c0.2,0.1,0.3,0.4,0.5,0.7c0.2,0.4,0.3,0.9,0.4,1.4s0.2,1.1,0.4,1.7
		c0.1,0.6,0.2,1.1,0.4,1.6c0.1,0.5,0.2,0.9,0.4,1.2c0,0.2,0,0.3,0,0.4c0,0.1,0,0.2-0.1,0.3c0,0.1-0.1,0.2-0.2,0.2
		c-0.1,0.1-0.2,0.1-0.4,0.1c0,0-0.1,0-0.1,0c0,0-0.1-0.1-0.1-0.2c-0.1-0.1-0.1-0.4-0.2-0.7c-0.1-0.3-0.2-0.7-0.3-1.3
		c-0.1-0.6-0.3-1.3-0.5-2.1C491.9,8.5,491.6,7.5,491.4,6.2z M494.6,16.2c0.1,0,0.3,0,0.4,0c0.1,0.1,0.2,0.1,0.3,0.2
		c0.1,0.1,0.1,0.2,0,0.4c-0.1,0.2-0.3,0.3-0.6,0.5c-0.3,0-0.5,0-0.6-0.1c-0.1-0.1-0.2-0.2-0.3-0.3c0-0.1,0-0.2,0-0.3
		c0-0.1,0.1-0.2,0.2-0.3c0.1-0.1,0.2-0.2,0.3-0.2C494.4,16.1,494.5,16.1,494.6,16.2z"/>
</g>
<g>
	<path d="M457.6,244.5c0-0.3,0.1-0.5,0.3-0.7s0.4-0.4,0.7-0.6c0.3-0.2,0.5-0.4,0.8-0.6c0.3-0.2,0.6-0.4,0.8-0.6s0.4-0.4,0.6-0.6
		s0.2-0.5,0.1-0.7c-0.1-0.3-0.2-0.6-0.4-0.8s-0.5-0.3-0.8-0.4s-0.7-0.2-1.1-0.2c-0.4,0-0.8-0.1-1.2-0.1c-0.4,0-0.8-0.1-1.2-0.1
		c-0.4-0.1-0.8-0.2-1.1-0.3c-0.3-0.1-0.6-0.3-0.9-0.6c-0.2-0.3-0.4-0.6-0.5-1c-0.1-0.4-0.1-0.7,0-1.1c0.1-0.3,0.2-0.7,0.4-1
		c0.2-0.3,0.4-0.7,0.7-1c0.3-0.3,0.6-0.6,0.9-0.8s0.7-0.4,1-0.6c0.3-0.2,0.7-0.3,1-0.3l0.2,0c0.1,0,0.2,0,0.4,0.1
		c0.2,0,0.3,0.1,0.5,0.1c0.2,0,0.3,0.1,0.4,0.1c0.1,0,0.2,0.1,0.2,0.1l0.1,0.4c-0.2,0.1-0.5,0.2-0.8,0.3c-0.3,0.1-0.6,0.3-1,0.4
		c-0.3,0.2-0.7,0.4-1,0.6c-0.3,0.2-0.6,0.5-0.9,0.7c-0.3,0.3-0.4,0.5-0.6,0.8s-0.2,0.6-0.1,0.9c0.1,0.5,0.3,0.8,0.7,1
		c0.4,0.2,0.8,0.3,1.4,0.4c0.5,0.1,1.1,0.1,1.7,0.1c0.6,0,1.2,0.1,1.7,0.2c0.5,0.1,1,0.3,1.4,0.5c0.4,0.2,0.6,0.6,0.7,1.1
		c0.1,0.3,0,0.6-0.1,0.9c-0.1,0.3-0.3,0.7-0.5,1c-0.2,0.4-0.5,0.7-0.8,1c-0.3,0.3-0.6,0.6-0.9,0.9c-0.3,0.3-0.6,0.5-1,0.7
		c-0.3,0.2-0.6,0.3-0.9,0.4c-0.1,0-0.2,0-0.3,0c-0.1,0-0.2,0-0.3-0.1s-0.1-0.1-0.2-0.2C457.6,244.8,457.5,244.6,457.6,244.5z"/>
	<path d="M462.4,231.5c0.2,0,0.4,0.2,0.6,0.3c0.2,0.2,0.3,0.3,0.3,0.5c0,0.2-0.1,0.3-0.3,0.4c-0.2,0.1-0.6,0.1-1.2,0
		c-0.1-0.3-0.1-0.6,0-0.8C461.9,231.7,462.1,231.6,462.4,231.5z M463.4,237.7c0-0.1,0-0.2-0.1-0.3c0-0.1-0.1-0.3-0.1-0.5
		c0-0.2-0.1-0.3-0.1-0.5c0-0.2,0-0.3-0.1-0.3c0.1-0.2,0.2-0.4,0.4-0.5c0.2-0.1,0.3-0.3,0.5-0.4c0.1,0.6,0.4,1.2,0.7,1.8
		c0.3,0.6,0.6,1.3,0.9,1.9s0.6,1.3,0.9,1.9c0.3,0.6,0.5,1.2,0.6,1.8c0.1,0.5-0.1,0.8-0.6,0.9c-0.3,0.1-0.6,0-0.8-0.2
		c-0.3-0.2-0.5-0.5-0.7-0.9c-0.2-0.4-0.4-0.8-0.6-1.2s-0.3-0.9-0.4-1.4c-0.1-0.5-0.2-0.9-0.3-1.2
		C463.5,238.2,463.5,237.9,463.4,237.7z"/>
	<path d="M466.7,237.7c-0.1-0.3,0-0.5,0.1-0.7c0.1-0.2,0.3-0.3,0.6-0.3l0.2,0c0.1,0.2,0.1,0.4,0.2,0.6s0.2,0.4,0.3,0.7
		c0.1,0.2,0.3,0.4,0.4,0.6c0.2,0.2,0.3,0.3,0.5,0.4c-0.1-0.4,0-0.8,0.1-1.2s0.3-0.7,0.5-1.1c0.2-0.3,0.5-0.6,0.7-0.9
		c0.3-0.3,0.6-0.4,0.9-0.6l0.4-0.1c0.5-0.1,1-0.1,1.4,0.1c0.4,0.2,0.8,0.4,1.1,0.7c0.3,0.3,0.6,0.7,0.8,1.2s0.4,0.9,0.6,1.4
		c0.2,0.5,0.3,0.9,0.4,1.4c0.1,0.5,0.2,0.8,0.3,1.2l-1.2,0.2c-0.2-0.6-0.4-1.2-0.6-1.8c-0.1-0.2-0.2-0.5-0.3-0.7
		c-0.1-0.3-0.2-0.5-0.3-0.7c-0.1-0.2-0.2-0.4-0.3-0.6c-0.1-0.2-0.2-0.3-0.4-0.5c-0.1,0-0.1-0.1-0.2-0.1c-0.1-0.1-0.2-0.1-0.3-0.2
		c-0.1-0.1-0.2-0.1-0.3-0.2c-0.1,0-0.1-0.1-0.1-0.1c-0.3,0-0.6,0.1-0.8,0.4s-0.4,0.6-0.5,1s-0.2,0.8-0.2,1.3s0,0.9,0,1.4
		c0,0.4,0,0.8,0.1,1.1c0,0.3,0,0.5,0,0.6c-0.2,0.2-0.5,0.4-0.7,0.3c-0.3,0-0.5-0.2-0.8-0.4c-0.3-0.2-0.5-0.5-0.8-0.9
		c-0.2-0.4-0.5-0.7-0.7-1.2s-0.4-0.8-0.6-1.3C467.1,238.4,466.9,238,466.7,237.7z"/>
	<path d="M475.2,233.1C475.2,233.1,475.2,233.1,475.2,233.1c0-0.1,0-0.1,0-0.2c0-0.1,0.1-0.1,0.2-0.3c0.1-0.1,0.1-0.2,0.1-0.2
		l3.3-0.7c0-0.1-0.1-0.3-0.2-0.6c-0.1-0.3-0.2-0.5-0.3-0.8c-0.1-0.3-0.2-0.6-0.2-1c-0.1-0.3-0.1-0.7,0-1c0-0.3,0.1-0.5,0.3-0.8
		c0.1-0.2,0.4-0.4,0.7-0.4c0.2,1.1,0.5,2,0.8,2.6s0.6,1.1,0.9,1.4c0.3,0.3,0.7,0.5,1,0.5s0.7,0,1-0.1c0.3-0.1,0.7-0.2,1-0.4
		c0.3-0.2,0.6-0.3,0.8-0.4c0.2-0.1,0.5-0.1,0.6,0c0.2,0.1,0.3,0.2,0.3,0.5c0,0.2,0,0.4-0.1,0.5c-0.1,0.1-0.3,0.2-0.5,0.3
		c-0.1,0-0.2,0.1-0.4,0.1c-0.2,0.1-0.4,0.1-0.7,0.2c-0.2,0.1-0.5,0.1-0.8,0.2c-0.3,0.1-0.5,0.2-0.8,0.2c-0.2,0.1-0.5,0.1-0.7,0.2
		c-0.2,0-0.4,0.1-0.5,0.1c0,0.1,0,0.1,0,0.3c0,0.1,0,0.2,0,0.3c0.1,0.5,0.3,0.9,0.5,1.3c0.2,0.4,0.5,0.8,0.8,1.2
		c0.3,0.4,0.5,0.8,0.8,1.2c0.2,0.4,0.4,0.9,0.5,1.3c0,0.1,0,0.2,0,0.3s0,0.2,0,0.3c0,0.1-0.1,0.1-0.2,0.2c-0.1,0.1-0.2,0.1-0.4,0.1
		c-0.4,0-0.8-0.2-1.1-0.5c-0.3-0.3-0.5-0.7-0.7-1.2c-0.2-0.5-0.4-1-0.5-1.5c-0.1-0.5-0.3-1.1-0.5-1.5c-0.2-0.5-0.4-0.9-0.6-1.2
		s-0.5-0.5-0.9-0.5l-3.3-0.1c0,0-0.1,0-0.2-0.1s-0.2-0.1-0.2-0.2C475.3,233.3,475.3,233.3,475.2,233.1
		C475.3,233.2,475.2,233.2,475.2,233.1z"/>
	<path d="M487,235.9c-0.1-0.7-0.1-1.3,0.1-2c0.2-0.6,0.5-1.2,0.9-1.7c0.4-0.5,0.9-1,1.5-1.3c0.6-0.4,1.2-0.6,1.9-0.7
		c0.4-0.1,0.7,0,1.1,0.2c0.3,0.2,0.6,0.4,0.9,0.7c0.3,0.3,0.5,0.6,0.7,1c0.2,0.4,0.3,0.7,0.4,1c0.1,0.6,0.1,1.2-0.1,1.9
		c-0.2,0.6-0.5,1.2-0.8,1.7c-0.4,0.5-0.8,1-1.4,1.4s-1.1,0.6-1.7,0.8c-0.5,0.1-1,0.1-1.4,0c-0.4-0.1-0.7-0.3-1-0.5
		c-0.3-0.3-0.5-0.6-0.7-1C487.3,236.8,487.1,236.3,487,235.9z M488.5,235.8c0.1,0.3,0.1,0.5,0.2,0.7c0.1,0.2,0.2,0.4,0.4,0.5
		c0.2,0.1,0.3,0.2,0.6,0.3c0.2,0,0.5,0,0.8,0c0.4-0.1,0.8-0.3,1.1-0.6c0.4-0.3,0.7-0.7,0.9-1.1c0.3-0.4,0.4-0.8,0.5-1.3
		c0.1-0.5,0.1-0.9,0.1-1.3c0-0.2-0.1-0.4-0.2-0.6c-0.1-0.2-0.2-0.4-0.3-0.5c-0.1-0.2-0.2-0.3-0.4-0.4c-0.2-0.1-0.4-0.1-0.6-0.1
		c-0.2,0-0.4,0.1-0.7,0.3c-0.2,0.2-0.5,0.4-0.7,0.7c-0.2,0.3-0.5,0.6-0.7,0.9c-0.2,0.3-0.4,0.6-0.6,0.9c-0.2,0.3-0.3,0.6-0.4,0.9
		C488.5,235.4,488.4,235.6,488.5,235.8z"/>
	<path d="M510.5,236.2c-0.3-0.4-0.7-0.9-1.1-1.4c-0.4-0.6-0.8-1.2-1.3-1.8c-0.4-0.6-0.9-1.2-1.3-1.8c-0.5-0.6-0.9-1.1-1.3-1.5
		c-0.1-0.1-0.3-0.1-0.6-0.1c-0.2,0-0.5,0.1-0.7,0.1c-0.2,0.1-0.5,0.1-0.7,0.1c-0.2,0-0.5,0-0.7,0c-0.2-0.1-0.4-0.2-0.5-0.4
		s-0.2-0.5-0.2-0.9l2.7-0.5c-0.1-0.6-0.1-1.2-0.1-1.9c0-0.6,0.1-1.2,0.2-1.8c0.1-0.6,0.3-1.1,0.5-1.7s0.5-1,0.9-1.4
		c0.4-0.4,0.8-0.8,1.4-1.1c0.5-0.3,1.2-0.5,1.9-0.7c0.3-0.1,0.5,0,0.8,0c0.3,0.1,0.6,0.2,0.8,0.4s0.5,0.4,0.6,0.6
		c0.2,0.2,0.3,0.5,0.3,0.7c-0.2,0-0.4,0-0.6,0c-0.2,0-0.4-0.1-0.5-0.2c-0.2-0.1-0.4-0.1-0.5-0.2c-0.2-0.1-0.4-0.1-0.6,0
		c-0.7,0.1-1.2,0.4-1.7,0.8c-0.5,0.4-0.9,0.8-1.3,1.3c-0.3,0.5-0.6,1.1-0.7,1.7c-0.1,0.6-0.1,1.3,0,1.9c0,0,0,0.1,0.1,0.2
		c0,0.1,0.1,0.2,0.1,0.4c0,0.1,0.1,0.3,0.1,0.4c0,0.1,0,0.2,0.1,0.2c0.4,0.1,0.9,0.1,1.4,0c0.5,0,1-0.1,1.5-0.2
		c0.5-0.1,1-0.2,1.5-0.3c0.5-0.1,0.9-0.2,1.2-0.3c0,0,0.1,0.1,0.2,0.1c0.1,0.1,0.2,0.1,0.2,0.2c0,0,0,0.1,0,0.1l0.1,0.1
		c0,0.2,0,0.4-0.3,0.6s-0.5,0.3-0.9,0.5c-0.4,0.1-0.8,0.3-1.2,0.4c-0.4,0.1-0.9,0.2-1.3,0.3c-0.4,0.1-0.8,0.2-1.1,0.3
		c-0.3,0.1-0.5,0.2-0.7,0.3c0.3,0.6,0.6,1.2,1.1,1.7c0.5,0.5,1,1.1,1.5,1.6c0.5,0.5,1,1.1,1.4,1.6c0.4,0.6,0.7,1.2,0.8,1.8
		c0,0-0.1,0-0.3,0.1c-0.2,0-0.3,0.1-0.5,0.1c-0.2,0-0.4,0-0.5,0C510.7,236.4,510.6,236.4,510.5,236.2z"/>
	<path d="M521.7,230.2c-0.4,0.4-0.7,0.7-0.9,1c-0.3,0.3-0.5,0.5-0.8,0.7c-0.3,0.2-0.5,0.4-0.8,0.5c-0.3,0.1-0.7,0.3-1.2,0.3
		c-1,0.2-1.8,0.1-2.4-0.4s-1-1.2-1.2-2.3c-0.1-0.4-0.1-0.9-0.1-1.3s0.1-0.9,0.2-1.4s0.3-0.9,0.5-1.4c0.2-0.5,0.5-0.9,0.8-1.2
		c0.3-0.4,0.7-0.7,1-1c0.4-0.3,0.8-0.4,1.3-0.5c0.8-0.1,1.4,0,2,0.2c0.5,0.2,0.9,0.5,1.2,1c0.3,0.4,0.6,0.9,0.8,1.5
		c0.2,0.6,0.4,1.2,0.6,1.8c0.2,0.6,0.4,1.2,0.6,1.9c0.2,0.6,0.5,1.2,0.8,1.6c-0.1,0.4-0.2,0.7-0.2,0.8s-0.2,0.2-0.4,0.2
		c-0.2-0.1-0.4-0.3-0.7-0.6C522.4,231.4,522.1,230.9,521.7,230.2z M515.8,230c0.1,0.6,0.3,1,0.6,1.3c0.3,0.2,0.7,0.3,1.3,0.2
		c0.4-0.1,0.9-0.3,1.2-0.5c0.4-0.2,0.7-0.5,0.9-0.9c0.2-0.3,0.4-0.7,0.5-1.1c0.1-0.4,0.1-0.9,0-1.4c0-0.2-0.1-0.5-0.1-0.8
		c-0.1-0.4-0.2-0.7-0.3-1c-0.1-0.3-0.3-0.6-0.5-0.8c-0.2-0.2-0.5-0.3-0.8-0.2c-0.6,0.1-1.1,0.4-1.5,0.7c-0.4,0.4-0.8,0.8-1,1.3
		c-0.3,0.5-0.4,1.1-0.5,1.6S515.7,229.5,515.8,230z"/>
	<path d="M523.7,222.4c-0.1-0.3-0.1-0.6-0.2-0.9c-0.1-0.3-0.2-0.6-0.2-0.8c0-0.2,0-0.4,0.1-0.6c0.1-0.2,0.4-0.3,0.8-0.4
		c0.2,0.2,0.4,0.6,0.6,1.1c0.2,0.5,0.4,1.1,0.7,1.7s0.5,1.3,0.7,2.1c0.3,0.8,0.5,1.5,0.7,2.3c0.2,0.8,0.5,1.5,0.7,2.3
		c0.2,0.7,0.4,1.4,0.5,2c-0.3,0.3-0.6,0.4-0.9,0.2c-0.3-0.2-0.5-0.5-0.7-0.9c-0.2-0.5-0.5-1-0.7-1.7c-0.2-0.7-0.4-1.4-0.7-2.2
		s-0.5-1.5-0.7-2.2C524.3,223.6,524,223,523.7,222.4z"/>
	<path d="M527,222.8C527,222.8,527,222.8,527,222.8c0-0.1,0-0.1,0-0.2c0-0.1,0.1-0.1,0.2-0.3c0.1-0.1,0.1-0.2,0.1-0.2l3.3-0.7
		c0-0.1-0.1-0.3-0.2-0.6c-0.1-0.3-0.2-0.5-0.3-0.8c-0.1-0.3-0.2-0.6-0.2-1c-0.1-0.3-0.1-0.7,0-1c0-0.3,0.1-0.5,0.3-0.8
		c0.1-0.2,0.4-0.4,0.7-0.4c0.2,1.1,0.5,2,0.8,2.6c0.3,0.6,0.6,1.1,0.9,1.4c0.3,0.3,0.7,0.5,1,0.5c0.3,0,0.7,0,1-0.1
		c0.3-0.1,0.7-0.2,1-0.4c0.3-0.2,0.6-0.3,0.8-0.4c0.2-0.1,0.5-0.1,0.6,0c0.2,0.1,0.3,0.2,0.3,0.5c0,0.2,0,0.4-0.1,0.5
		c-0.1,0.1-0.3,0.2-0.5,0.3c-0.1,0-0.2,0.1-0.4,0.1c-0.2,0.1-0.4,0.1-0.7,0.2c-0.2,0.1-0.5,0.1-0.8,0.2c-0.3,0.1-0.5,0.2-0.8,0.2
		c-0.2,0.1-0.5,0.1-0.7,0.2c-0.2,0-0.4,0.1-0.5,0.1c0,0.1,0,0.1,0,0.3c0,0.1,0,0.2,0,0.3c0.1,0.5,0.3,0.9,0.5,1.3
		c0.2,0.4,0.5,0.8,0.8,1.2c0.3,0.4,0.5,0.8,0.8,1.2c0.2,0.4,0.4,0.9,0.5,1.3c0,0.1,0,0.2,0,0.3s0,0.2,0,0.3c0,0.1-0.1,0.1-0.2,0.2
		c-0.1,0.1-0.2,0.1-0.4,0.1c-0.4,0-0.8-0.2-1.1-0.5c-0.3-0.3-0.5-0.7-0.7-1.2c-0.2-0.5-0.4-1-0.5-1.5c-0.1-0.5-0.3-1.1-0.5-1.5
		c-0.2-0.5-0.4-0.9-0.6-1.2s-0.5-0.5-0.9-0.5l-3.3-0.1c0,0-0.1,0-0.2-0.1s-0.2-0.1-0.2-0.2C527,223,527,223,527,222.8
		C527,222.9,527,222.9,527,222.8z"/>
	<path d="M546,225.4c-0.4,0.4-0.7,0.7-0.9,1c-0.3,0.3-0.5,0.5-0.8,0.7c-0.3,0.2-0.5,0.4-0.8,0.5c-0.3,0.1-0.7,0.3-1.2,0.3
		c-1,0.2-1.8,0.1-2.4-0.4s-1-1.2-1.2-2.3c-0.1-0.4-0.1-0.9-0.1-1.3c0-0.5,0.1-0.9,0.2-1.4c0.1-0.5,0.3-0.9,0.5-1.4s0.5-0.9,0.8-1.2
		c0.3-0.4,0.7-0.7,1-1c0.4-0.3,0.8-0.4,1.3-0.5c0.8-0.1,1.4,0,2,0.2s0.9,0.5,1.2,1c0.3,0.4,0.6,0.9,0.8,1.5c0.2,0.6,0.4,1.2,0.6,1.8
		c0.2,0.6,0.4,1.2,0.6,1.9c0.2,0.6,0.5,1.2,0.8,1.6c-0.1,0.4-0.2,0.7-0.2,0.8c-0.1,0.2-0.2,0.2-0.4,0.2c-0.2-0.1-0.4-0.3-0.7-0.6
		C546.8,226.5,546.5,226,546,225.4z M540.1,225.1c0.1,0.6,0.3,1,0.6,1.3c0.3,0.2,0.7,0.3,1.3,0.2c0.4-0.1,0.9-0.3,1.2-0.5
		c0.4-0.2,0.7-0.5,0.9-0.9c0.2-0.3,0.4-0.7,0.5-1.1s0.1-0.9,0-1.4c0-0.2-0.1-0.5-0.1-0.8c-0.1-0.4-0.2-0.7-0.3-1
		c-0.1-0.3-0.3-0.6-0.5-0.8c-0.2-0.2-0.5-0.3-0.8-0.2c-0.6,0.1-1.1,0.4-1.5,0.7c-0.4,0.4-0.8,0.8-1,1.3c-0.3,0.5-0.4,1.1-0.5,1.6
		C540,224.1,540,224.6,540.1,225.1z"/>
	<path d="M556.3,223.5c-0.1-0.6-0.1-1.2,0.1-1.8c0.2-0.6,0.5-1.1,0.9-1.5c0.4-0.5,0.8-0.9,1.3-1.2c0.5-0.4,1-0.7,1.4-0.9
		c0.4-0.3,0.8-0.5,1.1-0.6c0.3-0.2,0.4-0.3,0.4-0.3c-0.1-0.4-0.2-0.7-0.3-1.1c-0.1-0.4-0.2-0.7-0.3-1.1c-0.1-0.4-0.2-0.7-0.3-1.1
		c-0.1-0.4-0.2-0.7-0.3-1.1l-0.2-1.1c0.4-0.3,0.7-0.3,1-0.1c0.2,0.2,0.3,0.5,0.3,1c0.1,0.2,0.2,0.6,0.4,1.1s0.4,1.1,0.6,1.7
		c0.2,0.6,0.5,1.3,0.7,2c0.2,0.7,0.5,1.3,0.7,2c0.2,0.6,0.4,1.2,0.6,1.7s0.3,0.9,0.4,1.1c0,0.1,0.1,0.2,0.1,0.3
		c0,0.2,0.1,0.3,0.1,0.5s0.1,0.3,0.1,0.5s0.1,0.3,0.1,0.3c-0.4,0.1-0.7,0.1-0.8,0.1c-0.2,0-0.3-0.1-0.3-0.1
		c-0.1-0.1-0.1-0.2-0.1-0.4c0-0.2-0.1-0.4-0.3-0.7c-0.3,0.4-0.7,0.7-1,1c-0.3,0.3-0.6,0.5-1,0.7c-0.3,0.2-0.7,0.4-1,0.5
		c-0.4,0.1-0.7,0.2-1.1,0.3c-0.3,0.1-0.7,0.1-1,0.1s-0.6,0-0.9-0.1c-0.3-0.1-0.5-0.3-0.7-0.5C556.6,224.2,556.4,223.9,556.3,223.5z
		 M557.7,222.9c0,0.2,0.1,0.3,0.2,0.4c0.1,0.1,0.2,0.2,0.3,0.2c0.1,0.1,0.3,0.1,0.4,0.1c0.1,0,0.3,0,0.4,0c0.4-0.1,0.8-0.2,1.2-0.5
		s0.8-0.5,1.1-0.9c0.3-0.3,0.6-0.7,0.7-1.1c0.2-0.4,0.2-0.8,0.1-1.3c-0.1-0.3-0.2-0.6-0.3-0.7s-0.4-0.1-0.7-0.1
		c-0.3,0.1-0.7,0.2-1.2,0.5c-0.4,0.3-0.8,0.6-1.2,0.9c-0.4,0.4-0.7,0.7-0.9,1.2S557.6,222.5,557.7,222.9z"/>
	<path d="M565.3,219c-0.1-0.6-0.2-1.2-0.1-1.8c0-0.6,0.1-1.2,0.4-1.7c0.2-0.5,0.5-1,1-1.4c0.4-0.4,1-0.7,1.7-0.8
		c0.4-0.1,0.8-0.1,1.1,0c0.3,0.1,0.6,0.2,0.9,0.4c0.3,0.2,0.5,0.4,0.6,0.7c0.2,0.3,0.3,0.6,0.4,1c0.1,0.6,0.1,1.1-0.1,1.7
		c-0.2,0.6-0.4,1.1-0.8,1.6c-0.3,0.5-0.8,0.9-1.3,1.2c-0.5,0.3-1.1,0.5-1.7,0.5c0.1,0.3,0.2,0.5,0.5,0.7c0.2,0.2,0.5,0.2,0.8,0.3
		c0.3,0,0.6,0,0.9,0c0.3,0,0.6-0.1,0.8-0.1c0.2,0,0.5-0.1,0.7-0.2c0.2-0.1,0.4-0.2,0.6-0.3c0.2-0.1,0.4-0.2,0.6-0.3s0.4-0.2,0.7-0.2
		c0.1,0,0.2,0,0.3,0c0.1,0,0.2,0,0.3,0c0.1,0,0.2,0.1,0.2,0.1c0.1,0.1,0.1,0.2,0.1,0.3c0,0.2,0,0.4-0.1,0.6
		c-0.1,0.2-0.3,0.3-0.5,0.5c-0.2,0.1-0.5,0.3-0.7,0.4c-0.3,0.1-0.5,0.2-0.8,0.3c-0.3,0.1-0.5,0.1-0.7,0.2c-0.2,0-0.4,0.1-0.5,0.1
		c-0.7,0.1-1.3,0.2-1.9,0c-0.6-0.1-1.1-0.3-1.6-0.6s-0.8-0.7-1.2-1.3C565.6,220.3,565.4,219.7,565.3,219z M566.8,217.6
		c0.1,0.4,0.2,0.6,0.3,0.8c0.1,0.2,0.4,0.2,0.8,0.1c0.3-0.1,0.5-0.2,0.8-0.3c0.2-0.2,0.5-0.3,0.7-0.6c0.2-0.2,0.3-0.5,0.4-0.8
		c0.1-0.3,0.1-0.6,0-0.9c0-0.2-0.1-0.3-0.1-0.5c-0.1-0.2-0.2-0.3-0.3-0.4c-0.1-0.1-0.3-0.2-0.4-0.3c-0.2-0.1-0.3-0.1-0.6,0
		c-0.3,0.1-0.6,0.2-0.8,0.4c-0.2,0.2-0.4,0.4-0.6,0.7c-0.1,0.3-0.2,0.6-0.3,0.9S566.7,217.3,566.8,217.6z"/>
	<path d="M504.1,258.2c-0.4,0.4-0.7,0.7-0.9,1c-0.3,0.3-0.5,0.5-0.8,0.7c-0.3,0.2-0.5,0.4-0.8,0.5c-0.3,0.1-0.7,0.3-1.2,0.3
		c-1,0.2-1.8,0.1-2.4-0.4c-0.6-0.4-1-1.2-1.2-2.3c-0.1-0.4-0.1-0.9-0.1-1.3c0-0.5,0.1-0.9,0.2-1.4c0.1-0.5,0.3-1,0.5-1.4
		c0.2-0.5,0.5-0.9,0.8-1.2c0.3-0.4,0.7-0.7,1-1c0.4-0.3,0.8-0.4,1.3-0.5c0.8-0.1,1.4,0,2,0.2c0.5,0.2,0.9,0.5,1.2,1
		c0.3,0.4,0.6,0.9,0.8,1.5c0.2,0.6,0.4,1.2,0.6,1.8c0.2,0.6,0.4,1.2,0.6,1.9c0.2,0.6,0.5,1.2,0.8,1.6c-0.1,0.4-0.2,0.7-0.2,0.8
		s-0.2,0.2-0.4,0.2s-0.4-0.3-0.7-0.6C504.8,259.3,504.5,258.9,504.1,258.2z M498.2,257.9c0.1,0.6,0.3,1,0.6,1.3
		c0.3,0.2,0.7,0.3,1.3,0.2c0.4-0.1,0.9-0.3,1.2-0.5c0.4-0.2,0.7-0.5,0.9-0.9c0.2-0.3,0.4-0.7,0.5-1.1c0.1-0.4,0.1-0.9,0-1.4
		c0-0.2-0.1-0.5-0.1-0.8c-0.1-0.4-0.2-0.7-0.3-1s-0.3-0.6-0.5-0.8c-0.2-0.2-0.5-0.3-0.8-0.2c-0.6,0.1-1.1,0.4-1.5,0.7
		c-0.4,0.4-0.8,0.8-1,1.3c-0.3,0.5-0.4,1.1-0.5,1.6C498.1,256.9,498.1,257.4,498.2,257.9z"/>
	<path d="M506.1,250.4c-0.1-0.3-0.1-0.6-0.2-0.9c-0.1-0.3-0.2-0.6-0.2-0.8c0-0.2,0-0.4,0.1-0.6c0.1-0.2,0.4-0.3,0.8-0.4
		c0.2,0.2,0.4,0.6,0.6,1.1c0.2,0.5,0.4,1.1,0.7,1.7c0.2,0.6,0.5,1.3,0.7,2.1c0.3,0.8,0.5,1.5,0.7,2.3c0.2,0.8,0.5,1.5,0.7,2.3
		c0.2,0.7,0.4,1.4,0.5,2c-0.3,0.3-0.6,0.4-0.9,0.2s-0.5-0.5-0.7-0.9c-0.2-0.5-0.5-1-0.7-1.7c-0.2-0.7-0.4-1.4-0.7-2.2
		c-0.2-0.8-0.5-1.5-0.7-2.2C506.7,251.6,506.4,251,506.1,250.4z"/>
	<path d="M517.3,266.8c0.6-0.1,1.1-0.3,1.6-0.7c0.4-0.3,0.8-0.7,1-1.2c0.3-0.5,0.4-0.9,0.5-1.5c0.1-0.5,0.1-1.1,0-1.6
		c-0.1-0.3-0.1-0.6-0.3-1.1c-0.1-0.4-0.3-0.9-0.4-1.4c-0.2-0.5-0.3-1-0.6-1.5c-0.2-0.5-0.4-1-0.7-1.5c-0.2-0.5-0.5-0.8-0.8-1.2
		c-0.3-0.3-0.6-0.5-0.9-0.6c-0.2,0.3-0.5,0.5-0.7,0.8c-0.2,0.2-0.5,0.4-0.8,0.6c-0.3,0.2-0.6,0.3-0.9,0.5c-0.3,0.1-0.6,0.2-1,0.3
		c-0.5,0.1-0.9,0.1-1.2,0.1c-0.3,0-0.7-0.1-0.9-0.3s-0.5-0.4-0.7-0.7c-0.2-0.3-0.3-0.7-0.4-1.2c-0.1-0.4-0.1-0.7,0.1-1.1
		c0.1-0.4,0.3-0.7,0.5-1.1c0.2-0.4,0.5-0.7,0.8-1c0.3-0.3,0.6-0.6,1-0.9c0.3-0.3,0.7-0.5,1.1-0.7c0.4-0.2,0.7-0.3,1-0.3
		c0.3-0.1,0.5-0.1,0.7-0.1c0.2,0,0.4,0,0.5,0c0.1,0,0.3,0.1,0.4,0.3c0.1,0.1,0.3,0.3,0.4,0.5c0.4,0.8,0.9,1.7,1.4,2.6
		c0.5,0.9,1,1.9,1.5,2.8c0.5,1,1,2,1.4,3c0.4,1,0.7,2,0.9,3c0.2,0.9,0.2,1.6,0.1,2.3s-0.3,1.2-0.7,1.7c-0.3,0.5-0.7,0.8-1.2,1.2
		c-0.5,0.3-0.9,0.5-1.4,0.7c-0.5,0.2-1,0.3-1.5,0.3c-0.5,0.1-0.9,0.1-1.3,0.1c-0.4,0-0.6-0.1-0.9-0.2c-0.2-0.1-0.3-0.2-0.2-0.3
		c0.1-0.1,0.3-0.2,0.7-0.3C515.9,267,516.5,266.9,517.3,266.8z M514.4,251c-0.8,0.3-1.4,0.7-1.8,1.1c-0.4,0.4-0.7,0.8-0.9,1.2
		c-0.2,0.4-0.2,0.8-0.2,1.1c0,0.4,0.2,0.6,0.4,0.9c0.2,0.2,0.5,0.4,0.8,0.4c0.3,0.1,0.6,0,1-0.2s0.7-0.5,1-1
		c0.3-0.5,0.7-1.1,0.9-1.9c0-0.2-0.1-0.4-0.1-0.6c0-0.2-0.1-0.4-0.2-0.6c-0.1-0.2-0.2-0.3-0.3-0.4S514.7,251,514.4,251z"/>
	<path d="M519.5,250.4c0-0.1,0-0.2-0.1-0.4c0-0.2-0.1-0.3-0.1-0.5c0-0.2-0.1-0.4-0.1-0.5c0-0.2,0-0.3-0.1-0.3c0-0.1,0.1-0.3,0.2-0.4
		c0.1-0.1,0.2-0.3,0.3-0.3c0.1-0.1,0.2-0.1,0.4-0.1c0.1,0,0.3,0.1,0.5,0.2l0,0.1l0,0.2c0,0.1,0,0.2,0,0.4c0,0.2,0,0.4,0,0.7
		c0,0.2,0,0.5,0,0.7s0,0.3,0,0.4c0,0.2,0.1,0.5,0.2,0.8c0.1,0.3,0.2,0.6,0.4,0.9c0.1,0.3,0.3,0.6,0.5,0.9c0.2,0.3,0.4,0.6,0.6,0.8
		c0.2,0.2,0.5,0.4,0.7,0.5c0.2,0.1,0.5,0.2,0.8,0.1c0.3-0.1,0.6-0.2,0.9-0.5s0.4-0.5,0.5-0.9c0.1-0.3,0.2-0.7,0.3-1.1
		c0.1-0.4,0.1-0.8,0.1-1.2c0-0.4,0-0.8-0.1-1.1s-0.1-0.7-0.1-0.9c-0.1-0.3-0.1-0.5-0.2-0.7c-0.1-0.2-0.2-0.4-0.3-0.7
		c-0.1-0.2-0.2-0.4-0.3-0.6c-0.1-0.2-0.1-0.4-0.2-0.7c0-0.2,0-0.4,0.1-0.5c0.1-0.1,0.3-0.2,0.5-0.2c0.2,0,0.4,0,0.6,0.1
		c0.2,0.1,0.3,0.3,0.4,0.4c0.1,0.2,0.2,0.4,0.3,0.7c0.1,0.3,0.1,0.5,0.2,0.8c0.1,0.3,0.1,0.5,0.1,0.7c0,0.2,0.1,0.4,0.1,0.6
		c0.1,0.4,0.1,0.8,0.2,1.3c0,0.5,0,1,0,1.5c0,0.5-0.1,1-0.2,1.6c-0.1,0.5-0.3,1-0.5,1.4c-0.2,0.4-0.5,0.8-0.8,1.1
		c-0.3,0.3-0.7,0.5-1.2,0.6c-0.5,0.1-0.9,0.1-1.4-0.1c-0.4-0.2-0.8-0.4-1.1-0.7c-0.3-0.3-0.6-0.7-0.9-1.2c-0.3-0.5-0.5-0.9-0.7-1.4
		s-0.3-0.9-0.5-1.4C519.7,251.2,519.6,250.8,519.5,250.4z"/>
	<path d="M527.5,248.6c-0.1-0.3,0-0.5,0-0.7c0.1-0.2,0.2-0.3,0.5-0.3c0,0,0.1,0,0.2,0c0.1,0,0.2,0,0.2,0c0.1,0.3,0.3,0.7,0.5,1.1
		c0.2,0.4,0.3,0.8,0.5,1.1c0.2,0.4,0.4,0.8,0.6,1.1c0.2,0.4,0.4,0.7,0.7,1c0.2-0.2,0.2-0.5,0.3-0.8c0-0.3,0-0.6,0-0.9
		c0-0.3,0-0.6,0-0.9c0-0.3,0-0.5,0.1-0.7c0.1-0.2,0.2-0.4,0.4-0.5c0.2-0.1,0.5-0.2,1-0.2c0.5-0.1,0.8-0.1,1.1,0
		c0.3,0.1,0.6,0.3,0.8,0.5s0.5,0.4,0.7,0.7c0.2,0.2,0.5,0.5,0.9,0.6c0-0.2,0.1-0.3,0.1-0.6c0.1-0.2,0.1-0.5,0.2-0.7
		c0.1-0.3,0.2-0.5,0.3-0.8c0.1-0.3,0.3-0.5,0.4-0.7c0.1-0.2,0.3-0.4,0.5-0.6c0.2-0.2,0.3-0.3,0.5-0.3c0.4-0.1,0.9,0,1.2,0.2
		s0.7,0.5,1,0.9c0.3,0.4,0.6,0.8,0.9,1.3c0.3,0.5,0.5,1,0.7,1.4c0.2,0.5,0.3,0.9,0.4,1.3c0.1,0.4,0.2,0.7,0.2,0.8c0,0.1,0,0.3,0,0.3
		c0,0.1-0.1,0.2-0.2,0.2c-0.1,0.1-0.2,0.1-0.3,0.1c-0.1,0-0.2,0.1-0.3,0.1c0,0-0.1,0-0.1,0c0,0-0.1,0-0.2,0c0,0-0.1,0-0.2,0l-2-4.7
		c0,0-0.1-0.1-0.2-0.2c-0.1-0.1-0.2-0.1-0.2-0.1c0,0-0.1,0-0.1,0c0,0,0,0-0.1,0c0,0,0,0,0,0c-0.2,0-0.4,0.2-0.6,0.4
		c-0.2,0.2-0.3,0.5-0.4,0.8c-0.1,0.3-0.2,0.7-0.3,1c-0.1,0.4-0.2,0.7-0.2,1.1c-0.1,0.4-0.1,0.7-0.1,1c0,0.3-0.1,0.5-0.1,0.7
		c0,0-0.1,0.1-0.2,0.1c-0.1,0-0.2,0.1-0.3,0.1c-0.3,0.1-0.6,0-0.8-0.2c-0.2-0.2-0.4-0.4-0.6-0.7c-0.2-0.3-0.3-0.6-0.5-1
		s-0.3-0.7-0.5-1c-0.2-0.3-0.4-0.5-0.6-0.7c-0.2-0.2-0.5-0.2-0.8-0.2c-0.1,0-0.2,0.2-0.3,0.4c-0.1,0.3-0.1,0.6-0.1,1
		c0,0.4,0,0.8,0,1.2c0,0.4,0,0.8,0,1.2s0.1,0.8,0.1,1.3c0,0-0.1,0.1-0.1,0.1c-0.1,0.1-0.1,0.1-0.2,0.2c-0.1,0.1-0.1,0.1-0.2,0.1
		c-0.1,0-0.1,0.1-0.1,0.1c-0.3,0.1-0.6,0-1-0.2c-0.3-0.2-0.7-0.5-1-0.9s-0.6-0.8-0.9-1.3c-0.3-0.5-0.6-1-0.8-1.5
		c-0.2-0.5-0.4-0.9-0.6-1.3C527.6,249.2,527.5,248.8,527.5,248.6z"/>
	<path d="M550.1,249.1c-0.4,0.4-0.7,0.7-0.9,1c-0.3,0.3-0.5,0.5-0.8,0.7c-0.3,0.2-0.5,0.4-0.8,0.5c-0.3,0.1-0.7,0.3-1.2,0.3
		c-1,0.2-1.8,0.1-2.4-0.4c-0.6-0.4-1-1.2-1.2-2.3c-0.1-0.4-0.1-0.9-0.1-1.3c0-0.5,0.1-0.9,0.2-1.4c0.1-0.5,0.3-1,0.5-1.4
		c0.2-0.5,0.5-0.9,0.8-1.2c0.3-0.4,0.7-0.7,1-1c0.4-0.3,0.8-0.4,1.3-0.5c0.8-0.1,1.4,0,2,0.2c0.5,0.2,0.9,0.5,1.2,1s0.6,0.9,0.8,1.5
		c0.2,0.6,0.4,1.2,0.6,1.8c0.2,0.6,0.4,1.2,0.6,1.9c0.2,0.6,0.5,1.2,0.8,1.6c-0.1,0.4-0.2,0.7-0.2,0.8s-0.2,0.2-0.4,0.2
		c-0.2-0.1-0.4-0.3-0.7-0.6S550.5,249.7,550.1,249.1z M544.2,248.8c0.1,0.6,0.3,1,0.6,1.3c0.3,0.2,0.7,0.3,1.3,0.2
		c0.4-0.1,0.9-0.3,1.2-0.5c0.4-0.2,0.7-0.5,0.9-0.9c0.2-0.3,0.4-0.7,0.5-1.1c0.1-0.4,0.1-0.9,0-1.4c0-0.2-0.1-0.5-0.1-0.8
		c-0.1-0.4-0.2-0.7-0.3-1c-0.1-0.3-0.3-0.6-0.5-0.8c-0.2-0.2-0.5-0.3-0.8-0.2c-0.6,0.1-1.1,0.4-1.5,0.7c-0.4,0.4-0.8,0.8-1,1.3
		c-0.3,0.5-0.4,1.1-0.5,1.6C544.1,247.7,544.1,248.3,544.2,248.8z"/>
	<path d="M559.8,244.2c-0.1-0.5-0.1-1,0-1.5c0.1-0.5,0.3-1,0.5-1.5c0.3-0.5,0.6-0.9,1-1.2c0.4-0.4,0.8-0.6,1.3-0.7
		c0.2,0,0.5-0.1,0.8,0c0.3,0,0.5,0.1,0.8,0.2c0.2,0.1,0.4,0.3,0.6,0.5c0.2,0.2,0.3,0.4,0.3,0.7c-0.2,0-0.4,0.1-0.5,0
		c-0.2,0-0.3,0-0.5-0.1c-0.2,0-0.3-0.1-0.5-0.1c-0.2,0-0.3,0-0.5,0c-0.4,0.1-0.8,0.3-1,0.5c-0.2,0.3-0.4,0.6-0.5,1
		c-0.1,0.4-0.1,0.8-0.1,1.1c0,0.4,0.1,0.8,0.1,1.1c0,0.1,0,0.2,0.1,0.3c0,0.2,0.1,0.3,0.1,0.5c0,0.2,0.1,0.3,0.1,0.5
		c0,0.2,0.1,0.3,0.1,0.3c0.2,0.2,0.3,0.4,0.5,0.5c0.1,0.1,0.3,0.2,0.4,0.2c0.1,0,0.3,0.1,0.4,0c0.2,0,0.3,0,0.5-0.1
		c0.3-0.1,0.5-0.1,0.7-0.3c0.2-0.1,0.4-0.3,0.5-0.4c0.2-0.2,0.3-0.3,0.4-0.5c0.1-0.2,0.3-0.3,0.4-0.5c0.2-0.2,0.3-0.3,0.5-0.4
		c0.2-0.1,0.4-0.2,0.7-0.3c0.1,0.5,0.1,1,0,1.5c-0.1,0.5-0.3,0.9-0.6,1.2c-0.3,0.4-0.6,0.7-1.1,0.9c-0.4,0.2-0.9,0.4-1.5,0.5
		c-0.5,0.1-1,0-1.5-0.2c-0.5-0.3-0.9-0.6-1.3-1.1s-0.7-0.9-1-1.5C560.1,245.1,559.9,244.6,559.8,244.2z"/>
	<path d="M568.1,244.2c-0.1-0.7-0.1-1.3,0.1-2c0.2-0.6,0.5-1.2,0.9-1.7c0.4-0.5,0.9-1,1.5-1.3c0.6-0.4,1.2-0.6,1.9-0.7
		c0.4-0.1,0.7,0,1.1,0.2c0.3,0.2,0.6,0.4,0.9,0.7c0.3,0.3,0.5,0.6,0.7,1c0.2,0.4,0.3,0.7,0.4,1c0.1,0.6,0.1,1.2-0.1,1.9
		c-0.2,0.6-0.5,1.2-0.8,1.7c-0.4,0.5-0.8,1-1.4,1.4c-0.5,0.4-1.1,0.6-1.7,0.8c-0.5,0.1-1,0.1-1.4,0s-0.7-0.3-1-0.5
		c-0.3-0.3-0.5-0.6-0.7-1S568.2,244.7,568.1,244.2z M569.5,244.1c0.1,0.3,0.1,0.5,0.2,0.7s0.2,0.4,0.4,0.5c0.2,0.1,0.3,0.2,0.6,0.3
		c0.2,0,0.5,0,0.8,0c0.4-0.1,0.8-0.3,1.1-0.6c0.4-0.3,0.7-0.7,0.9-1.1c0.3-0.4,0.4-0.8,0.5-1.3c0.1-0.5,0.1-0.9,0.1-1.3
		c0-0.2-0.1-0.4-0.2-0.6c-0.1-0.2-0.2-0.4-0.3-0.5c-0.1-0.2-0.2-0.3-0.4-0.4c-0.2-0.1-0.4-0.1-0.6-0.1c-0.2,0-0.4,0.2-0.7,0.3
		s-0.5,0.4-0.7,0.7c-0.2,0.3-0.5,0.6-0.7,0.9c-0.2,0.3-0.4,0.6-0.6,0.9c-0.2,0.3-0.3,0.6-0.4,0.9
		C569.5,243.7,569.5,243.9,569.5,244.1z"/>
	<path d="M575.6,233.4c0.2,0,0.4,0.2,0.6,0.3c0.2,0.2,0.3,0.3,0.3,0.5c0,0.2-0.1,0.3-0.3,0.4c-0.2,0.1-0.6,0.1-1.2,0
		c-0.1-0.3-0.1-0.6,0-0.8C575.1,233.7,575.3,233.5,575.6,233.4z M576.6,239.6c0-0.1,0-0.2-0.1-0.3s0-0.3-0.1-0.5
		c0-0.2-0.1-0.3-0.1-0.5c0-0.2,0-0.3-0.1-0.3c0.1-0.2,0.2-0.4,0.4-0.5c0.2-0.1,0.3-0.3,0.5-0.4c0.1,0.6,0.4,1.2,0.7,1.8
		s0.6,1.3,0.9,1.9c0.3,0.6,0.6,1.3,0.9,1.9c0.3,0.6,0.5,1.2,0.6,1.8c0.1,0.5-0.1,0.8-0.6,0.9c-0.3,0.1-0.6,0-0.8-0.2
		c-0.3-0.2-0.5-0.5-0.7-0.9c-0.2-0.4-0.4-0.8-0.6-1.2c-0.2-0.5-0.3-0.9-0.4-1.4s-0.2-0.9-0.3-1.2
		C576.7,240.1,576.7,239.8,576.6,239.6z"/>
	<path d="M584,243.7c0.1-0.2,0.3-0.4,0.5-0.6c0.2-0.2,0.4-0.5,0.6-0.8c0.2-0.3,0.4-0.5,0.6-0.8c0.2-0.3,0.3-0.5,0.4-0.8
		c0.1-0.2,0.1-0.5,0.1-0.7c0-0.2-0.2-0.3-0.4-0.4c-0.3,0.1-0.7,0.2-1.1,0.3c-0.4,0.1-0.8,0.2-1.2,0.3c-0.4,0.1-0.8,0.1-1.2,0.1
		c-0.4,0-0.8,0-1.1-0.2c-0.3-0.1-0.6-0.3-0.9-0.6c-0.2-0.3-0.4-0.7-0.5-1.2c-0.1-0.6-0.1-1.1,0-1.7c0.1-0.5,0.3-1,0.6-1.4
		c0.3-0.4,0.6-0.8,1.1-1.2c0.4-0.4,0.8-0.7,1.2-1c0.3,0,0.6,0.1,0.9,0.3c0.3,0.1,0.5,0.3,0.7,0.5c0,0.3-0.1,0.5-0.3,0.6
		c-0.2,0.2-0.4,0.3-0.7,0.5c-0.3,0.2-0.5,0.3-0.8,0.5c-0.3,0.2-0.5,0.4-0.8,0.6c-0.2,0.2-0.4,0.5-0.5,0.8c-0.1,0.3-0.1,0.7,0,1.2
		c0.1,0.3,0.2,0.6,0.4,0.7s0.5,0.2,0.8,0.2c0.3,0,0.6,0,1-0.1c0.4-0.1,0.7-0.2,1.1-0.3c0.4-0.1,0.7-0.2,1.1-0.3
		c0.4-0.1,0.7-0.1,1-0.1c0.3,0,0.6,0.1,0.8,0.3c0.2,0.2,0.4,0.5,0.4,0.9c0,0.2,0,0.4,0,0.7c-0.1,0.3-0.2,0.6-0.3,1
		c-0.1,0.3-0.3,0.7-0.5,1.1c-0.2,0.4-0.4,0.7-0.6,1c-0.2,0.3-0.5,0.6-0.7,0.8c-0.2,0.2-0.5,0.3-0.7,0.4c-0.2,0-0.4,0-0.5-0.2
		C584.1,244,584,243.9,584,243.7z"/>
	<path d="M595.6,240c-0.4,0.4-0.7,0.7-0.9,1c-0.3,0.3-0.5,0.5-0.8,0.7c-0.3,0.2-0.5,0.4-0.8,0.5c-0.3,0.1-0.7,0.3-1.2,0.3
		c-1,0.2-1.8,0.1-2.4-0.4c-0.6-0.4-1-1.2-1.2-2.3c-0.1-0.4-0.1-0.9-0.1-1.3c0-0.5,0.1-0.9,0.2-1.4c0.1-0.5,0.3-0.9,0.5-1.4
		c0.2-0.5,0.5-0.9,0.8-1.2c0.3-0.4,0.7-0.7,1-1c0.4-0.3,0.8-0.4,1.3-0.5c0.8-0.1,1.4,0,2,0.2c0.5,0.2,0.9,0.6,1.2,1
		c0.3,0.4,0.6,0.9,0.8,1.5c0.2,0.6,0.4,1.2,0.6,1.8c0.2,0.6,0.4,1.2,0.6,1.9c0.2,0.6,0.5,1.2,0.8,1.6c-0.1,0.4-0.2,0.7-0.2,0.8
		s-0.2,0.2-0.4,0.2c-0.2-0.1-0.4-0.3-0.7-0.6S596,240.6,595.6,240z M589.7,239.7c0.1,0.6,0.3,1,0.6,1.3c0.3,0.2,0.7,0.3,1.3,0.2
		c0.4-0.1,0.9-0.3,1.2-0.5c0.4-0.2,0.7-0.5,0.9-0.9c0.2-0.3,0.4-0.7,0.5-1.1c0.1-0.4,0.1-0.9,0-1.4c0-0.2-0.1-0.5-0.1-0.8
		s-0.2-0.7-0.3-1c-0.1-0.3-0.3-0.6-0.5-0.8c-0.2-0.2-0.5-0.3-0.8-0.2c-0.6,0.1-1.1,0.4-1.5,0.7c-0.4,0.4-0.8,0.8-1,1.3
		c-0.3,0.5-0.4,1.1-0.5,1.6C589.6,238.7,589.6,239.2,589.7,239.7z"/>
	<path d="M600.8,239.7c0.5-0.1,0.8,0.1,0.9,0.6c-0.1,0.3-0.2,0.6-0.3,0.7c-0.2,0.1-0.3,0.2-0.5,0.2c-0.2,0-0.3,0-0.5-0.2
		c-0.2-0.1-0.2-0.2-0.3-0.4c0-0.2,0-0.3,0.1-0.5C600.3,240.1,600.5,239.9,600.8,239.7z"/>
	<path d="M604.5,239c0.5-0.1,0.8,0.1,0.9,0.6c-0.1,0.3-0.2,0.6-0.3,0.7c-0.2,0.1-0.3,0.2-0.5,0.2c-0.2,0-0.3,0-0.5-0.2
		s-0.2-0.2-0.3-0.4c0-0.2,0-0.3,0.1-0.5S604.2,239.2,604.5,239z"/>
	<path d="M608.2,238.3c0.5-0.1,0.8,0.1,0.9,0.6c-0.1,0.3-0.2,0.6-0.3,0.7c-0.2,0.1-0.3,0.2-0.5,0.2s-0.3,0-0.5-0.2
		c-0.2-0.1-0.2-0.2-0.3-0.4c0-0.2,0-0.3,0.1-0.5C607.7,238.6,607.9,238.4,608.2,238.3z"/>
</g>
</svg>
