<?xml version="1.0" encoding="utf-8"?>
<!-- Generator: Adobe Illustrator 27.0.0, SVG Export Plug-In . SVG Version: 6.00 Build 0)  -->
<svg version="1.1" id="Layer_1" xmlns="http://www.w3.org/2000/svg" xmlns:xlink="http://www.w3.org/1999/xlink" x="0px" y="0px"
	 viewBox="0 0 589.6 386.5" style="enable-background:new 0 0 589.6 386.5;" xml:space="preserve">
<style type="text/css">
	.st0{fill:#FFFFFF;}
	.st1{fill:#36A9E1;}
	.st2{fill:#FCEA10;}
	.st3{fill:#95C11F;}
</style>
<path class="st0" d="M74.1,197.6c1.2,0,2.1-0.5,2.8-1.5c0.5-0.8,1.1-1.5,1.6-2.3c2.7-4.4,2.7-8.9,0.2-13.2
	c-2.5-4.4-8.7-6.6-14.1-5.5c-0.5,0.1-1.1,0.4-1.6,0.4c-2.4,0.3-4.1,1.6-5.5,3.5c-0.6,0.7-1.2,1.4-1.9,2.2c-4.6-3.4-9.3-4.9-14.8-2.8
	c-5.4,2.1-8.5,5.9-9,11.4c-3.1-0.8-5.9-1.6-8.7-2.4c-5.6-1.5-10.2,0.5-14.3,4.1c-2.3,2-3.1,4.8-4,7.5c-1.8,5.4-0.7,10,3.2,14.1
	c0.3,0.4,0.5,0.9,0.8,1.3c-1.3,1.1-2.7,1.8-3.5,3c-3.3,4.8-4.4,10-2.5,15.6c0.8,2.5,2,4.9,3,7.5c-0.9,1-1.7,2.1-2.6,3.2
	c-2.1,2.4-3.3,5.4-3,8.5c0.6,5.8,1.3,11.6,6.7,15.6c3.4,2.5,6.6,3.9,10.8,2.9c0.6-0.2,1.2-0.2,2-0.4c0.3,1,0.4,2,0.8,2.8
	c1,2.1,1.7,4.4,3.1,6.1c1.6,1.8,3.7,3.2,6.1,4.3c6.4,3,13.7,0,15.9-6.5c0.6-1.8,1.4-3.6,2.1-5.5c0.5,0.3,0.9,0.6,1.3,0.8
	c5.5,3.1,12.8,1.8,16.4-1.8c2.5-2.5,4.8-5.2,5.8-8.7c0.2-0.9,0.8-1.8,1.3-2.9c0.7,0.9,1.1,1.5,1.5,2c1.6,1.9,3.8,2.4,6.1,1.8
	c2.2-0.6,4.1-1.8,5.3-3.8c2.4-4.1,4.1-8.3,3.6-13.2c-0.3-2.5-0.5-4.9-0.8-7.5c1-0.6,2.2-1.3,3.4-2c3-2,5.6-4.5,6.4-8.1
	c1.5-6.7,0.6-13-5-17.8c-3.7-3.2-8.8-4.3-13.1-1.6c-0.5,0.3-1,0.7-1.7,1.2C77.4,205.2,76.6,201.1,74.1,197.6L74.1,197.6z"/>
<path class="st0" d="M81,301.9c-0.7-1.8-1.2-3.4-1.9-4.9c-2.7-5.9-5.4-11.8-8.1-17.7c-0.5-1.1-1.4-2-2.1-3.1
	c-1.4,1.2-1.1,2.1-0.5,3.2c4,7.7,7.5,15.7,10.7,23.8c0.6,1.4,1.1,1.7,2.5,1.3c0.8-0.3,1.5-0.7,2.3-0.9c2.7-0.4,5.5-0.8,8.3-1.1
	c1.5-0.2,2.1-0.9,1.9-2.7C89.7,300.1,85.4,300.5,81,301.9z"/>
<path class="st0" d="M35.3,287.4c-0.2-0.1-0.4-0.1-0.6-0.2c-1.1,1.1-1.3,2.7-1.4,4.2c-0.1,1.5-0.1,3-0.2,4.5
	c-0.5,4.7-1,9.4-1.5,14.1c-0.1,1.1-0.4,1.9-1.7,2.1c-3.4,0.6-6.7,1.3-10.2,1.1c-1-0.1-2,0.2-3,0.4c-1,0.3-1.5,1-1.2,2.2
	c0.5,0,1.1,0.1,1.6,0.1c3.9,0.1,7.7-0.6,11.6-1.1c4.1-0.5,4.3-1.5,4.6-4.6c0.5-4.7,1.1-9.4,1.5-14.1
	C35.1,293.3,35.2,290.4,35.3,287.4z"/>
<path d="M74.1,197.6c2.5,3.5,3.3,7.6,3.9,12.1c0.7-0.5,1.2-0.9,1.7-1.2c4.3-2.7,9.4-1.6,13.1,1.6c5.6,4.8,6.4,11.1,5,17.8
	c-0.8,3.6-3.4,6.1-6.4,8.1c-1.2,0.8-2.4,1.4-3.4,2c0.3,2.6,0.5,5,0.8,7.5c0.5,4.9-1.2,9.1-3.6,13.2c-1.2,2-3.1,3.2-5.3,3.8
	c-2.3,0.6-4.5,0.1-6.1-1.8c-0.5-0.6-0.9-1.2-1.5-2c-0.5,1.1-1,2-1.3,2.9c-0.9,3.6-3.3,6.3-5.8,8.7c-3.6,3.6-10.9,4.9-16.4,1.8
	c-0.4-0.2-0.8-0.5-1.3-0.8c-0.7,1.9-1.5,3.7-2.1,5.5c-2.2,6.5-9.5,9.5-15.9,6.5c-2.3-1.1-4.5-2.5-6.1-4.3c-1.5-1.7-2.2-4-3.1-6.1
	c-0.4-0.8-0.5-1.7-0.8-2.8c-0.8,0.2-1.4,0.2-2,0.4c-4.1,1.1-7.4-0.3-10.8-2.9c-5.4-4-6-9.8-6.7-15.6c-0.3-3.1,0.9-6,3-8.5
	c0.9-1.1,1.8-2.1,2.6-3.2c-1-2.5-2.2-4.9-3-7.5c-1.9-5.6-0.7-10.8,2.5-15.6c0.8-1.2,2.2-1.9,3.5-3c-0.2-0.4-0.4-0.9-0.8-1.3
	c-3.9-4.1-5-8.7-3.2-14.1c0.9-2.8,1.7-5.5,4-7.5c4.1-3.6,8.7-5.6,14.3-4.1c2.8,0.8,5.7,1.5,8.7,2.4c0.6-5.4,3.7-9.3,9-11.4
	c5.5-2.1,10.2-0.6,14.8,2.8c0.7-0.8,1.3-1.4,1.9-2.2c1.4-1.8,3.1-3.2,5.5-3.5c0.5-0.1,1.1-0.3,1.6-0.4c5.4-1.1,11.6,1.1,14.1,5.5
	c2.5,4.3,2.5,8.8-0.2,13.2c-0.5,0.8-1,1.5-1.6,2.3C76.2,197.1,75.3,197.7,74.1,197.6c0.5-0.9,1-1.9,1.7-2.7
	c3.4-3.6,3.5-12.2-1.4-15.2c-3.1-1.9-6.3-2.9-10.1-2.3c-2.4,0.4-4.5,1.2-6,3.1c-1.3,1.6-1.4,1.7-0.2,3.3c1.8,2.4,2.5,5.1,2.8,8.1
	c0.1,1.2,0.3,2.3,0.4,3.5C66.1,194.2,70.8,192.4,74.1,197.6z M9.5,212.4c1-1.4,1.9-1.2,3-0.5c2.2,1.4,4.4,2.8,6.8,3.9
	c3.8,1.7,7.6,1.3,11.2-0.4c3.3-1.6,5.4-4.4,5.4-8.2c0.1-4.2-0.6-8.4-2.7-12.1c-1.5-2.7-4.1-4.4-7.3-4.9c-0.9-0.1-1.8-0.4-2.7-0.7
	c-5.9-2.2-12.5,1.4-14.7,5.1c-1.4,2.4-2.3,5.3-2.9,8.1C4.9,206.4,6.5,209.5,9.5,212.4z M28.1,221.3c0.3,6.2,4.1,11.1,10.2,12.8
	c0.9,0.2,1.9,0.2,2.8,0c4.9-0.7,12-5.1,12.7-11.9c0.2-1.5,0.6-2.9,0.9-4.4c0.4-2,0-3.8-0.9-5.6c-1.1-2.1-2.5-3.7-4.4-4.9
	c-2.5-1.7-5-3.2-8.1-3.5c-2.2-0.3-3.1,0.5-3.1,2.6c0.1,4.7-3.1,9.5-7.7,11.2C28.1,218.5,28.2,218.8,28.1,221.3z M25.9,219.2
	c-0.1-0.1-0.2-0.2-0.3-0.2c-0.4,0-0.7,0-1.1,0c-3.3,0.2-6.4-0.5-9-2.5c-2.3-1.7-4.2-1.2-6.4-0.2c-2.6,1.2-3.3,3.7-4.1,6
	c-1.3,3.6-0.9,7.2,0.3,10.9c1.3,4.2,3.9,6.6,7.8,8c5,1.8,9.7,0.6,14.2-1.6c2.2-1.1,3.2-3.1,3.4-5.4c0.1-0.5-0.1-1.1-0.4-1.5
	c-0.9-1.4-1.9-2.8-2.7-4.2c-1.2-2.1-2-4.4-1.8-6.9C26,220.8,25.9,220,25.9,219.2z M33.3,234.5c-0.8,1.8-1.1,3.4-2,4.5
	c-0.9,1.1-2.2,1.9-3.4,2.8c-0.4,0.3-1.1,0.5-1.4,0.8c-0.5,0.6-1.1,1.2-1.3,1.9c-0.3,0.8-0.3,1.6-0.3,2.5c-0.3,6.4,3.1,11.6,9.9,12.5
	c3.6,0.5,6.6-0.7,9.7-2.5c2.1-1.3,3.7-2.9,4.4-5.2c0.7-2.2,1.3-4.5,0.6-6.8c-1-3.4-1.5-7.1-4.5-9.5C41,236.1,37.1,237.6,33.3,234.5z
	 M38.1,201.9c3.2-0.8,6.3-0.4,9.1,1.2c1.6,1,3.1,0.8,4.7,0.3c1.8-0.7,3.8-1,4.9-2.9c1.6-2.7,2.3-5.6,1.8-8.8
	c-0.6-4.6-3.2-7.6-6.9-10c-4.9-3.2-11.3-2.6-15.4,1.5c-1.5,1.5-2.5,3.2-2.5,5.4c0,1-0.2,2-0.3,3.2C36.4,194.4,36.5,198.4,38.1,201.9
	z M75.4,233.5c4.2-2.1,7.3,0.2,10.8,2.5c1.4-0.6,3-1.1,4.4-1.9c4-2.4,5.9-5.8,6.1-10.5c0.2-6.8-5-13-10.7-14.2c-4.7-1-7.6,2-8.4,5.3
	c-0.8,3.3-1.9,6.4-4.4,8.9c-1,1-1,2.1-0.5,3.3C73.5,229,74.3,231.1,75.4,233.5z M52.1,205.7c0.2,0.5,0.3,0.7,0.4,0.8
	c3.9,3.4,4.9,7.7,4.3,12.6c-0.2,1.7,0.4,2.6,2.1,3.4c1.1,0.5,2.3,0.8,3.4,1.3c5.6,2.5,9.6-0.4,11.5-4.6c2.5-5.7,2.5-11.6-0.1-17.3
	c-2.2-4.9-4.7-6-10-4.9c-2.1,0.4-3.6,1.3-4.3,3.4c-0.7,2.2-2.5,3.4-4.5,4.2C54,205,53.1,205.3,52.1,205.7z M7.3,241.4
	c-3.6,2.8-6.1,5.9-5.8,10.5c0.4,5.7,2,11,7.1,14.4c2.7,1.8,5.6,2.8,9,1.8c1.1-0.3,1.7-0.7,1.9-2c0.5-2.7,1.7-5.1,3.9-6.9
	c0.6-0.5,1-1.1,1.4-1.5c-0.8-2.3-1.8-4.3-2.1-6.4c-0.4-2.2-0.1-4.5-0.1-6.8c-2.9,0-5.4,0.1-8,0C12,244.2,9.6,243.2,7.3,241.4z
	 M52.4,246.6c-0.2,0.3-0.3,0.4-0.4,0.6c-1,4.3-1.7,8.8-6.1,11.4c-1.5,0.9-1.9,4.8-1,6.2c2.3,3.1,4.8,5.9,9,6.4
	c3.7,0.4,7.3,0,10.3-2.5c2.6-2.2,4.6-4.9,5.8-8.1c1.1-2.9,1.4-5.8-0.4-8.6c-1.2-1.9-2.3-2.7-4.6-1.7c-1.9,0.9-4,1.3-6.2,0.8
	C56.1,250.5,54.6,248.4,52.4,246.6z M48.1,233.5c0.8,2.2,1.5,4.1,2.2,6c0.2,0.5,0.5,1.3,0.8,1.4c2.1,0.4,2.6,2.2,3.5,3.6
	c0.7,1,1.7,2,2.7,2.8c1.6,1.4,3.5,1.8,5.7,1.3c4.8-1.1,7.8-4.1,9.5-8.5c0.5-1.3,1-2.8,0.7-4c-0.9-3.3-2.3-6.4-3.6-9.8
	c-5.2,1.9-9.4-1-14.1-2.2C54.2,228.1,51.9,231.5,48.1,233.5z M26.5,259.1c-1.1,1-2,1.8-2.8,2.5c-1.3,1.2-2,2.8-2,4.5
	c0,7.8,3,12.9,10.6,15.4c5.6,1.8,10.3-1.1,11.7-5.3c0.6-1.9,1.2-3.7,1.7-5.6c0.1-0.6-0.1-1.5-0.5-2c-1.7-1.9-2.3-4-1.6-6.4
	c0.1-0.5,0-1.1,0-2.2C37.4,264,31.9,262.4,26.5,259.1z M69.9,247.8c0.8,1.7,1.7,3.1,2.1,4.6c0.6,1.9,1.1,3.6,2.5,5.2
	c2.2,2.5,5.1,3.2,7.8,1.2c1.9-1.4,3.3-3.2,4.1-5.5c1-2.7,0.8-5.5,0.7-8.3c-0.1-4.2-3.5-8.6-7.6-9.6c-1.9-0.5-3.6-0.4-4.1,2.3
	c-0.7,3.4-2.6,6.3-4.8,9C70.3,247.2,70,247.6,69.9,247.8z"/>
<path d="M310.1,94.6c2.1,0.2,2.8-0.6,3.1-2.3c0.7-3.9,1.5-7.8,2.4-12.2c-3.6,1.8-6.6,3.2-9.7,4.8c-5.5,2.8-10.9,5.6-16.3,8.5
	c-7.9,4.2-15.8,8.4-23.6,12.7c-6.8,3.8-13.6,7.6-20.3,11.6c-9.9,5.9-19.7,12-29.6,17.9c-7,4.1-14,8.1-21.1,12
	c-7.9,4.2-15.8,8.2-23.8,12.2c-3.4,1.7-7,3.1-10.3,4.8c-7.7,4-15.3,8.1-22.9,12.1c-1.6,0.9-3.3,1.7-4.9,2.7
	c-0.9,0.6-1.6,1.5-2.2,2.1c-1.5,0.1-2.9,0.2-4.9,0.4c0.6-0.7,0.8-1.2,1.2-1.4c6.2-3.5,12.4-7.2,18.8-10.3
	c7.4-3.6,14.4-8.1,22.2-10.9c1.9-0.7,3.6-1.9,5.4-2.8c4.4-2.2,8.9-4.3,13.2-6.6c4.6-2.4,9.1-5,13.6-7.6c3.9-2.2,7.7-4.5,11.5-6.7
	c5.5-3.3,11-6.6,16.5-9.9c6.7-4,13.4-8.1,20.1-12c7.9-4.6,15.9-9.2,23.9-13.7c7.3-4.1,14.7-8,22.3-11.4c3.5-1.6,6.9-3.7,10.3-5.5
	c1.5-0.8,3.1-1.5,4.6-2.3c-0.1-0.2-0.1-0.4-0.2-0.7c-0.8,0.1-1.5,0.1-2.3,0.3c-6.2,1.4-12.4,2.4-18.7,2.7c-0.9,0-1.8,0.4-2.8,0.3
	c-0.6,0-1.2-0.5-1.8-0.8c0-0.2,0-0.5,0-0.7c0.6-0.2,1.2-0.5,1.9-0.6c5.6-0.7,11.3-1.4,16.9-2.1c4-0.6,8.1-1.4,12.1-2
	c2.5-0.4,3.2,0.1,3,2.6c-0.2,3-0.7,5.9-1.3,8.8c-0.4,2-1,4-1.4,6c-0.3,1.3-1,1.9-2.3,2.1C311.8,96.6,310.9,96.3,310.1,94.6z"/>
<path d="M327.3,268.9c1.4,1.6,2.5,1.4,3.8,0.4c3.1-2.5,6.4-4.8,10-7.5c-3.8-1.1-7.1-2.1-10.4-2.9c-5.9-1.6-11.9-3.2-17.8-4.6
	c-8.7-2.2-17.3-4.3-26-6.4c-7.6-1.8-15.2-3.5-22.9-5c-11.3-2.3-22.7-4.3-34-6.6c-7.9-1.6-15.8-3.3-23.7-5.2
	c-8.7-2.1-17.3-4.5-25.9-6.8c-3.7-1-7.2-2.4-10.9-3.4c-8.3-2.2-16.7-4.2-25.1-6.3c-1.8-0.5-3.6-1-5.4-1.3c-1.1-0.2-2.2,0.1-3.1,0.1
	c-1.2-0.9-2.3-1.8-3.8-3c0.9-0.2,1.4-0.4,1.8-0.3c7,1.6,14,2.9,20.8,5c7.9,2.3,16.1,3.7,23.8,6.8c1.9,0.8,4,1,5.9,1.5
	c4.7,1.3,9.5,2.7,14.2,4c5,1.3,10.1,2.4,15.2,3.5c4.4,1,8.7,1.8,13.1,2.7c6.3,1.3,12.6,2.5,18.9,3.7c7.7,1.5,15.3,2.9,23,4.5
	c9,1.9,18,3.9,27,5.8c8.2,1.8,16.2,3.9,24.2,6.5c3.7,1.2,7.6,1.9,11.4,2.8c1.7,0.4,3.3,0.9,4.9,1.4c0.1-0.2,0.2-0.4,0.3-0.6
	c-0.6-0.4-1.2-1-1.9-1.3c-5.5-3.1-10.8-6.5-15.7-10.5c-0.7-0.6-1.6-1-2.2-1.6c-0.4-0.4-0.5-1.2-0.8-1.8c0.2-0.2,0.3-0.3,0.5-0.5
	c0.6,0.3,1.3,0.4,1.8,0.8c4.7,3.2,9.3,6.5,14,9.7c3.4,2.3,6.9,4.4,10.3,6.6c2.1,1.4,2.3,2.2,0.5,3.9c-2.1,2.1-4.5,3.9-6.8,5.7
	c-1.6,1.3-3.4,2.3-5,3.5c-1.1,0.8-2,0.7-3.1,0.1C327.2,271.5,326.8,270.7,327.3,268.9z"/>
<path d="M81,301.9c4.4-1.5,8.7-1.9,13.1-2c0.2,1.8-0.4,2.5-1.9,2.7c-2.8,0.3-5.5,0.7-8.3,1.1c-0.8,0.1-1.5,0.6-2.3,0.9
	c-1.4,0.5-2,0.2-2.5-1.3c-3.2-8.1-6.7-16.1-10.7-23.8c-0.6-1.1-0.8-2,0.5-3.2c0.7,1.1,1.6,2,2.1,3.1c2.8,5.9,5.4,11.8,8.1,17.7
	C79.7,298.6,80.3,300.1,81,301.9z"/>
<path d="M35.3,287.4c-0.2,2.9-0.3,5.9-0.5,8.8c-0.4,4.7-1,9.4-1.5,14.1c-0.3,3.1-0.5,4.1-4.6,4.6c-3.9,0.4-7.7,1.2-11.6,1.1
	c-0.5,0-1.1,0-1.6-0.1c-0.4-1.2,0.2-1.9,1.2-2.2c1-0.3,2-0.5,3-0.4c3.5,0.2,6.8-0.5,10.2-1.1c1.3-0.2,1.6-1,1.7-2.1
	c0.5-4.7,1.1-9.4,1.5-14.1c0.2-1.5,0.1-3,0.2-4.5c0.1-1.6,0.3-3.1,1.4-4.2C34.9,287.3,35.1,287.4,35.3,287.4z"/>
<path class="st1" d="M9.5,212.4c-3-3-4.6-6.1-3.8-9.8c0.6-2.8,1.4-5.6,2.9-8.1c2.1-3.7,8.8-7.3,14.7-5.1c0.9,0.3,1.8,0.6,2.7,0.7
	c3.2,0.5,5.8,2.2,7.3,4.9c2.1,3.7,2.7,7.9,2.7,12.1c-0.1,3.8-2.1,6.6-5.4,8.2c-3.6,1.7-7.5,2.2-11.2,0.4c-2.4-1.1-4.6-2.5-6.8-3.9
	C11.4,211.2,10.5,211,9.5,212.4z"/>
<path class="st2" d="M28.1,221.3c0.1-2.6,0.1-2.8,2.4-3.7c4.6-1.7,7.7-6.5,7.7-11.2c0-2.2,0.8-2.9,3.1-2.6c3,0.4,5.6,1.8,8.1,3.5
	c1.9,1.3,3.3,2.9,4.4,4.9c0.9,1.8,1.3,3.7,0.9,5.6c-0.3,1.5-0.8,2.9-0.9,4.4c-0.7,6.9-7.8,11.2-12.7,11.9c-0.9,0.1-1.9,0.2-2.8,0
	C32.2,232.4,28.4,227.6,28.1,221.3z"/>
<path class="st2" d="M25.9,219.2c0,0.8,0.1,1.6,0,2.4c-0.2,2.5,0.5,4.8,1.8,6.9c0.8,1.4,1.8,2.8,2.7,4.2c0.3,0.4,0.4,1,0.4,1.5
	c-0.2,2.3-1.2,4.4-3.4,5.4c-4.5,2.2-9.2,3.5-14.2,1.6c-3.8-1.4-6.5-3.9-7.8-8c-1.2-3.7-1.5-7.2-0.3-10.9c0.8-2.3,1.5-4.8,4.1-6
	c2.2-1,4.1-1.5,6.4,0.2c2.6,1.9,5.7,2.7,9,2.5c0.4,0,0.7,0,1.1,0C25.7,219,25.8,219.1,25.9,219.2z"/>
<path class="st1" d="M33.3,234.5c3.8,3.1,7.7,1.6,11.6,1c3,2.4,3.5,6.1,4.5,9.5c0.7,2.4,0.1,4.6-0.6,6.8c-0.7,2.3-2.2,3.9-4.4,5.2
	c-3.1,1.8-6.1,3-9.7,2.5c-6.8-0.9-10.2-6.1-9.9-12.5c0-0.8,0-1.7,0.3-2.5c0.3-0.7,0.8-1.4,1.3-1.9c0.4-0.4,1-0.5,1.4-0.8
	c1.2-0.9,2.5-1.6,3.4-2.8C32.1,237.8,32.5,236.3,33.3,234.5z"/>
<path class="st2" d="M38.1,201.9c-1.6-3.5-1.7-7.4-4.4-10c0.1-1.2,0.3-2.2,0.3-3.2c0-2.2,1-4,2.5-5.4c4.1-4.1,10.5-4.7,15.4-1.5
	c3.6,2.4,6.2,5.4,6.9,10c0.4,3.2-0.2,6.1-1.8,8.8c-1.1,1.9-3.1,2.2-4.9,2.9c-1.6,0.6-3.1,0.7-4.7-0.3
	C44.5,201.5,41.4,201,38.1,201.9z"/>
<path class="st1" d="M75.4,233.5c-1-2.4-1.9-4.5-2.8-6.6c-0.6-1.2-0.5-2.3,0.5-3.3c2.5-2.4,3.5-5.6,4.4-8.9c0.8-3.3,3.7-6.3,8.4-5.3
	c5.7,1.2,10.9,7.4,10.7,14.2c-0.1,4.8-2.1,8.2-6.1,10.5c-1.4,0.8-3,1.3-4.4,1.9C82.7,233.7,79.6,231.4,75.4,233.5z"/>
<path class="st2" d="M52.1,205.7c1-0.4,1.9-0.7,2.7-1c2-0.8,3.8-2,4.5-4.2c0.7-2.1,2.2-2.9,4.3-3.4c5.4-1.1,7.8,0,10,4.9
	c2.6,5.7,2.6,11.6,0.1,17.3c-1.8,4.2-5.9,7.1-11.5,4.6c-1.1-0.5-2.3-0.8-3.4-1.3c-1.8-0.8-2.4-1.6-2.1-3.4c0.6-4.9-0.4-9.2-4.3-12.6
	C52.4,206.4,52.4,206.2,52.1,205.7z"/>
<path class="st1" d="M7.3,241.4c2.3,1.9,4.7,2.9,7.3,3c2.6,0.1,5.1,0,8,0c0,2.3-0.3,4.6,0.1,6.8c0.4,2.1,1.4,4.2,2.1,6.4
	c-0.4,0.4-0.9,1-1.4,1.5c-2.2,1.8-3.4,4.2-3.9,6.9c-0.2,1.2-0.8,1.7-1.9,2c-3.3,1-6.3,0-9-1.8c-5.1-3.4-6.8-8.6-7.1-14.4
	C1.2,247.3,3.7,244.2,7.3,241.4z"/>
<path class="st1" d="M52.4,246.6c2.1,1.8,3.7,3.9,6.4,4.5c2.2,0.5,4.3,0.1,6.2-0.8c2.3-1.1,3.4-0.2,4.6,1.7c1.7,2.8,1.5,5.7,0.4,8.6
	c-1.2,3.2-3.2,5.9-5.8,8.1c-3,2.4-6.6,2.9-10.3,2.5c-4.2-0.5-6.7-3.3-9-6.4c-1-1.3-0.5-5.3,1-6.2c4.4-2.6,5.1-7.1,6.1-11.4
	C52.1,247,52.2,246.9,52.4,246.6z"/>
<path class="st2" d="M48.1,233.5c3.8-2.1,6.1-5.5,7.5-9.6c4.7,1.2,8.8,4.1,14.1,2.2c1.3,3.4,2.6,6.6,3.6,9.8c0.3,1.2-0.2,2.7-0.7,4
	c-1.7,4.4-4.7,7.5-9.5,8.5c-2.2,0.5-4.1,0.1-5.7-1.3c-1-0.8-1.9-1.8-2.7-2.8c-1-1.4-1.4-3.2-3.5-3.6c-0.4-0.1-0.7-0.9-0.8-1.4
	C49.6,237.7,48.9,235.8,48.1,233.5z"/>
<path class="st2" d="M26.5,259.1c5.4,3.3,11,4.9,17.1,0.9c0,1.1,0.1,1.7,0,2.2c-0.7,2.5,0,4.5,1.6,6.4c0.4,0.5,0.6,1.4,0.5,2
	c-0.4,1.9-1.1,3.8-1.7,5.6c-1.3,4.2-6.1,7.1-11.7,5.3c-7.7-2.5-10.7-7.7-10.6-15.4c0-1.7,0.7-3.3,2-4.5
	C24.5,260.9,25.3,260.1,26.5,259.1z"/>
<path class="st2" d="M69.9,247.8c0.1-0.2,0.4-0.6,0.7-0.9c2.3-2.6,4.1-5.5,4.8-9c0.6-2.7,2.3-2.8,4.1-2.3c4.1,1,7.5,5.4,7.6,9.6
	c0.1,2.8,0.3,5.6-0.7,8.3c-0.8,2.3-2.2,4.1-4.1,5.5c-2.7,1.9-5.6,1.2-7.8-1.2c-1.4-1.6-1.9-3.3-2.5-5.2
	C71.6,250.9,70.7,249.5,69.9,247.8z"/>
<path class="st1" d="M74.1,197.6c-3.4-5.1-8-3.3-12.8-2.2c-0.2-1.2-0.4-2.4-0.4-3.5c-0.2-2.9-1-5.7-2.8-8.1
	c-1.2-1.6-1.2-1.8,0.2-3.3c1.6-1.9,3.7-2.7,6-3.1c3.7-0.6,6.9,0.4,10.1,2.3c4.9,3,4.8,11.5,1.4,15.2
	C75.1,195.7,74.7,196.7,74.1,197.6C74.1,197.6,74.1,197.6,74.1,197.6z"/>
<g>
	<path class="st0" d="M69.8,210.4c-1.4-1-2.5-1.9-3.6-2.8c-4.1-3.3-8.6-4-13.4-2.1c-2.8,1.1-5.5,2.6-7.8,4.5
		c-1.5,1.2-2.8,3.3-3.4,5.2c-1.6,5.7,2.7,16.1,7.5,19.4c7.5,5.1,15.9,3.9,21.8-3.1c0.5-0.6,0.7-1.4,0.8-1.7c3.1,1.3,5.2,2.5,7.5,3.1
		c3.2,0.9,6.2,0.7,9.3-1.4c8-5.6,7.7-20.6-2-26.4c-5.6-3.4-10.4-2.6-14.6,2.4C71.3,208.3,70.7,209.2,69.8,210.4z"/>
	<path d="M69.8,210.4c0.9-1.2,1.5-2.1,2.2-2.9c4.3-5,9-5.8,14.6-2.4c9.6,5.8,10,20.8,2,26.4c-3.1,2.2-6.1,2.3-9.3,1.4
		c-2.3-0.6-4.4-1.8-7.5-3.1c-0.1,0.3-0.3,1.1-0.8,1.7c-5.9,7-14.3,8.2-21.8,3.1c-4.8-3.3-9.1-13.7-7.5-19.4c0.5-1.9,1.8-4,3.4-5.2
		c2.3-1.9,5-3.4,7.8-4.5c4.8-1.9,9.3-1.2,13.4,2.1C67.2,208.5,68.4,209.4,69.8,210.4z M43.4,217.9c-0.1,7.1,2.3,11.1,8.2,14.8
		c5.6,3.5,14.2,1.6,17.8-3.9c5.5-8.3-0.9-18.6-8.6-20.9c-5.4-1.7-9.8,0.2-14,3.4C44.6,213.1,43.2,215.4,43.4,217.9z M71.8,213.1
		c0.8,2.1,1.8,4,2.2,6c0.4,2,0.1,4.2,0.2,6.3c0,0.7,0.4,1.5,0.9,2c3,3.3,9.2,3.6,12.6,0.7c3.6-3.1,4.2-7.2,3.5-11.5
		c-0.7-4.7-3.8-7.8-8.1-9.4c-4.8-1.8-7.3-0.7-9.4,2.9C73.1,211.1,72.4,212.1,71.8,213.1z"/>
	<path class="st0" d="M43.4,217.9c-0.2-2.5,1.1-4.8,3.5-6.6c4.1-3.2,8.6-5.1,14-3.4c7.7,2.4,14.1,12.6,8.6,20.9
		c-3.6,5.5-12.2,7.4-17.8,3.9C45.7,229,43.4,225,43.4,217.9z"/>
	<path class="st0" d="M71.8,213.1c0.7-1,1.4-2,2-3c2.2-3.6,4.6-4.8,9.4-2.9c4.3,1.6,7.3,4.7,8.1,9.4c0.7,4.3,0.1,8.4-3.5,11.5
		c-3.4,2.9-9.6,2.6-12.6-0.7c-0.5-0.5-0.9-1.3-0.9-2c-0.1-2.1,0.2-4.2-0.2-6.3C73.6,217,72.6,215.1,71.8,213.1z"/>
	<path class="st0" d="M88.2,226.4c1.1-1.2,2.2-2.1,2.8-3.3c0.3-0.7,0-2.1-0.6-2.8c-0.8-1-2-1.8-3.2-2.2c-1-0.3-2.6-0.4-3.2,0.2
		c-0.6,0.6-0.6,2.1-0.4,3.2c0.2,1.1,0.9,2.2,1.7,3.1C85.9,225.3,86.9,225.6,88.2,226.4z"/>
	<path class="st0" d="M68,221.3c-2-0.2-2.9,0.4-3.1,2.1c-0.3,2.8,1.1,5.6,2.9,5.7c2.2,0.1,4.4-1.9,4.5-4.1
		C72.5,223.2,70.6,221.6,68,221.3z"/>
	<path d="M86.7,223.8c-1.2-0.8-2.2-1.1-2.9-1.9c-0.8-0.9-1.4-2-1.7-3.1c-0.2-1-0.2-2.6,0.4-3.2c0.6-0.6,2.2-0.5,3.2-0.2
		c1.2,0.4,2.4,1.2,3.2,2.2c0.6,0.7,0.9,2.1,0.6,2.8C88.9,221.7,87.7,222.7,86.7,223.8z"/>
	<path d="M64.3,217.4c2.6,0.3,4.4,1.9,4.3,3.8c-0.1,2.2-2.3,4.2-4.5,4.1c-1.8-0.1-3.2-2.9-2.9-5.7C61.5,217.8,62.4,217.2,64.3,217.4
		z"/>
</g>
<path class="st0" d="M435.6,268.2c1.2,0,2.1-0.5,2.8-1.5c0.5-0.8,1.1-1.5,1.6-2.3c2.7-4.4,2.7-8.9,0.2-13.2
	c-2.5-4.4-8.7-6.6-14.1-5.5c-0.5,0.1-1.1,0.4-1.6,0.4c-2.4,0.3-4.1,1.6-5.5,3.5c-0.6,0.7-1.2,1.4-1.9,2.2c-4.6-3.4-9.3-4.9-14.8-2.8
	c-5.4,2.1-8.5,5.9-9,11.4c-3.1-0.8-5.9-1.6-8.7-2.4c-5.6-1.5-10.2,0.5-14.3,4.1c-2.3,2-3.1,4.8-4,7.5c-1.8,5.4-0.7,10,3.2,14.1
	c0.3,0.4,0.5,0.9,0.8,1.3c-1.3,1.1-2.7,1.8-3.5,3c-3.3,4.8-4.4,10-2.5,15.6c0.8,2.5,2,4.9,3,7.5c-0.9,1-1.7,2.1-2.6,3.2
	c-2.1,2.4-3.3,5.4-3,8.5c0.6,5.8,1.3,11.6,6.7,15.6c3.4,2.5,6.6,3.9,10.8,2.9c0.6-0.2,1.2-0.2,2-0.4c0.3,1,0.4,2,0.8,2.8
	c1,2.1,1.7,4.4,3.1,6.1c1.6,1.8,3.7,3.2,6.1,4.3c6.4,3,13.7,0,15.9-6.5c0.6-1.8,1.4-3.6,2.1-5.5c0.5,0.3,0.9,0.6,1.3,0.8
	c5.5,3.1,12.8,1.8,16.4-1.8c2.5-2.5,4.8-5.2,5.8-8.7c0.2-0.9,0.8-1.8,1.3-2.9c0.7,0.9,1.1,1.5,1.5,2c1.6,1.9,3.8,2.4,6.1,1.8
	c2.2-0.6,4.1-1.8,5.3-3.8c2.4-4.1,4.1-8.3,3.6-13.2c-0.3-2.5-0.5-4.9-0.8-7.5c1-0.6,2.2-1.3,3.4-2c3-2,5.6-4.5,6.4-8.1
	c1.5-6.7,0.6-13-5-17.8c-3.7-3.2-8.8-4.3-13.1-1.6c-0.5,0.3-1,0.7-1.7,1.2C439,275.7,438.2,271.7,435.6,268.2L435.6,268.2z"/>
<path class="st0" d="M442.5,372.5c-0.7-1.8-1.2-3.4-1.9-4.9c-2.7-5.9-5.4-11.8-8.1-17.7c-0.5-1.1-1.4-2-2.1-3.1
	c-1.4,1.2-1.1,2.1-0.5,3.2c4,7.7,7.5,15.7,10.7,23.8c0.6,1.4,1.1,1.7,2.5,1.3c0.8-0.3,1.5-0.7,2.3-0.9c2.7-0.4,5.5-0.8,8.3-1.1
	c1.5-0.2,2.1-0.9,1.9-2.7C451.2,370.6,446.9,371,442.5,372.5z"/>
<path class="st0" d="M396.9,358c-0.2-0.1-0.4-0.1-0.6-0.2c-1.1,1.1-1.3,2.7-1.4,4.2c-0.1,1.5-0.1,3-0.2,4.5c-0.5,4.7-1,9.4-1.5,14.1
	c-0.1,1.1-0.4,1.9-1.7,2.1c-3.4,0.6-6.7,1.3-10.2,1.1c-1-0.1-2,0.2-3,0.4c-1,0.3-1.5,1-1.2,2.2c0.5,0,1.1,0.1,1.6,0.1
	c3.9,0.1,7.7-0.6,11.6-1.1c4.1-0.5,4.3-1.5,4.6-4.6c0.5-4.7,1.1-9.4,1.5-14.1C396.6,363.9,396.7,360.9,396.9,358z"/>
<path d="M435.7,268.1c2.5,3.5,3.3,7.6,3.9,12.1c0.7-0.5,1.2-0.9,1.7-1.2c4.3-2.7,9.4-1.6,13.1,1.6c5.6,4.8,6.4,11.1,5,17.8
	c-0.8,3.6-3.4,6.1-6.4,8.1c-1.2,0.8-2.4,1.4-3.4,2c0.3,2.6,0.5,5,0.8,7.5c0.5,4.9-1.2,9.1-3.6,13.2c-1.2,2-3.1,3.2-5.3,3.8
	c-2.3,0.6-4.5,0.1-6.1-1.8c-0.5-0.6-0.9-1.2-1.5-2c-0.5,1.1-1,2-1.3,2.9c-0.9,3.6-3.3,6.3-5.8,8.7c-3.6,3.6-10.9,4.9-16.4,1.8
	c-0.4-0.2-0.8-0.5-1.3-0.8c-0.7,1.9-1.5,3.7-2.1,5.5c-2.2,6.5-9.5,9.5-15.9,6.5c-2.3-1.1-4.5-2.5-6.1-4.3c-1.5-1.7-2.2-4-3.1-6.1
	c-0.4-0.8-0.5-1.7-0.8-2.8c-0.8,0.2-1.4,0.2-2,0.4c-4.1,1.1-7.4-0.3-10.8-2.9c-5.4-4-6-9.8-6.7-15.6c-0.3-3.1,0.9-6,3-8.5
	c0.9-1.1,1.8-2.1,2.6-3.2c-1-2.5-2.2-4.9-3-7.5c-1.9-5.6-0.7-10.8,2.5-15.6c0.8-1.2,2.2-1.9,3.5-3c-0.2-0.4-0.4-0.9-0.8-1.3
	c-3.9-4.1-5-8.7-3.2-14.1c0.9-2.8,1.7-5.5,4-7.5c4.1-3.6,8.7-5.6,14.3-4.1c2.8,0.8,5.7,1.5,8.7,2.4c0.6-5.4,3.7-9.3,9-11.4
	c5.5-2.1,10.2-0.6,14.8,2.8c0.7-0.8,1.3-1.4,1.9-2.2c1.4-1.8,3.1-3.2,5.5-3.5c0.5-0.1,1.1-0.3,1.6-0.4c5.4-1.1,11.6,1.1,14.1,5.5
	c2.5,4.3,2.5,8.8-0.2,13.2c-0.5,0.8-1,1.5-1.6,2.3C437.8,267.7,436.9,268.2,435.7,268.1c0.5-0.9,1-1.9,1.7-2.7
	c3.4-3.6,3.5-12.2-1.4-15.2c-3.1-1.9-6.3-2.9-10.1-2.3c-2.4,0.4-4.5,1.2-6,3.1c-1.3,1.6-1.4,1.7-0.2,3.3c1.8,2.4,2.5,5.1,2.8,8.1
	c0.1,1.2,0.3,2.3,0.4,3.5C427.7,264.8,432.3,263,435.7,268.1z M371.1,283c1-1.4,1.9-1.2,3-0.5c2.2,1.4,4.4,2.8,6.8,3.9
	c3.8,1.7,7.6,1.3,11.2-0.4c3.3-1.6,5.4-4.4,5.4-8.2c0.1-4.2-0.6-8.4-2.7-12.1c-1.5-2.7-4.1-4.4-7.3-4.9c-0.9-0.1-1.8-0.4-2.7-0.7
	c-5.9-2.2-12.5,1.4-14.7,5.1c-1.4,2.4-2.3,5.3-2.9,8.1C366.5,276.9,368.1,280,371.1,283z M389.6,291.9c0.3,6.2,4.1,11.1,10.2,12.8
	c0.9,0.2,1.9,0.2,2.8,0c4.9-0.7,12-5.1,12.7-11.9c0.2-1.5,0.6-2.9,0.9-4.4c0.4-2,0-3.8-0.9-5.6c-1.1-2.1-2.5-3.7-4.4-4.9
	c-2.5-1.7-5-3.2-8.1-3.5c-2.2-0.3-3.1,0.5-3.1,2.6c0.1,4.7-3.1,9.5-7.7,11.2C389.7,289.1,389.7,289.3,389.6,291.9z M387.5,289.8
	c-0.1-0.1-0.2-0.2-0.3-0.2c-0.4,0-0.7,0-1.1,0c-3.3,0.2-6.4-0.5-9-2.5c-2.3-1.7-4.2-1.2-6.4-0.2c-2.6,1.2-3.3,3.7-4.1,6
	c-1.3,3.6-0.9,7.2,0.3,10.9c1.3,4.2,3.9,6.6,7.8,8c5,1.8,9.7,0.6,14.2-1.6c2.2-1.1,3.2-3.1,3.4-5.4c0.1-0.5-0.1-1.1-0.4-1.5
	c-0.9-1.4-1.9-2.8-2.7-4.2c-1.2-2.1-2-4.4-1.8-6.9C387.6,291.4,387.5,290.6,387.5,289.8z M394.8,305c-0.8,1.8-1.1,3.4-2,4.5
	c-0.9,1.1-2.2,1.9-3.4,2.8c-0.4,0.3-1.1,0.5-1.4,0.8c-0.5,0.6-1.1,1.2-1.3,1.9c-0.3,0.8-0.3,1.6-0.3,2.5c-0.3,6.4,3.1,11.6,9.9,12.5
	c3.6,0.5,6.6-0.7,9.7-2.5c2.1-1.3,3.7-2.9,4.4-5.2c0.7-2.2,1.3-4.5,0.6-6.8c-1-3.4-1.5-7.1-4.5-9.5
	C402.5,306.6,398.7,308.1,394.8,305z M399.7,272.4c3.2-0.8,6.3-0.4,9.1,1.2c1.6,1,3.1,0.8,4.7,0.3c1.8-0.7,3.8-1,4.9-2.9
	c1.6-2.7,2.3-5.6,1.8-8.8c-0.6-4.6-3.2-7.6-6.9-10c-4.9-3.2-11.3-2.6-15.4,1.5c-1.5,1.5-2.5,3.2-2.5,5.4c0,1-0.2,2-0.3,3.2
	C398,265,398.1,269,399.7,272.4z M436.9,304.1c4.2-2.1,7.3,0.2,10.8,2.5c1.4-0.6,3-1.1,4.4-1.9c4-2.4,5.9-5.8,6.1-10.5
	c0.2-6.8-5-13-10.7-14.2c-4.7-1-7.6,2-8.4,5.3c-0.8,3.3-1.9,6.4-4.4,8.9c-1,1-1,2.1-0.5,3.3C435,299.6,435.9,301.7,436.9,304.1z
	 M413.7,276.2c0.2,0.5,0.3,0.7,0.4,0.8c3.9,3.4,4.9,7.7,4.3,12.6c-0.2,1.7,0.4,2.6,2.1,3.4c1.1,0.5,2.3,0.8,3.4,1.3
	c5.6,2.5,9.6-0.4,11.5-4.6c2.5-5.7,2.5-11.6-0.1-17.3c-2.2-4.9-4.7-6-10-4.9c-2.1,0.4-3.6,1.3-4.3,3.4c-0.7,2.2-2.5,3.4-4.5,4.2
	C415.6,275.5,414.7,275.8,413.7,276.2z M368.9,311.9c-3.6,2.8-6.1,5.9-5.8,10.5c0.4,5.7,2,11,7.1,14.4c2.7,1.8,5.6,2.8,9,1.8
	c1.1-0.3,1.7-0.7,1.9-2c0.5-2.7,1.7-5.1,3.9-6.9c0.6-0.5,1-1.1,1.4-1.5c-0.8-2.3-1.8-4.3-2.1-6.4c-0.4-2.2-0.1-4.5-0.1-6.8
	c-2.9,0-5.4,0.1-8,0C373.6,314.8,371.2,313.8,368.9,311.9z M414,317.2c-0.2,0.3-0.3,0.4-0.4,0.6c-1,4.3-1.7,8.8-6.1,11.4
	c-1.5,0.9-1.9,4.8-1,6.2c2.3,3.1,4.8,5.9,9,6.4c3.7,0.4,7.3,0,10.3-2.5c2.6-2.2,4.6-4.9,5.8-8.1c1.1-2.9,1.4-5.8-0.4-8.6
	c-1.2-1.9-2.3-2.7-4.6-1.7c-1.9,0.9-4,1.3-6.2,0.8C417.7,321,416.1,318.9,414,317.2z M409.7,304.1c0.8,2.2,1.5,4.1,2.2,6
	c0.2,0.5,0.5,1.3,0.8,1.4c2.1,0.4,2.6,2.2,3.5,3.6c0.7,1,1.7,2,2.7,2.8c1.6,1.4,3.5,1.8,5.7,1.3c4.8-1.1,7.8-4.1,9.5-8.5
	c0.5-1.3,1-2.8,0.7-4c-0.9-3.3-2.3-6.4-3.6-9.8c-5.2,1.9-9.4-1-14.1-2.2C415.8,298.6,413.5,302,409.7,304.1z M388,329.7
	c-1.1,1-2,1.8-2.8,2.5c-1.3,1.2-2,2.8-2,4.5c0,7.8,3,12.9,10.6,15.4c5.6,1.8,10.3-1.1,11.7-5.3c0.6-1.9,1.2-3.7,1.7-5.6
	c0.1-0.6-0.1-1.5-0.5-2c-1.7-1.9-2.3-4-1.6-6.4c0.1-0.5,0-1.1,0-2.2C399,334.5,393.4,333,388,329.7z M431.4,318.4
	c0.8,1.7,1.7,3.1,2.1,4.6c0.6,1.9,1.1,3.6,2.5,5.2c2.2,2.5,5.1,3.2,7.8,1.2c1.9-1.4,3.3-3.2,4.1-5.5c1-2.7,0.8-5.5,0.7-8.3
	c-0.1-4.2-3.5-8.6-7.6-9.6c-1.9-0.5-3.6-0.4-4.1,2.3c-0.7,3.4-2.6,6.3-4.8,9C431.8,317.8,431.6,318.2,431.4,318.4z"/>
<path d="M442.5,372.5c4.4-1.5,8.7-1.9,13.1-2c0.2,1.8-0.4,2.5-1.9,2.7c-2.8,0.3-5.5,0.7-8.3,1.1c-0.8,0.1-1.5,0.6-2.3,0.9
	c-1.4,0.5-2,0.2-2.5-1.3c-3.2-8.1-6.7-16.1-10.7-23.8c-0.6-1.1-0.8-2,0.5-3.2c0.7,1.1,1.6,2,2.1,3.1c2.8,5.9,5.4,11.8,8.1,17.7
	C441.3,369.1,441.8,370.7,442.5,372.5z"/>
<path d="M396.9,358c-0.2,2.9-0.3,5.9-0.5,8.8c-0.4,4.7-1,9.4-1.5,14.1c-0.3,3.1-0.5,4.1-4.6,4.6c-3.9,0.4-7.7,1.2-11.6,1.1
	c-0.5,0-1.1,0-1.6-0.1c-0.4-1.2,0.2-1.9,1.2-2.2c1-0.3,2-0.5,3-0.4c3.5,0.2,6.8-0.5,10.2-1.1c1.3-0.2,1.6-1,1.7-2.1
	c0.5-4.7,1.1-9.4,1.5-14.1c0.2-1.5,0.1-3,0.2-4.5c0.1-1.6,0.3-3.1,1.4-4.2C396.5,357.9,396.7,357.9,396.9,358z"/>
<path class="st1" d="M371.1,283c-3-3-4.6-6.1-3.8-9.8c0.6-2.8,1.4-5.6,2.9-8.1c2.1-3.7,8.8-7.3,14.7-5.1c0.9,0.3,1.8,0.6,2.7,0.7
	c3.2,0.5,5.8,2.2,7.3,4.9c2.1,3.7,2.7,7.9,2.7,12.1c-0.1,3.8-2.1,6.6-5.4,8.2c-3.6,1.7-7.5,2.2-11.2,0.4c-2.4-1.1-4.6-2.5-6.8-3.9
	C372.9,281.8,372,281.6,371.1,283z"/>
<path class="st2" d="M389.6,291.9c0.1-2.6,0.1-2.8,2.4-3.7c4.6-1.7,7.7-6.5,7.7-11.2c0-2.2,0.8-2.9,3.1-2.6c3,0.4,5.6,1.8,8.1,3.5
	c1.9,1.3,3.3,2.9,4.4,4.9c0.9,1.8,1.3,3.7,0.9,5.6c-0.3,1.5-0.8,2.9-0.9,4.4c-0.7,6.9-7.8,11.2-12.7,11.9c-0.9,0.1-1.9,0.2-2.8,0
	C393.7,303,390,298.1,389.6,291.9z"/>
<path class="st2" d="M387.5,289.8c0,0.8,0.1,1.6,0,2.4c-0.2,2.5,0.5,4.8,1.8,6.9c0.8,1.4,1.8,2.8,2.7,4.2c0.3,0.4,0.4,1,0.4,1.5
	c-0.2,2.3-1.2,4.4-3.4,5.4c-4.5,2.2-9.2,3.5-14.2,1.6c-3.8-1.4-6.5-3.9-7.8-8c-1.2-3.7-1.5-7.2-0.3-10.9c0.8-2.3,1.5-4.8,4.1-6
	c2.2-1,4.1-1.5,6.4,0.2c2.6,1.9,5.7,2.7,9,2.5c0.4,0,0.7,0,1.1,0C387.3,289.6,387.4,289.7,387.5,289.8z"/>
<path class="st1" d="M394.8,305c3.8,3.1,7.7,1.6,11.6,1c3,2.4,3.5,6.1,4.5,9.5c0.7,2.4,0.1,4.6-0.6,6.8c-0.7,2.3-2.2,3.9-4.4,5.2
	c-3.1,1.8-6.1,3-9.7,2.5c-6.8-0.9-10.2-6.1-9.9-12.5c0-0.8,0-1.7,0.3-2.5c0.3-0.7,0.8-1.4,1.3-1.9c0.4-0.4,1-0.5,1.4-0.8
	c1.2-0.9,2.5-1.6,3.4-2.8C393.7,308.4,394.1,306.9,394.8,305z"/>
<path class="st1" d="M399.7,272.4c-1.6-3.5-1.7-7.4-4.4-10c0.1-1.2,0.3-2.2,0.3-3.2c0-2.2,1-4,2.5-5.4c4.1-4.1,10.5-4.7,15.4-1.5
	c3.6,2.4,6.2,5.4,6.9,10c0.4,3.2-0.2,6.1-1.8,8.8c-1.1,1.9-3.1,2.2-4.9,2.9c-1.6,0.6-3.1,0.7-4.7-0.3
	C406,272,402.9,271.6,399.7,272.4z"/>
<path class="st1" d="M436.9,304.1c-1-2.4-1.9-4.5-2.8-6.6c-0.6-1.2-0.5-2.3,0.5-3.3c2.5-2.4,3.5-5.6,4.4-8.9
	c0.8-3.3,3.7-6.3,8.4-5.3c5.7,1.2,10.9,7.4,10.7,14.2c-0.1,4.8-2.1,8.2-6.1,10.5c-1.4,0.8-3,1.3-4.4,1.9
	C444.3,304.3,441.1,302,436.9,304.1z"/>
<path class="st2" d="M413.7,276.2c1-0.4,1.9-0.7,2.7-1c2-0.8,3.8-2,4.5-4.2c0.7-2.1,2.2-2.9,4.3-3.4c5.4-1.1,7.8,0,10,4.9
	c2.6,5.7,2.6,11.6,0.1,17.3c-1.8,4.2-5.9,7.1-11.5,4.6c-1.1-0.5-2.3-0.8-3.4-1.3c-1.8-0.8-2.4-1.6-2.1-3.4c0.6-4.9-0.4-9.2-4.3-12.6
	C414,276.9,413.9,276.7,413.7,276.2z"/>
<path class="st1" d="M368.9,311.9c2.3,1.9,4.7,2.9,7.3,3c2.6,0.1,5.1,0,8,0c0,2.3-0.3,4.6,0.1,6.8c0.4,2.1,1.4,4.2,2.1,6.4
	c-0.4,0.4-0.9,1-1.4,1.5c-2.2,1.8-3.4,4.2-3.9,6.9c-0.2,1.2-0.8,1.7-1.9,2c-3.3,1-6.3,0-9-1.8c-5.1-3.4-6.8-8.6-7.1-14.4
	C362.8,317.9,365.3,314.7,368.9,311.9z"/>
<path class="st1" d="M414,317.2c2.1,1.8,3.7,3.9,6.4,4.5c2.2,0.5,4.3,0.1,6.2-0.8c2.3-1.1,3.4-0.2,4.6,1.7c1.7,2.8,1.5,5.7,0.4,8.6
	c-1.2,3.2-3.2,5.9-5.8,8.1c-3,2.4-6.6,2.9-10.3,2.5c-4.2-0.5-6.7-3.3-9-6.4c-1-1.3-0.5-5.3,1-6.2c4.4-2.6,5.1-7.1,6.1-11.4
	C413.7,317.6,413.8,317.5,414,317.2z"/>
<path class="st2" d="M409.7,304.1c3.8-2.1,6.1-5.5,7.5-9.6c4.7,1.2,8.8,4.1,14.1,2.2c1.3,3.4,2.6,6.6,3.6,9.8c0.3,1.2-0.2,2.7-0.7,4
	c-1.7,4.4-4.7,7.5-9.5,8.5c-2.2,0.5-4.1,0.1-5.7-1.3c-1-0.8-1.9-1.8-2.7-2.8c-1-1.4-1.4-3.2-3.5-3.6c-0.4-0.1-0.7-0.9-0.8-1.4
	C411.2,308.2,410.5,306.3,409.7,304.1z"/>
<path class="st2" d="M388,329.7c5.4,3.3,11,4.9,17.1,0.9c0,1.1,0.1,1.7,0,2.2c-0.7,2.5,0,4.5,1.6,6.4c0.4,0.5,0.6,1.4,0.5,2
	c-0.4,1.9-1.1,3.8-1.7,5.6c-1.3,4.2-6.1,7.1-11.7,5.3c-7.7-2.5-10.7-7.7-10.6-15.4c0-1.7,0.7-3.3,2-4.5
	C386.1,331.4,386.9,330.7,388,329.7z"/>
<path class="st2" d="M431.4,318.4c0.1-0.2,0.4-0.6,0.7-0.9c2.3-2.6,4.1-5.5,4.8-9c0.6-2.7,2.3-2.8,4.1-2.3c4.1,1,7.5,5.4,7.6,9.6
	c0.1,2.8,0.3,5.6-0.7,8.3c-0.8,2.3-2.2,4.1-4.1,5.5c-2.7,1.9-5.6,1.2-7.8-1.2c-1.4-1.6-1.9-3.3-2.5-5.2
	C433.1,321.5,432.2,320,431.4,318.4z"/>
<path class="st1" d="M435.7,268.1c-3.4-5.1-8-3.3-12.8-2.2c-0.2-1.2-0.4-2.4-0.4-3.5c-0.2-2.9-1-5.7-2.8-8.1
	c-1.2-1.6-1.2-1.8,0.2-3.3c1.6-1.9,3.7-2.7,6-3.1c3.7-0.6,6.9,0.4,10.1,2.3c4.9,3,4.8,11.5,1.4,15.2
	C436.7,266.2,436.2,267.3,435.7,268.1C435.6,268.2,435.7,268.1,435.7,268.1z"/>
<g>
	<path class="st0" d="M431.3,281c-1.4-1-2.5-1.9-3.6-2.8c-4.1-3.3-8.6-4-13.4-2.1c-2.8,1.1-5.5,2.6-7.8,4.5
		c-1.5,1.2-2.8,3.3-3.4,5.2c-1.6,5.7,2.7,16.1,7.5,19.4c7.5,5.1,15.9,3.9,21.8-3.1c0.5-0.6,0.7-1.4,0.8-1.7c3.1,1.3,5.2,2.5,7.5,3.1
		c3.2,0.9,6.2,0.7,9.3-1.4c8-5.6,7.7-20.6-2-26.4c-5.6-3.4-10.4-2.6-14.6,2.4C432.9,278.9,432.3,279.7,431.3,281z"/>
	<path d="M431.3,281c0.9-1.2,1.5-2.1,2.2-2.9c4.3-5,9-5.8,14.6-2.4c9.6,5.8,10,20.8,2,26.4c-3.1,2.2-6.1,2.3-9.3,1.4
		c-2.3-0.6-4.4-1.8-7.5-3.1c-0.1,0.3-0.3,1.1-0.8,1.7c-5.9,7-14.3,8.2-21.8,3.1c-4.8-3.3-9.1-13.7-7.5-19.4c0.5-1.9,1.8-4,3.4-5.2
		c2.3-1.9,5-3.4,7.8-4.5c4.8-1.9,9.3-1.2,13.4,2.1C428.8,279.1,430,279.9,431.3,281z M405,288.5c-0.1,7.1,2.3,11.1,8.2,14.8
		c5.6,3.5,14.2,1.6,17.8-3.9c5.5-8.3-0.9-18.6-8.6-20.9c-5.4-1.7-9.8,0.2-14,3.4C406.1,283.7,404.8,286,405,288.5z M433.3,283.6
		c0.8,2.1,1.8,4,2.2,6c0.4,2,0.1,4.2,0.2,6.3c0,0.7,0.4,1.5,0.9,2c3,3.3,9.2,3.6,12.6,0.7c3.6-3.1,4.2-7.2,3.5-11.5
		c-0.7-4.7-3.8-7.8-8.1-9.4c-4.8-1.8-7.3-0.7-9.4,2.9C434.7,281.7,434,282.6,433.3,283.6z"/>
	<path class="st0" d="M405,288.5c-0.2-2.5,1.1-4.8,3.5-6.6c4.1-3.2,8.6-5.1,14-3.4c7.7,2.4,14.1,12.6,8.6,20.9
		c-3.6,5.5-12.2,7.4-17.8,3.9C407.2,299.5,404.9,295.5,405,288.5z"/>
	<path class="st0" d="M433.3,283.6c0.7-1,1.4-2,2-3c2.2-3.6,4.6-4.8,9.4-2.9c4.3,1.6,7.3,4.7,8.1,9.4c0.7,4.3,0.1,8.4-3.5,11.5
		c-3.4,2.9-9.6,2.6-12.6-0.7c-0.5-0.5-0.9-1.3-0.9-2c-0.1-2.1,0.2-4.2-0.2-6.3C435.2,287.6,434.1,285.7,433.3,283.6z"/>
	<path class="st0" d="M449.7,297c1.1-1.2,2.2-2.1,2.8-3.3c0.3-0.7,0-2.1-0.6-2.8c-0.8-1-2-1.8-3.2-2.2c-1-0.3-2.6-0.4-3.2,0.2
		c-0.6,0.6-0.6,2.1-0.4,3.2c0.2,1.1,0.9,2.2,1.7,3.1C447.5,295.8,448.5,296.2,449.7,297z"/>
	<path class="st0" d="M429.6,291.9c-2-0.2-2.9,0.4-3.1,2.1c-0.3,2.8,1.1,5.6,2.9,5.7c2.2,0.1,4.4-1.9,4.5-4.1
		C434,293.8,432.2,292.2,429.6,291.9z"/>
	<path d="M448.2,294.4c-1.2-0.8-2.2-1.1-2.9-1.9c-0.8-0.9-1.4-2-1.7-3.1c-0.2-1-0.2-2.6,0.4-3.2c0.6-0.6,2.2-0.5,3.2-0.2
		c1.2,0.4,2.4,1.2,3.2,2.2c0.6,0.7,0.9,2.1,0.6,2.8C450.4,292.3,449.3,293.2,448.2,294.4z"/>
	<path d="M425.9,287.9c2.6,0.3,4.4,1.9,4.3,3.8c-0.1,2.2-2.3,4.2-4.5,4.1c-1.8-0.1-3.2-2.9-2.9-5.7
		C423,288.4,423.9,287.7,425.9,287.9z"/>
</g>
<path class="st0" d="M469.8,217.1c-1.2,0.6-0.9,1.4-0.8,2.2c0.3,2.8,0.9,5.5,0.9,8.3c-0.2,6.8-1.9,13.3-3.9,19.7
	c-0.1,0.4-0.4,0.8-0.6,1.2c-2.4,4-5.4,7.5-8.6,10.8c-1.1,1.1-2,2.2-3.2,3.1c-1.4,1-3,1.8-4.5,2.6c-0.6,0.3-1.2,0.6-0.6,1.5
	c3.2-1.1,6.1-2.7,8.3-5.2c2.7-3.1,6-5.8,8.1-9.5c1.3-2.1,2.7-4.1,3.2-6.6c0.8-4,1.9-8,2.7-12c0.5-2.5,0.8-5.2,0.7-7.7
	c0-2.5-0.6-4.9-1-7.3C470.3,217.8,470,217.5,469.8,217.1z"/>
<path d="M469.8,217.1c0.2,0.4,0.5,0.7,0.6,1.1c0.4,2.4,1,4.9,1,7.3c0.1,2.6-0.2,5.2-0.7,7.7c-0.7,4-1.9,8-2.7,12
	c-0.5,2.5-2,4.5-3.2,6.6c-2.2,3.6-5.4,6.3-8.1,9.5c-2.2,2.6-5.1,4.1-8.3,5.2c-0.6-1,0-1.2,0.6-1.5c1.5-0.8,3.1-1.6,4.5-2.6
	c1.2-0.9,2.2-2,3.2-3.1c3.3-3.3,6.2-6.8,8.6-10.8c0.2-0.4,0.5-0.8,0.6-1.2c2.1-6.4,3.8-12.9,3.9-19.7c0.1-2.8-0.5-5.5-0.9-8.3
	C468.9,218.5,468.6,217.7,469.8,217.1z"/>
<path class="st0" d="M387,58.8c-0.2-1.7-0.3-3.5-0.6-5.2c-0.6-3.6-2.4-6.7-5.2-9c-3.8-3.2-8.4-4.4-13.3-4c-0.9,0.1-1.9,0.6-2.8,0.7
	c-4.5,0.6-7.3,3.4-8.9,7.3c-1.6,3.8-1.7,7.9-1.1,11.9c0.7,5.4,3,9.5,8.7,10.9c0.6,0.1,1.1,0.4,1.6,0.5c1.2,0.2,2.4,0.3,3.6,0.5
	c3.6,0.7,7,0.9,10.4-1.2C384.2,68.4,387.2,64.7,387,58.8z"/>
<path d="M387,58.8c0.2,5.8-2.8,9.6-7.5,12.5c-3.3,2-6.8,1.9-10.4,1.2c-1.2-0.2-2.4-0.3-3.6-0.5c-0.6-0.1-1.1-0.4-1.6-0.5
	c-5.7-1.4-8-5.5-8.7-10.9c-0.5-4.1-0.4-8.1,1.1-11.9c1.6-3.9,4.5-6.7,8.9-7.3c1-0.1,1.9-0.6,2.8-0.7c4.9-0.4,9.5,0.8,13.3,4
	c2.7,2.3,4.6,5.3,5.2,9C386.7,55.3,386.8,57.1,387,58.8z M355.8,56.2c0.4,2.2,0.5,4.6,1.2,6.7c1,2.9,2.6,5.6,6.1,6.3
	c0.9,0.2,1.8,0.3,2.7,0.4c1,0.1,2,0.2,2.9,0.4c3.9,1.1,7.6,1.1,11-1.3c3.6-2.5,6.5-5.5,5.9-10.4c-0.1-0.7-0.1-1.4-0.1-2.1
	c-0.3-3.8-2-6.9-4.8-9.4c-3.5-3.1-7.7-4.3-12.3-4c-1.4,0.1-2.8,0.6-4.2,0.8c-3.7,0.7-5.7,3.2-7,6.4C356.4,52,356.2,54.1,355.8,56.2z
	"/>
<path class="st3" d="M355.8,56.2c0.5-2.1,0.7-4.2,1.4-6.1c1.3-3.2,3.3-5.7,7-6.4c1.4-0.3,2.8-0.8,4.2-0.8c4.6-0.3,8.8,0.9,12.3,4
	c2.8,2.5,4.4,5.6,4.8,9.4c0.1,0.7,0.1,1.4,0.1,2.1c0.6,4.9-2.3,7.9-5.9,10.4c-3.4,2.4-7.1,2.4-11,1.3c-0.9-0.3-1.9-0.3-2.9-0.4
	c-0.9-0.1-1.8-0.2-2.7-0.4c-3.4-0.7-5-3.4-6.1-6.3C356.3,60.8,356.2,58.5,355.8,56.2z"/>
<path class="st0" d="M370.8,65.7c1.7,1.1,3.6,1.5,5.6,1.2c2.2-0.4,3.6-2.2,3.3-4.1c-0.1-0.8-0.4-1.6-0.6-2.4
	c-0.6-2.1-2.4-2.5-4.2-2.6c-1.5-0.1-2.6,0.9-3.1,2.2c-0.3,0.8-0.5,1.6-0.7,2.4C371,63.4,370.9,64.5,370.8,65.7z"/>
<path d="M350.9,57.7c0.4-1.9,1.9-2,2.9-2.2c4.1-0.8,8.2-1.5,12.2-2.7c1.6-0.5,3.2-0.8,4.9-0.1c-0.7,2.1-2.6,0.5-3.7,1.4
	c0.4,3.1-0.1,4.1-1.8,4.4c-1.9,0.3-2.6-0.4-3.2-3.2C358.5,56,354.8,56.8,350.9,57.7z"/>
<path d="M362.2,54.1c0.4-1.9,1.9-2,2.9-2.2c4.1-0.8,8.2-1.5,12.2-2.7c1.6-0.5,3.2-0.8,4.9-0.1c-0.7,2.1-2.6,0.5-3.7,1.4
	c0.4,3.1-0.1,4.1-1.8,4.4c-1.9,0.3-2.6-0.4-3.2-3.2C369.9,52.4,366.2,53.2,362.2,54.1z"/>
<path d="M370.8,65.7c0.1-1.2,0.2-2.3,0.4-3.3c0.1-0.8,0.3-1.7,0.7-2.4c0.6-1.4,1.6-2.3,3.1-2.2c1.8,0.1,3.5,0.5,4.2,2.6
	c0.2,0.8,0.5,1.6,0.6,2.4c0.3,1.9-1.2,3.7-3.3,4.1C374.4,67.2,372.4,66.8,370.8,65.7z M375.8,65c0.3,0,0.8-0.1,1.3-0.1
	c1-0.1,1.4-0.6,1.4-1.5c0-2.3-2.1-4.2-4.4-3.9c-0.8,0.1-1.4,0.6-1.7,1.4C371.6,63,373.1,65.1,375.8,65z"/>
<path class="st0" d="M375.8,65c-2.7,0-4.2-2-3.4-4.2c0.3-0.8,0.9-1.3,1.7-1.4c2.3-0.3,4.4,1.6,4.4,3.9c0,0.9-0.4,1.5-1.4,1.5
	C376.6,65,376.1,65,375.8,65z"/>
<g>
	<path d="M46.2,15.4c0-0.8,0.2-1.5,0.6-2c0.4-0.5,1-0.9,1.6-1.2c0.6-0.3,1.3-0.5,2.1-0.6c0.7-0.1,1.4-0.2,2-0.2
		c1.1,0,2.1,0.2,2.9,0.7c0.8,0.5,1.4,1.2,1.9,2c0.5,0.8,0.8,1.8,1,2.8c0.2,1.1,0.3,2.2,0.3,3.3c0,0.7-0.1,1.6-0.2,2.6
		c-0.1,1-0.4,2-0.6,3.1c-0.3,1.1-0.6,2.1-1,3.2c-0.4,1-0.9,2-1.4,2.8c-0.5,0.8-1.2,1.5-1.8,2c-0.7,0.5-1.4,0.8-2.2,0.8
		c-0.2,0-0.3-0.2-0.6-0.7c-0.2-0.5-0.5-1.1-0.7-1.9c-0.3-0.8-0.6-1.7-0.8-2.8c-0.3-1-0.6-2.1-0.9-3.3c-0.3-1.1-0.5-2.3-0.8-3.4
		c-0.2-1.1-0.5-2.2-0.7-3.1c-0.2-1-0.4-1.8-0.5-2.5C46.3,16.3,46.2,15.7,46.2,15.4z M48.4,17.1c0,0.6,0,1.3,0.1,2.1
		c0.1,0.8,0.2,1.6,0.4,2.5c0.2,0.9,0.4,1.7,0.6,2.6c0.3,0.9,0.5,1.7,0.9,2.4c0.3,0.8,0.7,1.5,1.1,2.1s0.9,1.1,1.4,1.5
		c0.6-0.9,1.1-1.8,1.6-2.5c0.4-0.7,0.8-1.5,1.1-2.2c0.3-0.7,0.5-1.5,0.6-2.4c0.1-0.8,0.2-1.8,0.2-2.9c0-0.8,0-1.6-0.1-2.3
		c-0.1-0.8-0.3-1.4-0.6-2c-0.3-0.6-0.7-1.1-1.2-1.4c-0.5-0.4-1.2-0.5-2.1-0.5c-0.7,0-1.4,0.1-2,0.4c-0.7,0.2-1.3,0.6-1.9,1
		c0,0.1,0,0.2,0,0.4c0,0.2,0,0.4,0,0.6c0,0.2,0,0.4,0,0.6C48.4,16.9,48.4,17,48.4,17.1z"/>
	<path d="M59.7,27.1c0-1.1,0.1-2.1,0.3-3.2c0.2-1.1,0.6-2,1.1-2.8c0.5-0.8,1.2-1.5,2-2.1c0.8-0.5,1.8-0.8,2.9-0.8
		c0.6,0,1.2,0.1,1.7,0.4c0.5,0.3,0.9,0.6,1.2,1c0.3,0.4,0.6,0.9,0.8,1.5c0.2,0.6,0.3,1.2,0.3,1.8c0,1-0.2,2-0.6,2.9
		c-0.4,0.9-1,1.8-1.7,2.5c-0.7,0.7-1.5,1.2-2.4,1.6c-0.9,0.4-1.8,0.4-2.7,0.2c0,0.6,0.2,1,0.5,1.4c0.3,0.3,0.7,0.6,1.2,0.8
		c0.5,0.2,0.9,0.3,1.4,0.3c0.5,0,0.9,0.1,1.3,0.1c0.4,0,0.8,0,1.1-0.1c0.4-0.1,0.7-0.2,1.1-0.3c0.4-0.1,0.7-0.2,1.1-0.3
		c0.4-0.1,0.7-0.1,1.1-0.1c0.2,0,0.3,0,0.5,0c0.2,0,0.3,0.1,0.4,0.1c0.1,0.1,0.3,0.2,0.3,0.3c0.1,0.1,0.1,0.3,0.1,0.5
		c0,0.4-0.1,0.7-0.4,0.9c-0.2,0.2-0.6,0.5-0.9,0.6c-0.4,0.2-0.8,0.3-1.3,0.4c-0.5,0.1-0.9,0.2-1.3,0.2c-0.4,0-0.8,0.1-1.2,0.1
		c-0.4,0-0.6,0-0.8,0c-1.1,0-2.1-0.2-3-0.6c-0.9-0.4-1.7-1-2.3-1.7c-0.6-0.7-1.1-1.6-1.4-2.6C59.9,29.5,59.7,28.4,59.7,27.1z
		 M62.5,25.2c0,0.7,0.1,1.2,0.3,1.5c0.2,0.3,0.6,0.5,1.2,0.5c0.5,0,0.9-0.1,1.3-0.3c0.4-0.2,0.8-0.4,1.2-0.8
		c0.4-0.3,0.6-0.7,0.9-1.2c0.2-0.4,0.3-0.9,0.3-1.5c0-0.3,0-0.6-0.1-0.9c0-0.3-0.1-0.6-0.3-0.9c-0.1-0.3-0.3-0.5-0.5-0.6
		c-0.2-0.2-0.5-0.2-0.9-0.2c-0.5,0-1,0.1-1.4,0.4c-0.4,0.3-0.8,0.6-1.1,1c-0.3,0.4-0.5,0.9-0.7,1.4C62.6,24.2,62.5,24.7,62.5,25.2z"
		/>
	<path d="M73.9,26.5c0-0.8,0.2-1.7,0.5-2.6c0.3-0.9,0.8-1.7,1.3-2.4c0.5-0.7,1.2-1.3,1.9-1.8c0.7-0.5,1.5-0.7,2.3-0.7
		c0.4,0,0.8,0.1,1.2,0.2c0.4,0.2,0.8,0.4,1.1,0.7c0.3,0.3,0.6,0.6,0.8,1.1c0.2,0.4,0.3,0.9,0.3,1.4c-0.3,0-0.6,0-0.9-0.1
		c-0.3-0.1-0.5-0.2-0.8-0.3c-0.2-0.1-0.5-0.2-0.7-0.3c-0.2-0.1-0.5-0.1-0.8-0.1c-0.7,0-1.3,0.2-1.8,0.6c-0.4,0.4-0.8,0.9-1.1,1.5
		c-0.3,0.6-0.4,1.3-0.5,1.9c-0.1,0.7-0.1,1.3-0.1,1.9c0,0.1,0,0.3,0,0.6c0,0.3,0,0.6,0,0.9c0,0.3,0,0.6,0,0.9c0,0.3,0,0.5,0,0.6
		c0.2,0.5,0.4,0.8,0.6,1.1c0.2,0.3,0.4,0.4,0.6,0.6c0.2,0.1,0.4,0.2,0.7,0.2c0.2,0,0.5,0,0.9,0c0.5,0,0.9-0.1,1.2-0.2
		c0.3-0.2,0.7-0.3,1-0.6c0.3-0.2,0.6-0.5,0.8-0.7s0.5-0.5,0.8-0.7c0.3-0.2,0.6-0.4,0.9-0.6s0.7-0.2,1.2-0.2c0,1-0.2,1.8-0.5,2.5
		c-0.3,0.7-0.7,1.4-1.3,1.9s-1.2,0.9-2,1.2c-0.7,0.3-1.6,0.4-2.4,0.4c-0.8,0-1.6-0.3-2.2-0.9c-0.7-0.6-1.2-1.4-1.7-2.3
		c-0.5-0.9-0.8-1.9-1.1-2.9C74,28.1,73.9,27.2,73.9,26.5z"/>
	<path d="M98.2,31.5c-0.7,0.5-1.2,1-1.7,1.4c-0.5,0.4-1,0.7-1.4,1c-0.5,0.3-0.9,0.5-1.5,0.6c-0.5,0.1-1.2,0.2-1.9,0.2
		c-1.6,0-2.8-0.5-3.6-1.5s-1.2-2.4-1.2-4.3c0-0.7,0.1-1.5,0.3-2.3c0.2-0.8,0.4-1.6,0.8-2.4s0.8-1.5,1.2-2.3c0.5-0.7,1-1.3,1.6-1.9
		c0.6-0.5,1.2-1,1.9-1.3c0.7-0.3,1.4-0.5,2.1-0.5c1.3,0.1,2.3,0.5,3,1c0.7,0.6,1.3,1.3,1.6,2.1c0.4,0.9,0.6,1.8,0.8,2.9
		c0.1,1.1,0.3,2.2,0.3,3.3c0.1,1.1,0.2,2.3,0.3,3.4c0.1,1.1,0.4,2.2,0.8,3.1c-0.2,0.6-0.4,1.1-0.6,1.4c-0.2,0.3-0.4,0.3-0.7,0.1
		c-0.2-0.2-0.5-0.6-0.9-1.3C99.1,33.7,98.7,32.8,98.2,31.5z M89.1,29c0,1.1,0.2,1.9,0.6,2.4c0.4,0.5,1.1,0.8,2,0.8
		c0.7,0,1.4-0.1,2.1-0.4c0.7-0.3,1.2-0.7,1.7-1.2c0.5-0.5,0.9-1.1,1.2-1.8c0.3-0.7,0.4-1.5,0.4-2.3c0-0.4,0-0.8,0-1.5
		c0-0.6,0-1.3-0.1-1.9c-0.1-0.6-0.3-1.2-0.5-1.6c-0.2-0.5-0.6-0.7-1.1-0.7c-0.9,0-1.8,0.3-2.5,0.8c-0.8,0.5-1.4,1.2-2,2
		c-0.6,0.8-1,1.7-1.3,2.7S89.1,28.1,89.1,29z"/>
	<path d="M104.7,13.3c0.3,0.2,0.6,0.4,0.8,0.8c0.2,0.4,0.3,0.7,0.3,1c0,0.3-0.2,0.5-0.6,0.6c-0.4,0.1-1,0-1.8-0.3
		c0-0.5,0.1-1,0.3-1.4C103.9,13.5,104.3,13.3,104.7,13.3z M104.4,24.3c0-0.1,0-0.3,0-0.6c0-0.3,0-0.5,0-0.8c0-0.3,0-0.6,0-0.8
		c0-0.3,0-0.5,0-0.6c0.2-0.3,0.4-0.6,0.8-0.8c0.3-0.2,0.6-0.4,0.9-0.5c0.1,1.1,0.2,2.2,0.4,3.4c0.2,1.2,0.5,2.4,0.8,3.6
		c0.3,1.2,0.5,2.4,0.8,3.6c0.2,1.2,0.3,2.3,0.3,3.3c0,0.9-0.4,1.3-1.2,1.3c-0.5,0-0.9-0.2-1.2-0.7c-0.3-0.4-0.6-1-0.8-1.7
		c-0.2-0.7-0.4-1.5-0.5-2.3c-0.1-0.8-0.2-1.7-0.3-2.5c0-0.8-0.1-1.6-0.1-2.3C104.4,25.2,104.4,24.7,104.4,24.3z"/>
	<path d="M108.9,23c0-0.5,0.1-0.9,0.2-1.1c0.1-0.3,0.5-0.4,1-0.4c0.1,0,0.2,0,0.3,0c0.1,0,0.2,0,0.3,0c0.1,0.6,0.3,1.3,0.4,2
		c0.1,0.7,0.3,1.4,0.5,2.2c0.2,0.7,0.4,1.4,0.6,2.1c0.2,0.7,0.5,1.3,0.8,1.9c0.3-0.4,0.5-0.8,0.7-1.3c0.1-0.5,0.2-1,0.3-1.5
		c0.1-0.5,0.1-1,0.2-1.5c0.1-0.5,0.2-0.9,0.4-1.2c0.2-0.3,0.5-0.6,0.9-0.7c0.4-0.2,0.9-0.2,1.6,0c0.7,0,1.3,0.2,1.8,0.5
		c0.4,0.3,0.8,0.7,1.1,1.1c0.3,0.5,0.6,0.9,0.9,1.5c0.3,0.5,0.7,1,1.2,1.4c0.1-0.3,0.2-0.6,0.4-1s0.4-0.8,0.6-1.2
		c0.2-0.4,0.5-0.8,0.8-1.3c0.3-0.4,0.6-0.8,0.9-1.1c0.3-0.3,0.6-0.6,0.9-0.8c0.3-0.2,0.6-0.3,0.9-0.3c0.7,0,1.3,0.2,1.9,0.7
		s1,1.1,1.4,1.9c0.4,0.8,0.7,1.6,0.9,2.5c0.2,0.9,0.4,1.8,0.6,2.7c0.1,0.9,0.2,1.6,0.3,2.4c0.1,0.7,0.1,1.2,0.1,1.5
		c0,0.3-0.1,0.4-0.2,0.6c-0.1,0.1-0.2,0.2-0.4,0.3c-0.2,0.1-0.3,0.1-0.5,0.1c-0.2,0-0.4,0-0.5,0c0,0-0.1,0-0.2,0c-0.1,0-0.1,0-0.2,0
		c-0.1,0-0.2,0-0.3-0.1l-1.7-8.8c0-0.1-0.1-0.2-0.2-0.3c-0.1-0.2-0.2-0.3-0.3-0.3c-0.1,0-0.1,0-0.1,0c0,0-0.1,0-0.1,0c0,0,0,0-0.1,0
		c-0.4,0-0.7,0.2-1,0.5c-0.3,0.3-0.6,0.8-0.9,1.3c-0.3,0.5-0.5,1.1-0.8,1.7c-0.2,0.6-0.5,1.2-0.7,1.9c-0.2,0.6-0.4,1.2-0.5,1.7
		c-0.1,0.5-0.3,0.9-0.4,1.2c-0.1,0-0.2,0.1-0.4,0.1s-0.4,0-0.4,0c-0.5,0-0.9-0.2-1.1-0.6s-0.5-0.9-0.6-1.4c-0.2-0.6-0.3-1.2-0.4-1.9
		c-0.1-0.7-0.3-1.3-0.4-1.9c-0.2-0.6-0.4-1-0.7-1.4s-0.7-0.6-1.2-0.6c-0.2,0-0.4,0.2-0.6,0.6c-0.2,0.4-0.3,1-0.5,1.6
		c-0.1,0.7-0.3,1.4-0.4,2.1c-0.1,0.8-0.2,1.5-0.3,2.1c-0.1,0.7-0.2,1.4-0.2,2.3c0,0.1-0.1,0.1-0.2,0.2c-0.1,0.1-0.2,0.1-0.3,0.2
		c-0.1,0.1-0.2,0.1-0.3,0.2c-0.1,0-0.2,0.1-0.3,0.1c-0.5,0-1-0.2-1.4-0.7c-0.5-0.5-0.9-1.1-1.3-1.9c-0.4-0.8-0.7-1.7-1-2.6
		c-0.3-1-0.6-1.9-0.8-2.8c-0.2-0.9-0.4-1.7-0.5-2.5C109,23.9,108.9,23.4,108.9,23z"/>
	<path d="M132.6,27.1c0-1.1,0.1-2.1,0.3-3.2c0.2-1.1,0.6-2,1.1-2.8c0.5-0.8,1.2-1.5,2-2.1c0.8-0.5,1.8-0.8,2.9-0.8
		c0.6,0,1.2,0.1,1.7,0.4c0.5,0.3,0.9,0.6,1.2,1c0.3,0.4,0.6,0.9,0.8,1.5c0.2,0.6,0.3,1.2,0.3,1.8c0,1-0.2,2-0.6,2.9
		c-0.4,0.9-1,1.8-1.7,2.5c-0.7,0.7-1.5,1.2-2.4,1.6c-0.9,0.4-1.8,0.4-2.7,0.2c0,0.6,0.2,1,0.5,1.4c0.3,0.3,0.7,0.6,1.2,0.8
		c0.5,0.2,0.9,0.3,1.4,0.3c0.5,0,0.9,0.1,1.3,0.1c0.4,0,0.8,0,1.1-0.1c0.4-0.1,0.7-0.2,1.1-0.3c0.4-0.1,0.7-0.2,1.1-0.3
		c0.4-0.1,0.7-0.1,1.1-0.1c0.2,0,0.3,0,0.5,0c0.2,0,0.3,0.1,0.4,0.1c0.1,0.1,0.3,0.2,0.3,0.3c0.1,0.1,0.1,0.3,0.1,0.5
		c0,0.4-0.1,0.7-0.4,0.9c-0.2,0.2-0.6,0.5-0.9,0.6c-0.4,0.2-0.8,0.3-1.3,0.4c-0.5,0.1-0.9,0.2-1.3,0.2c-0.4,0-0.8,0.1-1.2,0.1
		c-0.4,0-0.6,0-0.8,0c-1.1,0-2.1-0.2-3-0.6c-0.9-0.4-1.7-1-2.3-1.7c-0.6-0.7-1.1-1.6-1.4-2.6C132.8,29.5,132.6,28.4,132.6,27.1z
		 M135.4,25.2c0,0.7,0.1,1.2,0.3,1.5c0.2,0.3,0.6,0.5,1.2,0.5c0.5,0,0.9-0.1,1.3-0.3c0.4-0.2,0.8-0.4,1.2-0.8
		c0.4-0.3,0.6-0.7,0.9-1.2c0.2-0.4,0.3-0.9,0.3-1.5c0-0.3,0-0.6-0.1-0.9c0-0.3-0.1-0.6-0.3-0.9c-0.1-0.3-0.3-0.5-0.5-0.6
		c-0.2-0.2-0.5-0.2-0.9-0.2c-0.5,0-1,0.1-1.4,0.4c-0.4,0.3-0.8,0.6-1.1,1c-0.3,0.4-0.5,0.9-0.7,1.4
		C135.5,24.2,135.4,24.7,135.4,25.2z"/>
	<path d="M147.4,25.4c0-0.5,0.1-0.9,0.3-1.1c0.2-0.2,0.6-0.3,1.1-0.3h0.3c0.1,0.3,0.1,0.7,0.2,1.1c0.1,0.4,0.2,0.8,0.3,1.3
		c0.1,0.4,0.3,0.8,0.5,1.2c0.2,0.4,0.4,0.6,0.7,0.9c0-0.7,0.2-1.3,0.5-2c0.3-0.6,0.6-1.2,1.1-1.7c0.4-0.5,0.9-0.9,1.4-1.3
		c0.5-0.3,1-0.6,1.5-0.7h0.6c0.8,0,1.6,0.2,2.2,0.6c0.6,0.4,1.1,1,1.5,1.6s0.7,1.4,0.9,2.3c0.2,0.9,0.4,1.7,0.5,2.6
		c0.1,0.9,0.2,1.7,0.2,2.6c0,0.8,0,1.5,0,2.1h-1.9c-0.1-1.2-0.2-2.3-0.4-3.4c-0.1-0.4-0.1-0.9-0.2-1.4c-0.1-0.5-0.2-0.9-0.3-1.3
		c-0.1-0.4-0.2-0.8-0.3-1.2c-0.1-0.4-0.3-0.7-0.4-0.9c-0.1-0.1-0.2-0.2-0.3-0.3c-0.1-0.1-0.2-0.3-0.4-0.4c-0.1-0.1-0.2-0.3-0.3-0.4
		c-0.1-0.1-0.2-0.1-0.2-0.1c-0.5-0.2-1,0-1.4,0.3c-0.4,0.4-0.7,0.9-1,1.5c-0.3,0.6-0.5,1.4-0.7,2.2s-0.3,1.6-0.5,2.4
		c-0.1,0.8-0.2,1.4-0.3,2s-0.1,0.9-0.1,1c-0.4,0.4-0.9,0.5-1.2,0.3c-0.4-0.1-0.8-0.5-1.1-0.9s-0.7-1.1-0.9-1.8
		c-0.3-0.7-0.5-1.5-0.8-2.2c-0.2-0.8-0.4-1.6-0.6-2.4C147.7,26.8,147.5,26.1,147.4,25.4z"/>
	<path d="M162,20.5c0-0.1,0-0.1,0-0.1c0,0,0-0.1,0-0.1c0.1-0.1,0.2-0.2,0.3-0.4c0.1-0.2,0.2-0.2,0.3-0.2h5.3c0-0.2,0-0.6-0.1-1
		s-0.1-1-0.1-1.6c0-0.6-0.1-1.2,0-1.8c0-0.6,0.1-1.2,0.2-1.7s0.3-0.9,0.6-1.2s0.7-0.5,1.2-0.5c0,2,0.1,3.6,0.4,4.7
		c0.2,1.2,0.6,2.1,1,2.8c0.4,0.6,0.9,1.1,1.4,1.3c0.5,0.2,1.1,0.3,1.6,0.2s1.1-0.1,1.6-0.3c0.5-0.2,1-0.3,1.4-0.3
		c0.4-0.1,0.7,0,1,0.1c0.2,0.1,0.4,0.5,0.4,1c0,0.4-0.1,0.7-0.3,0.9c-0.2,0.2-0.5,0.3-1,0.4c-0.1,0-0.4,0.1-0.7,0.1
		c-0.3,0-0.7,0.1-1.1,0.1c-0.4,0-0.8,0.1-1.3,0.1c-0.5,0-0.9,0.1-1.3,0.1c-0.4,0-0.8,0.1-1.1,0.1c-0.3,0-0.6,0-0.7,0
		c0,0.1,0,0.3,0,0.5c0,0.2,0,0.4,0,0.5c0,0.9,0.1,1.7,0.4,2.5c0.2,0.8,0.5,1.6,0.8,2.4c0.3,0.8,0.6,1.6,0.8,2.4
		c0.2,0.8,0.4,1.6,0.4,2.5c0,0.2,0,0.3,0,0.5c0,0.2-0.1,0.3-0.2,0.4c-0.1,0.1-0.2,0.2-0.3,0.3c-0.1,0.1-0.4,0.1-0.6,0
		c-0.7-0.2-1.2-0.6-1.5-1.3c-0.3-0.6-0.6-1.4-0.7-2.3c-0.2-0.9-0.3-1.8-0.3-2.8s-0.1-1.9-0.3-2.8c-0.1-0.9-0.3-1.6-0.5-2.2
		c-0.2-0.6-0.6-1-1.2-1.1l-5.1-1.3c-0.1,0-0.2-0.1-0.3-0.2c-0.1-0.2-0.2-0.3-0.3-0.4c0,0,0-0.1,0-0.1C162.1,20.7,162,20.6,162,20.5z
		"/>
	<path d="M179.6,29.3c0-1.2,0.3-2.3,0.8-3.4c0.5-1,1.2-1.9,2-2.7c0.8-0.8,1.8-1.3,2.8-1.8c1-0.4,2.1-0.6,3.2-0.6
		c0.6,0,1.1,0.2,1.6,0.6c0.5,0.4,0.9,1,1.2,1.6s0.6,1.3,0.7,1.9c0.2,0.7,0.3,1.3,0.3,1.8c0,1.1-0.2,2.2-0.7,3.2s-1.1,1.9-1.8,2.7
		c-0.8,0.8-1.6,1.4-2.6,1.9c-0.9,0.5-1.9,0.7-2.8,0.7c-0.8,0-1.6-0.2-2.1-0.5s-1-0.8-1.4-1.3c-0.4-0.5-0.6-1.2-0.8-1.9
		C179.7,30.9,179.6,30.2,179.6,29.3z M181.8,29.6c0,0.5,0,1,0.1,1.3s0.2,0.7,0.4,1c0.2,0.3,0.5,0.5,0.8,0.6c0.3,0.1,0.7,0.2,1.2,0.2
		c0.6,0,1.3-0.2,2-0.6c0.6-0.4,1.2-0.9,1.8-1.5c0.5-0.6,0.9-1.3,1.3-2c0.3-0.7,0.5-1.5,0.5-2.2c0-0.3,0-0.7-0.1-1
		c-0.1-0.4-0.1-0.7-0.3-1c-0.1-0.3-0.3-0.6-0.5-0.8c-0.2-0.2-0.5-0.3-0.9-0.3c-0.3,0-0.7,0.1-1.1,0.4c-0.4,0.2-0.9,0.5-1.3,0.9
		c-0.5,0.4-0.9,0.8-1.4,1.3s-0.9,0.9-1.2,1.4s-0.7,0.9-0.9,1.3C181.9,29,181.8,29.4,181.8,29.6z"/>
	<path d="M205.7,13.4c0.2-1.2,0.6-2.1,1.2-2.8c0.6-0.7,1.2-1.2,1.9-1.4c0.7-0.3,1.5-0.3,2.3-0.2c0.8,0.1,1.6,0.4,2.4,0.9
		c0.7,0.4,1.4,1,2,1.7c0.6,0.7,1,1.5,1.2,2.4c0.2,0.9,0.2,1.9,0,2.9c-0.2,1.1-0.7,2.1-1.6,3.3c0.6,0.3,1.2,0.5,1.8,0.8
		c0.5,0.3,1,0.6,1.4,0.9c0.4,0.4,0.7,0.8,0.9,1.3s0.3,1.2,0.3,2c0,0.6-0.1,1.3-0.3,2.1c-0.2,0.7-0.5,1.4-0.9,2.1
		c-0.4,0.7-0.8,1.4-1.3,2c-0.5,0.6-1,1.2-1.6,1.7c-0.6,0.5-1.2,0.9-1.8,1.2c-0.6,0.3-1.2,0.4-1.8,0.4c-0.4,0-0.8-0.3-1.1-0.8
		c-0.4-0.5-0.7-1.3-1.1-2.2c-0.4-0.9-0.7-1.9-1-3.1c-0.3-1.2-0.6-2.4-0.9-3.6c-0.3-1.3-0.5-2.5-0.8-3.8c-0.2-1.2-0.4-2.4-0.6-3.4
		c-0.2-1.1-0.3-2-0.4-2.7C205.7,14.2,205.7,13.7,205.7,13.4z M208.7,16.1c0,0.4,0,0.8,0,1.3c0,0.5,0,1.1,0,1.6
		c0,0.5,0.1,1.1,0.2,1.6c0.1,0.5,0.2,1,0.5,1.4c0.9-0.2,1.6-0.5,2.3-1c0.6-0.5,1.2-1.1,1.6-1.7c0.4-0.7,0.7-1.4,0.9-2.1
		c0.2-0.7,0.2-1.5,0.2-2.2c0-0.7-0.2-1.3-0.4-1.9c-0.3-0.6-0.6-1-1.1-1.4c-0.5-0.3-1-0.5-1.7-0.5c-0.7,0-1.4,0.2-2.2,0.7
		c0,0.2,0,0.4,0,0.8c0,0.4,0,0.8,0,1.2c0,0.4,0,0.8,0,1.2C208.7,15.7,208.7,16,208.7,16.1z M210.3,26.1c0,0.3,0.1,0.8,0.2,1.3
		c0.1,0.5,0.3,1.1,0.5,1.6c0.2,0.5,0.5,1.1,0.7,1.5c0.3,0.5,0.5,0.8,0.8,0.9c0.2,0.2,0.5,0.1,0.9,0c0.3-0.2,0.7-0.5,1-0.9
		c0.3-0.4,0.7-0.9,1-1.4c0.3-0.5,0.6-1,0.9-1.5c0.3-0.5,0.5-1,0.6-1.4c0.1-0.4,0.2-0.8,0.2-1c0-0.5-0.1-0.9-0.2-1.2
		c-0.1-0.3-0.3-0.6-0.5-0.8c-0.2-0.2-0.5-0.3-0.8-0.4c-0.3-0.1-0.7-0.1-1.1-0.1c-0.4,0-0.9,0.1-1.4,0.2c-0.5,0.2-0.9,0.4-1.4,0.7
		c-0.4,0.3-0.8,0.7-1.1,1.1C210.5,25.1,210.3,25.6,210.3,26.1z"/>
	<path d="M221.1,27.1c0-1.1,0.1-2.1,0.3-3.2c0.2-1.1,0.6-2,1.1-2.8c0.5-0.8,1.2-1.5,2-2.1c0.8-0.5,1.8-0.8,2.9-0.8
		c0.6,0,1.2,0.1,1.7,0.4c0.5,0.3,0.9,0.6,1.2,1c0.3,0.4,0.6,0.9,0.8,1.5c0.2,0.6,0.3,1.2,0.3,1.8c0,1-0.2,2-0.6,2.9
		c-0.4,0.9-1,1.8-1.7,2.5c-0.7,0.7-1.5,1.2-2.4,1.6c-0.9,0.4-1.8,0.4-2.7,0.2c0,0.6,0.2,1,0.5,1.4c0.3,0.3,0.7,0.6,1.2,0.8
		c0.5,0.2,0.9,0.3,1.4,0.3c0.5,0,0.9,0.1,1.3,0.1c0.4,0,0.8,0,1.1-0.1c0.4-0.1,0.7-0.2,1.1-0.3c0.4-0.1,0.7-0.2,1.1-0.3
		c0.4-0.1,0.7-0.1,1.1-0.1c0.2,0,0.3,0,0.5,0c0.2,0,0.3,0.1,0.4,0.1c0.1,0.1,0.3,0.2,0.3,0.3c0.1,0.1,0.1,0.3,0.1,0.5
		c0,0.4-0.1,0.7-0.4,0.9c-0.2,0.2-0.6,0.5-0.9,0.6c-0.4,0.2-0.8,0.3-1.3,0.4c-0.5,0.1-0.9,0.2-1.3,0.2c-0.4,0-0.8,0.1-1.2,0.1
		c-0.4,0-0.6,0-0.8,0c-1.1,0-2.1-0.2-3-0.6c-0.9-0.4-1.7-1-2.3-1.7c-0.6-0.7-1.1-1.6-1.4-2.6C221.3,29.5,221.1,28.4,221.1,27.1z
		 M223.9,25.2c0,0.7,0.1,1.2,0.3,1.5c0.2,0.3,0.6,0.5,1.2,0.5c0.5,0,0.9-0.1,1.3-0.3c0.4-0.2,0.8-0.4,1.2-0.8
		c0.4-0.3,0.6-0.7,0.9-1.2c0.2-0.4,0.3-0.9,0.3-1.5c0-0.3,0-0.6-0.1-0.9c0-0.3-0.1-0.6-0.3-0.9c-0.1-0.3-0.3-0.5-0.5-0.6
		c-0.2-0.2-0.5-0.2-0.9-0.2c-0.5,0-1,0.1-1.4,0.4c-0.4,0.3-0.8,0.6-1.1,1c-0.3,0.4-0.5,0.9-0.7,1.4C224,24.2,223.9,24.7,223.9,25.2z
		"/>
	<path d="M235.2,20.5c0-0.1,0-0.1,0-0.1c0,0,0-0.1,0-0.1c0.1-0.1,0.2-0.2,0.3-0.4c0.1-0.2,0.2-0.2,0.3-0.2h5.3c0-0.2,0-0.6-0.1-1
		s-0.1-1-0.1-1.6c0-0.6-0.1-1.2,0-1.8c0-0.6,0.1-1.2,0.2-1.7s0.3-0.9,0.6-1.2s0.7-0.5,1.2-0.5c0,2,0.1,3.6,0.4,4.7
		c0.2,1.2,0.6,2.1,1,2.8c0.4,0.6,0.9,1.1,1.4,1.3c0.5,0.2,1.1,0.3,1.6,0.2s1.1-0.1,1.6-0.3c0.5-0.2,1-0.3,1.4-0.3
		c0.4-0.1,0.7,0,1,0.1c0.2,0.1,0.4,0.5,0.4,1c0,0.4-0.1,0.7-0.3,0.9c-0.2,0.2-0.5,0.3-1,0.4c-0.1,0-0.4,0.1-0.7,0.1
		c-0.3,0-0.7,0.1-1.1,0.1c-0.4,0-0.8,0.1-1.3,0.1c-0.5,0-0.9,0.1-1.3,0.1c-0.4,0-0.8,0.1-1.1,0.1c-0.3,0-0.6,0-0.7,0
		c0,0.1,0,0.3,0,0.5c0,0.2,0,0.4,0,0.5c0,0.9,0.1,1.7,0.4,2.5c0.2,0.8,0.5,1.6,0.8,2.4c0.3,0.8,0.6,1.6,0.8,2.4
		c0.2,0.8,0.4,1.6,0.4,2.5c0,0.2,0,0.3,0,0.5c0,0.2-0.1,0.3-0.2,0.4c-0.1,0.1-0.2,0.2-0.3,0.3c-0.1,0.1-0.4,0.1-0.6,0
		c-0.7-0.2-1.2-0.6-1.5-1.3c-0.3-0.6-0.6-1.4-0.7-2.3c-0.2-0.9-0.3-1.8-0.3-2.8s-0.1-1.9-0.3-2.8c-0.1-0.9-0.3-1.6-0.5-2.2
		c-0.2-0.6-0.6-1-1.2-1.1l-5.1-1.3c-0.1,0-0.2-0.1-0.3-0.2c-0.1-0.2-0.2-0.3-0.3-0.4c0,0,0-0.1,0-0.1
		C235.2,20.7,235.2,20.6,235.2,20.5z"/>
	<path d="M264.1,31.5c-0.7,0.5-1.2,1-1.7,1.4c-0.5,0.4-1,0.7-1.4,1c-0.5,0.3-0.9,0.5-1.5,0.6c-0.5,0.1-1.2,0.2-1.9,0.2
		c-1.6,0-2.8-0.5-3.6-1.5s-1.2-2.4-1.2-4.3c0-0.7,0.1-1.5,0.3-2.3c0.2-0.8,0.4-1.6,0.8-2.4s0.8-1.5,1.2-2.3c0.5-0.7,1-1.3,1.6-1.9
		c0.6-0.5,1.2-1,1.9-1.3c0.7-0.3,1.4-0.5,2.1-0.5c1.3,0.1,2.3,0.5,3,1c0.7,0.6,1.3,1.3,1.6,2.1c0.4,0.9,0.6,1.8,0.8,2.9
		c0.1,1.1,0.3,2.2,0.3,3.3c0.1,1.1,0.2,2.3,0.3,3.4c0.1,1.1,0.4,2.2,0.8,3.1c-0.2,0.6-0.4,1.1-0.6,1.4c-0.2,0.3-0.4,0.3-0.7,0.1
		c-0.2-0.2-0.5-0.6-0.9-1.3C265,33.7,264.6,32.8,264.1,31.5z M255,29c0,1.1,0.2,1.9,0.6,2.4c0.4,0.5,1.1,0.8,2,0.8
		c0.7,0,1.4-0.1,2.1-0.4c0.7-0.3,1.2-0.7,1.7-1.2c0.5-0.5,0.9-1.1,1.2-1.8c0.3-0.7,0.4-1.5,0.4-2.3c0-0.4,0-0.8,0-1.5
		c0-0.6,0-1.3-0.1-1.9c-0.1-0.6-0.3-1.2-0.5-1.6c-0.2-0.5-0.6-0.7-1.1-0.7c-0.9,0-1.8,0.3-2.5,0.8c-0.8,0.5-1.4,1.2-2,2
		c-0.6,0.8-1,1.7-1.3,2.7S255,28.1,255,29z"/>
</g>
<g>
	<path d="M342,28.9c0-0.7,0.1-1.5,0.3-2.2s0.5-1.4,0.9-2s0.9-1.1,1.5-1.4s1.4-0.6,2.3-0.6c0.5,0,1,0.1,1.3,0.3s0.7,0.4,1,0.7
		s0.5,0.7,0.6,1.1s0.2,0.8,0.2,1.3c0,0.7-0.2,1.4-0.5,2s-0.8,1.2-1.3,1.7s-1.2,0.9-1.9,1.1s-1.4,0.3-2.1,0.2c0,0.4,0.1,0.7,0.4,1
		s0.6,0.4,0.9,0.5s0.7,0.2,1.1,0.2s0.7,0.1,1,0.1c0.3,0,0.6,0,0.9-0.1s0.5-0.1,0.8-0.2s0.6-0.1,0.8-0.2s0.6-0.1,0.9-0.1
		c0.1,0,0.2,0,0.4,0s0.2,0,0.3,0.1s0.2,0.1,0.3,0.2s0.1,0.2,0.1,0.4c0,0.3-0.1,0.5-0.3,0.6s-0.4,0.3-0.7,0.4s-0.6,0.2-1,0.3
		s-0.7,0.1-1,0.1s-0.6,0.1-0.9,0.1s-0.5,0-0.6,0c-0.9,0-1.7-0.1-2.4-0.4s-1.3-0.7-1.8-1.2s-0.8-1.1-1.1-1.8S342,29.7,342,28.9z
		 M344.2,27.5c0,0.5,0.1,0.8,0.2,1s0.4,0.3,1,0.3c0.4,0,0.7-0.1,1-0.2s0.7-0.3,0.9-0.5s0.5-0.5,0.7-0.8s0.2-0.7,0.2-1
		c0-0.2,0-0.4-0.1-0.6s-0.1-0.4-0.2-0.6s-0.2-0.3-0.4-0.5s-0.4-0.2-0.7-0.2c-0.4,0-0.8,0.1-1.1,0.3s-0.6,0.4-0.9,0.7s-0.4,0.6-0.5,1
		S344.2,27.2,344.2,27.5z"/>
	<path d="M354,23c0-0.4,0-0.8-0.1-1.2s-0.1-0.7,0-1s0.1-0.5,0.3-0.7s0.5-0.3,1-0.3c0.2,0.3,0.3,0.8,0.4,1.4s0.3,1.4,0.4,2.2
		s0.3,1.7,0.4,2.7s0.2,2,0.3,2.9s0.2,2,0.3,2.9s0.1,1.8,0.2,2.6c-0.5,0.3-0.8,0.3-1.1,0.1s-0.5-0.7-0.7-1.3s-0.3-1.4-0.4-2.3
		s-0.2-1.8-0.3-2.8s-0.2-1.9-0.3-2.9S354.2,23.7,354,23z"/>
	<path d="M358.3,28.9c0-0.7,0.1-1.5,0.3-2.2s0.5-1.4,0.9-2s0.9-1.1,1.5-1.4s1.4-0.6,2.3-0.6c0.5,0,1,0.1,1.3,0.3s0.7,0.4,1,0.7
		s0.5,0.7,0.6,1.1s0.2,0.8,0.2,1.3c0,0.7-0.2,1.4-0.5,2s-0.8,1.2-1.3,1.7s-1.2,0.9-1.9,1.1s-1.4,0.3-2.1,0.2c0,0.4,0.1,0.7,0.4,1
		s0.6,0.4,0.9,0.5s0.7,0.2,1.1,0.2s0.7,0.1,1,0.1c0.3,0,0.6,0,0.9-0.1s0.5-0.1,0.8-0.2s0.6-0.1,0.8-0.2s0.6-0.1,0.9-0.1
		c0.1,0,0.2,0,0.4,0s0.2,0,0.3,0.1s0.2,0.1,0.3,0.2s0.1,0.2,0.1,0.4c0,0.3-0.1,0.5-0.3,0.6s-0.4,0.3-0.7,0.4s-0.6,0.2-1,0.3
		s-0.7,0.1-1,0.1s-0.6,0.1-0.9,0.1s-0.5,0-0.6,0c-0.9,0-1.7-0.1-2.4-0.4s-1.3-0.7-1.8-1.2s-0.8-1.1-1.1-1.8S358.3,29.7,358.3,28.9z
		 M360.5,27.5c0,0.5,0.1,0.8,0.2,1s0.4,0.3,1,0.3c0.4,0,0.7-0.1,1-0.2s0.7-0.3,0.9-0.5s0.5-0.5,0.7-0.8s0.2-0.7,0.2-1
		c0-0.2,0-0.4-0.1-0.6s-0.1-0.4-0.2-0.6s-0.2-0.3-0.4-0.5s-0.4-0.2-0.7-0.2c-0.4,0-0.8,0.1-1.1,0.3s-0.6,0.4-0.9,0.7s-0.4,0.6-0.5,1
		S360.5,27.2,360.5,27.5z M363.8,18.9l-2.2,3.3c-0.2,0.2-0.3,0.3-0.5,0.2s-0.3-0.1-0.4-0.2s-0.1-0.3-0.1-0.5s0.1-0.4,0.2-0.6
		c0,0,0.1-0.1,0.1-0.2s0.1-0.1,0.1-0.2c0.1-0.2,0.3-0.5,0.5-0.7s0.4-0.5,0.6-0.8s0.4-0.5,0.6-0.6s0.4-0.3,0.5-0.4s0.3,0,0.4,0
		S363.7,18.6,363.8,18.9z"/>
	<path d="M369.3,24.2c0,0,0-0.1,0-0.1c0,0,0-0.1,0-0.1c0.1-0.1,0.1-0.2,0.2-0.3s0.2-0.2,0.2-0.2h4.1c0-0.2,0-0.4-0.1-0.7
		s-0.1-0.7-0.1-1.1s0-0.8,0-1.2s0.1-0.8,0.2-1.2s0.3-0.6,0.5-0.9s0.5-0.3,1-0.3c0,1.4,0.1,2.5,0.3,3.3s0.4,1.5,0.8,1.9
		s0.7,0.7,1.1,0.9s0.8,0.2,1.3,0.2s0.9-0.1,1.3-0.2s0.8-0.2,1.1-0.2s0.6,0,0.8,0.1s0.3,0.3,0.3,0.7c0,0.3-0.1,0.5-0.2,0.6
		s-0.4,0.2-0.7,0.3c-0.1,0-0.3,0-0.5,0.1s-0.5,0.1-0.9,0.1s-0.6,0.1-1,0.1s-0.7,0.1-1,0.1s-0.6,0-0.9,0.1s-0.5,0-0.6,0
		c0,0.1,0,0.2,0,0.3s0,0.3,0,0.3c0,0.6,0.1,1.2,0.3,1.8s0.4,1.1,0.6,1.7s0.4,1.1,0.6,1.7s0.3,1.1,0.3,1.7c0,0.1,0,0.2,0,0.3
		s-0.1,0.2-0.1,0.3s-0.2,0.2-0.3,0.2s-0.3,0-0.5,0c-0.5-0.1-0.9-0.4-1.2-0.9s-0.4-1-0.6-1.6s-0.2-1.3-0.2-2s-0.1-1.4-0.2-2
		s-0.2-1.1-0.4-1.6s-0.5-0.7-0.9-0.8l-4-0.9c-0.1,0-0.1-0.1-0.2-0.2s-0.2-0.2-0.2-0.3c0,0,0-0.1,0-0.1
		C369.3,24.3,369.3,24.3,369.3,24.2z"/>
	<path d="M382.9,25.9c0-0.1,0-0.2,0-0.4s0-0.2,0.1-0.3s0.1-0.2,0.2-0.3s0.2-0.1,0.4-0.1c0.1,0,0.3,0.1,0.5,0.3s0.3,0.5,0.5,0.8
		s0.4,0.7,0.5,1.1s0.3,0.7,0.5,1.1s0.2,0.6,0.3,0.8s0.1,0.4,0.1,0.4c0.2-0.5,0.4-1,0.6-1.6s0.5-1.1,0.8-1.6s0.7-0.9,1.1-1.2
		s1-0.5,1.6-0.5c0.3,0,0.6,0.1,0.9,0.2s0.6,0.3,0.8,0.5s0.4,0.4,0.5,0.7s0.2,0.6,0.2,0.9c0,0.3-0.1,0.5-0.4,0.6s-0.5,0.2-0.8,0.2
		h-0.2l-0.9-0.9c0,0,0,0-0.1,0c0,0-0.1,0-0.1,0s0,0-0.1,0c-0.5,0-0.9,0.1-1.1,0.4s-0.5,0.6-0.6,1s-0.2,0.8-0.3,1.2s-0.1,0.8-0.1,1.2
		c0,0.3,0,0.6,0.1,0.8s0.1,0.6,0.2,0.8s0.1,0.5,0.2,0.8s0.1,0.6,0.1,0.9c0,0.6-0.3,0.9-0.9,0.9c-0.3,0-0.7-0.2-1.1-0.5
		s-0.7-0.8-1.1-1.4s-0.7-1.2-1-1.9s-0.6-1.3-0.9-2s-0.4-1.2-0.6-1.7S382.9,26.2,382.9,25.9z"/>
	<path d="M393.4,30.4c0-0.8,0.2-1.6,0.6-2.4s0.9-1.4,1.6-1.9s1.4-0.9,2.2-1.2s1.6-0.5,2.5-0.5c0.5,0,0.9,0.2,1.2,0.5
		s0.7,0.7,0.9,1.1s0.4,0.9,0.6,1.4s0.2,0.9,0.2,1.3c0,0.8-0.2,1.5-0.6,2.2s-0.8,1.4-1.4,1.9s-1.3,1-2,1.3s-1.5,0.5-2.2,0.5
		c-0.7,0-1.2-0.1-1.7-0.3s-0.8-0.5-1.1-0.9s-0.5-0.8-0.6-1.3S393.4,31,393.4,30.4z M395.1,30.6c0,0.4,0,0.7,0.1,0.9s0.2,0.5,0.3,0.7
		s0.4,0.3,0.6,0.4s0.6,0.2,1,0.2c0.5,0,1-0.1,1.5-0.4s1-0.6,1.4-1.1s0.7-0.9,1-1.4s0.4-1,0.4-1.5c0-0.2,0-0.5-0.1-0.7
		s-0.1-0.5-0.2-0.7s-0.2-0.4-0.4-0.6s-0.4-0.2-0.7-0.2c-0.2,0-0.5,0.1-0.9,0.2s-0.7,0.4-1,0.6s-0.7,0.6-1.1,0.9s-0.7,0.7-1,1
		s-0.5,0.6-0.7,0.9S395.1,30.4,395.1,30.6z"/>
	<path d="M403.9,27.6c0-0.4,0.1-0.6,0.3-0.8s0.5-0.2,0.9-0.2h0.2c0,0.2,0.1,0.5,0.1,0.8s0.1,0.6,0.2,0.9s0.2,0.6,0.4,0.8
		s0.3,0.5,0.6,0.6c0-0.5,0.1-0.9,0.4-1.4s0.5-0.8,0.8-1.2s0.7-0.6,1.1-0.9s0.8-0.4,1.2-0.5h0.5c0.7,0,1.2,0.1,1.7,0.4
		s0.9,0.7,1.2,1.1s0.5,1,0.7,1.6s0.3,1.2,0.4,1.8s0.1,1.2,0.2,1.8s0,1.1,0,1.5h-1.5c-0.1-0.8-0.2-1.6-0.3-2.4c0-0.3-0.1-0.6-0.2-1
		s-0.1-0.6-0.2-0.9s-0.2-0.6-0.3-0.8s-0.2-0.5-0.3-0.6c-0.1-0.1-0.1-0.1-0.2-0.2s-0.2-0.2-0.3-0.3s-0.2-0.2-0.3-0.2
		s-0.1-0.1-0.1-0.1c-0.4-0.1-0.8,0-1.1,0.2s-0.6,0.6-0.8,1.1s-0.4,1-0.6,1.5s-0.3,1.1-0.4,1.7s-0.2,1-0.2,1.4s-0.1,0.6-0.1,0.7
		c-0.3,0.2-0.7,0.3-1,0.2s-0.6-0.3-0.9-0.6s-0.5-0.7-0.7-1.2s-0.4-1-0.6-1.6s-0.3-1.1-0.5-1.7S404,28.1,403.9,27.6z"/>
</g>
<g>
	<path d="M397.3,203.8c0-0.1,0-0.2,0-0.4s0-0.4,0-0.7c0-0.2,0-0.4,0-0.6s0-0.3,0-0.4c0.1-0.2,0.2-0.3,0.3-0.5s0.2-0.3,0.4-0.4
		s0.3-0.1,0.5-0.1c0.2,0,0.4,0.2,0.6,0.4l0,0.2l0,0.3c0,0.1,0,0.2,0,0.5c0,0.3-0.1,0.5-0.1,0.8c0,0.3-0.1,0.6-0.1,0.8
		c0,0.3,0,0.4,0,0.5c0,0.3,0.1,0.6,0.2,1s0.2,0.8,0.3,1.2c0.1,0.4,0.3,0.8,0.5,1.2c0.2,0.4,0.4,0.8,0.6,1.1c0.2,0.3,0.5,0.6,0.8,0.8
		s0.6,0.3,1,0.3c0.4,0,0.8-0.2,1.1-0.4c0.3-0.3,0.6-0.6,0.8-1c0.2-0.4,0.4-0.8,0.5-1.3s0.2-1,0.3-1.4c0.1-0.5,0.1-0.9,0.1-1.4
		c0-0.4,0-0.8,0-1.1s-0.1-0.6-0.1-0.9c-0.1-0.3-0.1-0.6-0.2-0.9c-0.1-0.3-0.2-0.6-0.2-0.8c-0.1-0.3-0.1-0.6-0.1-0.8
		c0-0.3,0.1-0.5,0.2-0.6s0.4-0.2,0.6-0.2c0.3,0,0.5,0,0.7,0.2c0.2,0.2,0.3,0.4,0.5,0.6c0.1,0.3,0.2,0.5,0.3,0.9
		c0.1,0.3,0.1,0.7,0.1,1c0,0.3,0,0.6,0,0.9c0,0.3,0,0.5,0,0.7c0,0.5,0,1,0,1.6c0,0.6-0.1,1.2-0.2,1.8c-0.1,0.6-0.3,1.3-0.5,1.9
		c-0.2,0.6-0.5,1.2-0.8,1.7c-0.3,0.5-0.7,0.9-1.2,1.2c-0.5,0.3-1,0.5-1.6,0.5c-0.6,0-1.2-0.1-1.6-0.3c-0.5-0.3-0.9-0.6-1.3-1.1
		c-0.4-0.5-0.7-1-0.9-1.6c-0.3-0.6-0.5-1.2-0.6-1.8s-0.3-1.2-0.4-1.8C397.4,204.7,397.3,204.2,397.3,203.8z"/>
	<path d="M407.4,202.8c0-0.3,0-0.6,0.1-0.8s0.3-0.3,0.7-0.3c0,0,0.1,0,0.2,0c0.1,0,0.2,0,0.2,0c0.1,0.4,0.3,0.9,0.4,1.4
		s0.3,1,0.5,1.5c0.2,0.5,0.4,1,0.6,1.5c0.2,0.5,0.4,0.9,0.7,1.3c0.2-0.3,0.4-0.6,0.5-1s0.1-0.7,0.2-1.1c0-0.4,0.1-0.7,0.1-1.1
		c0-0.3,0.1-0.6,0.2-0.9c0.1-0.2,0.3-0.4,0.6-0.6c0.3-0.1,0.7-0.2,1.2-0.1c0.6,0,1,0,1.4,0.2c0.4,0.2,0.7,0.4,0.9,0.7
		c0.3,0.3,0.5,0.6,0.8,1c0.3,0.3,0.6,0.6,1,0.9c0.1-0.2,0.2-0.4,0.3-0.7c0.1-0.3,0.2-0.6,0.4-0.9c0.2-0.3,0.3-0.6,0.5-0.9
		c0.2-0.3,0.4-0.6,0.6-0.8c0.2-0.3,0.4-0.5,0.7-0.6c0.2-0.2,0.5-0.3,0.7-0.3c0.6,0,1.1,0.1,1.5,0.4c0.4,0.3,0.8,0.7,1.1,1.2
		c0.3,0.5,0.6,1.1,0.9,1.7c0.2,0.6,0.4,1.2,0.6,1.8c0.2,0.6,0.3,1.1,0.4,1.6s0.1,0.9,0.1,1.1c0,0.2,0,0.3-0.1,0.4s-0.2,0.2-0.3,0.2
		s-0.2,0.1-0.4,0.1c-0.1,0-0.3,0-0.4,0c0,0-0.1,0-0.1,0s-0.1,0-0.2,0c-0.1,0-0.1,0-0.2,0l-1.8-6c0,0-0.1-0.1-0.2-0.2
		c-0.1-0.1-0.2-0.2-0.3-0.2c0,0-0.1,0-0.1,0c0,0,0,0-0.1,0s0,0,0,0c-0.3,0-0.5,0.2-0.8,0.4c-0.2,0.2-0.5,0.6-0.6,0.9
		c-0.2,0.4-0.4,0.8-0.5,1.2s-0.3,0.9-0.4,1.3c-0.1,0.4-0.2,0.8-0.3,1.2c-0.1,0.4-0.2,0.7-0.2,0.8c-0.1,0-0.2,0.1-0.3,0.1
		s-0.3,0-0.3,0.1c-0.4,0-0.7-0.1-0.9-0.3c-0.2-0.3-0.4-0.6-0.6-1c-0.2-0.4-0.3-0.8-0.4-1.3s-0.3-0.9-0.4-1.3c-0.2-0.4-0.4-0.7-0.6-1
		s-0.6-0.4-1-0.3c-0.1,0-0.3,0.2-0.4,0.5s-0.2,0.7-0.3,1.2s-0.1,1-0.2,1.5c-0.1,0.5-0.1,1-0.1,1.5c0,0.5,0,1-0.1,1.6
		c0,0-0.1,0.1-0.2,0.1c-0.1,0.1-0.2,0.1-0.2,0.2c-0.1,0.1-0.2,0.1-0.3,0.1s-0.2,0.1-0.2,0.1c-0.4,0-0.8-0.1-1.1-0.4
		c-0.4-0.3-0.7-0.8-1.1-1.3c-0.3-0.5-0.6-1.1-0.9-1.8s-0.5-1.3-0.7-1.9c-0.2-0.6-0.4-1.2-0.5-1.7
		C407.5,203.5,407.4,203.1,407.4,202.8z"/>
	<path d="M435.5,196.1c0-0.2,0-0.3,0-0.6c0-0.2,0.1-0.4,0.1-0.7c0.1-0.2,0.2-0.4,0.3-0.5s0.3-0.2,0.5-0.3c0,0,0,0,0.1,0
		c0.1,0,0.1,0,0.1,0c0.3,0.8,0.5,1.7,0.6,2.5c0.1,0.8,0.1,1.6,0.1,2.4s-0.1,1.6-0.1,2.3s-0.1,1.4-0.2,2c0,0.6-0.1,1.2,0,1.7
		c0,0.5,0.1,0.9,0.3,1.2c0-0.2-0.1-0.5-0.1-0.8s0-0.6,0-1c0-0.3,0.1-0.7,0.2-1c0.1-0.3,0.3-0.6,0.6-0.9c0.3-0.3,0.6-0.5,1-0.7
		c0.4-0.2,0.9-0.3,1.6-0.3c0.7,0,1.3,0,1.8,0.2c0.5,0.2,0.9,0.5,1.3,0.9c0.3,0.4,0.6,0.8,0.8,1.4c0.2,0.5,0.3,1.1,0.4,1.7
		c0,0.3,0,0.6,0.1,1c0,0.4,0,0.7-0.1,1c-0.1,0.3-0.2,0.6-0.4,0.8c-0.2,0.2-0.5,0.4-1,0.4c0-0.2,0-0.5,0-0.9s0-0.8,0-1.2
		c0-0.4-0.1-0.9-0.1-1.3c-0.1-0.4-0.2-0.8-0.4-1.2c-0.2-0.3-0.4-0.6-0.7-0.8c-0.3-0.2-0.7-0.3-1.1-0.3c-0.2,0-0.4,0-0.6,0.1
		s-0.5,0.1-0.7,0.2c-0.2,0.1-0.5,0.3-0.7,0.6c-0.2,0.2-0.4,0.6-0.5,1c-0.1,0.4-0.2,0.9-0.1,1.5s0.1,1.3,0.4,2.2
		c-0.1,0.3-0.2,0.4-0.3,0.5c-0.1,0.1-0.3,0.1-0.5,0.1c-0.4,0-0.8-0.1-1.1-0.4c-0.3-0.3-0.5-0.7-0.7-1.2s-0.3-1.1-0.4-1.8
		s-0.2-1.4-0.2-2.1s-0.1-1.5,0-2.3c0-0.8,0-1.5,0-2.2c0-0.7,0-1.3,0.1-1.9C435.5,196.9,435.5,196.4,435.5,196.1z"/>
	<path d="M445.5,204.6c-0.1-0.8,0.1-1.6,0.4-2.4s0.8-1.4,1.4-2c0.6-0.6,1.3-1,2.1-1.4c0.8-0.4,1.6-0.6,2.4-0.6
		c0.5,0,0.9,0.1,1.3,0.4s0.7,0.6,1,1c0.3,0.4,0.5,0.9,0.7,1.3c0.2,0.5,0.3,0.9,0.3,1.2c0.1,0.8-0.1,1.5-0.4,2.3
		c-0.3,0.7-0.8,1.4-1.3,2c-0.5,0.6-1.2,1.1-1.9,1.5c-0.7,0.4-1.4,0.6-2.2,0.7c-0.7,0-1.2,0-1.7-0.2c-0.5-0.2-0.8-0.5-1.1-0.8
		c-0.3-0.4-0.5-0.8-0.7-1.3C445.6,205.7,445.5,205.1,445.5,204.6z M447.3,204.6c0,0.4,0.1,0.7,0.2,0.9s0.2,0.5,0.4,0.7
		c0.2,0.2,0.4,0.3,0.7,0.4c0.3,0.1,0.6,0.1,1,0.1c0.5,0,1-0.2,1.5-0.5c0.5-0.3,0.9-0.7,1.3-1.2s0.7-1,0.9-1.5c0.2-0.5,0.3-1,0.3-1.5
		c0-0.2-0.1-0.5-0.1-0.7s-0.1-0.5-0.3-0.7c-0.1-0.2-0.3-0.4-0.4-0.5c-0.2-0.1-0.4-0.2-0.7-0.2c-0.2,0-0.5,0.1-0.9,0.3
		c-0.3,0.2-0.7,0.4-1,0.7c-0.3,0.3-0.7,0.6-1,1c-0.3,0.4-0.6,0.7-0.9,1c-0.3,0.3-0.5,0.7-0.6,1C447.3,204.2,447.2,204.4,447.3,204.6
		z"/>
	<path d="M455.3,199.4c0-0.3,0-0.6,0.1-0.8c0.1-0.2,0.3-0.3,0.7-0.3c0,0,0.1,0,0.2,0c0.1,0,0.2,0,0.2,0c0.1,0.4,0.3,0.9,0.4,1.4
		s0.3,1,0.5,1.5c0.2,0.5,0.4,1,0.6,1.5c0.2,0.5,0.4,0.9,0.7,1.3c0.2-0.3,0.4-0.6,0.5-1c0.1-0.4,0.1-0.7,0.2-1.1s0.1-0.7,0.1-1.1
		c0-0.3,0.1-0.6,0.2-0.9c0.1-0.2,0.3-0.4,0.6-0.6s0.7-0.2,1.2-0.1c0.6,0,1,0,1.4,0.2c0.4,0.2,0.7,0.4,0.9,0.7c0.3,0.3,0.5,0.6,0.8,1
		c0.3,0.3,0.6,0.6,1,0.9c0.1-0.2,0.2-0.4,0.3-0.7c0.1-0.3,0.2-0.6,0.4-0.9c0.2-0.3,0.3-0.6,0.5-0.9c0.2-0.3,0.4-0.6,0.6-0.8
		s0.4-0.5,0.7-0.6c0.2-0.2,0.5-0.3,0.7-0.3c0.6,0,1.1,0.1,1.5,0.4c0.4,0.3,0.8,0.7,1.1,1.2c0.3,0.5,0.6,1.1,0.9,1.7
		c0.2,0.6,0.4,1.2,0.6,1.8c0.2,0.6,0.3,1.1,0.4,1.6s0.1,0.9,0.1,1.1c0,0.2,0,0.3-0.1,0.4s-0.2,0.2-0.3,0.2c-0.1,0.1-0.2,0.1-0.4,0.1
		c-0.1,0-0.3,0-0.4,0c0,0-0.1,0-0.1,0c-0.1,0-0.1,0-0.2,0c-0.1,0-0.1,0-0.2,0l-1.8-6c0,0-0.1-0.1-0.2-0.2c-0.1-0.1-0.2-0.2-0.3-0.2
		c0,0-0.1,0-0.1,0c0,0,0,0-0.1,0c0,0,0,0,0,0c-0.3,0-0.5,0.2-0.8,0.4c-0.2,0.2-0.5,0.6-0.6,0.9c-0.2,0.4-0.4,0.8-0.5,1.2
		s-0.3,0.9-0.4,1.3c-0.1,0.4-0.2,0.8-0.3,1.2c-0.1,0.4-0.2,0.7-0.2,0.8c-0.1,0-0.2,0.1-0.3,0.1s-0.3,0-0.3,0.1
		c-0.4,0-0.7-0.1-0.9-0.3s-0.4-0.6-0.6-1c-0.2-0.4-0.3-0.8-0.4-1.3c-0.1-0.5-0.3-0.9-0.4-1.3c-0.2-0.4-0.4-0.7-0.6-1
		c-0.2-0.2-0.6-0.4-1-0.3c-0.1,0-0.3,0.2-0.4,0.5s-0.2,0.7-0.3,1.2c-0.1,0.5-0.1,1-0.2,1.5c-0.1,0.5-0.1,1-0.1,1.5
		c0,0.5,0,1-0.1,1.6c0,0-0.1,0.1-0.2,0.1c-0.1,0.1-0.2,0.1-0.2,0.2c-0.1,0.1-0.2,0.1-0.3,0.1c-0.1,0-0.2,0.1-0.2,0.1
		c-0.4,0-0.8-0.1-1.1-0.4c-0.4-0.3-0.7-0.8-1.1-1.3s-0.6-1.1-0.9-1.8c-0.3-0.7-0.5-1.3-0.7-1.9c-0.2-0.6-0.4-1.2-0.5-1.7
		C455.3,200.1,455.3,199.7,455.3,199.4z"/>
	<path d="M473.9,201c-0.1-0.7,0-1.5,0.1-2.2c0.1-0.7,0.4-1.4,0.7-2c0.3-0.6,0.8-1.1,1.4-1.5c0.6-0.4,1.3-0.6,2.2-0.7
		c0.5,0,1,0,1.3,0.2c0.4,0.2,0.7,0.4,1,0.7c0.3,0.3,0.5,0.6,0.7,1c0.2,0.4,0.3,0.8,0.3,1.2c0,0.7-0.1,1.4-0.3,2.1s-0.7,1.3-1.2,1.8
		c-0.5,0.5-1.1,1-1.8,1.3c-0.7,0.3-1.4,0.4-2.1,0.3c0,0.4,0.2,0.7,0.5,0.9s0.6,0.4,0.9,0.5c0.4,0.1,0.7,0.2,1.1,0.2c0.4,0,0.7,0,1,0
		c0.3,0,0.6-0.1,0.9-0.1c0.3-0.1,0.5-0.2,0.8-0.2c0.3-0.1,0.5-0.2,0.8-0.2s0.6-0.1,0.9-0.1c0.1,0,0.2,0,0.4,0s0.2,0,0.4,0.1
		c0.1,0,0.2,0.1,0.3,0.2c0.1,0.1,0.1,0.2,0.1,0.4c0,0.3-0.1,0.5-0.2,0.7s-0.4,0.3-0.7,0.5s-0.6,0.3-1,0.3c-0.3,0.1-0.7,0.2-1,0.2
		s-0.6,0.1-0.9,0.1s-0.5,0-0.6,0.1c-0.9,0.1-1.7,0-2.4-0.3c-0.7-0.2-1.3-0.6-1.8-1c-0.5-0.5-0.9-1-1.2-1.7
		C474.1,202.6,473.9,201.9,473.9,201z M475.9,199.5c0,0.5,0.1,0.8,0.3,1c0.1,0.2,0.5,0.3,1,0.3c0.4,0,0.7-0.1,1-0.3
		c0.3-0.2,0.6-0.4,0.9-0.6c0.3-0.3,0.5-0.5,0.6-0.9c0.1-0.3,0.2-0.7,0.2-1c0-0.2,0-0.4-0.1-0.6s-0.1-0.4-0.3-0.6
		c-0.1-0.2-0.3-0.3-0.5-0.4c-0.2-0.1-0.4-0.1-0.7-0.1c-0.4,0-0.8,0.1-1.1,0.4c-0.3,0.2-0.6,0.5-0.8,0.8s-0.4,0.6-0.5,1
		C476,198.8,475.9,199.2,475.9,199.5z"/>
	<path d="M484.6,197.3c0-0.3,0-0.6,0.1-0.8s0.3-0.3,0.7-0.3c0,0,0.1,0,0.2,0c0.1,0,0.2,0,0.2,0c0.1,0.4,0.3,0.9,0.4,1.4
		s0.3,1,0.5,1.5c0.2,0.5,0.4,1,0.6,1.5c0.2,0.5,0.4,0.9,0.7,1.3c0.2-0.3,0.4-0.6,0.5-1s0.1-0.7,0.2-1.1c0-0.4,0.1-0.7,0.1-1.1
		c0-0.3,0.1-0.6,0.2-0.9c0.1-0.2,0.3-0.4,0.6-0.6c0.3-0.1,0.7-0.2,1.2-0.1c0.6,0,1,0,1.4,0.2c0.4,0.2,0.7,0.4,0.9,0.7
		c0.3,0.3,0.5,0.6,0.8,1c0.3,0.3,0.6,0.6,1,0.9c0.1-0.2,0.2-0.4,0.3-0.7c0.1-0.3,0.2-0.6,0.4-0.9c0.2-0.3,0.3-0.6,0.5-0.9
		c0.2-0.3,0.4-0.6,0.6-0.8c0.2-0.3,0.4-0.5,0.7-0.6c0.2-0.2,0.5-0.3,0.7-0.3c0.6,0,1.1,0.1,1.5,0.4c0.4,0.3,0.8,0.7,1.1,1.2
		c0.3,0.5,0.6,1.1,0.9,1.7c0.2,0.6,0.4,1.2,0.6,1.8c0.2,0.6,0.3,1.1,0.4,1.6c0.1,0.5,0.1,0.9,0.1,1.1c0,0.2,0,0.3-0.1,0.4
		s-0.2,0.2-0.3,0.2c-0.1,0.1-0.2,0.1-0.4,0.1c-0.1,0-0.3,0-0.4,0c0,0-0.1,0-0.1,0s-0.1,0-0.2,0c-0.1,0-0.1,0-0.2,0l-1.8-6
		c0,0-0.1-0.1-0.2-0.2s-0.2-0.2-0.3-0.2c0,0-0.1,0-0.1,0c0,0,0,0-0.1,0s0,0,0,0c-0.3,0-0.5,0.2-0.8,0.4c-0.2,0.2-0.5,0.6-0.6,0.9
		c-0.2,0.4-0.4,0.8-0.5,1.2s-0.3,0.9-0.4,1.3c-0.1,0.4-0.2,0.8-0.3,1.2s-0.2,0.7-0.2,0.8c-0.1,0-0.2,0.1-0.3,0.1
		c-0.2,0-0.3,0-0.3,0.1c-0.4,0-0.7-0.1-0.9-0.3c-0.2-0.3-0.4-0.6-0.6-1c-0.2-0.4-0.3-0.8-0.4-1.3s-0.3-0.9-0.4-1.3
		c-0.2-0.4-0.4-0.7-0.6-1c-0.2-0.2-0.6-0.4-1-0.3c-0.1,0-0.3,0.2-0.4,0.5c-0.1,0.3-0.2,0.7-0.3,1.2c-0.1,0.5-0.1,1-0.2,1.5
		c-0.1,0.5-0.1,1-0.1,1.5c0,0.5,0,1-0.1,1.6c0,0-0.1,0.1-0.2,0.1c-0.1,0.1-0.2,0.1-0.2,0.2c-0.1,0.1-0.2,0.1-0.3,0.1
		c-0.1,0-0.2,0.1-0.2,0.1c-0.4,0-0.8-0.1-1.1-0.4c-0.4-0.3-0.7-0.8-1.1-1.3c-0.3-0.5-0.6-1.1-0.9-1.8s-0.5-1.3-0.7-1.9
		c-0.2-0.6-0.4-1.2-0.5-1.7C484.7,198,484.7,197.6,484.6,197.3z"/>
	<path d="M512,195.4c0-0.3,0-0.6,0.1-0.8c0.1-0.2,0.3-0.3,0.7-0.3c0,0,0.1,0,0.2,0c0.1,0,0.2,0,0.2,0c0.1,0.4,0.3,0.9,0.4,1.4
		c0.1,0.5,0.3,1,0.5,1.5c0.2,0.5,0.4,1,0.6,1.5c0.2,0.5,0.4,0.9,0.7,1.3c0.2-0.3,0.4-0.6,0.5-1c0.1-0.4,0.1-0.7,0.2-1.1
		c0-0.4,0.1-0.7,0.1-1.1c0-0.3,0.1-0.6,0.2-0.9c0.1-0.2,0.3-0.4,0.6-0.6c0.3-0.1,0.7-0.2,1.2-0.1c0.6,0,1,0,1.4,0.2
		c0.4,0.2,0.7,0.4,0.9,0.7c0.3,0.3,0.5,0.6,0.8,1c0.3,0.3,0.6,0.6,1,0.9c0.1-0.2,0.2-0.4,0.3-0.7c0.1-0.3,0.2-0.6,0.4-0.9
		c0.2-0.3,0.3-0.6,0.5-0.9c0.2-0.3,0.4-0.6,0.6-0.8c0.2-0.3,0.4-0.5,0.7-0.6s0.5-0.3,0.7-0.3c0.6,0,1.1,0.1,1.5,0.4s0.8,0.7,1.1,1.2
		c0.3,0.5,0.6,1.1,0.9,1.7c0.2,0.6,0.4,1.2,0.6,1.8c0.2,0.6,0.3,1.1,0.4,1.6c0.1,0.5,0.1,0.9,0.1,1.1c0,0.2,0,0.3-0.1,0.4
		c-0.1,0.1-0.2,0.2-0.3,0.2s-0.2,0.1-0.4,0.1c-0.1,0-0.3,0-0.4,0c0,0-0.1,0-0.1,0c-0.1,0-0.1,0-0.2,0c-0.1,0-0.1,0-0.2,0l-1.8-6
		c0,0-0.1-0.1-0.2-0.2c-0.1-0.1-0.2-0.2-0.3-0.2c0,0-0.1,0-0.1,0c0,0,0,0-0.1,0s0,0,0,0c-0.3,0-0.5,0.2-0.8,0.4
		c-0.2,0.2-0.5,0.6-0.6,0.9s-0.4,0.8-0.5,1.2c-0.2,0.4-0.3,0.9-0.4,1.3c-0.1,0.4-0.2,0.8-0.3,1.2c-0.1,0.4-0.2,0.7-0.2,0.8
		c-0.1,0-0.2,0.1-0.3,0.1s-0.3,0.1-0.3,0.1c-0.4,0-0.7-0.1-0.9-0.3c-0.2-0.3-0.4-0.6-0.6-1c-0.2-0.4-0.3-0.8-0.4-1.3
		c-0.1-0.5-0.3-0.9-0.4-1.3s-0.4-0.7-0.6-1s-0.6-0.4-1-0.3c-0.2,0-0.3,0.2-0.4,0.5s-0.2,0.7-0.3,1.2c-0.1,0.5-0.1,1-0.2,1.5
		s-0.1,1-0.1,1.5c0,0.5,0,1-0.1,1.6c0,0-0.1,0.1-0.2,0.1c-0.1,0.1-0.2,0.1-0.2,0.2c-0.1,0.1-0.2,0.1-0.3,0.1s-0.2,0.1-0.2,0.1
		c-0.4,0-0.8-0.1-1.1-0.4c-0.4-0.3-0.7-0.8-1.1-1.3c-0.3-0.5-0.6-1.1-0.9-1.8c-0.3-0.7-0.5-1.3-0.7-1.9c-0.2-0.6-0.4-1.2-0.5-1.7
		C512.1,196.1,512,195.7,512,195.4z"/>
	<path d="M530.5,194.3c0-0.1,0-0.2,0-0.4c0-0.2,0-0.4,0-0.7c0-0.2,0-0.4,0-0.6s0-0.3,0-0.4c0.1-0.2,0.2-0.3,0.3-0.5s0.2-0.3,0.4-0.4
		s0.3-0.1,0.5-0.1c0.2,0,0.4,0.2,0.6,0.4l0,0.2l0,0.3c0,0.1,0,0.2,0,0.5c0,0.3-0.1,0.5-0.1,0.8c0,0.3-0.1,0.6-0.1,0.8
		c0,0.3,0,0.4,0,0.5c0,0.3,0.1,0.6,0.2,1s0.2,0.8,0.3,1.2c0.1,0.4,0.3,0.8,0.5,1.2c0.2,0.4,0.4,0.8,0.6,1.1c0.2,0.3,0.5,0.6,0.8,0.8
		s0.6,0.3,1,0.3c0.4,0,0.8-0.2,1.1-0.4c0.3-0.3,0.6-0.6,0.8-1c0.2-0.4,0.4-0.8,0.5-1.3c0.1-0.5,0.2-1,0.3-1.4
		c0.1-0.5,0.1-0.9,0.1-1.4c0-0.4,0-0.8,0-1.1s-0.1-0.6-0.1-0.9c-0.1-0.3-0.1-0.6-0.2-0.9c-0.1-0.3-0.2-0.6-0.2-0.8
		c-0.1-0.3-0.1-0.6-0.1-0.8c0-0.3,0.1-0.5,0.2-0.6c0.2-0.1,0.4-0.2,0.6-0.2c0.3,0,0.5,0,0.7,0.2c0.2,0.2,0.3,0.4,0.5,0.6
		c0.1,0.3,0.2,0.5,0.3,0.9c0.1,0.3,0.1,0.7,0.1,1c0,0.3,0,0.6,0,0.9s0,0.5,0,0.7c0,0.5,0,1,0,1.6c0,0.6-0.1,1.2-0.2,1.8
		c-0.1,0.6-0.3,1.3-0.5,1.9c-0.2,0.6-0.5,1.2-0.8,1.7s-0.7,0.9-1.2,1.2c-0.5,0.3-1,0.5-1.6,0.5c-0.6,0-1.2-0.1-1.6-0.3
		c-0.5-0.3-0.9-0.6-1.3-1.1c-0.4-0.5-0.7-1-0.9-1.6c-0.3-0.6-0.5-1.2-0.6-1.8s-0.3-1.2-0.4-1.8C530.5,195.2,530.5,194.8,530.5,194.3
		z"/>
	<path d="M540.9,199.5c-0.1-0.8,0.1-1.5,0.4-2.1c0.4-0.6,0.8-1.2,1.4-1.7c0.6-0.5,1.2-0.9,1.8-1.3c0.7-0.4,1.3-0.7,1.8-0.9
		s1.1-0.5,1.4-0.6c0.4-0.2,0.6-0.3,0.6-0.4c0-0.5-0.1-0.9-0.2-1.4s-0.2-0.9-0.3-1.4c-0.1-0.5-0.2-0.9-0.3-1.4
		c-0.1-0.5-0.1-0.9-0.2-1.4l-0.1-1.3c0.5-0.2,0.9-0.3,1.2,0s0.3,0.6,0.2,1.3c0.1,0.3,0.2,0.8,0.3,1.4c0.1,0.6,0.3,1.3,0.5,2.1
		c0.2,0.8,0.4,1.6,0.5,2.5s0.4,1.7,0.5,2.5c0.2,0.8,0.3,1.5,0.5,2.1c0.1,0.6,0.2,1.1,0.3,1.4c0,0.1,0,0.2,0.1,0.4
		c0,0.2,0.1,0.4,0.1,0.6s0,0.4,0.1,0.6s0,0.3,0,0.4c-0.5,0-0.9,0-1.1,0c-0.2,0-0.3-0.1-0.4-0.2s-0.1-0.3-0.1-0.5
		c0-0.2-0.1-0.5-0.3-0.9c-0.5,0.4-0.9,0.8-1.4,1.1s-0.9,0.5-1.3,0.7c-0.4,0.2-0.9,0.3-1.3,0.4c-0.5,0.1-0.9,0.2-1.5,0.2
		c-0.4,0-0.9,0-1.3,0s-0.8-0.2-1.1-0.3c-0.3-0.2-0.6-0.4-0.8-0.7C541.1,200.4,541,200,540.9,199.5z M542.7,199
		c0,0.2,0.1,0.4,0.2,0.5c0.1,0.1,0.2,0.2,0.4,0.3s0.3,0.1,0.5,0.2c0.2,0,0.3,0,0.5,0c0.5,0,1-0.2,1.5-0.4c0.5-0.2,1-0.5,1.5-0.9
		c0.4-0.4,0.8-0.8,1.1-1.3c0.3-0.5,0.4-1,0.4-1.5c0-0.4-0.1-0.7-0.3-0.9c-0.2-0.2-0.5-0.2-0.9-0.2c-0.4,0-0.9,0.2-1.5,0.4
		c-0.6,0.2-1.1,0.6-1.6,0.9c-0.5,0.4-0.9,0.8-1.3,1.3C542.8,198,542.6,198.5,542.7,199z"/>
	<path d="M561.6,197.9c-0.5,0.4-0.9,0.7-1.3,1c-0.4,0.3-0.7,0.6-1,0.8c-0.3,0.2-0.7,0.4-1.1,0.5c-0.4,0.1-0.9,0.2-1.5,0.2
		c-1.3,0.1-2.2-0.2-2.9-0.8c-0.7-0.6-1-1.6-1.1-3c0-0.5,0-1.1,0.1-1.6c0.1-0.6,0.3-1.1,0.5-1.7c0.2-0.6,0.5-1.1,0.8-1.6
		s0.7-1,1.2-1.4c0.4-0.4,0.9-0.8,1.4-1c0.5-0.3,1.1-0.4,1.6-0.5c1,0,1.8,0.2,2.4,0.6s1,0.8,1.4,1.4c0.3,0.6,0.6,1.2,0.7,2
		c0.2,0.7,0.3,1.5,0.4,2.3c0.1,0.8,0.3,1.6,0.4,2.4s0.4,1.5,0.7,2.1c-0.1,0.5-0.3,0.8-0.4,1c-0.1,0.2-0.3,0.2-0.5,0.1
		s-0.4-0.4-0.7-0.9C562.4,199.4,562,198.7,561.6,197.9z M554.4,196.6c0.1,0.8,0.2,1.3,0.6,1.7c0.3,0.3,0.9,0.5,1.6,0.4
		c0.6,0,1.1-0.2,1.6-0.4c0.5-0.2,0.9-0.5,1.3-0.9s0.6-0.8,0.8-1.3s0.3-1.1,0.2-1.7c0-0.2,0-0.6-0.1-1s-0.1-0.9-0.2-1.3
		c-0.1-0.4-0.3-0.8-0.5-1.1c-0.2-0.3-0.5-0.4-0.9-0.4c-0.7,0-1.4,0.3-1.9,0.7c-0.6,0.4-1.1,0.9-1.5,1.5c-0.4,0.6-0.7,1.2-0.9,1.9
		S554.4,196,554.4,196.6z"/>
	<path d="M565.1,197.8c-0.1-0.8,0.1-1.5,0.4-2.1c0.4-0.6,0.8-1.2,1.4-1.7c0.6-0.5,1.2-0.9,1.8-1.3c0.7-0.4,1.3-0.7,1.8-0.9
		c0.6-0.3,1.1-0.5,1.4-0.6c0.4-0.2,0.6-0.3,0.6-0.4c0-0.5-0.1-0.9-0.2-1.4c-0.1-0.5-0.2-0.9-0.3-1.4c-0.1-0.5-0.2-0.9-0.3-1.4
		c-0.1-0.5-0.1-0.9-0.2-1.4l-0.1-1.3c0.5-0.2,0.9-0.3,1.2,0s0.3,0.6,0.2,1.3c0.1,0.3,0.2,0.8,0.3,1.4c0.1,0.6,0.3,1.3,0.5,2.1
		c0.2,0.8,0.4,1.6,0.5,2.5c0.2,0.9,0.4,1.7,0.5,2.5c0.2,0.8,0.3,1.5,0.5,2.1c0.1,0.6,0.2,1.1,0.3,1.4c0,0.1,0,0.2,0.1,0.4
		c0,0.2,0.1,0.4,0.1,0.6s0,0.4,0.1,0.6s0,0.3,0,0.4c-0.5,0-0.9,0-1.1,0c-0.2,0-0.3-0.1-0.4-0.2c-0.1-0.1-0.1-0.3-0.1-0.5
		c0-0.2-0.1-0.5-0.3-0.9c-0.5,0.4-0.9,0.8-1.4,1.1s-0.9,0.5-1.3,0.7c-0.4,0.2-0.9,0.3-1.3,0.4c-0.5,0.1-0.9,0.2-1.5,0.2
		c-0.4,0-0.9,0-1.3,0c-0.4,0-0.8-0.2-1.1-0.3c-0.3-0.2-0.6-0.4-0.8-0.7C565.2,198.7,565.1,198.3,565.1,197.8z M566.8,197.3
		c0,0.2,0.1,0.4,0.2,0.5c0.1,0.1,0.2,0.2,0.4,0.3c0.2,0.1,0.3,0.1,0.5,0.2s0.3,0,0.5,0c0.5,0,1-0.2,1.5-0.4c0.5-0.2,1-0.5,1.5-0.9
		c0.4-0.4,0.8-0.8,1.1-1.3c0.3-0.5,0.4-1,0.4-1.5c0-0.4-0.1-0.7-0.3-0.9c-0.2-0.2-0.5-0.2-0.9-0.2c-0.4,0-0.9,0.2-1.5,0.4
		c-0.6,0.2-1.1,0.6-1.6,0.9c-0.5,0.4-0.9,0.8-1.3,1.3C566.9,196.3,566.8,196.8,566.8,197.3z"/>
	<path d="M576.8,195.3c-0.1-0.8,0.1-1.6,0.4-2.4c0.3-0.8,0.8-1.4,1.4-2c0.6-0.6,1.3-1,2.1-1.4c0.8-0.4,1.6-0.6,2.4-0.6
		c0.5,0,0.9,0.1,1.3,0.4s0.7,0.6,1,1c0.3,0.4,0.5,0.9,0.7,1.3c0.2,0.5,0.3,0.9,0.3,1.2c0.1,0.8-0.1,1.5-0.4,2.3
		c-0.3,0.7-0.8,1.4-1.3,2c-0.5,0.6-1.2,1.1-1.9,1.5c-0.7,0.4-1.4,0.6-2.2,0.7c-0.7,0-1.2,0-1.7-0.2s-0.8-0.5-1.1-0.8
		c-0.3-0.4-0.5-0.8-0.7-1.3C576.9,196.4,576.8,195.8,576.8,195.3z M578.5,195.3c0,0.4,0.1,0.7,0.2,0.9c0.1,0.3,0.2,0.5,0.4,0.7
		c0.2,0.2,0.4,0.3,0.7,0.4s0.6,0.1,1,0.1c0.5,0,1-0.2,1.5-0.5c0.5-0.3,0.9-0.7,1.3-1.2s0.7-1,0.9-1.5c0.2-0.5,0.3-1,0.3-1.5
		c0-0.2-0.1-0.5-0.1-0.7c-0.1-0.3-0.1-0.5-0.3-0.7c-0.1-0.2-0.3-0.4-0.4-0.5c-0.2-0.1-0.4-0.2-0.7-0.2c-0.2,0-0.5,0.1-0.9,0.3
		c-0.3,0.2-0.7,0.4-1,0.7c-0.3,0.3-0.7,0.6-1,1c-0.3,0.4-0.6,0.7-0.9,1c-0.3,0.3-0.5,0.7-0.6,1C578.6,194.9,578.5,195.2,578.5,195.3
		z"/>
	<path d="M586.6,183.3c0.3-0.4,0.6-0.5,0.8-0.3c0.2,0.2,0.4,0.5,0.5,1.1c0.1,0.5,0.2,1.2,0.3,1.9s0.1,1.5,0.2,2.3
		c0.1,0.8,0.1,1.5,0.2,2.2c0.1,0.7,0.2,1.2,0.3,1.6c0,0.2,0,0.4,0,0.5s-0.1,0.3-0.1,0.4c-0.1,0.1-0.2,0.2-0.3,0.2s-0.3,0.1-0.6,0.1
		c0,0-0.1,0-0.1-0.1c0,0-0.1-0.2-0.1-0.3c-0.1-0.2-0.1-0.5-0.2-0.9s-0.1-1-0.2-1.7c-0.1-0.7-0.2-1.7-0.3-2.8
		C586.8,186.4,586.7,185,586.6,183.3z M589.1,196.8c0.2,0,0.4,0,0.5,0.1c0.2,0.1,0.3,0.2,0.4,0.4c0.1,0.2,0,0.3-0.1,0.5
		c-0.1,0.2-0.4,0.4-0.8,0.6c-0.4,0-0.6-0.1-0.8-0.2s-0.3-0.2-0.3-0.4c0-0.1,0-0.3,0.1-0.4s0.2-0.3,0.3-0.4c0.1-0.1,0.3-0.2,0.4-0.2
		C588.8,196.7,589,196.7,589.1,196.8z"/>
</g>
</svg>
