<?xml version="1.0" encoding="utf-8"?>
<!-- Generator: Adobe Illustrator 27.0.0, SVG Export Plug-In . SVG Version: 6.00 Build 0)  -->
<svg version="1.1" id="Layer_1" xmlns="http://www.w3.org/2000/svg" xmlns:xlink="http://www.w3.org/1999/xlink" x="0px" y="0px"
	 viewBox="0 0 592.5 324.1" style="enable-background:new 0 0 592.5 324.1;" xml:space="preserve">
<style type="text/css">
	.st0{fill:#FFFFFF;}
	.st1{fill:#36A9E1;}
	.st2{fill:#FCEA10;}
	.st3{fill:#95C11F;}
</style>
<path class="st0" d="M74.1,106.2c1.2,0,2.1-0.5,2.8-1.5c0.5-0.8,1.1-1.5,1.6-2.3c2.7-4.4,2.7-8.9,0.2-13.2
	c-2.5-4.4-8.7-6.6-14.1-5.5c-0.5,0.1-1.1,0.4-1.6,0.4c-2.4,0.3-4.1,1.6-5.5,3.5c-0.6,0.7-1.2,1.4-1.9,2.2c-4.6-3.4-9.3-4.9-14.8-2.8
	c-5.4,2.1-8.5,5.9-9,11.4c-3.1-0.8-5.9-1.6-8.7-2.4c-5.6-1.5-10.2,0.5-14.3,4.1c-2.3,2-3.1,4.8-4,7.5c-1.8,5.4-0.7,10,3.2,14.1
	c0.3,0.4,0.5,0.9,0.8,1.3c-1.3,1.1-2.7,1.8-3.5,3c-3.3,4.8-4.4,10-2.5,15.6c0.8,2.5,2,4.9,3,7.5c-0.9,1-1.7,2.1-2.6,3.2
	c-2.1,2.4-3.3,5.4-3,8.5c0.6,5.8,1.3,11.6,6.7,15.6c3.4,2.5,6.6,3.9,10.8,2.9c0.6-0.2,1.2-0.2,2-0.4c0.3,1,0.4,2,0.8,2.8
	c1,2.1,1.7,4.4,3.1,6.1c1.6,1.8,3.7,3.2,6.1,4.3c6.4,3,13.7,0,15.9-6.5c0.6-1.8,1.4-3.6,2.1-5.5c0.5,0.3,0.9,0.6,1.3,0.8
	c5.5,3.1,12.8,1.8,16.4-1.8c2.5-2.5,4.8-5.2,5.8-8.7c0.2-0.9,0.8-1.8,1.3-2.9c0.7,0.9,1.1,1.5,1.5,2c1.6,1.9,3.8,2.4,6.1,1.8
	c2.2-0.6,4.1-1.8,5.3-3.8c2.4-4.1,4.1-8.3,3.6-13.2c-0.3-2.5-0.5-4.9-0.8-7.5c1-0.6,2.2-1.3,3.4-2c3-2,5.6-4.5,6.4-8.1
	c1.5-6.7,0.6-13-5-17.8c-3.7-3.2-8.8-4.3-13.1-1.6c-0.5,0.3-1,0.7-1.7,1.2C77.4,113.7,76.6,109.6,74.1,106.2L74.1,106.2z"/>
<path class="st0" d="M81,210.5c-0.7-1.8-1.2-3.4-1.9-4.9c-2.7-5.9-5.4-11.8-8.1-17.7c-0.5-1.1-1.4-2-2.1-3.1
	c-1.4,1.2-1.1,2.1-0.5,3.2c4,7.7,7.5,15.7,10.7,23.8c0.6,1.4,1.1,1.7,2.5,1.3c0.8-0.3,1.5-0.7,2.3-0.9c2.7-0.4,5.5-0.8,8.3-1.1
	c1.5-0.2,2.1-0.9,1.9-2.7C89.7,208.6,85.4,209,81,210.5z"/>
<path class="st0" d="M35.3,196c-0.2-0.1-0.4-0.1-0.6-0.2c-1.1,1.1-1.3,2.7-1.4,4.2c-0.1,1.5-0.1,3-0.2,4.5c-0.5,4.7-1,9.4-1.5,14.1
	c-0.1,1.1-0.4,1.9-1.7,2.1c-3.4,0.6-6.7,1.3-10.2,1.1c-1-0.1-2,0.2-3,0.4c-1,0.3-1.5,1-1.2,2.2c0.5,0,1.1,0.1,1.6,0.1
	c3.9,0.1,7.7-0.6,11.6-1.1c4.1-0.5,4.3-1.5,4.6-4.6c0.5-4.7,1.1-9.4,1.5-14.1C35.1,201.9,35.2,198.9,35.3,196z"/>
<path d="M74.1,106.1c2.5,3.5,3.3,7.6,3.9,12.1c0.7-0.5,1.2-0.9,1.7-1.2c4.3-2.7,9.4-1.6,13.1,1.6c5.6,4.8,6.4,11.1,5,17.8
	c-0.8,3.6-3.4,6.1-6.4,8.1c-1.2,0.8-2.4,1.4-3.4,2c0.3,2.6,0.5,5,0.8,7.5c0.5,4.9-1.2,9.1-3.6,13.2c-1.2,2-3.1,3.2-5.3,3.8
	c-2.3,0.6-4.5,0.1-6.1-1.8c-0.5-0.6-0.9-1.2-1.5-2c-0.5,1.1-1,2-1.3,2.9c-0.9,3.6-3.3,6.3-5.8,8.7c-3.6,3.6-10.9,4.9-16.4,1.8
	c-0.4-0.2-0.8-0.5-1.3-0.8c-0.7,1.9-1.5,3.7-2.1,5.5c-2.2,6.5-9.5,9.5-15.9,6.5c-2.3-1.1-4.5-2.5-6.1-4.3c-1.5-1.7-2.2-4-3.1-6.1
	c-0.4-0.8-0.5-1.7-0.8-2.8c-0.8,0.2-1.4,0.2-2,0.4c-4.1,1.1-7.4-0.3-10.8-2.9c-5.4-4-6-9.8-6.7-15.6c-0.3-3.1,0.9-6,3-8.5
	c0.9-1.1,1.8-2.1,2.6-3.2c-1-2.5-2.2-4.9-3-7.5c-1.9-5.6-0.7-10.8,2.5-15.6c0.8-1.2,2.2-1.9,3.5-3c-0.2-0.4-0.4-0.9-0.8-1.3
	c-3.9-4.1-5-8.7-3.2-14.1c0.9-2.8,1.7-5.5,4-7.5c4.1-3.6,8.7-5.6,14.3-4.1c2.8,0.8,5.7,1.5,8.7,2.4c0.6-5.4,3.7-9.3,9-11.4
	c5.5-2.1,10.2-0.6,14.8,2.8c0.7-0.8,1.3-1.4,1.9-2.2c1.4-1.8,3.1-3.2,5.5-3.5c0.5-0.1,1.1-0.3,1.6-0.4c5.4-1.1,11.6,1.1,14.1,5.5
	c2.5,4.3,2.5,8.8-0.2,13.2c-0.5,0.8-1,1.5-1.6,2.3C76.2,105.7,75.3,106.2,74.1,106.1c0.5-0.9,1-1.9,1.7-2.7
	c3.4-3.6,3.5-12.2-1.4-15.2c-3.1-1.9-6.3-2.9-10.1-2.3c-2.4,0.4-4.5,1.2-6,3.1c-1.3,1.6-1.4,1.7-0.2,3.3c1.8,2.4,2.5,5.1,2.8,8.1
	c0.1,1.2,0.3,2.3,0.4,3.5C66.1,102.8,70.8,101,74.1,106.1z M9.5,121c1-1.4,1.9-1.2,3-0.5c2.2,1.4,4.4,2.8,6.8,3.9
	c3.8,1.7,7.6,1.3,11.2-0.4c3.3-1.6,5.4-4.4,5.4-8.2c0.1-4.2-0.6-8.4-2.7-12.1c-1.5-2.7-4.1-4.4-7.3-4.9c-0.9-0.1-1.8-0.4-2.7-0.7
	c-5.9-2.2-12.5,1.4-14.7,5.1c-1.4,2.4-2.3,5.3-2.9,8.1C4.9,114.9,6.5,118,9.5,121z M28.1,129.9c0.3,6.2,4.1,11.1,10.2,12.8
	c0.9,0.2,1.9,0.2,2.8,0c4.9-0.7,12-5.1,12.7-11.9c0.2-1.5,0.6-2.9,0.9-4.4c0.4-2,0-3.8-0.9-5.6c-1.1-2.1-2.5-3.7-4.4-4.9
	c-2.5-1.7-5-3.2-8.1-3.5c-2.2-0.3-3.1,0.5-3.1,2.6c0.1,4.7-3.1,9.5-7.7,11.2C28.1,127.1,28.2,127.3,28.1,129.9z M25.9,127.8
	c-0.1-0.1-0.2-0.2-0.3-0.2c-0.4,0-0.7,0-1.1,0c-3.3,0.2-6.4-0.5-9-2.5c-2.3-1.7-4.2-1.2-6.4-0.2c-2.6,1.2-3.3,3.7-4.1,6
	c-1.3,3.6-0.9,7.2,0.3,10.9c1.3,4.2,3.9,6.6,7.8,8c5,1.8,9.7,0.6,14.2-1.6c2.2-1.1,3.2-3.1,3.4-5.4c0.1-0.5-0.1-1.1-0.4-1.5
	c-0.9-1.4-1.9-2.8-2.7-4.2c-1.2-2.1-2-4.4-1.8-6.9C26,129.4,25.9,128.5,25.9,127.8z M33.3,143c-0.8,1.8-1.1,3.4-2,4.5
	c-0.9,1.1-2.2,1.9-3.4,2.8c-0.4,0.3-1.1,0.5-1.4,0.8c-0.5,0.6-1.1,1.2-1.3,1.9c-0.3,0.8-0.3,1.6-0.3,2.5c-0.3,6.4,3.1,11.6,9.9,12.5
	c3.6,0.5,6.6-0.7,9.7-2.5c2.1-1.3,3.7-2.9,4.4-5.2c0.7-2.2,1.3-4.5,0.6-6.8c-1-3.4-1.5-7.1-4.5-9.5C41,144.6,37.1,146.1,33.3,143z
	 M38.1,110.4c3.2-0.8,6.3-0.4,9.1,1.2c1.6,1,3.1,0.8,4.7,0.3c1.8-0.7,3.8-1,4.9-2.9c1.6-2.7,2.3-5.6,1.8-8.8
	c-0.6-4.6-3.2-7.6-6.9-10c-4.9-3.2-11.3-2.6-15.4,1.5C35,93.2,34,95,34,97.2c0,1-0.2,2-0.3,3.2C36.4,103,36.5,107,38.1,110.4z
	 M75.4,142.1c4.2-2.1,7.3,0.2,10.8,2.5c1.4-0.6,3-1.1,4.4-1.9c4-2.4,5.9-5.8,6.1-10.5c0.2-6.8-5-13-10.7-14.2c-4.7-1-7.6,2-8.4,5.3
	c-0.8,3.3-1.9,6.4-4.4,8.9c-1,1-1,2.1-0.5,3.3C73.5,137.6,74.3,139.7,75.4,142.1z M52.1,114.2c0.2,0.5,0.3,0.7,0.4,0.8
	c3.9,3.4,4.9,7.7,4.3,12.6c-0.2,1.7,0.4,2.6,2.1,3.4c1.1,0.5,2.3,0.8,3.4,1.3c5.6,2.5,9.6-0.4,11.5-4.6c2.5-5.7,2.5-11.6-0.1-17.3
	c-2.2-4.9-4.7-6-10-4.9c-2.1,0.4-3.6,1.3-4.3,3.4c-0.7,2.2-2.5,3.4-4.5,4.2C54,113.5,53.1,113.8,52.1,114.2z M7.3,149.9
	c-3.6,2.8-6.1,5.9-5.8,10.5c0.4,5.7,2,11,7.1,14.4c2.7,1.8,5.6,2.8,9,1.8c1.1-0.3,1.7-0.7,1.9-2c0.5-2.7,1.7-5.1,3.9-6.9
	c0.6-0.5,1-1.1,1.4-1.5c-0.8-2.3-1.8-4.3-2.1-6.4c-0.4-2.2-0.1-4.5-0.1-6.8c-2.9,0-5.4,0.1-8,0C12,152.8,9.6,151.8,7.3,149.9z
	 M52.4,155.1c-0.2,0.3-0.3,0.4-0.4,0.6c-1,4.3-1.7,8.8-6.1,11.4c-1.5,0.9-1.9,4.8-1,6.2c2.3,3.1,4.8,5.9,9,6.4
	c3.7,0.4,7.3,0,10.3-2.5c2.6-2.2,4.6-4.9,5.8-8.1c1.1-2.9,1.4-5.8-0.4-8.6c-1.2-1.9-2.3-2.7-4.6-1.7c-1.9,0.9-4,1.3-6.2,0.8
	C56.1,159,54.6,156.9,52.4,155.1z M48.1,142.1c0.8,2.2,1.5,4.1,2.2,6c0.2,0.5,0.5,1.3,0.8,1.4c2.1,0.4,2.6,2.2,3.5,3.6
	c0.7,1,1.7,2,2.7,2.8c1.6,1.4,3.5,1.8,5.7,1.3c4.8-1.1,7.8-4.1,9.5-8.5c0.5-1.3,1-2.8,0.7-4c-0.9-3.3-2.3-6.4-3.6-9.8
	c-5.2,1.9-9.4-1-14.1-2.2C54.2,136.6,51.9,140,48.1,142.1z M26.5,167.7c-1.1,1-2,1.8-2.8,2.5c-1.3,1.2-2,2.8-2,4.5
	c0,7.8,3,12.9,10.6,15.4c5.6,1.8,10.3-1.1,11.7-5.3c0.6-1.9,1.2-3.7,1.7-5.6c0.1-0.6-0.1-1.5-0.5-2c-1.7-1.9-2.3-4-1.6-6.4
	c0.1-0.5,0-1.1,0-2.2C37.4,172.5,31.9,171,26.5,167.7z M69.9,156.4c0.8,1.7,1.7,3.1,2.1,4.6c0.6,1.9,1.1,3.6,2.5,5.2
	c2.2,2.5,5.1,3.2,7.8,1.2c1.9-1.4,3.3-3.2,4.1-5.5c1-2.7,0.8-5.5,0.7-8.3c-0.1-4.2-3.5-8.6-7.6-9.6c-1.9-0.5-3.6-0.4-4.1,2.3
	c-0.7,3.4-2.6,6.3-4.8,9C70.3,155.8,70,156.2,69.9,156.4z"/>
<path d="M327.9,101.1c1.8,1,2.8,0.5,3.7-0.9c2.2-3.3,4.5-6.6,7.1-10.3c-4,0.2-7.4,0.3-10.7,0.5c-6.1,0.4-12.2,0.8-18.3,1.3
	c-8.9,0.7-17.8,1.4-26.7,2.3c-7.8,0.7-15.5,1.6-23.3,2.5c-11.4,1.5-22.8,3.2-34.3,4.6c-8,1-16.1,1.9-24.1,2.6
	c-8.9,0.8-17.8,1.3-26.7,1.8c-3.8,0.2-7.6,0-11.4,0.3c-8.6,0.6-17.2,1.3-25.8,2c-1.8,0.1-3.7,0.2-5.5,0.5c-1.1,0.2-2.1,0.8-2.9,1.1
	c-1.4-0.5-2.8-1-4.6-1.6c0.8-0.4,1.2-0.8,1.6-0.9c7.1-0.7,14.2-1.7,21.3-1.9c8.3-0.3,16.5-1.7,24.7-1.2c2,0.1,4.1-0.3,6.1-0.4
	c4.9-0.3,9.8-0.4,14.7-0.8c5.2-0.4,10.4-1,15.5-1.5c4.4-0.5,8.9-1,13.3-1.6c6.4-0.8,12.7-1.6,19.1-2.5c7.7-1,15.5-2.1,23.2-3.1
	c9.1-1.1,18.3-2.1,27.4-3.1c8.3-0.9,16.6-1.5,25-1.6c3.9-0.1,7.8-0.7,11.7-1c1.7-0.1,3.4-0.2,5.1-0.3c0-0.2,0-0.5,0.1-0.7
	c-0.7-0.2-1.4-0.5-2.2-0.7c-6.2-1.2-12.3-2.7-18.2-5c-0.9-0.3-1.8-0.4-2.6-0.8c-0.5-0.3-0.9-1-1.3-1.5c0.1-0.2,0.2-0.4,0.3-0.6
	c0.7,0.1,1.3,0,2,0.2c5.4,1.6,10.9,3.2,16.3,4.7c3.9,1.1,7.9,2,11.9,3c2.4,0.6,2.9,1.4,1.7,3.6c-1.4,2.6-3,5.1-4.7,7.6
	c-1.1,1.7-2.5,3.3-3.7,4.9c-0.8,1.1-1.7,1.3-2.9,1C328.6,103.7,327.9,103,327.9,101.1z"/>
<path d="M81,210.5c4.4-1.5,8.7-1.9,13.1-2c0.2,1.8-0.4,2.5-1.9,2.7c-2.8,0.3-5.5,0.7-8.3,1.1c-0.8,0.1-1.5,0.6-2.3,0.9
	c-1.4,0.5-2,0.2-2.5-1.3c-3.2-8.1-6.7-16.1-10.7-23.8c-0.6-1.1-0.8-2,0.5-3.2c0.7,1.1,1.6,2,2.1,3.1c2.8,5.9,5.4,11.8,8.1,17.7
	C79.7,207.1,80.3,208.7,81,210.5z"/>
<path d="M35.3,196c-0.2,2.9-0.3,5.9-0.5,8.8c-0.4,4.7-1,9.4-1.5,14.1c-0.3,3.1-0.5,4.1-4.6,4.6c-3.9,0.4-7.7,1.2-11.6,1.1
	c-0.5,0-1.1,0-1.6-0.1c-0.4-1.2,0.2-1.9,1.2-2.2c1-0.3,2-0.5,3-0.4c3.5,0.2,6.8-0.5,10.2-1.1c1.3-0.2,1.6-1,1.7-2.1
	c0.5-4.7,1.1-9.4,1.5-14.1c0.2-1.5,0.1-3,0.2-4.5c0.1-1.6,0.3-3.1,1.4-4.2C34.9,195.9,35.1,195.9,35.3,196z"/>
<path class="st1" d="M9.5,121c-3-3-4.6-6.1-3.8-9.8c0.6-2.8,1.4-5.6,2.9-8.1c2.1-3.7,8.8-7.3,14.7-5.1c0.9,0.3,1.8,0.6,2.7,0.7
	c3.2,0.5,5.8,2.2,7.3,4.9c2.1,3.7,2.7,7.9,2.7,12.1c-0.1,3.8-2.1,6.6-5.4,8.2c-3.6,1.7-7.5,2.2-11.2,0.4c-2.4-1.1-4.6-2.5-6.8-3.9
	C11.4,119.8,10.5,119.6,9.5,121z"/>
<path class="st2" d="M28.1,129.9c0.1-2.6,0.1-2.8,2.4-3.7c4.6-1.7,7.7-6.5,7.7-11.2c0-2.2,0.8-2.9,3.1-2.6c3,0.4,5.6,1.8,8.1,3.5
	c1.9,1.3,3.3,2.9,4.4,4.9c0.9,1.8,1.3,3.7,0.9,5.6c-0.3,1.5-0.8,2.9-0.9,4.4c-0.7,6.9-7.8,11.2-12.7,11.9c-0.9,0.1-1.9,0.2-2.8,0
	C32.2,141,28.4,136.1,28.1,129.9z"/>
<path class="st2" d="M25.9,127.8c0,0.8,0.1,1.6,0,2.4c-0.2,2.5,0.5,4.8,1.8,6.9c0.8,1.4,1.8,2.8,2.7,4.2c0.3,0.4,0.4,1,0.4,1.5
	c-0.2,2.3-1.2,4.4-3.4,5.4c-4.5,2.2-9.2,3.5-14.2,1.6c-3.8-1.4-6.5-3.9-7.8-8c-1.2-3.7-1.5-7.2-0.3-10.9c0.8-2.3,1.5-4.8,4.1-6
	c2.2-1,4.1-1.5,6.4,0.2c2.6,1.9,5.7,2.7,9,2.5c0.4,0,0.7,0,1.1,0C25.7,127.6,25.8,127.7,25.9,127.8z"/>
<path class="st1" d="M33.3,143c3.8,3.1,7.7,1.6,11.6,1c3,2.4,3.5,6.1,4.5,9.5c0.7,2.4,0.1,4.6-0.6,6.8c-0.7,2.3-2.2,3.9-4.4,5.2
	c-3.1,1.8-6.1,3-9.7,2.5c-6.8-0.9-10.2-6.1-9.9-12.5c0-0.8,0-1.7,0.3-2.5c0.3-0.7,0.8-1.4,1.3-1.9c0.4-0.4,1-0.5,1.4-0.8
	c1.2-0.9,2.5-1.6,3.4-2.8C32.1,146.4,32.5,144.9,33.3,143z"/>
<path class="st2" d="M38.1,110.4c-1.6-3.5-1.7-7.4-4.4-10c0.1-1.2,0.3-2.2,0.3-3.2c0-2.2,1-4,2.5-5.4c4.1-4.1,10.5-4.7,15.4-1.5
	c3.6,2.4,6.2,5.4,6.9,10c0.4,3.2-0.2,6.1-1.8,8.8c-1.1,1.9-3.1,2.2-4.9,2.9c-1.6,0.6-3.1,0.7-4.7-0.3
	C44.5,110,41.4,109.6,38.1,110.4z"/>
<path class="st1" d="M75.4,142.1c-1-2.4-1.9-4.5-2.8-6.6c-0.6-1.2-0.5-2.3,0.5-3.3c2.5-2.4,3.5-5.6,4.4-8.9c0.8-3.3,3.7-6.3,8.4-5.3
	c5.7,1.2,10.9,7.4,10.7,14.2c-0.1,4.8-2.1,8.2-6.1,10.5c-1.4,0.8-3,1.3-4.4,1.9C82.7,142.3,79.6,139.9,75.4,142.1z"/>
<path class="st2" d="M52.1,114.2c1-0.4,1.9-0.7,2.7-1c2-0.8,3.8-2,4.5-4.2c0.7-2.1,2.2-2.9,4.3-3.4c5.4-1.1,7.8,0,10,4.9
	c2.6,5.7,2.6,11.6,0.1,17.3c-1.8,4.2-5.9,7.1-11.5,4.6c-1.1-0.5-2.3-0.8-3.4-1.3c-1.8-0.8-2.4-1.6-2.1-3.4c0.6-4.9-0.4-9.2-4.3-12.6
	C52.4,114.9,52.4,114.7,52.1,114.2z"/>
<path class="st1" d="M7.3,149.9c2.3,1.9,4.7,2.9,7.3,3c2.6,0.1,5.1,0,8,0c0,2.3-0.3,4.6,0.1,6.8c0.4,2.1,1.4,4.2,2.1,6.4
	c-0.4,0.4-0.9,1-1.4,1.5c-2.2,1.8-3.4,4.2-3.9,6.9c-0.2,1.2-0.8,1.7-1.9,2c-3.3,1-6.3,0-9-1.8c-5.1-3.4-6.8-8.6-7.1-14.4
	C1.2,155.9,3.7,152.7,7.3,149.9z"/>
<path class="st1" d="M52.4,155.1c2.1,1.8,3.7,3.9,6.4,4.5c2.2,0.5,4.3,0.1,6.2-0.8c2.3-1.1,3.4-0.2,4.6,1.7c1.7,2.8,1.5,5.7,0.4,8.6
	c-1.2,3.2-3.2,5.9-5.8,8.1c-3,2.4-6.6,2.9-10.3,2.5c-4.2-0.5-6.7-3.3-9-6.4c-1-1.3-0.5-5.3,1-6.2c4.4-2.6,5.1-7.1,6.1-11.4
	C52.1,155.6,52.2,155.4,52.4,155.1z"/>
<path class="st2" d="M48.1,142.1c3.8-2.1,6.1-5.5,7.5-9.6c4.7,1.2,8.8,4.1,14.1,2.2c1.3,3.4,2.6,6.6,3.6,9.8c0.3,1.2-0.2,2.7-0.7,4
	c-1.7,4.4-4.7,7.5-9.5,8.5c-2.2,0.5-4.1,0.1-5.7-1.3c-1-0.8-1.9-1.8-2.7-2.8c-1-1.4-1.4-3.2-3.5-3.6c-0.4-0.1-0.7-0.9-0.8-1.4
	C49.6,146.2,48.9,144.3,48.1,142.1z"/>
<path class="st2" d="M26.5,167.7c5.4,3.3,11,4.9,17.1,0.9c0,1.1,0.1,1.7,0,2.2c-0.7,2.5,0,4.5,1.6,6.4c0.4,0.5,0.6,1.4,0.5,2
	c-0.4,1.9-1.1,3.8-1.7,5.6c-1.3,4.2-6.1,7.1-11.7,5.3c-7.7-2.5-10.7-7.7-10.6-15.4c0-1.7,0.7-3.3,2-4.5
	C24.5,169.4,25.3,168.7,26.5,167.7z"/>
<path class="st2" d="M69.9,156.4c0.1-0.2,0.4-0.6,0.7-0.9c2.3-2.6,4.1-5.5,4.8-9c0.6-2.7,2.3-2.8,4.1-2.3c4.1,1,7.5,5.4,7.6,9.6
	c0.1,2.8,0.3,5.6-0.7,8.3c-0.8,2.3-2.2,4.1-4.1,5.5c-2.7,1.9-5.6,1.2-7.8-1.2c-1.4-1.6-1.9-3.3-2.5-5.2
	C71.6,159.5,70.7,158,69.9,156.4z"/>
<path class="st1" d="M74.1,106.1c-3.4-5.1-8-3.3-12.8-2.2c-0.2-1.2-0.4-2.4-0.4-3.5c-0.2-2.9-1-5.7-2.8-8.1
	c-1.2-1.6-1.2-1.8,0.2-3.3c1.6-1.9,3.7-2.7,6-3.1c3.7-0.6,6.9,0.4,10.1,2.3c4.9,3,4.8,11.5,1.4,15.2
	C75.1,104.2,74.7,105.3,74.1,106.1C74.1,106.2,74.1,106.1,74.1,106.1z"/>
<g>
	<path class="st0" d="M69.8,119c-1.4-1-2.5-1.9-3.6-2.8c-4.1-3.3-8.6-4-13.4-2.1c-2.8,1.1-5.5,2.6-7.8,4.5c-1.5,1.2-2.8,3.3-3.4,5.2
		c-1.6,5.7,2.7,16.1,7.5,19.4c7.5,5.1,15.9,3.9,21.8-3.1c0.5-0.6,0.7-1.4,0.8-1.7c3.1,1.3,5.2,2.5,7.5,3.1c3.2,0.9,6.2,0.7,9.3-1.4
		c8-5.6,7.7-20.6-2-26.4c-5.6-3.4-10.4-2.6-14.6,2.4C71.3,116.9,70.7,117.7,69.8,119z"/>
	<path d="M69.8,119c0.9-1.2,1.5-2.1,2.2-2.9c4.3-5,9-5.8,14.6-2.4c9.6,5.8,10,20.8,2,26.4c-3.1,2.2-6.1,2.3-9.3,1.4
		c-2.3-0.6-4.4-1.8-7.5-3.1c-0.1,0.3-0.3,1.1-0.8,1.7c-5.9,7-14.3,8.2-21.8,3.1c-4.8-3.3-9.1-13.7-7.5-19.4c0.5-1.9,1.8-4,3.4-5.2
		c2.3-1.9,5-3.4,7.8-4.5c4.8-1.9,9.3-1.2,13.4,2.1C67.2,117.1,68.4,117.9,69.8,119z M43.4,126.4c-0.1,7.1,2.3,11.1,8.2,14.8
		c5.6,3.5,14.2,1.6,17.8-3.9c5.5-8.3-0.9-18.6-8.6-20.9c-5.4-1.7-9.8,0.2-14,3.4C44.6,121.6,43.2,123.9,43.4,126.4z M71.8,121.6
		c0.8,2.1,1.8,4,2.2,6c0.4,2,0.1,4.2,0.2,6.3c0,0.7,0.4,1.5,0.9,2c3,3.3,9.2,3.6,12.6,0.7c3.6-3.1,4.2-7.2,3.5-11.5
		c-0.7-4.7-3.8-7.8-8.1-9.4c-4.8-1.8-7.3-0.7-9.4,2.9C73.1,119.6,72.4,120.6,71.8,121.6z"/>
	<path class="st0" d="M43.4,126.4c-0.2-2.5,1.1-4.8,3.5-6.6c4.1-3.2,8.6-5.1,14-3.4c7.7,2.4,14.1,12.6,8.6,20.9
		c-3.6,5.5-12.2,7.4-17.8,3.9C45.7,137.5,43.4,133.5,43.4,126.4z"/>
	<path class="st0" d="M71.8,121.6c0.7-1,1.4-2,2-3c2.2-3.6,4.6-4.8,9.4-2.9c4.3,1.6,7.3,4.7,8.1,9.4c0.7,4.3,0.1,8.4-3.5,11.5
		c-3.4,2.9-9.6,2.6-12.6-0.7c-0.5-0.5-0.9-1.3-0.9-2c-0.1-2.1,0.2-4.2-0.2-6.3C73.6,125.6,72.6,123.7,71.8,121.6z"/>
	<path class="st0" d="M88.2,134.9c1.1-1.2,2.2-2.1,2.8-3.3c0.3-0.7,0-2.1-0.6-2.8c-0.8-1-2-1.8-3.2-2.2c-1-0.3-2.6-0.4-3.2,0.2
		c-0.6,0.6-0.6,2.1-0.4,3.2c0.2,1.1,0.9,2.2,1.7,3.1C85.9,133.8,86.9,134.2,88.2,134.9z"/>
	<path class="st0" d="M68,129.9c-2-0.2-2.9,0.4-3.1,2.1c-0.3,2.8,1.1,5.6,2.9,5.7c2.2,0.1,4.4-1.9,4.5-4.1
		C72.5,131.8,70.6,130.2,68,129.9z"/>
	<path d="M86.7,132.4c-1.2-0.8-2.2-1.1-2.9-1.9c-0.8-0.9-1.4-2-1.7-3.1c-0.2-1-0.2-2.6,0.4-3.2c0.6-0.6,2.2-0.5,3.2-0.2
		c1.2,0.4,2.4,1.2,3.2,2.2c0.6,0.7,0.9,2.1,0.6,2.8C88.9,130.3,87.7,131.2,86.7,132.4z"/>
	<path d="M64.3,125.9c2.6,0.3,4.4,1.9,4.3,3.8c-0.1,2.2-2.3,4.2-4.5,4.1c-1.8-0.1-3.2-2.9-2.9-5.7C61.5,126.3,62.4,125.7,64.3,125.9
		z"/>
</g>
<path class="st0" d="M438.2,71.4c1.2,0,2.1-0.5,2.8-1.5c0.5-0.8,1.1-1.5,1.6-2.3c2.7-4.4,2.7-8.9,0.2-13.2
	c-2.5-4.4-8.7-6.6-14.1-5.5c-0.5,0.1-1.1,0.4-1.6,0.4c-2.4,0.3-4.1,1.6-5.5,3.5c-0.6,0.7-1.2,1.4-1.9,2.2c-4.6-3.4-9.3-4.9-14.8-2.8
	c-5.4,2.1-8.5,5.9-9,11.4c-3.1-0.8-5.9-1.6-8.7-2.4c-5.6-1.5-10.2,0.5-14.3,4.1c-2.3,2-3.1,4.8-4,7.5c-1.8,5.4-0.7,10,3.2,14.1
	c0.3,0.4,0.5,0.9,0.8,1.3c-1.3,1.1-2.7,1.8-3.5,3c-3.3,4.8-4.4,10-2.5,15.6c0.8,2.5,2,4.9,3,7.5c-0.9,1-1.7,2.1-2.6,3.2
	c-2.1,2.4-3.3,5.4-3,8.5c0.6,5.8,1.3,11.6,6.7,15.6c3.4,2.5,6.6,3.9,10.8,2.9c0.6-0.2,1.2-0.2,2-0.4c0.3,1,0.4,2,0.8,2.8
	c1,2.1,1.7,4.4,3.1,6.1c1.6,1.8,3.7,3.2,6.1,4.3c6.4,3,13.7,0,15.9-6.5c0.6-1.8,1.4-3.6,2.1-5.5c0.5,0.3,0.9,0.6,1.3,0.8
	c5.5,3.1,12.8,1.8,16.4-1.8c2.5-2.5,4.8-5.2,5.8-8.7c0.2-0.9,0.8-1.8,1.3-2.9c0.7,0.9,1.1,1.5,1.5,2c1.6,1.9,3.8,2.4,6.1,1.8
	c2.2-0.6,4.1-1.8,5.3-3.8c2.4-4.1,4.1-8.3,3.6-13.2c-0.3-2.5-0.5-4.9-0.8-7.5c1-0.6,2.2-1.3,3.4-2c3-2,5.6-4.5,6.4-8.1
	c1.5-6.7,0.6-13-5-17.8c-3.7-3.2-8.8-4.3-13.1-1.6c-0.5,0.3-1,0.7-1.7,1.2C441.5,79,440.7,74.9,438.2,71.4L438.2,71.4z"/>
<path class="st0" d="M445.1,175.7c-0.7-1.8-1.2-3.4-1.9-4.9c-2.7-5.9-5.4-11.8-8.1-17.7c-0.5-1.1-1.4-2-2.1-3.1
	c-1.4,1.2-1.1,2.1-0.5,3.2c4,7.7,7.5,15.7,10.7,23.8c0.6,1.4,1.1,1.7,2.5,1.3c0.8-0.3,1.5-0.7,2.3-0.9c2.7-0.4,5.5-0.8,8.3-1.1
	c1.5-0.2,2.1-0.9,1.9-2.7C453.7,173.9,449.5,174.3,445.1,175.7z"/>
<path class="st0" d="M399.4,161.2c-0.2-0.1-0.4-0.1-0.6-0.2c-1.1,1.1-1.3,2.7-1.4,4.2c-0.1,1.5-0.1,3-0.2,4.5
	c-0.5,4.7-1,9.4-1.5,14.1c-0.1,1.1-0.4,1.9-1.7,2.1c-3.4,0.6-6.7,1.3-10.2,1.1c-1-0.1-2,0.2-3,0.4c-1,0.3-1.5,1-1.2,2.2
	c0.5,0,1.1,0.1,1.6,0.1c3.9,0.1,7.7-0.6,11.6-1.1c4.1-0.5,4.3-1.5,4.6-4.6c0.5-4.7,1.1-9.4,1.5-14.1
	C399.2,167.1,399.2,164.2,399.4,161.2z"/>
<path d="M438.2,71.4c2.5,3.5,3.3,7.6,3.9,12.1c0.7-0.5,1.2-0.9,1.7-1.2c4.3-2.7,9.4-1.6,13.1,1.6c5.6,4.8,6.4,11.1,5,17.8
	c-0.8,3.6-3.4,6.1-6.4,8.1c-1.2,0.8-2.4,1.4-3.4,2c0.3,2.6,0.5,5,0.8,7.5c0.5,4.9-1.2,9.1-3.6,13.2c-1.2,2-3.1,3.2-5.3,3.8
	c-2.3,0.6-4.5,0.1-6.1-1.8c-0.5-0.6-0.9-1.2-1.5-2c-0.5,1.1-1,2-1.3,2.9c-0.9,3.6-3.3,6.3-5.8,8.7c-3.6,3.6-10.9,4.9-16.4,1.8
	c-0.4-0.2-0.8-0.5-1.3-0.8c-0.7,1.9-1.5,3.7-2.1,5.5c-2.2,6.5-9.5,9.5-15.9,6.5c-2.3-1.1-4.5-2.5-6.1-4.3c-1.5-1.7-2.2-4-3.1-6.1
	c-0.4-0.8-0.5-1.7-0.8-2.8c-0.8,0.2-1.4,0.2-2,0.4c-4.1,1.1-7.4-0.3-10.8-2.9c-5.4-4-6-9.8-6.7-15.6c-0.3-3.1,0.9-6,3-8.5
	c0.9-1.1,1.8-2.1,2.6-3.2c-1-2.5-2.2-4.9-3-7.5c-1.9-5.6-0.7-10.8,2.5-15.6c0.8-1.2,2.2-1.9,3.5-3c-0.2-0.4-0.4-0.9-0.8-1.3
	c-3.9-4.1-5-8.7-3.2-14.1c0.9-2.8,1.7-5.5,4-7.5c4.1-3.6,8.7-5.6,14.3-4.1c2.8,0.8,5.7,1.5,8.7,2.4c0.6-5.4,3.7-9.3,9-11.4
	c5.5-2.1,10.2-0.6,14.8,2.8c0.7-0.8,1.3-1.4,1.9-2.2c1.4-1.8,3.1-3.2,5.5-3.5c0.5-0.1,1.1-0.3,1.6-0.4c5.4-1.1,11.6,1.1,14.1,5.5
	c2.5,4.3,2.5,8.8-0.2,13.2c-0.5,0.8-1,1.5-1.6,2.3C440.3,70.9,439.4,71.5,438.2,71.4c0.5-0.9,1-1.9,1.7-2.7
	c3.4-3.6,3.5-12.2-1.4-15.2c-3.1-1.9-6.3-2.9-10.1-2.3c-2.4,0.4-4.5,1.2-6,3.1c-1.3,1.6-1.4,1.7-0.2,3.3c1.8,2.4,2.5,5.1,2.8,8.1
	c0.1,1.2,0.3,2.3,0.4,3.5C430.2,68,434.8,66.2,438.2,71.4z M373.6,86.2c1-1.4,1.9-1.2,3-0.5c2.2,1.4,4.4,2.8,6.8,3.9
	c3.8,1.7,7.6,1.3,11.2-0.4c3.3-1.6,5.4-4.4,5.4-8.2c0.1-4.2-0.6-8.4-2.7-12.1c-1.5-2.7-4.1-4.4-7.3-4.9c-0.9-0.1-1.8-0.4-2.7-0.7
	c-5.9-2.2-12.5,1.4-14.7,5.1c-1.4,2.4-2.3,5.3-2.9,8.1C369,80.2,370.6,83.3,373.6,86.2z M392.1,95.1c0.3,6.2,4.1,11.1,10.2,12.8
	c0.9,0.2,1.9,0.2,2.8,0c4.9-0.7,12-5.1,12.7-11.9c0.2-1.5,0.6-2.9,0.9-4.4c0.4-2,0-3.8-0.9-5.6c-1.1-2.1-2.5-3.7-4.4-4.9
	c-2.5-1.7-5-3.2-8.1-3.5c-2.2-0.3-3.1,0.5-3.1,2.6c0.1,4.7-3.1,9.5-7.7,11.2C392.2,92.3,392.3,92.6,392.1,95.1z M390,93
	c-0.1-0.1-0.2-0.2-0.3-0.2c-0.4,0-0.7,0-1.1,0c-3.3,0.2-6.4-0.5-9-2.5c-2.3-1.7-4.2-1.2-6.4-0.2c-2.6,1.2-3.3,3.7-4.1,6
	c-1.3,3.6-0.9,7.2,0.3,10.9c1.3,4.2,3.9,6.6,7.8,8c5,1.8,9.7,0.6,14.2-1.6c2.2-1.1,3.2-3.1,3.4-5.4c0.1-0.5-0.1-1.1-0.4-1.5
	c-0.9-1.4-1.9-2.8-2.7-4.2c-1.2-2.1-2-4.4-1.8-6.9C390.1,94.6,390,93.8,390,93z M397.4,108.3c-0.8,1.8-1.1,3.4-2,4.5
	c-0.9,1.1-2.2,1.9-3.4,2.8c-0.4,0.3-1.1,0.5-1.4,0.8c-0.5,0.6-1.1,1.2-1.3,1.9c-0.3,0.8-0.3,1.6-0.3,2.5c-0.3,6.4,3.1,11.6,9.9,12.5
	c3.6,0.5,6.6-0.7,9.7-2.5c2.1-1.3,3.7-2.9,4.4-5.2c0.7-2.2,1.3-4.5,0.6-6.8c-1-3.4-1.5-7.1-4.5-9.5
	C405,109.9,401.2,111.4,397.4,108.3z M402.2,75.7c3.2-0.8,6.3-0.4,9.1,1.2c1.6,1,3.1,0.8,4.7,0.3c1.8-0.7,3.8-1,4.9-2.9
	c1.6-2.7,2.3-5.6,1.8-8.8c-0.6-4.6-3.2-7.6-6.9-10c-4.9-3.2-11.3-2.6-15.4,1.5c-1.5,1.5-2.5,3.2-2.5,5.4c0,1-0.2,2-0.3,3.2
	C400.5,68.2,400.6,72.2,402.2,75.7z M439.4,107.3c4.2-2.1,7.3,0.2,10.8,2.5c1.4-0.6,3-1.1,4.4-1.9c4-2.4,5.9-5.8,6.1-10.5
	c0.2-6.8-5-13-10.7-14.2c-4.7-1-7.6,2-8.4,5.3c-0.8,3.3-1.9,6.4-4.4,8.9c-1,1-1,2.1-0.5,3.3C437.6,102.8,438.4,104.9,439.4,107.3z
	 M416.2,79.5c0.2,0.5,0.3,0.7,0.4,0.8c3.9,3.4,4.9,7.7,4.3,12.6c-0.2,1.7,0.4,2.6,2.1,3.4c1.1,0.5,2.3,0.8,3.4,1.3
	c5.6,2.5,9.6-0.4,11.5-4.6c2.5-5.7,2.5-11.6-0.1-17.3c-2.2-4.9-4.7-6-10-4.9c-2.1,0.4-3.6,1.3-4.3,3.4c-0.7,2.2-2.5,3.4-4.5,4.2
	C418.1,78.8,417.2,79.1,416.2,79.5z M371.4,115.2c-3.6,2.8-6.1,5.9-5.8,10.5c0.4,5.7,2,11,7.1,14.4c2.7,1.8,5.6,2.8,9,1.8
	c1.1-0.3,1.7-0.7,1.9-2c0.5-2.7,1.7-5.1,3.9-6.9c0.6-0.5,1-1.1,1.4-1.5c-0.8-2.3-1.8-4.3-2.1-6.4c-0.4-2.2-0.1-4.5-0.1-6.8
	c-2.9,0-5.4,0.1-8,0C376.1,118,373.7,117,371.4,115.2z M416.5,120.4c-0.2,0.3-0.3,0.4-0.4,0.6c-1,4.3-1.7,8.8-6.1,11.4
	c-1.5,0.9-1.9,4.8-1,6.2c2.3,3.1,4.8,5.9,9,6.4c3.7,0.4,7.3,0,10.3-2.5c2.6-2.2,4.6-4.9,5.8-8.1c1.1-2.9,1.4-5.8-0.4-8.6
	c-1.2-1.9-2.3-2.7-4.6-1.7c-1.9,0.9-4,1.3-6.2,0.8C420.2,124.3,418.6,122.2,416.5,120.4z M412.2,107.3c0.8,2.2,1.5,4.1,2.2,6
	c0.2,0.5,0.5,1.3,0.8,1.4c2.1,0.4,2.6,2.2,3.5,3.6c0.7,1,1.7,2,2.7,2.8c1.6,1.4,3.5,1.8,5.7,1.3c4.8-1.1,7.8-4.1,9.5-8.5
	c0.5-1.3,1-2.8,0.7-4c-0.9-3.3-2.3-6.4-3.6-9.8c-5.2,1.9-9.4-1-14.1-2.2C418.3,101.9,416,105.3,412.2,107.3z M390.5,132.9
	c-1.1,1-2,1.8-2.8,2.5c-1.3,1.2-2,2.8-2,4.5c0,7.8,3,12.9,10.6,15.4c5.6,1.8,10.3-1.1,11.7-5.3c0.6-1.9,1.2-3.7,1.7-5.6
	c0.1-0.6-0.1-1.5-0.5-2c-1.7-1.9-2.3-4-1.6-6.4c0.1-0.5,0-1.1,0-2.2C401.5,137.8,396,136.3,390.5,132.9z M434,121.6
	c0.8,1.7,1.7,3.1,2.1,4.6c0.6,1.9,1.1,3.6,2.5,5.2c2.2,2.5,5.1,3.2,7.8,1.2c1.9-1.4,3.3-3.2,4.1-5.5c1-2.7,0.8-5.5,0.7-8.3
	c-0.1-4.2-3.5-8.6-7.6-9.6c-1.9-0.5-3.6-0.4-4.1,2.3c-0.7,3.4-2.6,6.3-4.8,9C434.4,121,434.1,121.4,434,121.6z"/>
<path d="M445.1,175.7c4.4-1.5,8.7-1.9,13.1-2c0.2,1.8-0.4,2.5-1.9,2.7c-2.8,0.3-5.5,0.7-8.3,1.1c-0.8,0.1-1.5,0.6-2.3,0.9
	c-1.4,0.5-2,0.2-2.5-1.3c-3.2-8.1-6.7-16.1-10.7-23.8c-0.6-1.1-0.8-2,0.5-3.2c0.7,1.1,1.6,2,2.1,3.1c2.8,5.9,5.4,11.8,8.1,17.7
	C443.8,172.4,444.4,173.9,445.1,175.7z"/>
<path d="M399.4,161.2c-0.2,2.9-0.3,5.9-0.5,8.8c-0.4,4.7-1,9.4-1.5,14.1c-0.3,3.1-0.5,4.1-4.6,4.6c-3.9,0.4-7.7,1.2-11.6,1.1
	c-0.5,0-1.1,0-1.6-0.1c-0.4-1.2,0.2-1.9,1.2-2.2c1-0.3,2-0.5,3-0.4c3.5,0.2,6.8-0.5,10.2-1.1c1.3-0.2,1.6-1,1.7-2.1
	c0.5-4.7,1.1-9.4,1.5-14.1c0.2-1.5,0.1-3,0.2-4.5c0.1-1.6,0.3-3.1,1.4-4.2C399,161.1,399.2,161.2,399.4,161.2z"/>
<path class="st1" d="M373.6,86.2c-3-3-4.6-6.1-3.8-9.8c0.6-2.8,1.4-5.6,2.9-8.1c2.1-3.7,8.8-7.3,14.7-5.1c0.9,0.3,1.8,0.6,2.7,0.7
	c3.2,0.5,5.8,2.2,7.3,4.9c2.1,3.7,2.7,7.9,2.7,12.1c-0.1,3.8-2.1,6.6-5.4,8.2c-3.6,1.7-7.5,2.2-11.2,0.4c-2.4-1.1-4.6-2.5-6.8-3.9
	C375.5,85,374.6,84.8,373.6,86.2z"/>
<path class="st2" d="M392.1,95.1c0.1-2.6,0.1-2.8,2.4-3.7c4.6-1.7,7.7-6.5,7.7-11.2c0-2.2,0.8-2.9,3.1-2.6c3,0.4,5.6,1.8,8.1,3.5
	c1.9,1.3,3.3,2.9,4.4,4.9c0.9,1.8,1.3,3.7,0.9,5.6c-0.3,1.5-0.8,2.9-0.9,4.4c-0.7,6.9-7.8,11.2-12.7,11.9c-0.9,0.1-1.9,0.2-2.8,0
	C396.3,106.3,392.5,101.4,392.1,95.1z"/>
<path class="st2" d="M390,93c0,0.8,0.1,1.6,0,2.4c-0.2,2.5,0.5,4.8,1.8,6.9c0.8,1.4,1.8,2.8,2.7,4.2c0.3,0.4,0.4,1,0.4,1.5
	c-0.2,2.3-1.2,4.4-3.4,5.4c-4.5,2.2-9.2,3.5-14.2,1.6c-3.8-1.4-6.5-3.9-7.8-8c-1.2-3.7-1.5-7.2-0.3-10.9c0.8-2.3,1.5-4.8,4.1-6
	c2.2-1,4.1-1.5,6.4,0.2c2.6,1.9,5.7,2.7,9,2.5c0.4,0,0.7,0,1.1,0C389.8,92.8,389.9,92.9,390,93z"/>
<path class="st1" d="M397.4,108.3c3.8,3.1,7.7,1.6,11.6,1c3,2.4,3.5,6.1,4.5,9.5c0.7,2.4,0.1,4.6-0.6,6.8c-0.7,2.3-2.2,3.9-4.4,5.2
	c-3.1,1.8-6.1,3-9.7,2.5c-6.8-0.9-10.2-6.1-9.9-12.5c0-0.8,0-1.7,0.3-2.5c0.3-0.7,0.8-1.4,1.3-1.9c0.4-0.4,1-0.5,1.4-0.8
	c1.2-0.9,2.5-1.6,3.4-2.8C396.2,111.6,396.6,110.1,397.4,108.3z"/>
<path class="st2" d="M402.2,75.7c-1.6-3.5-1.7-7.4-4.4-10c0.1-1.2,0.3-2.2,0.3-3.2c0-2.2,1-4,2.5-5.4c4.1-4.1,10.5-4.7,15.4-1.5
	c3.6,2.4,6.2,5.4,6.9,10c0.4,3.2-0.2,6.1-1.8,8.8c-1.1,1.9-3.1,2.2-4.9,2.9c-1.6,0.6-3.1,0.7-4.7-0.3
	C408.6,75.3,405.5,74.8,402.2,75.7z"/>
<path class="st1" d="M439.4,107.3c-1-2.4-1.9-4.5-2.8-6.6c-0.6-1.2-0.5-2.3,0.5-3.3c2.5-2.4,3.5-5.6,4.4-8.9
	c0.8-3.3,3.7-6.3,8.4-5.3c5.7,1.2,10.9,7.4,10.7,14.2c-0.1,4.8-2.1,8.2-6.1,10.5c-1.4,0.8-3,1.3-4.4,1.9
	C446.8,107.5,443.7,105.2,439.4,107.3z"/>
<path class="st2" d="M416.2,79.5c1-0.4,1.9-0.7,2.7-1c2-0.8,3.8-2,4.5-4.2c0.7-2.1,2.2-2.9,4.3-3.4c5.4-1.1,7.8,0,10,4.9
	c2.6,5.7,2.6,11.6,0.1,17.3c-1.8,4.2-5.9,7.1-11.5,4.6c-1.1-0.5-2.3-0.8-3.4-1.3c-1.8-0.8-2.4-1.6-2.1-3.4c0.6-4.9-0.4-9.2-4.3-12.6
	C416.5,80.2,416.4,80,416.2,79.5z"/>
<path class="st1" d="M371.4,115.2c2.3,1.9,4.7,2.9,7.3,3c2.6,0.1,5.1,0,8,0c0,2.3-0.3,4.6,0.1,6.8c0.4,2.1,1.4,4.2,2.1,6.4
	c-0.4,0.4-0.9,1-1.4,1.5c-2.2,1.8-3.4,4.2-3.9,6.9c-0.2,1.2-0.8,1.7-1.9,2c-3.3,1-6.3,0-9-1.8c-5.1-3.4-6.8-8.6-7.1-14.4
	C365.3,121.1,367.8,118,371.4,115.2z"/>
<path class="st1" d="M416.5,120.4c2.1,1.8,3.7,3.9,6.4,4.5c2.2,0.5,4.3,0.1,6.2-0.8c2.3-1.1,3.4-0.2,4.6,1.7
	c1.7,2.8,1.5,5.7,0.4,8.6c-1.2,3.2-3.2,5.9-5.8,8.1c-3,2.4-6.6,2.9-10.3,2.5c-4.2-0.5-6.7-3.3-9-6.4c-1-1.3-0.5-5.3,1-6.2
	c4.4-2.6,5.1-7.1,6.1-11.4C416.2,120.8,416.3,120.7,416.5,120.4z"/>
<path class="st2" d="M412.2,107.3c3.8-2.1,6.1-5.5,7.5-9.6c4.7,1.2,8.8,4.1,14.1,2.2c1.3,3.4,2.6,6.6,3.6,9.8c0.3,1.2-0.2,2.7-0.7,4
	c-1.7,4.4-4.7,7.5-9.5,8.5c-2.2,0.5-4.1,0.1-5.7-1.3c-1-0.8-1.9-1.8-2.7-2.8c-1-1.4-1.4-3.2-3.5-3.6c-0.4-0.1-0.7-0.9-0.8-1.4
	C413.7,111.5,413,109.6,412.2,107.3z"/>
<path class="st2" d="M390.5,132.9c5.4,3.3,11,4.9,17.1,0.9c0,1.1,0.1,1.7,0,2.2c-0.7,2.5,0,4.5,1.6,6.4c0.4,0.5,0.6,1.4,0.5,2
	c-0.4,1.9-1.1,3.8-1.7,5.6c-1.3,4.2-6.1,7.1-11.7,5.3c-7.7-2.5-10.7-7.7-10.6-15.4c0-1.7,0.7-3.3,2-4.5
	C388.6,134.7,389.4,133.9,390.5,132.9z"/>
<path class="st2" d="M434,121.6c0.1-0.2,0.4-0.6,0.7-0.9c2.3-2.6,4.1-5.5,4.8-9c0.6-2.7,2.3-2.8,4.1-2.3c4.1,1,7.5,5.4,7.6,9.6
	c0.1,2.8,0.3,5.6-0.7,8.3c-0.8,2.3-2.2,4.1-4.1,5.5c-2.7,1.9-5.6,1.2-7.8-1.2c-1.4-1.6-1.9-3.3-2.5-5.2
	C435.6,124.7,434.8,123.3,434,121.6z"/>
<path class="st1" d="M438.2,71.4c-3.4-5.1-8-3.3-12.8-2.2c-0.2-1.2-0.4-2.4-0.4-3.5c-0.2-2.9-1-5.7-2.8-8.1
	c-1.2-1.6-1.2-1.8,0.2-3.3c1.6-1.9,3.7-2.7,6-3.1c3.7-0.6,6.9,0.4,10.1,2.3c4.9,3,4.8,11.5,1.4,15.2
	C439.2,69.5,438.8,70.5,438.2,71.4C438.2,71.4,438.2,71.4,438.2,71.4z"/>
<g>
	<path class="st0" d="M433.8,84.2c-1.4-1-2.5-1.9-3.6-2.8c-4.1-3.3-8.6-4-13.4-2.1c-2.8,1.1-5.5,2.6-7.8,4.5
		c-1.5,1.2-2.8,3.3-3.4,5.2c-1.6,5.7,2.7,16.1,7.5,19.4c7.5,5.1,15.9,3.9,21.8-3.1c0.5-0.6,0.7-1.4,0.8-1.7c3.1,1.3,5.2,2.5,7.5,3.1
		c3.2,0.9,6.2,0.7,9.3-1.4c8-5.6,7.7-20.6-2-26.4c-5.6-3.4-10.4-2.6-14.6,2.4C435.4,82.1,434.8,83,433.8,84.2z"/>
	<path d="M433.8,84.2c0.9-1.2,1.5-2.1,2.2-2.9c4.3-5,9-5.8,14.6-2.4c9.6,5.8,10,20.8,2,26.4c-3.1,2.2-6.1,2.3-9.3,1.4
		c-2.3-0.6-4.4-1.8-7.5-3.1c-0.1,0.3-0.3,1.1-0.8,1.7c-5.9,7-14.3,8.2-21.8,3.1c-4.8-3.3-9.1-13.7-7.5-19.4c0.5-1.9,1.8-4,3.4-5.2
		c2.3-1.9,5-3.4,7.8-4.5c4.8-1.9,9.3-1.2,13.4,2.1C431.3,82.3,432.5,83.2,433.8,84.2z M407.5,91.7c-0.1,7.1,2.3,11.1,8.2,14.8
		c5.6,3.5,14.2,1.6,17.8-3.9c5.5-8.3-0.9-18.6-8.6-20.9c-5.4-1.7-9.8,0.2-14,3.4C408.6,86.9,407.3,89.2,407.5,91.7z M435.9,86.9
		c0.8,2.1,1.8,4,2.2,6c0.4,2,0.1,4.2,0.2,6.3c0,0.7,0.4,1.5,0.9,2c3,3.3,9.2,3.6,12.6,0.7c3.6-3.1,4.2-7.2,3.5-11.5
		c-0.7-4.7-3.8-7.8-8.1-9.4c-4.8-1.8-7.3-0.7-9.4,2.9C437.2,84.9,436.5,85.9,435.9,86.9z"/>
	<path class="st0" d="M407.5,91.7c-0.2-2.5,1.1-4.8,3.5-6.6c4.1-3.2,8.6-5.1,14-3.4c7.7,2.4,14.1,12.6,8.6,20.9
		c-3.6,5.5-12.2,7.4-17.8,3.9C409.8,102.8,407.4,98.8,407.5,91.7z"/>
	<path class="st0" d="M435.9,86.9c0.7-1,1.4-2,2-3c2.2-3.6,4.6-4.8,9.4-2.9c4.3,1.6,7.3,4.7,8.1,9.4c0.7,4.3,0.1,8.4-3.5,11.5
		c-3.4,2.9-9.6,2.6-12.6-0.7c-0.5-0.5-0.9-1.3-0.9-2c-0.1-2.1,0.2-4.2-0.2-6.3C437.7,90.8,436.7,88.9,435.9,86.9z"/>
	<path class="st0" d="M452.2,100.2c1.1-1.2,2.2-2.1,2.8-3.3c0.3-0.7,0-2.1-0.6-2.8c-0.8-1-2-1.8-3.2-2.2c-1-0.3-2.6-0.4-3.2,0.2
		c-0.6,0.6-0.6,2.1-0.4,3.2c0.2,1.1,0.9,2.2,1.7,3.1C450,99.1,451,99.4,452.2,100.2z"/>
	<path class="st0" d="M432.1,95.1c-2-0.2-2.9,0.4-3.1,2.1c-0.3,2.8,1.1,5.6,2.9,5.7c2.2,0.1,4.4-1.9,4.5-4.1
		C436.5,97,434.7,95.4,432.1,95.1z"/>
	<path d="M450.7,97.6c-1.2-0.8-2.2-1.1-2.9-1.9c-0.8-0.9-1.4-2-1.7-3.1c-0.2-1-0.2-2.6,0.4-3.2c0.6-0.6,2.2-0.5,3.2-0.2
		c1.2,0.4,2.4,1.2,3.2,2.2c0.6,0.7,0.9,2.1,0.6,2.8C453,95.5,451.8,96.5,450.7,97.6z"/>
	<path d="M428.4,91.2c2.6,0.3,4.4,1.9,4.3,3.8c-0.1,2.2-2.3,4.2-4.5,4.1c-1.8-0.1-3.2-2.9-2.9-5.7C425.5,91.6,426.4,91,428.4,91.2z"
		/>
</g>
<path class="st0" d="M383.5,277.2c-0.2-1.7-0.3-3.5-0.6-5.2c-0.6-3.6-2.4-6.7-5.2-9c-3.8-3.2-8.4-4.4-13.3-4
	c-0.9,0.1-1.9,0.6-2.8,0.7c-4.5,0.6-7.3,3.4-8.9,7.3c-1.6,3.8-1.7,7.9-1.1,11.9c0.7,5.4,3,9.5,8.7,10.9c0.6,0.1,1.1,0.4,1.6,0.5
	c1.2,0.2,2.4,0.3,3.6,0.5c3.6,0.7,7,0.9,10.4-1.2C380.7,286.8,383.7,283,383.5,277.2z"/>
<path d="M383.5,277.2c0.2,5.8-2.8,9.6-7.5,12.5c-3.3,2-6.8,1.9-10.4,1.2c-1.2-0.2-2.4-0.3-3.6-0.5c-0.6-0.1-1.1-0.4-1.6-0.5
	c-5.7-1.4-8-5.5-8.7-10.9c-0.5-4.1-0.4-8.1,1.1-11.9c1.6-3.9,4.5-6.7,8.9-7.3c1-0.1,1.9-0.6,2.8-0.7c4.9-0.4,9.5,0.8,13.3,4
	c2.7,2.3,4.6,5.3,5.2,9C383.2,273.7,383.3,275.4,383.5,277.2z M352.3,274.6c0.4,2.2,0.5,4.6,1.2,6.7c1,2.9,2.6,5.6,6.1,6.3
	c0.9,0.2,1.8,0.3,2.7,0.4c1,0.1,2,0.2,2.9,0.4c3.9,1.1,7.6,1.1,11-1.3c3.6-2.5,6.5-5.5,5.9-10.4c-0.1-0.7-0.1-1.4-0.1-2.1
	c-0.3-3.8-2-6.9-4.8-9.4c-3.5-3.1-7.7-4.3-12.3-4c-1.4,0.1-2.8,0.6-4.2,0.8c-3.7,0.7-5.7,3.2-7,6.4
	C352.9,270.3,352.7,272.4,352.3,274.6z"/>
<path class="st3" d="M352.3,274.6c0.5-2.1,0.7-4.2,1.4-6.1c1.3-3.2,3.3-5.7,7-6.4c1.4-0.3,2.8-0.8,4.2-0.8c4.6-0.3,8.8,0.9,12.3,4
	c2.8,2.5,4.4,5.6,4.8,9.4c0.1,0.7,0.1,1.4,0.1,2.1c0.6,4.9-2.3,7.9-5.9,10.4c-3.4,2.4-7.1,2.4-11,1.3c-0.9-0.3-1.9-0.3-2.9-0.4
	c-0.9-0.1-1.8-0.2-2.7-0.4c-3.4-0.7-5-3.4-6.1-6.3C352.7,279.1,352.6,276.8,352.3,274.6z"/>
<path class="st0" d="M367.2,284c1.7,1.1,3.6,1.5,5.6,1.2c2.2-0.4,3.6-2.2,3.3-4.1c-0.1-0.8-0.4-1.6-0.6-2.4
	c-0.6-2.1-2.4-2.5-4.2-2.6c-1.5-0.1-2.6,0.9-3.1,2.2c-0.3,0.8-0.5,1.6-0.7,2.4C367.4,281.7,367.4,282.8,367.2,284z"/>
<path d="M367.2,284c0.1-1.2,0.2-2.3,0.4-3.3c0.1-0.8,0.3-1.7,0.7-2.4c0.6-1.4,1.6-2.3,3.1-2.2c1.8,0.1,3.5,0.5,4.2,2.6
	c0.2,0.8,0.5,1.6,0.6,2.4c0.3,1.9-1.2,3.7-3.3,4.1C370.8,285.5,368.9,285.1,367.2,284z M372.3,283.3c0.3,0,0.8-0.1,1.3-0.1
	c1-0.1,1.4-0.6,1.4-1.5c0-2.3-2.1-4.2-4.4-3.9c-0.8,0.1-1.4,0.6-1.7,1.4C368.1,281.4,369.6,283.4,372.3,283.3z"/>
<path class="st0" d="M372.3,283.3c-2.7,0-4.2-2-3.4-4.2c0.3-0.8,0.9-1.3,1.7-1.4c2.3-0.3,4.4,1.6,4.4,3.9c0,0.9-0.4,1.5-1.4,1.5
	C373.1,283.3,372.6,283.3,372.3,283.3z"/>
<path class="st0" d="M378.1,274.3c1.7-0.1,3.4-0.2,4.5-1.9c1.6-2.5,1.4-5,0.5-7.7c-0.4-1-1.3-1.2-2.2-1.2c-1.4,0-2.7,0-4.1,0
	c-1.4,0-2.8-0.2-4.2,0c-2.7,0.4-5.4,0.9-8.1,1.4c-3.1,0.5-6.1,1.1-9.2,1.6c-1.8,0.3-3.6,0.4-5.4,0.7c-1.6,0.3-3.2,0.8-4.7,1.4
	c-1.4,0.5-2.2,2.1-1.9,3.5c0.4,1.8,0.9,3.7,1.5,5.5c0.3,0.9,1.8,1.6,2.5,1.3c1.2-0.4,1.6-1.3,1.1-2.6c-0.3-0.8-0.7-1.5-1-2.3
	c-0.5-1.5-0.1-2.3,1.4-2.7c1.1-0.3,2.3-0.5,3.4-0.7c2.5-0.4,5-0.5,7.6-0.4c1.2,0.1,1.9,0.4,2.6,1.2c1,1.1,2.1,2.2,3.3,3
	c3,2.1,4.5,1.7,6.6-0.3c0.1-0.1,0.3-0.3,0.4-0.4c0.5-0.5,1.1-0.5,1.8-0.3C375.7,273.9,376.9,274.1,378.1,274.3z"/>
<path d="M223.3,308.7c0.1,0.5,0.1,0.9,0.3,1.1c2,2.9,3.8,6.1,6.2,8.7c4,4.3,8.9,6.8,15.1,5c1.5-0.4,3-0.8,4.5-1.2
	c0.3-0.1,0.6-0.2,0.9-0.3c2.6-1.6,5.1-3.3,7.2-5.6c0.9-1,1.6-2,2.5-3c2-2,3.4-4.4,4.8-6.9c2-3.5,4-7.1,7.5-9.6
	c2.9-2,5.9-2.8,9.4-1.5c3.4,1.2,6.3,2.9,9,5.3c2.9,2.5,6.4,4.2,10,5.6c0.9,0.3,2.1,0.1,3.1,0.2c5.7,0.5,9.7-2.5,13.6-6
	c1.3-1.1,1.8-2.5,2.3-4c1.2-3.9,2.5-7.8,4.4-11.4c1.3-2.5,2.8-4.8,5-6.7c1.3-1.1,3.7-1.2,4.9-0.1c0.4,0.4,0.5,1,0.8,1.6
	c1.8,0.4,3.2,1.5,4.6,3c2.4,2.6,4.8,5.2,8.4,6.5c2.9,1.1,5.3,0.6,7.8-0.9c0.6-0.4,0.7-0.9,0-1.6c-0.7,0.4-1.5,0.7-2.3,1.2
	c-1.3,0.8-2.6,0.8-3.9,0.4c-2.2-0.7-4.4-1.7-6-3.5c-0.4-0.4-0.8-0.9-1.2-1.3c-2.4-2.1-4.7-4.3-7.1-6.3c-2.2-1.9-5.1-1.5-7.3,0.5
	c-3.2,3-5.1,6.9-6.7,10.9c-1,2.7-1.9,5.5-2.8,8.3c-0.5,1.7-1.9,2.7-3.1,3.7c-2.3,2-5.1,3.2-7.8,4.4c-0.3,0.2-0.8,0.1-1.1,0.2
	c-0.3,0-0.7-0.1-1,0c-4.3,0.6-7.7-1.5-11-3.6c-1.9-1.2-3.6-2.7-5.4-4.1c-3.1-2.5-6.8-3.4-10.6-4.1c-0.7-0.1-1.5,0-2.1,0.2
	c-3.4,1.3-6.5,3-8.5,6.2c-1.7,2.7-3.2,5.5-5,8.1c-3,4.4-6.1,8.7-10.7,11.7c-4.2,2.7-8.8,3.9-13.7,2.5c-2.9-0.8-5.4-2.7-7.3-5
	c-1.6-1.9-2.9-4-4.3-6c-0.6-0.8-1.2-1.6-1.9-2.3C224.2,308.7,223.8,308.8,223.3,308.7z"/>
<path d="M378.1,274.3c-1.2-0.3-2.4-0.4-3.6-0.8c-0.7-0.2-1.3-0.2-1.8,0.3c-0.1,0.1-0.3,0.3-0.4,0.4c-2.1,1.9-3.6,2.3-6.6,0.3
	c-1.2-0.8-2.3-1.9-3.3-3c-0.8-0.8-1.4-1.1-2.6-1.2c-2.6-0.1-5.1,0-7.6,0.4c-1.1,0.2-2.3,0.4-3.4,0.7c-1.5,0.4-1.9,1.2-1.4,2.7
	c0.3,0.8,0.7,1.5,1,2.3c0.5,1.3,0.1,2.2-1.1,2.6c-0.7,0.3-2.3-0.5-2.5-1.3c-0.6-1.8-1.1-3.6-1.5-5.5c-0.3-1.4,0.6-3,1.9-3.5
	c1.5-0.6,3.1-1.1,4.7-1.4c1.8-0.4,3.6-0.4,5.4-0.7c3.1-0.5,6.1-1.1,9.2-1.6c2.7-0.5,5.4-1,8.1-1.4c1.4-0.2,2.8,0,4.2,0
	c1.4,0,2.7,0,4.1,0c1,0,1.9,0.2,2.2,1.2c0.9,2.6,1.1,5.2-0.5,7.7C381.5,274.1,379.9,274.2,378.1,274.3z M346.5,277.1
	c0.1-0.1,0.2-0.1,0.3-0.2c-0.3-0.7-0.5-1.4-0.8-2c-0.9-2.1-0.8-3.8,1.8-4.9c0.6-0.2,1.2-0.5,1.9-0.6c3.1-0.3,6.1-1,9.3-0.9
	c2,0.1,3.3,0.7,4.5,2.1c1.2,1.4,2.6,2.6,4.4,3.1c0.6,0.2,1.5,0.2,2-0.1c2.5-1.2,3.9-4,3.8-6.7c-0.1-1.6-1-2-2.1-1.8
	c-3.3,0.5-6.5,1.2-9.8,1.7c-2.8,0.5-5.5,1.1-8.3,1.2c-2.5,0.1-4.7,0.9-7,1.5c-1.3,0.3-1.9,1.1-1.7,2.3c0.3,1.6,0.7,3.2,1.2,4.7
	C346,276.8,346.3,276.9,346.5,277.1z M381.6,265.2c-2.3-0.2-4.5-0.2-6.4,0.3c-0.1,2.3-0.2,4.4-0.4,6.6c2,0.4,4.2,1.2,5.8-0.3
	C382.4,270,382.8,267.7,381.6,265.2z"/>
<path d="M346.5,277.1c-0.2-0.2-0.5-0.3-0.6-0.5c-0.4-1.6-0.9-3.1-1.2-4.7c-0.2-1.2,0.4-1.9,1.7-2.3c2.3-0.6,4.5-1.5,7-1.5
	c2.8-0.1,5.5-0.7,8.3-1.2c3.3-0.5,6.5-1.2,9.8-1.7c1.1-0.2,2.1,0.3,2.1,1.8c0.1,2.8-1.3,5.6-3.8,6.7c-0.6,0.3-1.4,0.2-2,0.1
	c-1.8-0.5-3.2-1.7-4.4-3.1c-1.2-1.4-2.5-2-4.5-2.1c-3.2-0.2-6.2,0.6-9.3,0.9c-0.6,0.1-1.2,0.4-1.9,0.6c-2.6,1-2.7,2.8-1.8,4.9
	c0.3,0.7,0.5,1.4,0.8,2C346.7,277,346.6,277,346.5,277.1z"/>
<path d="M381.6,265.2c1.1,2.5,0.8,4.9-0.9,6.5c-1.6,1.5-3.8,0.8-5.8,0.3c0.1-2.2,0.2-4.2,0.4-6.6C377.1,265,379.3,265,381.6,265.2z"
	/>
<g>
	<path d="M334.2,242.2c0.2,1,0.4,1.7,0.5,2.3c0,0.2,0,0.4,0.1,0.6c0.2,0.3,0.4,0.7,0.7,0.8c0.7,0.3,2.1-0.5,2.4-1.3
		c0.2-0.7-0.3-1.7-1.2-2C336,242.4,335.2,242.4,334.2,242.2z"/>
	<path class="st0" d="M334.2,242.2c1,0.2,1.8,0.3,2.6,0.5c0.9,0.3,1.4,1.3,1.2,2c-0.3,0.8-1.7,1.6-2.4,1.3c-0.3-0.1-0.5-0.5-0.7-0.8
		c-0.1-0.2-0.1-0.4-0.1-0.6C334.6,243.8,334.4,243.1,334.2,242.2z"/>
</g>
<path d="M128.3,133.1c1.2-1.7,3.2-1.5,4.9-1.9c6-1.2,11.9-0.4,17.9-0.1c5.9,0.3,11.8,1,17.7,1.5c8,0.7,15.7,2.8,23.4,5
	c3.8,1.1,7.4,2.5,11.2,3.7c3.8,1.2,7.7,2.3,11.6,3.6c6.1,2.1,12.2,4.2,18.3,6.5c8.6,3.3,17.1,6.8,25.2,11
	c10.4,5.4,21,10.4,30.7,17.1c5.9,4.2,11.6,8.6,16.7,13.8c2.4,2.5,4.9,4.9,7,7.7c2.1,2.8,3.9,6,5.6,9.1c2.2,4,4.1,8,6.1,12.1
	c0.2,0.4,0.5,0.7,1.1,1.5c1.2-3,2.3-5.6,3.3-8.2c0.8-2.2,1.2-4.5,2-6.7c0.6-1.6,0.9-1.6,3-0.4c-1.8,5.1-3.7,10.3-5.5,15.5
	c-0.5,1.5-0.5,3.2-0.8,5.3c-0.5,0-1.3,0.2-2.1,0c-4.4-1.2-8.9-2.5-13.3-3.8c-0.4-0.1-0.9-0.4-1.3-0.6c-0.9-0.4-1.1-1.2-0.5-1.8
	c0.5-0.7,1.5-1.3,2.1-0.4c0.8,1.2,1.9,1.1,2.9,1.4c1.7,0.5,3.4,1.1,5.1,1.6c1.1,0.3,2.1,0.6,3.2,0.9c0.1-0.4,0.2-0.6,0.2-0.7
	c-2.2-4.2-4.4-8.3-6.5-12.5c-4.6-9.5-11.4-17.2-19.4-23.8c-4.1-3.4-8.4-6.6-12.8-9.6c-5.1-3.7-10.7-6.5-16.3-9.4
	c-5.7-2.9-11.3-6-17-8.7c-4.5-2.1-9.1-4.1-13.7-5.9c-8.4-3.3-16.8-6.5-25.3-9.5c-4.9-1.7-9.9-3-14.8-4.5c-3.7-1.1-7.3-2.6-11-3.5
	c-5.3-1.3-10.6-2.6-16-3.5c-4.4-0.7-8.9-1-13.4-1.4c-5.3-0.4-10.7-0.9-16-1c-3.4,0-6.9,0.6-10.3,1c-1,0.1-2,0.2-2.9,0.4
	C128.5,133.6,128.4,133.3,128.3,133.1z"/>
<path d="M496.5,41.1c0.2,0.4,0.5,0.7,0.6,1.1c0.4,2.4,1,4.9,1,7.3c0.1,2.6-0.2,5.2-0.7,7.7c-0.7,4-1.9,8-2.7,12
	c-0.5,2.5-2,4.5-3.2,6.6c-2.2,3.6-5.4,6.3-8.1,9.5c-2.2,2.6-5.1,4.1-8.3,5.2c-0.6-1,0-1.2,0.6-1.5c1.5-0.8,3.1-1.6,4.5-2.6
	c1.2-0.9,2.2-2,3.2-3.1c3.3-3.3,6.2-6.8,8.6-10.8c0.2-0.4,0.5-0.8,0.6-1.2c2.1-6.4,3.8-12.9,3.9-19.7c0.1-2.8-0.5-5.5-0.9-8.3
	C495.7,42.5,495.3,41.7,496.5,41.1z"/>
<g>
	<path d="M12.3,11.4c0-0.8,0.2-1.4,0.7-1.9c0.4-0.5,1-0.9,1.7-1.2c0.7-0.3,1.4-0.5,2.1-0.6c0.8-0.1,1.5-0.2,2.1-0.2
		c1.2,0,2.2,0.2,3,0.7c0.8,0.5,1.5,1.1,2,1.8c0.5,0.8,0.9,1.6,1.1,2.7c0.2,1,0.3,2,0.3,3.1c0,0.7-0.1,1.5-0.2,2.4
		c-0.1,0.9-0.4,1.9-0.7,2.9c-0.3,1-0.7,2-1.1,3c-0.4,1-0.9,1.9-1.5,2.6c-0.6,0.8-1.2,1.4-1.9,1.9c-0.7,0.5-1.5,0.7-2.3,0.7
		c-0.2,0-0.4-0.2-0.6-0.7c-0.2-0.4-0.5-1-0.8-1.8c-0.3-0.7-0.6-1.6-0.9-2.6c-0.3-1-0.6-2-0.9-3c-0.3-1-0.6-2.1-0.8-3.2
		c-0.3-1.1-0.5-2-0.7-2.9c-0.2-0.9-0.4-1.7-0.5-2.4C12.3,12.2,12.3,11.7,12.3,11.4z M14.5,13c0,0.6,0,1.2,0.1,2
		c0.1,0.7,0.2,1.5,0.4,2.3c0.2,0.8,0.4,1.6,0.7,2.4c0.3,0.8,0.6,1.6,0.9,2.3c0.3,0.7,0.7,1.4,1.2,1.9s0.9,1,1.5,1.4
		c0.6-0.9,1.2-1.7,1.6-2.4c0.5-0.7,0.8-1.4,1.1-2.1c0.3-0.7,0.5-1.4,0.6-2.2c0.1-0.8,0.2-1.7,0.2-2.7c0-0.7,0-1.5-0.1-2.2
		c-0.1-0.7-0.3-1.3-0.6-1.9c-0.3-0.6-0.7-1-1.3-1.3c-0.5-0.3-1.3-0.5-2.2-0.5c-0.7,0-1.4,0.1-2.1,0.3c-0.7,0.2-1.3,0.5-2,0.9
		c0,0.1,0,0.2,0,0.3c0,0.2,0,0.3,0,0.5s0,0.4,0,0.5C14.6,12.8,14.5,12.9,14.5,13z"/>
	<path d="M26.3,22.3c0-1,0.1-2,0.4-3c0.2-1,0.6-1.9,1.1-2.7c0.5-0.8,1.2-1.4,2-1.9c0.8-0.5,1.8-0.7,3-0.7c0.7,0,1.3,0.1,1.8,0.4
		c0.5,0.2,0.9,0.6,1.3,1c0.3,0.4,0.6,0.9,0.8,1.4c0.2,0.5,0.3,1.1,0.3,1.7c0,0.9-0.2,1.8-0.6,2.7c-0.4,0.9-1,1.6-1.7,2.3
		c-0.7,0.7-1.5,1.2-2.5,1.5c-0.9,0.3-1.9,0.4-2.8,0.2c0,0.5,0.2,1,0.5,1.3c0.3,0.3,0.7,0.6,1.2,0.7c0.5,0.2,1,0.3,1.5,0.3
		c0.5,0,1,0.1,1.4,0.1c0.4,0,0.8,0,1.2-0.1c0.4-0.1,0.7-0.2,1.1-0.2c0.4-0.1,0.7-0.2,1.1-0.2c0.4-0.1,0.8-0.1,1.2-0.1
		c0.2,0,0.3,0,0.5,0c0.2,0,0.3,0.1,0.5,0.1c0.1,0.1,0.3,0.2,0.4,0.3c0.1,0.1,0.1,0.3,0.1,0.5c0,0.3-0.1,0.6-0.4,0.9
		c-0.3,0.2-0.6,0.4-1,0.6c-0.4,0.2-0.8,0.3-1.3,0.4c-0.5,0.1-0.9,0.1-1.4,0.2c-0.4,0-0.9,0.1-1.2,0.1c-0.4,0-0.7,0-0.8,0
		c-1.2,0-2.2-0.2-3.1-0.6c-0.9-0.4-1.7-0.9-2.4-1.6c-0.6-0.7-1.1-1.5-1.5-2.4C26.4,24.5,26.3,23.5,26.3,22.3z M29.2,20.6
		c0,0.6,0.1,1.1,0.3,1.4c0.2,0.3,0.6,0.4,1.3,0.4c0.5,0,0.9-0.1,1.4-0.3c0.5-0.2,0.9-0.4,1.2-0.7c0.4-0.3,0.7-0.7,0.9-1.1
		c0.2-0.4,0.3-0.9,0.3-1.4c0-0.3,0-0.6-0.1-0.8c0-0.3-0.1-0.6-0.3-0.8c-0.1-0.2-0.3-0.4-0.6-0.6c-0.2-0.2-0.5-0.2-0.9-0.2
		c-0.5,0-1,0.1-1.5,0.4c-0.4,0.2-0.8,0.6-1.1,1c-0.3,0.4-0.5,0.8-0.7,1.3C29.3,19.6,29.2,20.1,29.2,20.6z"/>
	<path d="M41,21.7c0-0.8,0.2-1.6,0.5-2.4c0.3-0.8,0.8-1.6,1.4-2.3c0.6-0.7,1.2-1.3,2-1.7c0.7-0.5,1.5-0.7,2.3-0.7
		c0.4,0,0.8,0.1,1.3,0.2c0.4,0.1,0.8,0.4,1.1,0.6c0.3,0.3,0.6,0.6,0.8,1c0.2,0.4,0.3,0.8,0.3,1.3c-0.3,0-0.6,0-0.9-0.1
		c-0.3-0.1-0.5-0.2-0.8-0.3c-0.3-0.1-0.5-0.2-0.8-0.3C48,17,47.7,17,47.4,17c-0.7,0-1.4,0.2-1.8,0.6c-0.5,0.4-0.8,0.8-1.1,1.4
		c-0.3,0.6-0.5,1.2-0.6,1.8c-0.1,0.6-0.2,1.3-0.2,1.8c0,0.1,0,0.3,0,0.5c0,0.3,0,0.5,0,0.8c0,0.3,0,0.6,0,0.8c0,0.3,0,0.4,0,0.5
		c0.2,0.4,0.4,0.8,0.6,1c0.2,0.2,0.4,0.4,0.6,0.5c0.2,0.1,0.5,0.2,0.7,0.2c0.3,0,0.6,0,0.9,0c0.5,0,0.9-0.1,1.2-0.2
		c0.4-0.1,0.7-0.3,1-0.5c0.3-0.2,0.6-0.4,0.9-0.7s0.6-0.5,0.9-0.7c0.3-0.2,0.6-0.4,1-0.5s0.8-0.2,1.2-0.2c0,0.9-0.2,1.7-0.5,2.4
		c-0.3,0.7-0.8,1.3-1.3,1.8s-1.2,0.9-2,1.1c-0.8,0.3-1.6,0.4-2.5,0.4c-0.9,0-1.6-0.3-2.3-0.9c-0.7-0.6-1.3-1.3-1.8-2.1
		c-0.5-0.8-0.9-1.7-1.1-2.7C41.1,23.3,41,22.4,41,21.7z"/>
	<path d="M66.2,26.4c-0.7,0.5-1.3,0.9-1.8,1.3c-0.5,0.4-1,0.7-1.5,0.9c-0.5,0.3-1,0.4-1.5,0.6c-0.5,0.1-1.2,0.2-2,0.2
		c-1.7,0-3-0.5-3.8-1.4s-1.2-2.2-1.2-4c0-0.7,0.1-1.4,0.3-2.2c0.2-0.7,0.5-1.5,0.8-2.2s0.8-1.4,1.3-2.1c0.5-0.7,1-1.3,1.7-1.8
		c0.6-0.5,1.3-0.9,2-1.2c0.7-0.3,1.4-0.5,2.2-0.5c1.3,0.1,2.3,0.5,3.1,1c0.7,0.5,1.3,1.2,1.7,2c0.4,0.8,0.6,1.7,0.8,2.7
		c0.1,1,0.3,2,0.3,3.1c0.1,1.1,0.2,2.1,0.3,3.2c0.1,1.1,0.4,2,0.8,2.9c-0.2,0.6-0.5,1-0.7,1.3c-0.2,0.2-0.4,0.3-0.7,0.1
		c-0.3-0.2-0.6-0.6-0.9-1.2C67.1,28.5,66.7,27.6,66.2,26.4z M56.8,24.1c0,1,0.2,1.8,0.6,2.3c0.4,0.5,1.1,0.7,2.1,0.7
		c0.7,0,1.5-0.1,2.1-0.4c0.7-0.3,1.3-0.6,1.8-1.1c0.5-0.5,0.9-1,1.2-1.7c0.3-0.7,0.5-1.4,0.5-2.2c0-0.3,0-0.8,0-1.4
		c0-0.6,0-1.2-0.1-1.8c-0.1-0.6-0.3-1.1-0.5-1.5c-0.3-0.4-0.6-0.6-1.1-0.6c-0.9,0-1.8,0.2-2.6,0.7c-0.8,0.5-1.5,1.1-2.1,1.8
		c-0.6,0.7-1,1.6-1.4,2.5S56.8,23.2,56.8,24.1z"/>
	<path d="M73,9.4c0.3,0.1,0.6,0.4,0.9,0.7c0.2,0.3,0.3,0.6,0.3,0.9c0,0.3-0.2,0.4-0.6,0.5c-0.4,0.1-1,0-1.9-0.3
		c0-0.5,0.1-0.9,0.3-1.3C72.1,9.6,72.4,9.4,73,9.4z M72.6,19.7c0-0.1,0-0.3,0-0.5c0-0.2,0-0.5,0-0.8c0-0.3,0-0.5,0-0.8
		c0-0.3,0-0.4,0-0.5c0.2-0.3,0.5-0.5,0.8-0.7c0.3-0.2,0.6-0.3,1-0.4c0.1,1,0.2,2,0.5,3.1c0.3,1.1,0.5,2.2,0.8,3.3
		c0.3,1.1,0.6,2.2,0.8,3.3c0.2,1.1,0.3,2.1,0.3,3.1c0,0.8-0.4,1.2-1.3,1.2c-0.5,0-0.9-0.2-1.3-0.6c-0.3-0.4-0.6-1-0.8-1.6
		c-0.2-0.6-0.4-1.4-0.5-2.2c-0.1-0.8-0.2-1.6-0.3-2.3c0-0.8-0.1-1.5-0.1-2.1C72.6,20.5,72.6,20,72.6,19.7z"/>
	<path d="M77.3,18.4c0-0.5,0.1-0.8,0.2-1.1c0.2-0.3,0.5-0.4,1-0.4c0.1,0,0.2,0,0.3,0c0.2,0,0.3,0,0.3,0c0.1,0.6,0.3,1.2,0.4,1.8
		c0.1,0.7,0.3,1.3,0.5,2c0.2,0.7,0.4,1.3,0.6,2c0.2,0.7,0.5,1.2,0.8,1.8c0.3-0.3,0.6-0.8,0.7-1.2c0.1-0.5,0.3-1,0.3-1.4
		c0.1-0.5,0.1-0.9,0.2-1.4c0.1-0.4,0.2-0.8,0.4-1.1c0.2-0.3,0.5-0.6,0.9-0.7c0.4-0.1,0.9-0.1,1.6,0c0.8,0,1.4,0.1,1.8,0.4
		c0.5,0.3,0.9,0.6,1.2,1.1c0.3,0.4,0.7,0.9,1,1.4c0.3,0.5,0.7,0.9,1.2,1.3c0.1-0.2,0.2-0.5,0.4-0.9s0.4-0.7,0.6-1.1
		c0.2-0.4,0.5-0.8,0.8-1.2c0.3-0.4,0.6-0.7,0.9-1.1c0.3-0.3,0.6-0.6,1-0.8c0.3-0.2,0.6-0.3,1-0.3c0.7,0,1.4,0.2,1.9,0.7s1,1,1.4,1.8
		c0.4,0.7,0.7,1.5,1,2.4c0.3,0.9,0.5,1.7,0.6,2.5c0.1,0.8,0.3,1.5,0.3,2.2c0.1,0.7,0.1,1.1,0.1,1.4c0,0.2-0.1,0.4-0.2,0.5
		c-0.1,0.1-0.2,0.2-0.4,0.3c-0.2,0.1-0.3,0.1-0.5,0.1c-0.2,0-0.4,0-0.5,0c0,0-0.1,0-0.2,0c-0.1,0-0.2,0-0.2,0c-0.1,0-0.2,0-0.3-0.1
		l-1.8-8.2c0-0.1-0.1-0.2-0.2-0.3c-0.1-0.2-0.3-0.3-0.3-0.3c-0.1,0-0.1,0-0.1,0c0,0-0.1,0-0.1,0c0,0,0,0-0.1,0
		c-0.4,0-0.7,0.2-1.1,0.5c-0.3,0.3-0.7,0.7-0.9,1.2c-0.3,0.5-0.6,1-0.8,1.6c-0.3,0.6-0.5,1.2-0.7,1.7c-0.2,0.6-0.4,1.1-0.5,1.6
		c-0.2,0.5-0.3,0.9-0.4,1.1c-0.1,0-0.2,0.1-0.4,0.1s-0.4,0-0.4,0c-0.5,0-0.9-0.2-1.2-0.5s-0.5-0.8-0.7-1.3c-0.2-0.5-0.3-1.1-0.4-1.7
		c-0.1-0.6-0.3-1.2-0.4-1.7c-0.2-0.5-0.4-1-0.7-1.3s-0.7-0.5-1.3-0.5c-0.2,0-0.4,0.2-0.6,0.6c-0.2,0.4-0.3,0.9-0.5,1.5
		c-0.1,0.6-0.3,1.3-0.4,2c-0.1,0.7-0.2,1.4-0.3,2c-0.1,0.6-0.2,1.3-0.2,2.2c0,0.1-0.1,0.1-0.2,0.2c-0.1,0.1-0.2,0.1-0.3,0.2
		c-0.1,0.1-0.2,0.1-0.4,0.2c-0.1,0-0.2,0.1-0.3,0.1c-0.5,0-1-0.2-1.5-0.7c-0.5-0.5-0.9-1.1-1.3-1.8c-0.4-0.7-0.7-1.6-1.1-2.4
		c-0.3-0.9-0.6-1.8-0.8-2.6c-0.2-0.9-0.4-1.6-0.5-2.3C77.3,19.3,77.3,18.8,77.3,18.4z"/>
	<path d="M101.9,22.3c0-1,0.1-2,0.4-3c0.2-1,0.6-1.9,1.1-2.7c0.5-0.8,1.2-1.4,2-1.9c0.8-0.5,1.8-0.7,3-0.7c0.7,0,1.3,0.1,1.8,0.4
		c0.5,0.2,0.9,0.6,1.3,1c0.3,0.4,0.6,0.9,0.8,1.4c0.2,0.5,0.3,1.1,0.3,1.7c0,0.9-0.2,1.8-0.6,2.7c-0.4,0.9-1,1.6-1.7,2.3
		c-0.7,0.7-1.5,1.2-2.5,1.5c-0.9,0.3-1.9,0.4-2.8,0.2c0,0.5,0.2,1,0.5,1.3c0.3,0.3,0.7,0.6,1.2,0.7c0.5,0.2,1,0.3,1.5,0.3
		c0.5,0,1,0.1,1.4,0.1c0.4,0,0.8,0,1.2-0.1c0.4-0.1,0.7-0.2,1.1-0.2c0.4-0.1,0.7-0.2,1.1-0.2c0.4-0.1,0.8-0.1,1.2-0.1
		c0.2,0,0.3,0,0.5,0c0.2,0,0.3,0.1,0.5,0.1c0.1,0.1,0.3,0.2,0.4,0.3c0.1,0.1,0.1,0.3,0.1,0.5c0,0.3-0.1,0.6-0.4,0.9
		c-0.3,0.2-0.6,0.4-1,0.6c-0.4,0.2-0.8,0.3-1.3,0.4c-0.5,0.1-0.9,0.1-1.4,0.2c-0.4,0-0.9,0.1-1.2,0.1c-0.4,0-0.7,0-0.8,0
		c-1.2,0-2.2-0.2-3.1-0.6c-0.9-0.4-1.7-0.9-2.4-1.6c-0.6-0.7-1.1-1.5-1.5-2.4C102.1,24.5,101.9,23.5,101.9,22.3z M104.8,20.6
		c0,0.6,0.1,1.1,0.3,1.4c0.2,0.3,0.6,0.4,1.3,0.4c0.5,0,0.9-0.1,1.4-0.3c0.5-0.2,0.9-0.4,1.2-0.7c0.4-0.3,0.7-0.7,0.9-1.1
		c0.2-0.4,0.3-0.9,0.3-1.4c0-0.3,0-0.6-0.1-0.8c0-0.3-0.1-0.6-0.3-0.8c-0.1-0.2-0.3-0.4-0.6-0.6c-0.2-0.2-0.5-0.2-0.9-0.2
		c-0.5,0-1,0.1-1.5,0.4c-0.4,0.2-0.8,0.6-1.1,1c-0.3,0.4-0.5,0.8-0.7,1.3C104.9,19.6,104.8,20.1,104.8,20.6z"/>
	<path d="M117.1,20.7c0-0.5,0.1-0.8,0.4-1c0.2-0.2,0.6-0.3,1.1-0.3h0.3c0.1,0.3,0.1,0.6,0.2,1c0.1,0.4,0.2,0.8,0.3,1.2
		c0.1,0.4,0.3,0.8,0.5,1.1c0.2,0.3,0.4,0.6,0.7,0.8c0-0.6,0.2-1.3,0.5-1.8c0.3-0.6,0.7-1.1,1.1-1.6c0.4-0.5,0.9-0.9,1.5-1.2
		c0.5-0.3,1.1-0.5,1.6-0.6h0.6c0.9,0,1.6,0.2,2.2,0.6c0.6,0.4,1.1,0.9,1.5,1.5s0.7,1.3,0.9,2.1c0.2,0.8,0.4,1.6,0.5,2.4
		c0.1,0.8,0.2,1.6,0.2,2.4c0,0.8,0,1.4,0,2h-2c-0.1-1.1-0.2-2.1-0.4-3.1c-0.1-0.4-0.1-0.8-0.2-1.3c-0.1-0.4-0.2-0.9-0.3-1.3
		c-0.1-0.4-0.2-0.8-0.4-1.1c-0.1-0.3-0.3-0.6-0.4-0.9c-0.1-0.1-0.2-0.2-0.3-0.3c-0.1-0.1-0.2-0.3-0.4-0.4c-0.1-0.1-0.2-0.2-0.4-0.3
		c-0.1-0.1-0.2-0.1-0.2-0.1c-0.5-0.1-1,0-1.4,0.3c-0.4,0.4-0.8,0.8-1.1,1.4c-0.3,0.6-0.6,1.3-0.8,2.1s-0.4,1.5-0.5,2.2
		c-0.1,0.7-0.2,1.3-0.3,1.8s-0.1,0.8-0.1,0.9c-0.5,0.3-0.9,0.4-1.3,0.3c-0.4-0.1-0.8-0.4-1.1-0.9s-0.7-1-1-1.6
		c-0.3-0.7-0.5-1.4-0.8-2.1c-0.2-0.7-0.5-1.5-0.6-2.2C117.5,22.1,117.3,21.4,117.1,20.7z"/>
	<path d="M132.4,16.2c0-0.1,0-0.1,0-0.1c0,0,0-0.1,0-0.1c0.1-0.1,0.2-0.2,0.3-0.4c0.1-0.1,0.2-0.2,0.3-0.2h5.5c0-0.2,0-0.5-0.1-1
		s-0.1-0.9-0.2-1.4c0-0.5-0.1-1.1,0-1.7c0-0.6,0.1-1.1,0.2-1.6s0.4-0.8,0.7-1.1s0.7-0.5,1.3-0.5c0,1.8,0.1,3.3,0.4,4.4
		c0.3,1.1,0.6,2,1,2.6c0.4,0.6,0.9,1,1.5,1.2c0.5,0.2,1.1,0.3,1.7,0.2s1.1-0.1,1.7-0.3c0.5-0.1,1-0.2,1.5-0.3c0.4-0.1,0.8,0,1,0.1
		c0.3,0.1,0.4,0.5,0.4,1c0,0.4-0.1,0.7-0.3,0.8c-0.2,0.2-0.5,0.3-1,0.4c-0.1,0-0.4,0.1-0.7,0.1c-0.3,0-0.7,0.1-1.1,0.1
		c-0.4,0-0.9,0.1-1.3,0.1c-0.5,0-0.9,0.1-1.3,0.1c-0.4,0-0.8,0.1-1.1,0.1c-0.3,0-0.6,0-0.8,0c0,0.1,0,0.2,0,0.5c0,0.2,0,0.4,0,0.4
		c0,0.8,0.1,1.6,0.4,2.3c0.3,0.8,0.5,1.5,0.8,2.3c0.3,0.7,0.6,1.5,0.8,2.2c0.3,0.7,0.4,1.5,0.4,2.3c0,0.1,0,0.3,0,0.5
		c0,0.2-0.1,0.3-0.2,0.4c-0.1,0.1-0.2,0.2-0.4,0.3c-0.2,0.1-0.4,0-0.6,0c-0.7-0.2-1.2-0.6-1.5-1.2c-0.3-0.6-0.6-1.3-0.8-2.1
		c-0.2-0.8-0.3-1.7-0.3-2.6s-0.1-1.8-0.3-2.6c-0.1-0.8-0.3-1.5-0.6-2.1c-0.3-0.6-0.7-0.9-1.2-1.1L133,17c-0.1,0-0.2-0.1-0.3-0.2
		c-0.1-0.2-0.2-0.3-0.3-0.3c0,0,0-0.1,0-0.1C132.4,16.3,132.4,16.2,132.4,16.2z"/>
	<path d="M150.6,24.4c0-1.1,0.3-2.2,0.8-3.2c0.5-1,1.2-1.8,2.1-2.5c0.9-0.7,1.8-1.3,2.9-1.7c1.1-0.4,2.2-0.6,3.3-0.6
		c0.6,0,1.2,0.2,1.7,0.6c0.5,0.4,0.9,0.9,1.2,1.5s0.6,1.2,0.8,1.8c0.2,0.6,0.3,1.2,0.3,1.7c0,1-0.2,2-0.7,3s-1.1,1.8-1.9,2.5
		c-0.8,0.7-1.7,1.3-2.7,1.8c-1,0.5-2,0.7-3,0.7c-0.9,0-1.6-0.2-2.2-0.5s-1.1-0.7-1.4-1.2c-0.4-0.5-0.6-1.1-0.8-1.8
		C150.6,25.9,150.6,25.1,150.6,24.4z M152.9,24.7c0,0.5,0,0.9,0.1,1.2s0.2,0.7,0.4,0.9c0.2,0.3,0.5,0.5,0.8,0.6
		c0.3,0.1,0.8,0.2,1.3,0.2c0.7,0,1.3-0.2,2-0.6c0.7-0.4,1.3-0.8,1.8-1.4c0.5-0.6,1-1.2,1.3-1.9c0.3-0.7,0.5-1.4,0.5-2
		c0-0.3,0-0.6-0.1-1c-0.1-0.3-0.1-0.7-0.3-1c-0.1-0.3-0.3-0.5-0.5-0.7c-0.2-0.2-0.5-0.3-0.9-0.3c-0.3,0-0.7,0.1-1.2,0.3
		c-0.4,0.2-0.9,0.5-1.4,0.8c-0.5,0.3-1,0.7-1.4,1.2s-0.9,0.9-1.3,1.3s-0.7,0.9-0.9,1.3C153,24.1,152.9,24.4,152.9,24.7z"/>
	<path d="M184.3,44.5c1,0,1.9-0.2,2.7-0.6c0.8-0.4,1.5-0.9,2-1.5c0.6-0.6,1-1.4,1.3-2.2c0.3-0.8,0.5-1.7,0.5-2.6
		c0-0.5,0-1.1-0.1-1.8c0-0.7-0.1-1.6-0.2-2.4c-0.1-0.9-0.2-1.8-0.4-2.7c-0.2-0.9-0.4-1.8-0.6-2.6c-0.3-0.8-0.6-1.5-0.9-2.1
		c-0.4-0.6-0.8-1-1.3-1.3c-0.5,0.4-0.9,0.7-1.4,1c-0.5,0.3-0.9,0.6-1.4,0.8c-0.5,0.2-1,0.4-1.5,0.5c-0.5,0.1-1.1,0.2-1.7,0.2
		c-0.8,0-1.5-0.1-2-0.2c-0.6-0.1-1-0.4-1.4-0.7c-0.4-0.3-0.7-0.8-0.8-1.4c-0.2-0.6-0.3-1.3-0.3-2.1c0-0.6,0.1-1.2,0.4-1.8
		c0.3-0.6,0.7-1.1,1.2-1.6c0.5-0.5,1-1,1.6-1.4c0.6-0.4,1.2-0.8,1.9-1.1c0.6-0.3,1.3-0.5,1.9-0.7s1.2-0.2,1.7-0.2c0.5,0,0.9,0,1.2,0
		c0.3,0,0.6,0.1,0.8,0.2c0.2,0.1,0.4,0.3,0.6,0.5c0.2,0.2,0.3,0.6,0.5,1c0.4,1.4,0.9,3,1.4,4.6s1.1,3.3,1.6,5.1
		c0.5,1.7,0.9,3.5,1.2,5.2c0.3,1.8,0.5,3.5,0.5,5.1c0,1.5-0.2,2.7-0.6,3.7s-0.9,1.8-1.6,2.5c-0.7,0.6-1.4,1.1-2.3,1.5
		c-0.8,0.3-1.7,0.6-2.6,0.7c-0.9,0.1-1.7,0.1-2.5,0.1c-0.8-0.1-1.5-0.2-2.1-0.3c-0.6-0.2-1-0.3-1.3-0.5c-0.3-0.2-0.4-0.4-0.2-0.5
		c0.2-0.1,0.6-0.2,1.2-0.3C181.9,44.3,182.9,44.4,184.3,44.5z M184.7,18.1c-1.3,0.3-2.4,0.7-3.3,1.2c-0.8,0.5-1.4,1.1-1.9,1.7
		c-0.4,0.6-0.6,1.2-0.7,1.8c0,0.6,0.1,1.1,0.3,1.5c0.3,0.4,0.6,0.7,1.1,0.9c0.5,0.2,1,0.2,1.7,0c0.6-0.2,1.3-0.6,2-1.2
		c0.7-0.6,1.4-1.6,2.1-2.8c0-0.3,0-0.6,0-1c0-0.4,0-0.7-0.1-1c-0.1-0.3-0.2-0.6-0.4-0.8C185.4,18.2,185.1,18.1,184.7,18.1z"/>
	<path d="M204.8,26.4c-0.7,0.5-1.3,0.9-1.8,1.3c-0.5,0.4-1,0.7-1.5,0.9c-0.5,0.3-1,0.4-1.5,0.6c-0.5,0.1-1.2,0.2-2,0.2
		c-1.7,0-3-0.5-3.8-1.4s-1.2-2.2-1.2-4c0-0.7,0.1-1.4,0.3-2.2c0.2-0.7,0.5-1.5,0.8-2.2s0.8-1.4,1.3-2.1c0.5-0.7,1-1.3,1.7-1.8
		c0.6-0.5,1.3-0.9,2-1.2c0.7-0.3,1.4-0.5,2.2-0.5c1.3,0.1,2.3,0.5,3.1,1c0.7,0.5,1.3,1.2,1.7,2c0.4,0.8,0.6,1.7,0.8,2.7
		c0.1,1,0.3,2,0.3,3.1c0.1,1.1,0.2,2.1,0.3,3.2c0.1,1.1,0.4,2,0.8,2.9c-0.2,0.6-0.5,1-0.7,1.3c-0.2,0.2-0.4,0.3-0.7,0.1
		c-0.3-0.2-0.6-0.6-0.9-1.2C205.7,28.5,205.3,27.6,204.8,26.4z M195.4,24.1c0,1,0.2,1.8,0.6,2.3c0.4,0.5,1.1,0.7,2.1,0.7
		c0.7,0,1.5-0.1,2.1-0.4c0.7-0.3,1.3-0.6,1.8-1.1c0.5-0.5,0.9-1,1.2-1.7c0.3-0.7,0.5-1.4,0.5-2.2c0-0.3,0-0.8,0-1.4
		c0-0.6,0-1.2-0.1-1.8c-0.1-0.6-0.3-1.1-0.5-1.5c-0.3-0.4-0.6-0.6-1.1-0.6c-0.9,0-1.8,0.2-2.6,0.7c-0.8,0.5-1.5,1.1-2.1,1.8
		c-0.6,0.7-1,1.6-1.4,2.5S195.4,23.2,195.4,24.1z"/>
	<path d="M209.4,18.4c0-0.5,0.1-0.8,0.2-1.1c0.2-0.3,0.5-0.4,1-0.4c0.1,0,0.2,0,0.3,0c0.2,0,0.3,0,0.3,0c0.1,0.6,0.3,1.2,0.4,1.8
		c0.1,0.7,0.3,1.3,0.5,2c0.2,0.7,0.4,1.3,0.6,2c0.2,0.7,0.5,1.2,0.8,1.8c0.3-0.3,0.6-0.8,0.7-1.2c0.1-0.5,0.3-1,0.3-1.4
		c0.1-0.5,0.1-0.9,0.2-1.4c0.1-0.4,0.2-0.8,0.4-1.1c0.2-0.3,0.5-0.6,0.9-0.7c0.4-0.1,0.9-0.1,1.6,0c0.8,0,1.4,0.1,1.8,0.4
		c0.5,0.3,0.9,0.6,1.2,1.1c0.3,0.4,0.7,0.9,1,1.4c0.3,0.5,0.7,0.9,1.2,1.3c0.1-0.2,0.2-0.5,0.4-0.9s0.4-0.7,0.6-1.1
		c0.2-0.4,0.5-0.8,0.8-1.2c0.3-0.4,0.6-0.7,0.9-1.1c0.3-0.3,0.6-0.6,1-0.8c0.3-0.2,0.6-0.3,1-0.3c0.7,0,1.4,0.2,1.9,0.7s1,1,1.4,1.8
		c0.4,0.7,0.7,1.5,1,2.4c0.3,0.9,0.5,1.7,0.6,2.5c0.1,0.8,0.3,1.5,0.3,2.2c0.1,0.7,0.1,1.1,0.1,1.4c0,0.2-0.1,0.4-0.2,0.5
		c-0.1,0.1-0.2,0.2-0.4,0.3c-0.2,0.1-0.3,0.1-0.5,0.1c-0.2,0-0.4,0-0.5,0c0,0-0.1,0-0.2,0c-0.1,0-0.2,0-0.2,0c-0.1,0-0.2,0-0.3-0.1
		l-1.8-8.2c0-0.1-0.1-0.2-0.2-0.3c-0.1-0.2-0.3-0.3-0.3-0.3c-0.1,0-0.1,0-0.1,0c0,0-0.1,0-0.1,0c0,0,0,0-0.1,0
		c-0.4,0-0.7,0.2-1.1,0.5c-0.3,0.3-0.7,0.7-0.9,1.2c-0.3,0.5-0.6,1-0.8,1.6c-0.3,0.6-0.5,1.2-0.7,1.7c-0.2,0.6-0.4,1.1-0.5,1.6
		c-0.2,0.5-0.3,0.9-0.4,1.1c-0.1,0-0.2,0.1-0.4,0.1s-0.4,0-0.4,0c-0.5,0-0.9-0.2-1.2-0.5s-0.5-0.8-0.7-1.3c-0.2-0.5-0.3-1.1-0.4-1.7
		c-0.1-0.6-0.3-1.2-0.4-1.7c-0.2-0.5-0.4-1-0.7-1.3s-0.7-0.5-1.3-0.5c-0.2,0-0.4,0.2-0.6,0.6c-0.2,0.4-0.3,0.9-0.5,1.5
		c-0.1,0.6-0.3,1.3-0.4,2c-0.1,0.7-0.2,1.4-0.3,2c-0.1,0.6-0.2,1.3-0.2,2.2c0,0.1-0.1,0.1-0.2,0.2c-0.1,0.1-0.2,0.1-0.3,0.2
		c-0.1,0.1-0.2,0.1-0.4,0.2c-0.1,0-0.2,0.1-0.3,0.1c-0.5,0-1-0.2-1.5-0.7c-0.5-0.5-0.9-1.1-1.3-1.8c-0.4-0.7-0.7-1.6-1.1-2.4
		c-0.3-0.9-0.6-1.8-0.8-2.6c-0.2-0.9-0.4-1.6-0.5-2.3C209.5,19.3,209.4,18.8,209.4,18.4z"/>
	<path d="M245.8,26.4c-0.7,0.5-1.3,0.9-1.8,1.3c-0.5,0.4-1,0.7-1.5,0.9c-0.5,0.3-1,0.4-1.5,0.6c-0.5,0.1-1.2,0.2-2,0.2
		c-1.7,0-3-0.5-3.8-1.4s-1.2-2.2-1.2-4c0-0.7,0.1-1.4,0.3-2.2c0.2-0.7,0.5-1.5,0.8-2.2s0.8-1.4,1.3-2.1c0.5-0.7,1-1.3,1.7-1.8
		c0.6-0.5,1.3-0.9,2-1.2c0.7-0.3,1.4-0.5,2.2-0.5c1.3,0.1,2.3,0.5,3.1,1c0.7,0.5,1.3,1.2,1.7,2c0.4,0.8,0.6,1.7,0.8,2.7
		c0.1,1,0.3,2,0.3,3.1c0.1,1.1,0.2,2.1,0.3,3.2c0.1,1.1,0.4,2,0.8,2.9c-0.2,0.6-0.5,1-0.7,1.3c-0.2,0.2-0.4,0.3-0.7,0.1
		c-0.3-0.2-0.6-0.6-0.9-1.2C246.7,28.5,246.3,27.6,245.8,26.4z M236.4,24.1c0,1,0.2,1.8,0.6,2.3c0.4,0.5,1.1,0.7,2.1,0.7
		c0.7,0,1.5-0.1,2.1-0.4c0.7-0.3,1.3-0.6,1.8-1.1c0.5-0.5,0.9-1,1.2-1.7c0.3-0.7,0.5-1.4,0.5-2.2c0-0.3,0-0.8,0-1.4
		c0-0.6,0-1.2-0.1-1.8c-0.1-0.6-0.3-1.1-0.5-1.5c-0.3-0.4-0.6-0.6-1.1-0.6c-0.9,0-1.8,0.2-2.6,0.7c-0.8,0.5-1.5,1.1-2.1,1.8
		c-0.6,0.7-1,1.6-1.4,2.5S236.4,23.2,236.4,24.1z"/>
</g>
<g>
	<path d="M341.3,249c-0.3-0.4-0.5-0.9-0.8-1.6c-0.3-0.6-0.6-1.3-1-2c-0.3-0.7-0.7-1.4-1-2c-0.4-0.7-0.7-1.2-1.1-1.7
		c-0.1-0.1-0.3-0.1-0.6-0.2c-0.2,0-0.5,0-0.7,0s-0.5,0-0.8,0c-0.2,0-0.5-0.1-0.7-0.1c-0.2-0.1-0.3-0.2-0.4-0.4
		c-0.1-0.2-0.1-0.5-0.1-0.9l2.8-0.1c0-0.6,0.1-1.2,0.2-1.9c0.1-0.6,0.3-1.2,0.5-1.8c0.2-0.6,0.5-1.1,0.8-1.6
		c0.3-0.5,0.7-0.9,1.1-1.3s0.9-0.7,1.5-0.9c0.6-0.2,1.2-0.4,2-0.4c0.3,0,0.5,0,0.8,0.2c0.3,0.1,0.5,0.3,0.7,0.5
		c0.2,0.2,0.4,0.4,0.5,0.7c0.1,0.3,0.2,0.5,0.2,0.8c-0.2,0-0.4,0-0.6-0.1c-0.2-0.1-0.3-0.2-0.5-0.3s-0.3-0.2-0.5-0.3
		s-0.4-0.1-0.6-0.1c-0.7,0-1.3,0.2-1.8,0.5c-0.6,0.3-1,0.7-1.4,1.1c-0.4,0.5-0.7,1-0.9,1.6c-0.2,0.6-0.3,1.2-0.3,1.9
		c0,0,0,0.1,0,0.2c0,0.1,0,0.2,0,0.4c0,0.1,0,0.3,0,0.4c0,0.1,0,0.2,0,0.2c0.4,0.1,0.9,0.2,1.4,0.2c0.5,0,1,0.1,1.5,0.1
		c0.5,0,1,0,1.5-0.1c0.5,0,0.9-0.1,1.3-0.1c0,0,0.1,0.1,0.2,0.2c0.1,0.1,0.1,0.1,0.2,0.2c0,0,0,0.1,0,0.1l0,0.1
		c0,0.2-0.1,0.4-0.3,0.6c-0.2,0.1-0.5,0.3-0.9,0.3c-0.4,0.1-0.8,0.1-1.2,0.2s-0.9,0.1-1.3,0.1c-0.4,0-0.8,0.1-1.1,0.1
		c-0.3,0-0.6,0.1-0.7,0.2c0.2,0.7,0.5,1.3,0.9,1.9c0.4,0.6,0.8,1.2,1.2,1.8s0.8,1.2,1.1,1.8c0.3,0.6,0.5,1.3,0.5,1.9
		c0,0-0.1,0-0.3,0c-0.2,0-0.3,0-0.5,0s-0.3-0.1-0.5-0.1C341.4,249.2,341.3,249.1,341.3,249z"/>
	<path d="M346,243.8c0-0.7,0.1-1.3,0.4-1.9c0.3-0.6,0.7-1.1,1.2-1.6c0.5-0.4,1.1-0.8,1.7-1.1c0.6-0.3,1.3-0.4,2-0.5
		c0.4,0,0.7,0.1,1,0.3c0.3,0.2,0.6,0.5,0.8,0.9s0.4,0.7,0.5,1.1c0.1,0.4,0.2,0.7,0.2,1c0,0.6-0.1,1.2-0.4,1.8
		c-0.3,0.6-0.6,1.1-1.1,1.6c-0.5,0.5-1,0.9-1.6,1.2c-0.6,0.3-1.2,0.5-1.8,0.5c-0.5,0-1,0-1.4-0.2c-0.4-0.2-0.7-0.4-0.9-0.7
		c-0.2-0.3-0.4-0.6-0.5-1.1C346.1,244.7,346,244.3,346,243.8z M347.4,243.9c0,0.3,0,0.5,0.1,0.8c0.1,0.2,0.2,0.4,0.3,0.5
		c0.1,0.1,0.3,0.3,0.5,0.3s0.5,0.1,0.8,0.1c0.4,0,0.8-0.2,1.2-0.4s0.8-0.6,1.1-0.9c0.3-0.4,0.6-0.8,0.7-1.2c0.2-0.4,0.3-0.8,0.2-1.2
		c0-0.2,0-0.4-0.1-0.6c0-0.2-0.1-0.4-0.2-0.6c-0.1-0.2-0.2-0.3-0.4-0.4c-0.1-0.1-0.3-0.2-0.6-0.2c-0.2,0-0.4,0.1-0.7,0.2
		c-0.3,0.1-0.5,0.3-0.8,0.6s-0.6,0.5-0.8,0.8s-0.5,0.6-0.7,0.8c-0.2,0.3-0.4,0.5-0.5,0.8C347.5,243.6,347.4,243.8,347.4,243.9z
		 M351,234.7l-1.7,2.7c-0.1,0.2-0.3,0.2-0.4,0.2c-0.1,0-0.2-0.1-0.3-0.2c-0.1-0.1-0.1-0.2-0.1-0.4s0-0.3,0.2-0.5
		c0,0,0.1-0.1,0.1-0.1c0-0.1,0.1-0.1,0.1-0.1c0.1-0.2,0.2-0.4,0.4-0.6c0.1-0.2,0.3-0.4,0.4-0.6c0.1-0.2,0.3-0.4,0.4-0.5
		c0.1-0.2,0.3-0.3,0.4-0.3c0.1-0.1,0.2,0,0.3,0S350.9,234.4,351,234.7z"/>
	<path d="M353.9,238.5C353.9,238.4,353.9,238.4,353.9,238.5c0-0.1,0-0.1,0-0.2c0-0.1,0.1-0.1,0.2-0.2c0.1-0.1,0.1-0.1,0.2-0.1
		l3.3-0.2c0-0.1,0-0.3-0.1-0.6c0-0.3-0.1-0.6-0.1-0.9c0-0.3-0.1-0.7-0.1-1c0-0.3,0-0.7,0.1-1c0.1-0.3,0.2-0.5,0.4-0.7
		c0.2-0.2,0.4-0.3,0.8-0.3c0.1,1.1,0.2,2,0.4,2.7c0.2,0.7,0.4,1.2,0.7,1.5s0.6,0.6,0.9,0.7c0.3,0.1,0.7,0.1,1,0.1
		c0.3,0,0.7-0.1,1-0.2c0.3-0.1,0.6-0.2,0.9-0.2c0.3,0,0.5,0,0.6,0s0.2,0.3,0.3,0.6c0,0.2,0,0.4-0.1,0.5c-0.1,0.1-0.3,0.2-0.6,0.3
		c-0.1,0-0.2,0-0.4,0.1c-0.2,0-0.4,0.1-0.7,0.1c-0.3,0-0.5,0.1-0.8,0.1s-0.6,0.1-0.8,0.1c-0.3,0-0.5,0.1-0.7,0.1c-0.2,0-0.4,0-0.5,0
		c0,0.1,0,0.1,0,0.3c0,0.1,0,0.2,0,0.3c0,0.5,0.1,1,0.3,1.4s0.4,0.9,0.6,1.3c0.2,0.4,0.4,0.9,0.6,1.3c0.2,0.4,0.3,0.9,0.3,1.4
		c0,0.1,0,0.2,0,0.3c0,0.1,0,0.2-0.1,0.3c0,0.1-0.1,0.1-0.2,0.2c-0.1,0-0.2,0-0.4,0c-0.4-0.1-0.7-0.3-1-0.7
		c-0.2-0.4-0.4-0.8-0.5-1.3c-0.1-0.5-0.2-1-0.3-1.6s-0.1-1.1-0.2-1.6s-0.2-0.9-0.4-1.2c-0.2-0.3-0.4-0.5-0.8-0.6l-3.2-0.6
		c0,0-0.1,0-0.2-0.1c-0.1-0.1-0.2-0.2-0.2-0.2C353.9,238.6,353.9,238.6,353.9,238.5C353.9,238.5,353.9,238.5,353.9,238.5z"/>
	<path d="M365.2,242.9c0-0.7,0.1-1.3,0.4-1.9c0.3-0.6,0.7-1.1,1.2-1.6c0.5-0.4,1.1-0.8,1.7-1.1c0.6-0.3,1.3-0.4,2-0.5
		c0.4,0,0.7,0.1,1,0.3s0.6,0.5,0.8,0.9c0.2,0.3,0.4,0.7,0.5,1.1c0.1,0.4,0.2,0.7,0.2,1c0,0.6-0.1,1.2-0.4,1.8
		c-0.3,0.6-0.6,1.1-1.1,1.6c-0.5,0.5-1,0.9-1.6,1.2s-1.2,0.5-1.8,0.5c-0.5,0-1,0-1.4-0.2s-0.7-0.4-0.9-0.7c-0.2-0.3-0.4-0.6-0.5-1.1
		C365.3,243.8,365.2,243.4,365.2,242.9z M366.6,243c0,0.3,0,0.5,0.1,0.8c0.1,0.2,0.2,0.4,0.3,0.5c0.1,0.1,0.3,0.3,0.5,0.3
		c0.2,0.1,0.5,0.1,0.8,0.1c0.4,0,0.8-0.2,1.2-0.4c0.4-0.2,0.8-0.6,1.1-0.9c0.3-0.4,0.6-0.8,0.7-1.2c0.2-0.4,0.3-0.8,0.2-1.2
		c0-0.2,0-0.4-0.1-0.6s-0.1-0.4-0.2-0.6c-0.1-0.2-0.2-0.3-0.4-0.4c-0.1-0.1-0.3-0.2-0.6-0.2c-0.2,0-0.4,0.1-0.7,0.2
		s-0.5,0.3-0.8,0.6c-0.3,0.2-0.6,0.5-0.8,0.8c-0.3,0.3-0.5,0.6-0.7,0.8c-0.2,0.3-0.4,0.5-0.5,0.8C366.6,242.7,366.6,242.9,366.6,243
		z"/>
	<path d="M373.6,240.3c0-0.3,0-0.5,0.2-0.6c0.1-0.1,0.4-0.2,0.7-0.2l0.2,0c0,0.2,0.1,0.4,0.1,0.6c0.1,0.2,0.1,0.5,0.2,0.7
		c0.1,0.2,0.2,0.5,0.3,0.7s0.3,0.4,0.5,0.5c0-0.4,0.1-0.8,0.2-1.1c0.2-0.4,0.4-0.7,0.6-1c0.3-0.3,0.5-0.5,0.9-0.8
		c0.3-0.2,0.6-0.4,1-0.4l0.4,0c0.5,0,1,0.1,1.4,0.3c0.4,0.2,0.7,0.5,1,0.9c0.3,0.4,0.5,0.8,0.6,1.3c0.2,0.5,0.3,1,0.4,1.5
		c0.1,0.5,0.2,1,0.2,1.5c0,0.5,0.1,0.9,0.1,1.2l-1.2,0.1c-0.1-0.7-0.2-1.3-0.3-1.9c0-0.2-0.1-0.5-0.2-0.8c-0.1-0.3-0.1-0.5-0.2-0.8
		c-0.1-0.2-0.2-0.5-0.2-0.7c-0.1-0.2-0.2-0.4-0.3-0.5c0,0-0.1-0.1-0.2-0.2c-0.1-0.1-0.2-0.1-0.2-0.2c-0.1-0.1-0.2-0.1-0.2-0.2
		c-0.1-0.1-0.1-0.1-0.1-0.1c-0.3-0.1-0.6,0-0.9,0.2s-0.4,0.5-0.6,0.9c-0.2,0.4-0.3,0.8-0.4,1.3c-0.1,0.5-0.2,0.9-0.2,1.3
		c-0.1,0.4-0.1,0.8-0.1,1.1s0,0.5,0,0.6c-0.3,0.2-0.5,0.3-0.8,0.2c-0.2-0.1-0.5-0.2-0.7-0.5c-0.2-0.3-0.4-0.6-0.6-1
		c-0.2-0.4-0.4-0.8-0.5-1.2c-0.2-0.4-0.3-0.9-0.5-1.3C373.8,241.1,373.7,240.7,373.6,240.3z"/>
</g>
<g>
	<path d="M456,17.5c0-0.2,0.1-0.3,0.2-0.4c0.1,0,0.3-0.1,0.4-0.1c0.3,0,0.6,0.1,0.9,0.4c0.4,0.3,0.7,0.7,1.1,1.2
		c0.4,0.5,0.8,1.1,1.3,1.8c0.4,0.7,0.9,1.4,1.3,2.1c0.4,0.7,0.8,1.5,1.2,2.2c0.4,0.7,0.7,1.4,1,2c0.3,0.6,0.5,1.2,0.7,1.6
		s0.3,0.8,0.3,0.9c0,0.2,0,0.3-0.1,0.5s-0.2,0.3-0.4,0.3c-0.1,0-0.2,0-0.4-0.1c-0.1-0.1-0.2-0.2-0.3-0.3c-0.1-0.1-0.2-0.2-0.2-0.3
		c-0.1-0.1-0.1-0.2-0.2-0.3c-0.1-0.1-0.2-0.3-0.4-0.7c-0.2-0.3-0.4-0.7-0.6-1c-0.2-0.4-0.4-0.7-0.6-1s-0.3-0.5-0.4-0.7
		c-0.8,0-1.6-0.1-2.4-0.1c-0.8,0-1.6,0-2.5,0l-0.2,0c-0.2,1.8-0.3,3.1-0.5,4.2c-0.2,1-0.3,1.8-0.5,2.2c-0.1,0.4-0.3,0.6-0.4,0.6
		c-0.1-0.1-0.2-0.3-0.3-0.7c-0.1-0.4-0.2-1-0.2-1.7c0-0.7-0.1-1.5,0-2.4c0-0.9,0.1-1.8,0.1-2.8c0.1-1,0.2-1.9,0.3-2.9
		s0.4-1.8,0.6-2.6S455.7,18.1,456,17.5z M456.4,23.4c0.1,0.4,0.2,0.7,0.5,0.8c0.3,0.2,0.6,0.2,1,0.2c0.4,0,0.8,0,1.2-0.1
		c0.4-0.1,0.8-0.1,1.1-0.2c-0.1-0.4-0.2-0.9-0.4-1.4c-0.2-0.5-0.5-1-0.7-1.4c-0.3-0.5-0.6-0.9-0.9-1.4c-0.3-0.4-0.6-0.8-0.9-1.2
		c-0.1,0.1-0.2,0.4-0.3,0.7c-0.1,0.3-0.2,0.7-0.3,1.1c-0.1,0.4-0.2,0.8-0.2,1.2c-0.1,0.4-0.1,0.7-0.1,1c0,0,0,0.1,0,0.3
		C456.4,23.2,456.4,23.3,456.4,23.4z"/>
	<path d="M465,18.5c0.2,0.1,0.4,0.2,0.6,0.4c0.2,0.2,0.3,0.3,0.3,0.5c0,0.2-0.1,0.3-0.3,0.4c-0.2,0.1-0.6,0.1-1.2,0
		c0-0.3,0-0.6,0.1-0.8C464.5,18.6,464.6,18.5,465,18.5z M465.5,24.7c0-0.1,0-0.2,0-0.3c0-0.1,0-0.3,0-0.5c0-0.2,0-0.3,0-0.5
		c0-0.2,0-0.3,0-0.3c0.1-0.2,0.2-0.4,0.4-0.5c0.2-0.1,0.4-0.2,0.5-0.3c0.1,0.6,0.3,1.2,0.5,1.9c0.2,0.6,0.5,1.3,0.8,2
		s0.5,1.3,0.7,1.9c0.2,0.6,0.4,1.2,0.5,1.8c0.1,0.5-0.2,0.8-0.7,0.8c-0.3,0-0.6-0.1-0.8-0.3c-0.2-0.2-0.5-0.5-0.6-0.9
		c-0.2-0.4-0.3-0.8-0.5-1.3s-0.3-0.9-0.3-1.4c-0.1-0.5-0.2-0.9-0.2-1.3C465.6,25.2,465.6,24.9,465.5,24.7z"/>
	<path d="M468.8,24.9c0-0.3,0-0.5,0.1-0.6s0.3-0.2,0.7-0.3l0.2,0c0.1,0.2,0.1,0.4,0.2,0.6c0.1,0.2,0.2,0.5,0.3,0.7
		c0.1,0.2,0.3,0.4,0.4,0.6c0.1,0.2,0.3,0.3,0.5,0.4c0-0.4,0-0.8,0.1-1.1c0.1-0.4,0.3-0.7,0.5-1c0.2-0.3,0.5-0.6,0.8-0.8
		c0.3-0.2,0.6-0.4,0.9-0.5l0.4,0c0.5-0.1,1,0,1.4,0.2c0.4,0.2,0.8,0.5,1.1,0.8c0.3,0.3,0.5,0.8,0.7,1.2c0.2,0.5,0.4,0.9,0.5,1.4
		c0.1,0.5,0.2,1,0.3,1.4c0.1,0.5,0.1,0.9,0.2,1.2l-1.2,0.2c-0.2-0.6-0.3-1.3-0.5-1.9c-0.1-0.2-0.1-0.5-0.2-0.7
		c-0.1-0.3-0.2-0.5-0.3-0.7c-0.1-0.2-0.2-0.4-0.3-0.6c-0.1-0.2-0.2-0.4-0.3-0.5c-0.1,0-0.1-0.1-0.2-0.2c-0.1-0.1-0.2-0.1-0.3-0.2
		c-0.1-0.1-0.2-0.1-0.2-0.2c-0.1,0-0.1-0.1-0.1-0.1c-0.3,0-0.6,0.1-0.8,0.3s-0.4,0.6-0.5,0.9c-0.1,0.4-0.2,0.8-0.3,1.3
		c-0.1,0.5-0.1,0.9-0.1,1.4c0,0.4,0,0.8,0,1.1s0,0.5,0,0.6c-0.2,0.2-0.5,0.3-0.8,0.3c-0.3-0.1-0.5-0.2-0.8-0.4
		c-0.2-0.2-0.5-0.5-0.7-0.9c-0.2-0.4-0.4-0.8-0.6-1.2c-0.2-0.4-0.4-0.9-0.6-1.3C469.1,25.6,469,25.2,468.8,24.9z"/>
	<path d="M478.5,27.2c-0.1-0.6,0-1.2,0.3-1.8c0.3-0.5,0.6-1,1-1.4c0.4-0.4,0.9-0.8,1.4-1.1c0.5-0.3,1-0.6,1.4-0.8
		c0.4-0.2,0.8-0.4,1.1-0.6c0.3-0.1,0.5-0.3,0.4-0.3c-0.1-0.4-0.1-0.8-0.2-1.1c-0.1-0.4-0.2-0.7-0.3-1.1c-0.1-0.4-0.2-0.7-0.3-1.1
		c-0.1-0.4-0.2-0.7-0.2-1.1l-0.1-1.1c0.4-0.2,0.8-0.3,1-0.1c0.2,0.2,0.3,0.5,0.2,1c0.1,0.2,0.2,0.6,0.3,1.1c0.1,0.5,0.3,1.1,0.5,1.7
		s0.4,1.3,0.6,2s0.4,1.4,0.6,2c0.2,0.6,0.3,1.2,0.5,1.7c0.1,0.5,0.2,0.9,0.3,1.1c0,0.1,0,0.2,0.1,0.3c0,0.2,0.1,0.3,0.1,0.5
		s0.1,0.3,0.1,0.5c0,0.2,0,0.3,0.1,0.3c-0.4,0.1-0.7,0.1-0.9,0.1c-0.2,0-0.3-0.1-0.3-0.2s-0.1-0.2-0.1-0.4c0-0.2-0.1-0.4-0.3-0.8
		c-0.4,0.4-0.7,0.7-1,0.9s-0.7,0.5-1,0.6c-0.3,0.2-0.7,0.3-1.1,0.4c-0.4,0.1-0.8,0.2-1.2,0.2c-0.4,0-0.7,0.1-1,0s-0.6-0.1-0.9-0.2
		c-0.3-0.1-0.5-0.3-0.7-0.5C478.6,28,478.5,27.6,478.5,27.2z M479.9,26.7c0,0.2,0.1,0.3,0.2,0.4c0.1,0.1,0.2,0.2,0.3,0.2
		c0.1,0.1,0.3,0.1,0.4,0.1s0.3,0,0.4,0c0.4-0.1,0.8-0.2,1.2-0.4c0.4-0.2,0.8-0.5,1.2-0.8c0.3-0.3,0.6-0.7,0.8-1.1
		c0.2-0.4,0.3-0.8,0.2-1.3c0-0.3-0.1-0.6-0.3-0.7c-0.1-0.1-0.4-0.2-0.7-0.1c-0.4,0-0.7,0.2-1.2,0.4s-0.9,0.5-1.3,0.8
		c-0.4,0.3-0.7,0.7-1,1.1C479.9,25.9,479.8,26.3,479.9,26.7z"/>
	<path d="M495.1,24.9c-0.4,0.3-0.7,0.6-1,0.9c-0.3,0.3-0.5,0.5-0.8,0.7c-0.3,0.2-0.6,0.3-0.9,0.5c-0.3,0.1-0.7,0.2-1.2,0.3
		c-1,0.1-1.8,0-2.4-0.5s-0.9-1.3-1.1-2.3c-0.1-0.4-0.1-0.9,0-1.3s0.2-0.9,0.3-1.4c0.2-0.5,0.4-0.9,0.6-1.4c0.2-0.4,0.5-0.8,0.9-1.2
		c0.3-0.4,0.7-0.7,1.1-0.9c0.4-0.2,0.8-0.4,1.3-0.5c0.8,0,1.4,0.1,1.9,0.3s0.9,0.6,1.2,1.1c0.3,0.5,0.5,1,0.7,1.6
		c0.2,0.6,0.3,1.2,0.5,1.8c0.1,0.6,0.3,1.3,0.4,1.9c0.2,0.6,0.4,1.2,0.7,1.7c-0.1,0.4-0.2,0.7-0.3,0.8s-0.2,0.2-0.4,0.1
		c-0.2-0.1-0.4-0.3-0.6-0.7C495.8,26,495.5,25.5,495.1,24.9z M489.2,24.2c0.1,0.6,0.3,1.1,0.5,1.3c0.3,0.3,0.7,0.3,1.3,0.3
		c0.4-0.1,0.9-0.2,1.3-0.4c0.4-0.2,0.7-0.5,1-0.8c0.3-0.3,0.5-0.7,0.6-1.1s0.2-0.9,0.1-1.4c0-0.2-0.1-0.5-0.1-0.8
		c0-0.4-0.1-0.7-0.2-1.1c-0.1-0.3-0.2-0.6-0.4-0.9c-0.2-0.2-0.4-0.3-0.7-0.3c-0.6,0.1-1.1,0.3-1.5,0.6c-0.4,0.4-0.8,0.8-1.1,1.3
		c-0.3,0.5-0.5,1-0.6,1.6S489.1,23.7,489.2,24.2z"/>
	<path d="M505.5,21c-0.1-0.6-0.1-1.2,0-1.8c0.1-0.6,0.2-1.2,0.5-1.7c0.2-0.5,0.6-1,1.1-1.3s1-0.6,1.8-0.7c0.4-0.1,0.8,0,1.1,0.1
		c0.3,0.1,0.6,0.3,0.9,0.5c0.2,0.2,0.4,0.5,0.6,0.8c0.1,0.3,0.2,0.6,0.3,1c0.1,0.6,0,1.1-0.2,1.7s-0.5,1.1-0.9,1.5
		c-0.4,0.5-0.8,0.8-1.4,1.1c-0.5,0.3-1.1,0.4-1.7,0.4c0.1,0.3,0.2,0.6,0.4,0.7s0.5,0.3,0.8,0.3c0.3,0.1,0.6,0.1,0.9,0.1
		c0.3,0,0.6,0,0.8-0.1c0.3,0,0.5-0.1,0.7-0.2s0.4-0.2,0.6-0.2c0.2-0.1,0.4-0.2,0.6-0.2c0.2-0.1,0.5-0.1,0.7-0.2c0.1,0,0.2,0,0.3,0
		c0.1,0,0.2,0,0.3,0c0.1,0,0.2,0.1,0.2,0.2c0.1,0.1,0.1,0.2,0.1,0.3c0,0.2,0,0.4-0.2,0.5c-0.1,0.2-0.3,0.3-0.5,0.4s-0.5,0.2-0.8,0.3
		c-0.3,0.1-0.6,0.2-0.8,0.2c-0.3,0.1-0.5,0.1-0.7,0.1c-0.2,0-0.4,0.1-0.5,0.1c-0.7,0.1-1.3,0.1-1.9-0.1c-0.6-0.2-1.1-0.4-1.5-0.8
		c-0.4-0.3-0.8-0.8-1.1-1.3S505.6,21.7,505.5,21z M507.1,19.7c0.1,0.4,0.1,0.7,0.3,0.8c0.1,0.2,0.4,0.2,0.8,0.2
		c0.3,0,0.6-0.1,0.8-0.3c0.3-0.1,0.5-0.3,0.7-0.5c0.2-0.2,0.3-0.5,0.4-0.7c0.1-0.3,0.1-0.6,0.1-0.8c0-0.2-0.1-0.3-0.1-0.5
		c-0.1-0.2-0.1-0.3-0.2-0.5c-0.1-0.1-0.2-0.2-0.4-0.3c-0.2-0.1-0.3-0.1-0.6-0.1c-0.3,0-0.6,0.2-0.9,0.3c-0.2,0.2-0.5,0.4-0.6,0.7
		c-0.2,0.3-0.3,0.5-0.3,0.8C507,19.1,507,19.4,507.1,19.7z"/>
	<path d="M518.3,23.2c0.2-0.1,0.3-0.3,0.6-0.6c0.2-0.2,0.4-0.5,0.7-0.7c0.2-0.3,0.4-0.5,0.6-0.8s0.3-0.5,0.4-0.8
		c0.1-0.2,0.1-0.5,0.1-0.7s-0.1-0.3-0.4-0.5c-0.4,0-0.7,0.1-1.1,0.2c-0.4,0.1-0.8,0.2-1.2,0.2c-0.4,0-0.8,0.1-1.2,0.1
		s-0.8-0.1-1.1-0.2c-0.3-0.1-0.6-0.4-0.8-0.7c-0.2-0.3-0.4-0.7-0.4-1.2c-0.1-0.6,0-1.1,0.1-1.6c0.2-0.5,0.4-1,0.7-1.4
		c0.3-0.4,0.7-0.8,1.1-1.1c0.4-0.3,0.9-0.6,1.3-0.9c0.3,0,0.6,0.1,0.8,0.3c0.3,0.2,0.5,0.4,0.7,0.6c0,0.3-0.2,0.5-0.4,0.6
		c-0.2,0.2-0.5,0.3-0.7,0.4c-0.3,0.1-0.6,0.3-0.9,0.4c-0.3,0.2-0.6,0.3-0.8,0.6c-0.2,0.2-0.4,0.5-0.6,0.8c-0.1,0.3-0.2,0.7-0.1,1.2
		c0,0.4,0.2,0.6,0.4,0.7c0.2,0.1,0.4,0.2,0.7,0.2c0.3,0,0.6,0,1-0.1c0.4-0.1,0.7-0.1,1.1-0.2s0.7-0.2,1.1-0.2c0.4-0.1,0.7-0.1,1,0
		c0.3,0.1,0.5,0.2,0.7,0.4c0.2,0.2,0.3,0.5,0.4,0.9c0,0.2,0,0.4-0.1,0.7c-0.1,0.3-0.2,0.6-0.3,0.9c-0.2,0.3-0.3,0.7-0.6,1
		c-0.2,0.3-0.4,0.7-0.7,0.9c-0.2,0.3-0.5,0.5-0.8,0.7c-0.3,0.2-0.5,0.3-0.8,0.3c-0.2,0-0.4,0-0.5-0.2
		C518.4,23.5,518.3,23.3,518.3,23.2z"/>
	<path d="M521.9,15C521.9,15,521.9,14.9,521.9,15c0-0.1,0-0.1,0-0.2c0-0.1,0.1-0.1,0.2-0.2c0.1-0.1,0.1-0.2,0.1-0.2l3.3-0.4
		c0-0.1-0.1-0.3-0.1-0.6c-0.1-0.3-0.1-0.5-0.2-0.9c-0.1-0.3-0.1-0.6-0.2-1c0-0.3,0-0.7,0-1c0-0.3,0.1-0.5,0.3-0.7
		c0.2-0.2,0.4-0.3,0.7-0.4c0.1,1.1,0.3,2,0.6,2.6c0.2,0.6,0.5,1.1,0.8,1.5c0.3,0.3,0.6,0.5,1,0.6s0.7,0.1,1,0c0.3-0.1,0.7-0.2,1-0.3
		s0.6-0.2,0.9-0.3s0.5-0.1,0.6,0s0.3,0.2,0.3,0.6c0,0.2,0,0.4-0.1,0.5c-0.1,0.1-0.3,0.2-0.6,0.3c-0.1,0-0.2,0.1-0.4,0.1
		c-0.2,0.1-0.4,0.1-0.7,0.2c-0.2,0.1-0.5,0.1-0.8,0.2c-0.3,0.1-0.5,0.1-0.8,0.2c-0.2,0.1-0.5,0.1-0.7,0.1c-0.2,0-0.4,0.1-0.5,0.1
		c0,0.1,0,0.1,0,0.3c0,0.1,0,0.2,0,0.3c0.1,0.5,0.2,0.9,0.4,1.4c0.2,0.4,0.4,0.9,0.7,1.3s0.5,0.9,0.7,1.3c0.2,0.4,0.4,0.9,0.4,1.4
		c0,0.1,0,0.2,0,0.3c0,0.1,0,0.2-0.1,0.3c0,0.1-0.1,0.1-0.2,0.2c-0.1,0-0.2,0.1-0.4,0c-0.4-0.1-0.8-0.2-1-0.6
		c-0.3-0.3-0.5-0.7-0.6-1.2c-0.2-0.5-0.3-1-0.4-1.6s-0.2-1.1-0.4-1.6c-0.1-0.5-0.3-0.9-0.5-1.2c-0.2-0.3-0.5-0.5-0.8-0.5l-3.3-0.3
		c0,0-0.1,0-0.2-0.1c-0.1-0.1-0.2-0.1-0.2-0.2C521.9,15.2,521.9,15.1,521.9,15C521.9,15.1,521.9,15,521.9,15z"/>
	<path d="M533.5,18.5c-0.1-0.7,0-1.3,0.2-2c0.2-0.6,0.6-1.2,1.1-1.7s1-0.9,1.6-1.2s1.3-0.5,1.9-0.6c0.4,0,0.7,0,1,0.2
		c0.3,0.2,0.6,0.5,0.9,0.8c0.2,0.3,0.4,0.7,0.6,1c0.2,0.4,0.3,0.7,0.3,1c0.1,0.6,0,1.2-0.2,1.8c-0.2,0.6-0.5,1.2-0.9,1.7
		c-0.4,0.5-0.9,0.9-1.5,1.3c-0.6,0.4-1.1,0.6-1.7,0.6c-0.5,0.1-1,0-1.4-0.1c-0.4-0.1-0.7-0.3-1-0.6s-0.5-0.6-0.6-1
		S533.6,19,533.5,18.5z M534.9,18.5c0,0.3,0.1,0.5,0.2,0.7c0.1,0.2,0.2,0.4,0.3,0.5c0.1,0.1,0.3,0.2,0.5,0.3s0.5,0.1,0.8,0
		c0.4-0.1,0.8-0.2,1.2-0.5c0.4-0.3,0.7-0.6,1-1c0.3-0.4,0.5-0.8,0.6-1.2s0.2-0.9,0.1-1.3c0-0.2-0.1-0.4-0.1-0.6
		c-0.1-0.2-0.1-0.4-0.2-0.6c-0.1-0.2-0.2-0.3-0.4-0.4c-0.2-0.1-0.3-0.1-0.6-0.1c-0.2,0-0.4,0.1-0.7,0.3c-0.3,0.2-0.5,0.4-0.8,0.6
		c-0.3,0.2-0.5,0.5-0.8,0.8c-0.2,0.3-0.5,0.6-0.7,0.9s-0.3,0.6-0.5,0.8C535,18.1,534.9,18.3,534.9,18.5z"/>
	<path d="M541.5,14c0-0.1,0-0.2,0-0.4c0-0.2,0-0.3-0.1-0.5c0-0.2,0-0.4-0.1-0.5c0-0.2,0-0.3,0-0.3c0.1-0.1,0.1-0.3,0.2-0.4
		c0.1-0.1,0.2-0.2,0.3-0.3c0.1-0.1,0.2-0.1,0.4-0.1c0.1,0,0.3,0.1,0.5,0.3l0,0.1l0,0.2c0,0.1,0,0.2,0,0.4c0,0.2,0,0.4,0,0.7
		c0,0.2,0,0.5,0,0.7c0,0.2,0,0.3,0,0.4c0,0.2,0.1,0.5,0.2,0.8s0.2,0.6,0.3,1c0.1,0.3,0.3,0.7,0.4,1c0.2,0.3,0.4,0.6,0.6,0.9
		c0.2,0.2,0.4,0.4,0.7,0.6s0.5,0.2,0.8,0.2c0.4,0,0.6-0.2,0.9-0.4s0.4-0.5,0.6-0.8s0.3-0.7,0.4-1.1s0.1-0.8,0.2-1.2s0-0.8,0-1.1
		c0-0.4,0-0.7-0.1-0.9c0-0.3-0.1-0.5-0.2-0.7c-0.1-0.2-0.1-0.5-0.2-0.7c-0.1-0.2-0.2-0.4-0.2-0.7c-0.1-0.2-0.1-0.4-0.1-0.7
		c0-0.2,0-0.4,0.2-0.5c0.1-0.1,0.3-0.2,0.5-0.2c0.2,0,0.4,0,0.6,0.1c0.2,0.1,0.3,0.3,0.4,0.5c0.1,0.2,0.2,0.4,0.3,0.7
		c0.1,0.3,0.1,0.5,0.1,0.8c0,0.3,0.1,0.5,0.1,0.8s0,0.4,0.1,0.6c0,0.4,0.1,0.8,0.1,1.3c0,0.5,0,1-0.1,1.5c-0.1,0.5-0.2,1-0.3,1.5
		c-0.1,0.5-0.3,1-0.6,1.4c-0.2,0.4-0.5,0.8-0.9,1c-0.3,0.3-0.8,0.5-1.2,0.5c-0.5,0.1-0.9,0-1.3-0.2c-0.4-0.2-0.8-0.5-1.1-0.8
		c-0.3-0.4-0.6-0.8-0.8-1.2c-0.2-0.5-0.4-0.9-0.6-1.4s-0.3-1-0.4-1.4C541.6,14.7,541.6,14.3,541.5,14z"/>
	<path d="M565.2,15.5c-0.4,0.3-0.7,0.6-1,0.9c-0.3,0.3-0.5,0.5-0.8,0.7c-0.3,0.2-0.6,0.3-0.9,0.5c-0.3,0.1-0.7,0.2-1.2,0.3
		c-1,0.1-1.8,0-2.4-0.5c-0.6-0.5-0.9-1.3-1.1-2.3c-0.1-0.4-0.1-0.9,0-1.3c0-0.5,0.2-0.9,0.3-1.4c0.2-0.5,0.4-0.9,0.6-1.4
		c0.2-0.4,0.5-0.8,0.9-1.2c0.3-0.4,0.7-0.7,1.1-0.9c0.4-0.2,0.8-0.4,1.3-0.5c0.8,0,1.4,0.1,1.9,0.3c0.5,0.3,0.9,0.6,1.2,1.1
		c0.3,0.5,0.5,1,0.7,1.6c0.2,0.6,0.3,1.2,0.5,1.8s0.3,1.3,0.4,1.9s0.4,1.2,0.7,1.7c-0.1,0.4-0.2,0.7-0.3,0.8
		c-0.1,0.2-0.2,0.2-0.4,0.1s-0.4-0.3-0.6-0.7C566,16.7,565.6,16.2,565.2,15.5z M559.4,14.8c0.1,0.6,0.3,1.1,0.5,1.3
		c0.3,0.3,0.7,0.3,1.3,0.3c0.5-0.1,0.9-0.2,1.3-0.4c0.4-0.2,0.7-0.5,1-0.8c0.3-0.3,0.5-0.7,0.6-1.1c0.1-0.4,0.2-0.9,0.1-1.4
		c0-0.2-0.1-0.5-0.1-0.8c0-0.4-0.1-0.7-0.2-1.1c-0.1-0.3-0.2-0.6-0.4-0.9c-0.2-0.2-0.4-0.3-0.7-0.3c-0.6,0.1-1.1,0.3-1.5,0.6
		c-0.4,0.4-0.8,0.8-1.1,1.3c-0.3,0.5-0.5,1-0.6,1.6S559.3,14.3,559.4,14.8z"/>
	<path d="M574.3,14.3c-0.2,0-0.5,0.1-0.7,0.2c-0.2,0.1-0.4,0.2-0.6,0.4s-0.4,0.2-0.6,0.4c-0.2,0.1-0.4,0.2-0.7,0.2
		c-0.5,0.1-0.9,0-1.3-0.1c-0.4-0.1-0.8-0.3-1.1-0.5c-0.3-0.2-0.6-0.6-0.8-0.9c-0.2-0.4-0.3-0.8-0.4-1.2c-0.1-0.6,0-1.1,0.1-1.6
		c0.2-0.4,0.4-0.8,0.8-1.1c0.3-0.3,0.8-0.5,1.2-0.7c0.5-0.2,1-0.3,1.5-0.4c0.6-0.1,1.1,0.1,1.6,0.3c0.5,0.3,1,0.7,1.4,1.2
		c0.4,0.5,0.8,1.1,1.2,1.7c0.4,0.7,0.7,1.3,0.9,2c0.3,0.7,0.5,1.4,0.6,2c0.2,0.7,0.3,1.2,0.3,1.8c0.1,0.5,0.1,0.9,0,1.3
		s-0.1,0.5-0.3,0.5c-0.3,0-0.5-0.1-0.7-0.3c-0.2-0.2-0.3-0.4-0.5-0.8c-0.1-0.3-0.2-0.6-0.3-1c-0.1-0.4-0.1-0.8-0.2-1.1
		c-0.1-0.4-0.1-0.7-0.2-1.1c-0.1-0.3-0.2-0.6-0.3-0.8s-0.2-0.4-0.4-0.4C574.8,14.1,574.5,14.1,574.3,14.3z M569.5,12.6
		c0,0.2,0.1,0.4,0.2,0.5c0.1,0.2,0.3,0.3,0.4,0.5c0.2,0.1,0.4,0.2,0.6,0.3c0.2,0.1,0.4,0.1,0.6,0.1c0.2,0,0.4-0.1,0.7-0.2
		s0.6-0.3,0.8-0.5c0.3-0.2,0.5-0.4,0.7-0.7c0.2-0.2,0.3-0.5,0.2-0.8c0-0.4-0.1-0.7-0.2-1c-0.1-0.3-0.2-0.5-0.3-0.6s-0.3-0.3-0.5-0.3
		c-0.2-0.1-0.5-0.1-0.8,0c-0.3,0-0.6,0.1-0.8,0.3s-0.5,0.4-0.8,0.6s-0.4,0.5-0.5,0.8C569.5,12,569.5,12.3,569.5,12.6z"/>
	<path d="M576.8,9.3c0-0.1,0-0.2,0-0.4c0-0.2,0-0.3-0.1-0.5c0-0.2,0-0.4-0.1-0.5c0-0.2,0-0.3,0-0.3c0.1-0.1,0.1-0.3,0.2-0.4
		c0.1-0.1,0.2-0.2,0.3-0.3c0.1-0.1,0.2-0.1,0.4-0.1s0.3,0.1,0.5,0.3l0,0.1l0,0.2c0,0.1,0,0.2,0,0.4c0,0.2,0,0.4,0,0.7
		c0,0.2,0,0.5,0,0.7c0,0.2,0,0.3,0,0.4c0,0.2,0.1,0.5,0.2,0.8c0.1,0.3,0.2,0.6,0.3,1c0.1,0.3,0.3,0.7,0.4,1c0.2,0.3,0.4,0.6,0.6,0.9
		c0.2,0.2,0.4,0.4,0.7,0.6c0.2,0.1,0.5,0.2,0.8,0.2c0.4,0,0.6-0.2,0.9-0.4c0.2-0.2,0.4-0.5,0.6-0.8c0.2-0.3,0.3-0.7,0.4-1.1
		c0.1-0.4,0.1-0.8,0.2-1.2c0-0.4,0-0.8,0-1.1c0-0.4,0-0.7-0.1-0.9c0-0.3-0.1-0.5-0.2-0.7c-0.1-0.2-0.1-0.5-0.2-0.7
		c-0.1-0.2-0.2-0.4-0.2-0.7s-0.1-0.4-0.1-0.7c0-0.2,0-0.4,0.2-0.5c0.1-0.1,0.3-0.2,0.5-0.2c0.2,0,0.4,0,0.6,0.1
		c0.2,0.1,0.3,0.3,0.4,0.5s0.2,0.4,0.3,0.7c0.1,0.3,0.1,0.5,0.1,0.8c0,0.3,0.1,0.5,0.1,0.8s0,0.4,0.1,0.6c0,0.4,0.1,0.8,0.1,1.3
		c0,0.5,0,1-0.1,1.5c-0.1,0.5-0.2,1-0.3,1.5s-0.3,1-0.6,1.4c-0.2,0.4-0.5,0.8-0.9,1s-0.8,0.5-1.2,0.5c-0.5,0.1-0.9,0-1.3-0.2
		c-0.4-0.2-0.8-0.5-1.1-0.8c-0.3-0.4-0.6-0.8-0.8-1.2c-0.2-0.5-0.4-0.9-0.6-1.4s-0.3-1-0.4-1.4C577,10,576.9,9.6,576.8,9.3z"/>
	<path d="M585.5,2.4c0.2,0.1,0.4,0.2,0.6,0.4c0.2,0.2,0.3,0.3,0.3,0.5s-0.1,0.3-0.3,0.4c-0.2,0.1-0.6,0.1-1.2,0c0-0.3,0-0.6,0.1-0.8
		C585,2.6,585.2,2.4,585.5,2.4z M586.1,8.6c0-0.1,0-0.2,0-0.3c0-0.1,0-0.3,0-0.5s0-0.3,0-0.5c0-0.2,0-0.3,0-0.3
		c0.1-0.2,0.2-0.4,0.4-0.5c0.2-0.1,0.4-0.2,0.5-0.3c0.1,0.6,0.3,1.2,0.5,1.9c0.2,0.6,0.5,1.3,0.8,2s0.5,1.3,0.7,1.9
		c0.2,0.6,0.4,1.2,0.5,1.8c0.1,0.5-0.2,0.8-0.7,0.8c-0.3,0-0.6-0.1-0.8-0.3c-0.2-0.2-0.5-0.5-0.6-0.9c-0.2-0.4-0.3-0.8-0.5-1.3
		c-0.1-0.5-0.3-0.9-0.3-1.4s-0.2-0.9-0.2-1.3C586.1,9.1,586.1,8.8,586.1,8.6z"/>
	<path d="M588.5,2c0.3-0.3,0.5-0.4,0.7-0.3c0.2,0.1,0.3,0.4,0.5,0.8c0.1,0.4,0.3,0.9,0.3,1.5c0.1,0.6,0.2,1.2,0.3,1.8
		c0.1,0.6,0.2,1.2,0.3,1.8c0.1,0.6,0.2,1,0.3,1.3c0,0.2,0,0.3,0,0.4c0,0.1,0,0.2-0.1,0.3c0,0.1-0.1,0.2-0.2,0.2
		c-0.1,0.1-0.3,0.1-0.5,0.1c0,0-0.1,0-0.1,0s-0.1-0.1-0.1-0.3c-0.1-0.2-0.1-0.4-0.2-0.7c-0.1-0.3-0.2-0.8-0.3-1.4
		c-0.1-0.6-0.2-1.4-0.4-2.3C588.8,4.4,588.6,3.3,588.5,2z M591.2,12.8c0.1,0,0.3,0,0.4,0.1c0.1,0.1,0.2,0.2,0.3,0.3s0,0.3-0.1,0.4
		c-0.1,0.2-0.3,0.3-0.7,0.5c-0.3,0-0.5,0-0.7-0.1c-0.1-0.1-0.2-0.2-0.3-0.3c0-0.1,0-0.2,0-0.4c0.1-0.1,0.1-0.2,0.2-0.3
		c0.1-0.1,0.2-0.2,0.3-0.2C591,12.7,591.1,12.7,591.2,12.8z"/>
</g>
</svg>
